<svg id="ffeab228-7f60-4855-ac5b-8062f78ca215" data-name="Слой 1" xmlns="http://www.w3.org/2000/svg" viewBox="0 0 393.25 212.69">
  <title>404</title>
  <g>
    <g>
      <ellipse cx="198.62" cy="209.75" rx="57.85" ry="2.94" fill="#011627" opacity="0.15"/>
      <path d="M193,197.46a27.79,27.79,0,0,1-1.42,4.83s18.11-2.95,22.08.64c3.05,2.76.14,6.35-3.73,6.35h-27.6s6.81-4.51,7.54-11.73" fill="#200544"/>
      <path d="M204.26,197.46a27.79,27.79,0,0,0,1.42,4.83s-18.11-2.95-22.08.64c-3.05,2.76-.14,6.35,3.73,6.35h27.6s-6.81-4.51-7.54-11.73" fill="#200544"/>
    </g>
    <g>
      <path d="M232.3,60.64a3.44,3.44,0,0,1-2.88-1.55c-1-1.59-4.14-2.73-2.55-3.77.2-.13,23.42-14.13,34.13-29.83,10.84-15.9,11.39-22,11.4-22.1A3.38,3.38,0,0,1,275.82,0a3.49,3.49,0,0,1,3.44,3.5c0,1.23-.61,8.27-12.59,25.85-11.49,16.85-30.59,34.49-31.44,35.05C234.65,64.79,232.94,60.64,232.3,60.64Z" fill="#200544"/>
      <path d="M256.69,39.74a3.42,3.42,0,0,1-1.93-.6c-15.88-10.81-11.71-28.27-11.52-29a3.44,3.44,0,0,1,6.68,1.66c-.14.57-3.12,13.61,8.72,21.66a3.44,3.44,0,0,1-1.94,6.28Z" fill="#200544"/>
      <path d="M273.35,25a14.75,14.75,0,0,1-6.77-1.41,3.44,3.44,0,0,1,3.27-6.05c.4.19,7.23,3.26,18.42-6.22a3.44,3.44,0,1,1,4.45,5.25C284.7,23.38,278,25,273.35,25Z" fill="#200544"/>
      <path d="M174.81,64c-.65,0-6.18-.67-6.76-1A157,157,0,0,1,140.44,32.7c-12-17.58-12.59-24.62-12.59-25.85a3.44,3.44,0,0,1,6.88,0h0s.61,6.16,11.39,22,33.76,27.56,34,27.69c1.59,1-1.35,4.32-2.39,5.91A3.44,3.44,0,0,1,174.81,64Z" fill="#200544"/>
      <path d="M150.42,43.09a3.44,3.44,0,0,1-1.94-6.28c11.85-8.06,8.85-21.11,8.72-21.66a3.44,3.44,0,0,1,6.68-1.66c.19.74,4.36,18.21-11.52,29A3.42,3.42,0,0,1,150.42,43.09Z" fill="#200544"/>
      <path d="M136.27,27.59c-4.17,0-11.9-1.08-21.54-7.4a3.44,3.44,0,1,1,3.77-5.75c11.7,7.67,19.56,6.17,19.63,6.15a3.47,3.47,0,0,1,4.07,2.63,3.42,3.42,0,0,1-2.56,4.08A15.92,15.92,0,0,1,136.27,27.59Z" fill="#200544"/>
      <g>
        <path d="M293.45,93.81C287,123.42,259.7,131.41,256,133l1.88-12.5c24.61-6.86,30.55-28.2,30.55-28.2-2.16.09-9.21-2.54-7.8-5.83s8.27,2,8.27,2-4-7-.85-8.46,4.32,8,4.32,8,2.44-7.71,5.36-6.86-2.16,8.27-2.16,8.27,7.33-1.6,7.33,1.32S293.45,93.81,293.45,93.81Z" fill="#200544"/>
        <path d="M112.81,93.81s-9.49-.19-9.49-3.1,7.33-1.32,7.33-1.32-5.08-7.43-2.16-8.27S113.84,88,113.84,88s1.13-9.49,4.32-8-.85,8.46-.85,8.46,6.86-5.26,8.27-2-5.64,5.92-7.8,5.83c0,0,5.95,21.34,30.55,28.2l1.88,12.5C146.55,131.41,119.22,123.42,112.81,93.81Z" fill="#200544"/>
      </g>
      <path d="M256.91,88s-3-.89-1.43,2a23.63,23.63,0,0,1,2.18,5.79l-2.18-3s2.51,5.7,2.51,8l-2.35-4.72s-1.09,12.2,4.53,15a6.47,6.47,0,0,1-4.39-1.37s.06,3.44.84,4.81a1.89,1.89,0,0,1-1.73-1.42s1.12,4.39,3.52,5c0,0-2.07.53-4-1.9,0,0,2.57,4.57,2.35,6.17,0,0-2.46-3-4.41-2.67a4.35,4.35,0,0,1,1,3.5s-.56-2-2.35-1.9c0,0-10.23,16-15.82,18.46a21.36,21.36,0,0,0,3.63-6.35s-8.38,8.07-10.11,8.31c0,0-6-9.53-10.56-9.23s-12.85.12-13.69,0c0,0-.56,1.37,2.46,1.72a27.3,27.3,0,0,1-7.94-.71s-.39,1.13.45,1.54a14.91,14.91,0,0,0-5.7-2c-2.91-.24-6.59,9.29-8.49,8.52s-8.1-2.2-8.27-2.91a4.92,4.92,0,0,0,1,1.9s-3.35-1.84-4.69-3.74a26.5,26.5,0,0,0-3-3.44s.11,4.1,1.68,5.7c0,0-3-2.79-3.63-4.69l-5.59-4.63s2.51,4.16,3.8,4.75c0,0-2.24-.53-7-6.12l-2.07-2.73s.56,3.5,2,4.81c0,0-2.79-1.72-4.75-8a11.75,11.75,0,0,0,.39,4.87s-1.79-2.49-2.68-9.56a19.6,19.6,0,0,0-.89,4.87,41.79,41.79,0,0,1-1.17-6.89,11.84,11.84,0,0,0-2.46,3.62s.89-6.89,2.63-9.26c0,0-4.08,3.5-4.53,4.87a76.14,76.14,0,0,1,3.86-9.68,15.9,15.9,0,0,0,2-5.28s-2.12,2.32-4.25,2.37c0,0,4.64-3.92,5.48-7.42,0,0-4,4.39-6,4.63,0,0,6.43-7.18,6.76-11.76,0,0-4.15,2.4-4.88,3.06,0,0,5.18-4.81,3.34-5.52s4.61-9.94,7.29-12.74c0,0-4.32,3.47-6.29,3,0,0,6.16-4,7-5.83,0,0-2.43,2.09-4.36,1.91,0,0,5.24-4.19,6.16-6.37S163.07,63,163.07,63s-2.6.89-4,.4c0,0,4.95-1.29,5.53-2.85a15.92,15.92,0,0,1,2.89-3.87s-6.33,2.72-9.47,2c0,0,4-1,6-2.72s4.53-3.65,4.53-3.65-3.81.62-5.7.8-5.41.45-7.25-1.11c0,0,6.75.76,9.43-.71a40.27,40.27,0,0,1,7.38-2.67s-7.13-1.78-10.31-1.25c0,0,5.66-1.69,9.93-.8,0,0-7.33-2.4-10.14-2.49,0,0,5-1.25,8.89,0a16.66,16.66,0,0,1,8.38-1.6s-5.76-3.92-9.75-4.5c0,0,6.32.09,10.72,2.32,0,0-4.4-5-8.8-5.21,0,0,7.38.13,11.61,5l1.68,1.6s2.72-5.21,6-6.5c0,0-3.1,4.19-3.35,6.41,0,0,6.41-8.46,13.66-9.26,0,0-6.16,3.38-8.51,6.9,0,0,6-5.3,13.62-4.32,0,0-8.09,1.56-10.23,6.14-.16.34,14-4.16,18.22-7.36,0,0-4,4-7.15,5.11,0,0,10.92-.59,16-4.16,0,0-4.9,4.63-8.81,5.46,0,0,8.27-.12,10.84-1.07a22.16,22.16,0,0,1-5.17,2.46s20.79-.53,27.75,5.25c0,0-9.16-1.69-14.74-1.28l-.43,0s9.22,2.67,12.83,3a27,27,0,0,1-5.45,1.16l10.06,7.12-11.4-5.7s8.8,10.42,13.33,11.4a16.73,16.73,0,0,1-6.29-1.16s8.72,7.93,10.9,9a23.06,23.06,0,0,1-7-2.85s6.71,6.41,9.39,7.48A30.7,30.7,0,0,1,252.13,72s-.17,2.58,3.1,4.1l-1.93.53a19.4,19.4,0,0,1,3.6,2.76L253,78.9l6,3.74-4.19,1.07,1.68,1.42-2.26.45Z" fill="#200544"/>
      <path d="M259.46,133.38c0,27.36,0,18.19,0,45.56,0,11-7.59,18.53-18.62,18.53H165c-11.07,0-18.62-7.46-18.62-18.51,0-54.65,0-52,0-106.62,0-10.55,7.52-18.1,18.07-18.11q38.48-.06,77,0c10.46,0,17.9,7.36,18,17.9s0,12.22,0,22.9c0,16.68,0,21.7,0,38.39Z" fill="#200544"/>
      <circle cx="201.96" cy="110.85" r="15.43" fill="#e2e1e6"/>
      <path d="M202.58,120.76c13.1.65,15.08-11.58,15.52-13.11l-3.86-8-7-4.25H196.15s0-4.29-3.67,2S187.54,120,202.58,120.76Z" fill="#fbfbfb"/>
      <path d="M202,106.42a4.63,4.63,0,0,0-.47,0,3.11,3.11,0,0,1-4.21,4.32c0,.12,0,.23,0,.35a4.72,4.72,0,1,0,4.72-4.72Z" fill="#4a4a48"/>
      <path d="M202,95.42a15.43,15.43,0,1,1-15.43,15.43A15.43,15.43,0,0,1,202,95.42m0-4.57a20,20,0,1,0,20,20,20,20,0,0,0-20-20Z" fill="#f73d6e"/>
      <path d="M214.94,102.51a15.41,15.41,0,0,0-25.95,0Z" fill="#bc0d4d"/>
      <g>
        <path d="M226.47,164.45s-28.81,1.05-37.53,2-15.77.63-13.56-7.36,12.43-15.77,29.08-15.56,26.46,5.11,28.63,15.14C234.46,165,226.47,164.45,226.47,164.45Z" fill="#000a33"/>
        <path d="M183.17,168.19c-4.31,0-7-.89-8.44-2.8-1.22-1.6-1.45-3.85-.67-6.66,2.28-8.25,12.36-16.56,29.73-16.56h.68c17.59.22,27.67,5.68,29.95,16.21a5.66,5.66,0,0,1-.92,5c-1.8,2.23-5.21,2.47-6.59,2.47h-.53c-.15,0-28.72,1.06-37.3,2A55.59,55.59,0,0,1,183.17,168.19Zm20.63-23.29c-15.86,0-25.16,7.55-27.1,14.56-.54,2-.47,3.39.21,4.28.87,1.14,3,1.72,6.27,1.72a52.61,52.61,0,0,0,5.62-.37c8.67-.94,36.45-2,37.63-2h.49c1.59,0,3.6-.38,4.47-1.46a3.05,3.05,0,0,0,.38-2.68c-2-9.13-11.17-13.86-27.32-14.06Z" fill="#42a2a0"/>
      </g>
      <path d="M192.41,165.29s-1.58-11.35,5-11.88,7,11.88,7,11.88Z" fill="#fff"/>
      <path d="M218.91,164.75s1.46-10.49-5.69-10.39-7.66,7.11-8.12,10.39Z" fill="#fff"/>
      <path d="M183.17,168.64c-2.81,0-6.77-.31-8.8-3-1.31-1.72-1.56-4.1-.74-7.06,2.32-8.41,12.56-16.9,30.17-16.9h.69c17.83.22,28.06,5.8,30.39,16.57a6.1,6.1,0,0,1-1,5.35c-2.19,2.72-6.62,2.66-7.4,2.63-1.69.06-29,1.08-37.32,2A55.64,55.64,0,0,1,183.17,168.64Zm20.63-23.29c-15.62,0-24.77,7.37-26.66,14.23-.5,1.81-.45,3.12.13,3.89.78,1,2.77,1.54,5.91,1.54a52.1,52.1,0,0,0,5.57-.36c8.69-.94,36.48-2,37.66-2h.51c1.49,0,3.35-.34,4.11-1.29.15-.19.62-.77.29-2.3-1.93-8.89-11-13.5-26.88-13.7Z" fill="#f73d6e"/>
      <rect x="158.3" y="71.47" width="89.44" height="113.44" rx="9.22" ry="9.22" fill="none" stroke="#f2f2f2" stroke-miterlimit="10" stroke-width="3"/>
      <circle cx="201.96" cy="57.89" r="4.72" fill="#f73d6e" stroke="#f2f2f2" stroke-miterlimit="10" stroke-width="3"/>
      <g>
        <path d="M164.85,125a10.7,10.7,0,0,0,.62-3.18l1.47,1.3-.46-6.26,2.2.89s-.59-13.95-9.61-15.31c0,0-.81-1.46.32-1.54a5.48,5.48,0,0,0-3.65-1.34s-.07-1.82,1.15-2c0,0-4.65-.72-5.93.29l.34-1.65-3.11.51-.24-1.44s-4.19.92-5.39,2.6a5.68,5.68,0,0,1-.4-2.45s-1.62,1.75-1.49,3.33c0,0-2.31-.76-2.51-2.67a4.77,4.77,0,0,0-1.65,3.81s-2,.11-2.7-1.15a6.3,6.3,0,0,0-.82,4.7,7.79,7.79,0,0,1-4-.82,9.89,9.89,0,0,0,.53,3.22s-2.5,2.13-2.32,3.92c0,0-.73,4.57-.08,5.72l.74-1s-.42,6.81.44,8.72l1.14-.53s-.32,5,.7,6.28l.5-1.11s2.74-.68,3.35,1.62,4.14,7.08,9.49,7,6.24.45,6.24.45l-1.46-2.61s6.48-.39,8.78.15l-1-2.34,2.93-.26.08-1.61,3.24-.42.08-2.3,2.67-.44Z" fill="#89e5e5"/>
        <path d="M152.86,106.08s.09,3.42-1.79,5.28l1.89,1.23L150.08,117l3.08,1.06a83.57,83.57,0,0,1-6.73,5.57l2.92.29s-6.27,6.14-14,3.55c0,0,5.3,3.84,11.61,1.76a5.47,5.47,0,0,1-2.9,3.22s6.4-.55,9.81-4.78a2,2,0,0,1,.69,2.46s3.77-3.73,4.29-6.62c0,0,1.45.67,1.39,1.58,0,0,2.42-3.94,1.64-6.05l2.57,1s.09-5.31-1.61-6.42-2.48-.53-2.48-.53l.81-3.1-2.45.16-.3-2.75-1.41,2.17-1.32-3.14Z" fill="#fdf9f6" opacity="0.5"/>
        <path d="M155.87,80.74s-3.87-9.5,2.3-14.11c0,0,7.52-1,2.61,6.57Z" fill="#89e5e5"/>
        <path d="M148.54,139.75s6.41,8,1.81,14.19c0,0-6.93,3.07-4.37-5.56Z" fill="#89e5e5"/>
        <path d="M127.59,133.59s-6.57.61-7.38,5.51c0,0,1.68,4.58,4.53-.46Z" fill="#89e5e5"/>
        <path d="M145.1,89s1.34-10.17-5.8-13.07c0,0-7.52,1-.86,7Z" fill="#89e5e5"/>
        <circle cx="160.96" cy="90.77" r="3.83" transform="translate(-10.27 21.29) rotate(-7.33)" fill="#89e5e5"/>
        <circle cx="135.69" cy="142.28" r="2.53" fill="#89e5e5"/>
        <circle cx="170.54" cy="132.52" r="3.2" fill="#89e5e5"/>
      </g>
      <path d="M0,143.33,59.23,56.89H88.56v81h17.75v20.64H88.56v35.31H64.06V158.57H0Zm64.06-5.4V95.48a131.34,131.34,0,0,1,1-14.28h-.39a79.5,79.5,0,0,1-6.75,12.54l-31.64,43.8v.39Z" fill="#092444"/>
      <path d="M286.94,143.33l59.23-86.44H375.5v81h17.75v20.64H375.5v35.31H351V158.57H286.94Zm64.06-5.4V95.48a131.34,131.34,0,0,1,1-14.28h-.39a79.5,79.5,0,0,1-6.75,12.54l-31.64,43.8v.39Z" fill="#092444"/>
    </g>
  </g>
</svg>
