<svg id="070e2e17-cf22-4efa-b858-9aa9df785102" data-name="Слой 1" xmlns="http://www.w3.org/2000/svg" viewBox="0 0 76 76" width="76px" height="76px">
  <title>advantages-1</title>
  <circle cx="38" cy="38" r="38" style="fill: #fff"/>
  <g>
    <path d="M24.9,54.2a13.54,13.54,0,0,1,.8-4c0.8-2.8,1.7-5.5,2.5-8.3a0.62,0.62,0,0,0-.2-0.7c-2.1-1.6-4.3-3.2-6.4-4.8a6.47,6.47,0,0,1-.9-0.8,1.49,1.49,0,0,1-.1-2.2,3.22,3.22,0,0,1,2-1.2c2.3-.4,4.6-0.8,6.9-1.1a0.75,0.75,0,0,0,.7-0.6c1.1-3.1,2.2-6.3,3.3-9.4A5.71,5.71,0,0,1,34.8,19a2.64,2.64,0,0,1,3.9.2,6.15,6.15,0,0,1,1.2,1.9c1.4,2.6,2.7,5.2,4,7.9a0.6,0.6,0,0,0,.7.4l10.7-1.2h0.5a1.75,1.75,0,0,1,1.7,2.7,6,6,0,0,1-.9,1.3,23.91,23.91,0,0,1-2.3,2.2A45.2,45.2,0,0,0,49.2,40a0.66,0.66,0,0,0-.1.6c1,4.1,2,8.1,3,12.2a5.86,5.86,0,0,1,.1,2.3,2,2,0,0,1-2.8,1.8,9.43,9.43,0,0,1-2.3-1c-2.8-1.8-5.5-3.7-8.3-5.6a0.6,0.6,0,0,0-.7,0c-3,2.1-6,4.2-8.9,6.2a2.89,2.89,0,0,1-3.1.1A2.21,2.21,0,0,1,24.9,54.2Zm25.6-.3c-0.1-.9-0.2-1.6-1.1-1.9-0.3-.1-0.5-0.3-0.8-0.4-0.9-.4-1.7-0.9-2.6-1.3a0.55,0.55,0,0,1-.3-0.8c0.2-.4.4-0.1,0.6,0l3,1.5a2,2,0,0,0,.6.2,9.44,9.44,0,0,0-.3-0.9A2,2,0,0,0,48.5,49c-1-.4-2-0.9-3.1-1.4-0.5-.2-0.6-0.5-0.3-1.1,1.3,0.6,2.6,1.2,4,1.8-0.2-.8-0.3-1.5-1.2-1.8a29.17,29.17,0,0,1-3.1-1.4c-0.7-.3-0.7-0.4-0.5-1.2,1.4,0.6,2.7,1.2,4.1,1.8a8.34,8.34,0,0,0-.4-1.2,1.27,1.27,0,0,0-.7-0.9c-1.1-.5-2.1-1-3.2-1.5-0.5-.2-0.5-0.4-0.3-0.9,1.2,0.6,2.5,1.1,3.8,1.7a1.57,1.57,0,0,0-.9-1.4c-1-.4-2-0.9-3-1.4-0.2-.1-0.5-0.2-0.3-0.5a0.48,0.48,0,0,1,.7-0.2c0.7,0.3,1.4.7,2.2,1a2.51,2.51,0,0,1,.7.4h0.1c-0.4-.7.2-1.2,0.4-1.7l-3-1.5c0.3-.9.3-0.9,1.1-0.5l2.1,1.2a0.3,0.3,0,0,0,.4,0,6.47,6.47,0,0,0,.9-0.8c-0.9-.6-1.7-1.2-2.6-1.8a0.77,0.77,0,0,1,1.2-.2c0.7,0.5,1.3,1,2,1.5l0.8-.8c-0.7-.5-1.3-1-1.9-1.5-0.4-.3-0.4-0.5.1-0.7a0.66,0.66,0,0,1,.6.1c0.6,0.4,1.2.9,1.9,1.4a6.47,6.47,0,0,1,.9-0.8c0.2-.2.2-0.3,0-0.5s-0.5-.3-0.7-0.5-0.7-.4-1-0.6c0.4-.5.6-0.6,1.1-0.3s0.9,0.6,1.5.9l0.8-.8a15.05,15.05,0,0,1-1.7-1c1-.7,1.5.2,2.3,0.4,0.3-.2.5-0.5,0.9-0.8-0.5-.3-1-0.5-1.4-0.8,0.6-.6.6-0.6,1.2-0.2,0.3,0.2.5,0.3,0.9,0.6a3.55,3.55,0,0,0,.4-0.9,1,1,0,0,0-.6-0.5,0.55,0.55,0,0,0-.4,0,31.06,31.06,0,0,0-3.2.4l-8.3,1.2a0.81,0.81,0,0,1-.9-0.4c-0.3-.5-0.5-1-0.8-1.5-1-2.1-2-4.2-3.1-6.3a22,22,0,0,0-1.7-2.5c-0.4-.5-0.7-0.5-1.1.1a6.92,6.92,0,0,0-1,1.9c-1.1,3.2-2.3,6.4-3.3,9.6a1.29,1.29,0,0,1-1.3,1.1c-1.8.2-3.6,0.5-5.4,0.7a20.48,20.48,0,0,0-2.4.5c-0.5.1-.6,0.3-0.2,0.7s0.8,0.7,1.2,1c2.1,1.6,4.2,3.3,6.3,4.9a0.93,0.93,0,0,1,.3,1.2c-0.8,2.4-1.6,4.8-2.4,7.3-0.4,1.5-.7,3-1,4.6s0.6,1.8,1.7,1.1,2.4-1.6,3.5-2.4c2-1.4,3.9-2.9,5.9-4.4a0.91,0.91,0,0,1,1.2,0c1.9,1.3,3.7,2.6,5.6,3.9,1.5,1,3.1,2,4.6,3.1a0.79,0.79,0,0,0,1.2-.3c-0.2-.1-0.4-0.3-0.6-0.4-1-.6-2-1.1-3.1-1.7a5.58,5.58,0,0,1-.8-0.5,0.75,0.75,0,0,1-.1-0.5,4.33,4.33,0,0,0,.5-0.1c0.5,0.3,1.1.6,1.6,0.9A5.27,5.27,0,0,1,50.5,53.9Z" style="fill: #092444"/>
    <path d="M51.6,15.7a3.4,3.4,0,0,1,2.7,1.9,0.55,0.55,0,0,1-.2.5c-0.8.9-1.6,1.8-2.4,2.6a38.33,38.33,0,0,1-2.9,2.8,0.62,0.62,0,0,1-.4.3,1.27,1.27,0,0,1-.6-0.1,0.48,0.48,0,0,1-.1-0.5c1-2.4,2-4.7,3-7.1A0.8,0.8,0,0,1,51.6,15.7Zm1.6,2.1c-0.5-.3-0.8-0.5-1.2-0.7s-0.6-.2-0.8.2a24.37,24.37,0,0,1-1.4,2.8c-0.1.3-.3,0.6-0.4,0.9l0.1,0.1C50.8,20,51.9,18.9,53.2,17.8Z" style="fill: #092444"/>
    <path d="M17.9,45.6a1.23,1.23,0,0,1,.5-1c1.7-.9,3.5-1.9,5.2-2.8a0.83,0.83,0,0,1,1.1.6,1.1,1.1,0,0,1-.2,1.3c-1.3,1.5-2.5,3-3.8,4.5-0.5.5-.6,0.5-1.2,0.1a12.67,12.67,0,0,1-1.3-1.1,9.14,9.14,0,0,1-.7-1.4A0.7,0.7,0,0,0,17.9,45.6Zm2.3,1.8a0.2,0.2,0,0,1,.2-0.1c1.1-1.3,2.3-2.5,3.4-3.8a0.75,0.75,0,0,0,.1-0.5,0.53,0.53,0,0,0-.4,0c-1.4.7-2.7,1.4-4.1,2.1a0.52,0.52,0,0,0-.3.7A4.19,4.19,0,0,0,20.2,47.4Z" style="fill: #092444"/>
    <path d="M58.7,44.5a3.33,3.33,0,0,1-.9,2.1,0.61,0.61,0,0,1-.8.1c-1.6-.9-3.2-1.8-4.7-2.7a0.8,0.8,0,0,1-.2-1.2c0.2-.6.4-0.7,0.9-0.6,1.7,0.4,3.4.8,5.1,1.3C58.6,43.5,58.7,43.8,58.7,44.5Zm-5.2-1.2,0.1,0.2A12.38,12.38,0,0,0,57,45.7h0.3a1,1,0,0,0-.2-1.5c-0.9-.3-1.8-0.5-2.6-0.8A3.08,3.08,0,0,0,53.5,43.3Z" style="fill: #092444"/>
    <path d="M26.8,27.9a28.77,28.77,0,0,1-2.7-2.2c-0.9-.8-1.9-1.6-2.8-2.4-0.6-.5-0.6-0.6,0-1.2A7.55,7.55,0,0,1,22.7,21a0.68,0.68,0,0,1,1,.1,24.65,24.65,0,0,1,3.4,5.6A1.14,1.14,0,0,1,26.8,27.9ZM22,22.6l4,3.7,0.1-.1c-0.9-1.2-1.7-2.5-2.6-3.7-0.6-.8-0.8-0.8-1.5-0.1C22.1,22.5,22.1,22.5,22,22.6Z" style="fill: #092444"/>
    <path d="M40.2,59c0,1.3.2,1.1-1,1.2a6.53,6.53,0,0,1-1.4,0c-0.6,0-.7-0.2-0.6-0.7,0.2-1.5.4-3.1,0.6-4.6a0.37,0.37,0,0,1,.1-0.3,4.65,4.65,0,0,1,.3-0.9,6.75,6.75,0,0,1,1.4.2,0.7,0.7,0,0,1,.2.4c0,0.2.1,0.4,0.1,0.6C40,56.3,40.1,57.8,40.2,59Zm-2,.1a4.33,4.33,0,0,1,.5.1c0.6,0.1.7,0,.6-0.6s-0.1-1.2-.1-1.8a9.85,9.85,0,0,0-.2-1.7,0.53,0.53,0,0,0-.2-0.3,0.38,0.38,0,0,0-.2.2A28.45,28.45,0,0,1,38.2,59.1Z" style="fill: #092444"/>
    <path d="M33.4,29.4c0.7-1.9,1.4-3.7,2.1-5.6,0.8,0.2.8,0.3,0.6,0.9-0.4,1.4-.9,2.8-1.3,4.2C34.6,29.6,34.2,29.8,33.4,29.4Z" style="fill: #092444"/>
  </g>
  <path d="M50.4,53.9c-0.1-.9-0.2-1.6-1.1-1.9-0.3-.1-0.5-0.3-0.8-0.4-0.9-.4-1.7-0.9-2.6-1.3a0.55,0.55,0,0,1-.3-0.8c0.2-.4.4-0.1,0.6,0l3,1.5a2,2,0,0,0,.6.2,9.44,9.44,0,0,0-.3-0.9A2,2,0,0,0,48.4,49c-1-.4-2-0.9-3.1-1.4-0.5-.2-0.6-0.5-0.3-1.1,1.3,0.6,2.6,1.2,4,1.8-0.2-.8-0.3-1.5-1.2-1.8a29.17,29.17,0,0,1-3.1-1.4c-0.7-.3-0.7-0.4-0.5-1.2,1.4,0.6,2.7,1.2,4.1,1.8a8.34,8.34,0,0,0-.4-1.2,1.27,1.27,0,0,0-.7-0.9c-1.1-.5-2.1-1-3.2-1.5-0.5-.2-0.5-0.4-0.3-0.9,1.2,0.6,2.5,1.1,3.8,1.7a1.57,1.57,0,0,0-.9-1.4c-1-.4-2-0.9-3-1.4-0.2-.1-0.5-0.2-0.3-0.5a0.48,0.48,0,0,1,.7-0.2c0.7,0.3,1.4.7,2.2,1a2.51,2.51,0,0,1,.7.4H47c-0.4-.7.2-1.2,0.4-1.7l-3-1.5c0.3-.9.3-0.9,1.1-0.5l2.1,1.2a0.3,0.3,0,0,0,.4,0,6.47,6.47,0,0,0,.9-0.8c-0.9-.6-1.7-1.2-2.6-1.8a0.77,0.77,0,0,1,1.2-.2c0.7,0.5,1.3,1,2,1.5l0.8-.8c-0.7-.5-1.3-1-1.9-1.5-0.4-.3-0.4-0.5.1-0.7a0.66,0.66,0,0,1,.6.1c0.6,0.4,1.2.9,1.9,1.4a6.47,6.47,0,0,1,.9-0.8c0.2-.2.2-0.3,0-0.5s-0.5-.3-0.7-0.5-0.7-.4-1-0.6c0.4-.5.6-0.6,1.1-0.3s0.9,0.6,1.5.9l0.8-.8a15.05,15.05,0,0,1-1.7-1c1-.7,1.5.2,2.3,0.4,0.3-.2.5-0.5,0.9-0.8-0.5-.3-1-0.5-1.4-0.8,0.6-.6.6-0.6,1.2-0.2,0.3,0.2.5,0.3,0.9,0.6a3.55,3.55,0,0,0,.4-0.9,1,1,0,0,0-.6-0.5,0.55,0.55,0,0,0-.4,0,31.06,31.06,0,0,0-3.2.4l-8.3,1.2a0.81,0.81,0,0,1-.9-0.4c-0.3-.5-0.5-1-0.8-1.5-1-2.1-2-4.2-3.1-6.3a22,22,0,0,0-1.7-2.5c-0.4-.5-0.7-0.5-1.1.1a6.92,6.92,0,0,0-1,1.9c-1.1,3.2-2.3,6.4-3.3,9.6a1.29,1.29,0,0,1-1.3,1.1c-1.8.2-3.6,0.5-5.4,0.7a20.48,20.48,0,0,0-2.4.5c-0.5.1-.6,0.3-0.2,0.7s0.8,0.7,1.2,1c2.1,1.6,4.2,3.3,6.3,4.9a0.93,0.93,0,0,1,.3,1.2c-0.8,2.4-1.6,4.8-2.4,7.3-0.4,1.5-.7,3-1,4.6s0.6,1.8,1.7,1.1,2.4-1.6,3.5-2.4c2-1.4,3.9-2.9,5.9-4.4a0.91,0.91,0,0,1,1.2,0c1.9,1.3,3.7,2.6,5.6,3.9,1.5,1,3.1,2,4.6,3.1a0.79,0.79,0,0,0,1.2-.3c-0.2-.1-0.4-0.3-0.6-0.4-1-.6-2-1.1-3.1-1.7a5.58,5.58,0,0,1-.8-0.5,0.75,0.75,0,0,1-.1-0.5,4.33,4.33,0,0,0,.5-0.1c0.5,0.3,1.1.6,1.6,0.9A4.84,4.84,0,0,1,50.4,53.9Z" style="fill: #ff3371"/>
</svg>
