<svg id="10daf32c-827d-4c63-b100-72aba7fb19af" data-name="Слой 1" xmlns="http://www.w3.org/2000/svg" viewBox="0 0 76 76" width="76px" height="76px">
  <title>advantages-2</title>
  <g>
    <circle cx="38" cy="38" r="38" style="fill: #fff"/>
    <path d="M55.7,36.1a16.24,16.24,0,0,0-.2-1.8c-0.1-.6-0.3-1.2-0.4-1.8-1.3-4.2-4.3-6.3-8.7-5.8a57.24,57.24,0,0,0-5.7,1.1,6.31,6.31,0,0,1-3.6-.1c-1-.4-1.9-0.8-2.9-1.2a6,6,0,0,0-5.4.2,11.23,11.23,0,0,0-4.1,4,15.17,15.17,0,0,0-2.6,9.2,44.63,44.63,0,0,0,1.6,9,15.66,15.66,0,0,0,2.7,5.3,6.21,6.21,0,0,0,3.4,2,9.75,9.75,0,0,0,5.6-.5,4.41,4.41,0,0,1,3.2,0,20,20,0,0,1,2.6,1,5,5,0,0,0,5.1-.7l2.1-1.8a30,30,0,0,0,5.4-9.1A22,22,0,0,0,55.7,36.1Z" style="fill: #00a300"/>
    <g>
      <path d="M37.9,26c0.1-.3.1-0.5,0.2-0.8-2.8-.1-4.3-2-5.8-4a3.79,3.79,0,0,1-.6-2.3V14.5a2.2,2.2,0,0,0-.1-0.8,0.53,0.53,0,0,1,.8-0.6c0.2,0.1.3,0.2,0.5,0.3a23.8,23.8,0,0,0,5.4,3.5,5.3,5.3,0,0,1,2.5,2.2c0.4-.5.7-1,1-1.4a1.42,1.42,0,0,1,1.6-.6,18.66,18.66,0,0,1,2.2.7c0.5,0.2.5,0.4,0.2,0.8a39.37,39.37,0,0,0-3.9,6.1c-0.2.5-.5,1-0.7,1.5A34,34,0,0,1,44.6,25a10.23,10.23,0,0,1,12.8,8.4,21.08,21.08,0,0,1-.5,8.3,30.61,30.61,0,0,1-8,14.9,6.91,6.91,0,0,1-4.2,2.2,10.88,10.88,0,0,1-3.6-.6,3.18,3.18,0,0,1-.9-0.3,9.7,9.7,0,0,0-5.6-.2,13.07,13.07,0,0,1-5.2.3,5.45,5.45,0,0,1-3.5-2,17,17,0,0,1-3.5-6.3,28.07,28.07,0,0,1-1.7-11.1,19.5,19.5,0,0,1,4.6-11.5,8.21,8.21,0,0,1,7.2-2.9c1.3,0.2,2.5.6,3.8,0.9A5.65,5.65,0,0,0,37.9,26ZM55.7,36.1a16.24,16.24,0,0,0-.2-1.8c-0.1-.6-0.3-1.2-0.4-1.8-1.3-4.2-4.3-6.3-8.7-5.8a57.24,57.24,0,0,0-5.7,1.1,6.31,6.31,0,0,1-3.6-.1c-1-.4-1.9-0.8-2.9-1.2a6,6,0,0,0-5.4.2,11.23,11.23,0,0,0-4.1,4,15.17,15.17,0,0,0-2.6,9.2,44.63,44.63,0,0,0,1.6,9,15.66,15.66,0,0,0,2.7,5.3,6.21,6.21,0,0,0,3.4,2,9.75,9.75,0,0,0,5.6-.5,4.41,4.41,0,0,1,3.2,0,20,20,0,0,1,2.6,1,5,5,0,0,0,5.1-.7l2.1-1.8a30,30,0,0,0,5.4-9.1A23.7,23.7,0,0,0,55.7,36.1ZM33,14.8a22.53,22.53,0,0,1,0,2.6,6.32,6.32,0,0,0,2.5,5.9,3.58,3.58,0,0,0,2.4.9,0.45,0.45,0,0,0,.4-0.3c0.5-1.1,1-2.3,1.5-3.4,0.3-.7.3-0.8-0.3-1.3-0.8-.5-1.6-1.1-2.4-1.5a13.4,13.4,0,0,1-3.7-2.5A1.4,1.4,0,0,1,33,14.8Zm11.6,4c-1-.7-1.7-0.8-2.2-0.1a19.94,19.94,0,0,0-3.7,7.6v0.4a1.11,1.11,0,0,0,1.6-.3,18.91,18.91,0,0,1,2.5-4.9A31.61,31.61,0,0,1,44.6,18.8Z" style="fill: #092444"/>
      <path d="M51.6,48c-0.1-.1-0.1-0.3-0.2-0.4-0.9-1.2-1.9-2.4-2.8-3.6-0.4-.5-0.3-0.8.2-1.3,0.2,0.2.3,0.4,0.5,0.6,0.8,1.1,1.6,2.3,2.5,3.4A1.08,1.08,0,0,1,51.6,48Z" style="fill: #092444"/>
      <path d="M27.2,31.9c-0.7,0-.8-0.2-0.6-0.7a6.77,6.77,0,0,1,4-3.6,0.9,0.9,0,0,1,.5.1,2.19,2.19,0,0,1-.3.5,1.47,1.47,0,0,1-.4.2,4.73,4.73,0,0,0-2.8,2.9A1.54,1.54,0,0,1,27.2,31.9Z" style="fill: #092444"/>
      <path d="M54.3,36.5c-0.1-.2-0.3-0.4-0.4-0.6C53,34.6,52,33.3,51.1,32a1.05,1.05,0,0,1,0-1.2c0.1,0,.1.1,0.2,0.1l3,4.5A0.78,0.78,0,0,1,54.3,36.5Z" style="fill: #092444"/>
      <path d="M50,50.6c-1-1.4-2-2.7-2.9-4-0.3-.4,0-0.7.3-1l0.2,0.2c0.9,1.2,1.8,2.5,2.7,3.7C50.5,49.8,50.4,50.1,50,50.6Z" style="fill: #092444"/>
      <path d="M50.4,37.1c0.2,0.4.5,0.7,0.7,1.1,0.7,1.2,1.5,2.4,2.2,3.6a0.78,0.78,0,0,1-.1,1l-0.3-.3c-0.9-1.4-1.9-2.8-2.8-4.2C49.8,37.6,49.9,37.5,50.4,37.1Z" style="fill: #092444"/>
      <path d="M52.3,44.6c-0.7-1-1.5-2-2.2-3a2.09,2.09,0,0,1-.4-0.6,0.93,0.93,0,0,1,0-1.3,0.38,0.38,0,0,1,.2.2c0.9,1.3,1.8,2.6,2.7,3.8A0.59,0.59,0,0,1,52.3,44.6Z" style="fill: #092444"/>
      <path d="M42.9,51.2a0.53,0.53,0,0,1,.3.2c0.7,1.2,1.4,2.4,2,3.6a0.3,0.3,0,0,1-.1.4,0.63,0.63,0,0,1-.6,0c-0.7-1.2-1.4-2.5-2.1-3.7C42.2,51.4,42.4,51.2,42.9,51.2Z" style="fill: #092444"/>
      <path d="M46.4,48c0.9,1.3,1.7,2.5,2.6,3.8,0.3,0.4,0,.6-0.4.8a3,3,0,0,1-.5-0.7c-0.7-1-1.3-1.9-2-2.9C45.7,48.5,45.7,48.4,46.4,48Z" style="fill: #092444"/>
      <path d="M40.8,51.9a0.53,0.53,0,0,1,.3.2c0.7,1,1.3,2,2,3a0.49,0.49,0,0,1-.1.7c-0.3.2-.5,0-0.7-0.3-0.6-1-1.3-2-1.9-3C40.1,52.2,40.3,51.9,40.8,51.9Z" style="fill: #092444"/>
      <path d="M45,50.1c0.1,0.1.2,0.1,0.3,0.2,0.6,1.1,1.3,2.1,1.9,3.2a0.7,0.7,0,0,1-.1.6,2.57,2.57,0,0,1-.5-0.2c-0.7-1-1.4-2-2-3C44.3,50.5,44.5,50.2,45,50.1Z" style="fill: #092444"/>
      <path d="M51,34.5L53.7,39c0.1,0.2,0,.4.1,0.6H53.6a14.63,14.63,0,0,1-.9-1.3c-0.6-.8-1.1-1.6-1.8-2.4A0.9,0.9,0,0,1,51,34.5Z" style="fill: #092444"/>
      <path d="M51.8,28.3c0.7,1,1.3,1.9,1.9,2.8a1.49,1.49,0,0,1-.1.6H53.4c-0.6-.8-1.3-1.6-1.9-2.5C51.2,28.9,51.4,28.6,51.8,28.3Z" style="fill: #092444"/>
      <path d="M38.2,52.5a0.43,0.43,0,0,1,.3.3c0.2,0.3.3,0.7,0.5,1a0.42,0.42,0,0,1-.3.6c-0.3.2-.4-0.1-0.5-0.3a6.12,6.12,0,0,1-.5-1.2C37.6,52.6,37.8,52.5,38.2,52.5Z" style="fill: #092444"/>
    </g>
    <path d="M33,14.9a22.53,22.53,0,0,1,0,2.6,6.32,6.32,0,0,0,2.5,5.9,3.58,3.58,0,0,0,2.4.9,0.45,0.45,0,0,0,.4-0.3c0.5-1.1,1-2.3,1.5-3.4,0.3-.7.3-0.8-0.3-1.3-0.8-.5-1.6-1.1-2.4-1.5a13.4,13.4,0,0,1-3.7-2.5Z" style="fill: #00a300"/>
  </g>
</svg>
