<svg id="bdb5447e-38c1-4ba5-89ed-9bded9c20ecd" data-name="Слой 1" xmlns="http://www.w3.org/2000/svg" viewBox="0 0 76 76" width="76px" height="76px">
  <title>advantages-3</title>
  <g>
    <circle cx="38" cy="38" r="38" style="fill: #fff"/>
    <path d="M48.5,27.1c0.9,0.5,1.7,1,2.6,1.6a4.17,4.17,0,0,0-.2-0.6,12.36,12.36,0,0,0-3.2-5.4,26.39,26.39,0,0,0-5-3.8,3.23,3.23,0,0,1-1.8-2.7c0-.1-0.1-0.3-0.1-0.4-0.7.2-1.1,1.4-2.1,0.7a11.21,11.21,0,0,0-.5,1.3,2.1,2.1,0,0,1-1.3,1.3,20.29,20.29,0,0,0-2.6,1.1,5.25,5.25,0,0,0-2.2,1.7c-1.2,1.5-2.4,3-3.5,4.6A16.9,16.9,0,0,0,26,31.9c-0.7,3-.1,6.4,3.9,7.9A26.66,26.66,0,0,0,43,41.3c0.8-.1,1.5-0.3,2.4-0.5-0.4-.4-0.6-0.7-0.9-1a1.51,1.51,0,0,1,.4-0.4c0.4,0.3.7,0.7,1.1,1a0.76,0.76,0,0,0,.4.2c0.5-.1.9-0.2,1.5-0.3-0.6-.7-1.2-1.4-1.8-2a2.09,2.09,0,0,1,.6-0.4,10,10,0,0,1,1,1.1c0.9,1,.9,1,2,0.2h0c0.3-.2.3-0.4,0.1-0.6l-1.2-1.2a10.59,10.59,0,0,0-1.2-1c0.4-.7.4-0.7,0.9-0.2l0.3,0.3c0.7,0.6,1.3,1.2,2,1.9,0.2-.4.4-0.9,0.6-1.3a0.47,0.47,0,0,0-.1-0.6c-0.7-.7-1.5-1.3-2.2-2-0.5-.5-0.5-0.6.1-1,0.8,0.8,1.7,1.5,2.6,2.3,0.1-.5.2-0.9,0.3-1.3a0.86,0.86,0,0,0-.4-1c-0.8-.6-1.5-1.2-2.3-1.7a0.8,0.8,0,0,1-.3-1.1c1,0.7,2,1.4,3.1,2.3a16.25,16.25,0,0,1-.4-1.9,1.26,1.26,0,0,0-.7-1c-0.8-.4-1.5-0.9-2.3-1.4C48.1,27.9,48.1,27.8,48.5,27.1ZM48,51.1V50.9a28.26,28.26,0,0,0-1.5-8.1,0.55,0.55,0,0,0-.6-0.4c-2.8.1-5.5,0.4-8.3,0.4a34.41,34.41,0,0,1-4.5-.5,0.52,0.52,0,0,0-.7.3,1.06,1.06,0,0,0-.2.5,26.94,26.94,0,0,0-1.6,6.2,0.91,0.91,0,0,0,.3.7c0.8,0.8,1.6,1.6,2.5,2.4a6.34,6.34,0,0,1,1.9,5.8c0,0.3-.1.7-0.1,1a15.46,15.46,0,0,0,5.3.4c0.6-.1,1.1-0.3,1.7-0.4a0.87,0.87,0,0,0,.6-0.8c0.4-1.5.7-2.9,1.2-4.4a4.33,4.33,0,0,1,3.2-2.8C47.4,51.2,47.7,51.1,48,51.1Zm5.2-21.7A3.4,3.4,0,0,0,56.1,28a6.47,6.47,0,0,0,1.1-6.9A4,4,0,0,0,53,18.5a6.47,6.47,0,0,0-4,1.6c-0.8.7-.8,0.7-0.1,1.5a19.74,19.74,0,0,1,3.7,5.8C52.8,28.1,53,28.7,53.2,29.4ZM26.4,26.6l0.1-.1a28.89,28.89,0,0,1,6-7,0.33,0.33,0,0,0,.1-0.4,3.77,3.77,0,0,0-2.3-2.6,6.89,6.89,0,0,0-3.5-.2c-2.4.4-4.9,4.2-3.6,7.3A5.88,5.88,0,0,0,26.4,26.6ZM29,60.3v0.1a16.66,16.66,0,0,0,3-.8c1.4-.5,1.8-1.3,1.7-2.8a7.51,7.51,0,0,0-2-4.2A6.18,6.18,0,0,0,26,50.4c-2.2.3-3.6,1.5-3.8,3.5A4.83,4.83,0,0,0,23,57,7.17,7.17,0,0,0,29,60.3Zm20.4,0.4c3.4-.1,5-1,6.6-4.3a3.47,3.47,0,0,0-2.7-5,7.15,7.15,0,0,0-2.9.1c-3,.6-5.5,2.1-5.9,6.1a1.9,1.9,0,0,0,.8,2A7.35,7.35,0,0,0,49.4,60.7ZM28.5,49.1c0.7-2,1.3-4,2-5.9a1.32,1.32,0,0,0-1.9.9c-0.5,1.2-.8,2.5-1.2,3.7a10.38,10.38,0,0,0-.3,1.2A6.15,6.15,0,0,1,28.5,49.1Zm21,1.4a8.11,8.11,0,0,0,1.1-.3c0.3-.1.4-0.2,0.3-0.5a11,11,0,0,0-.3-1.6c-0.4-1.5-.7-3-1.1-4.5-0.2-.6-0.5-0.7-1.1-0.4A19.61,19.61,0,0,1,49.5,50.5Z" style="fill: #7629b2"/>
    <g>
      <path d="M43.3,13.7c-0.2.7-.5,1.3-0.7,2a1.9,1.9,0,0,0,.7,2.1,29,29,0,0,0,2.9,1.9c0.3,0.2.5,0.1,0.8-.2a7.3,7.3,0,0,1,9.1-1.4,5.78,5.78,0,0,1,3,6,11.73,11.73,0,0,1-1.4,4.1,4.67,4.67,0,0,1-3.5,2.6c-0.2,0-.3.1-0.5,0.1h0C53.8,32,54,33,54,34.1c0,3-1.5,5.1-4.1,6.6a13.49,13.49,0,0,1-2.4.8c0.1,0.3.3,0.7,0.4,1,0.4-.1.7-0.1,1-0.2a1,1,0,0,1,1.2.8,28.81,28.81,0,0,1,1.5,6.6V50a18.46,18.46,0,0,1,2.3.4,1.42,1.42,0,0,1,.6.2,3.8,3.8,0,0,1,2.9,3.9,6.19,6.19,0,0,1-3.5,6.2,12.22,12.22,0,0,1-7,1.3,5.88,5.88,0,0,1-3.1-1.4c-0.1-.1-0.3-0.2-0.4-0.3-2.3,1.3-4.7.9-7.1,0.6l-2-.3a1.27,1.27,0,0,0-.6.1,9.75,9.75,0,0,1-6.9.9A10.1,10.1,0,0,1,21,57.5a5.37,5.37,0,0,1-.8-3.9,4.17,4.17,0,0,1,.8-1.8A7.2,7.2,0,0,1,25.7,49a0.65,0.65,0,0,0,.6-0.6,43.44,43.44,0,0,1,1.4-4.8c0.5-1.5,1.2-1.8,2.7-1.4a2.27,2.27,0,0,0,.4.1c0.1-.2.1-0.5,0.2-0.7a13.36,13.36,0,0,1-1.8-.7A22.56,22.56,0,0,1,27,39.8a6.52,6.52,0,0,1-3.2-7.3,16.29,16.29,0,0,1,1.8-4.6c-3.9-1.7-5.4-4.6-4.4-8.7a6.36,6.36,0,0,1,6.2-4.8c3.1-.2,5.5.9,6.8,4.1,0.6-.2,1.2-0.3,1.8-0.5a2.79,2.79,0,0,0,1.2-2.3c0-.3-0.1-0.7-0.1-1a0.76,0.76,0,0,1,.6-0.8c0.4-.1.8-0.2,1,0.3,0.1,0.1.2,0.3,0.3,0.4,0.5,0.5.8,0.5,1.2,0,0.2-.2.4-0.5,0.6-0.7A1.87,1.87,0,0,1,43.3,13.7Zm5.2,13.4c0.9,0.5,1.7,1,2.6,1.6a4.17,4.17,0,0,0-.2-0.6,12.36,12.36,0,0,0-3.2-5.4,26.39,26.39,0,0,0-5-3.8,3.23,3.23,0,0,1-1.8-2.7c0-.1-0.1-0.3-0.1-0.4-0.7.2-1.1,1.4-2.1,0.7a11.21,11.21,0,0,0-.5,1.3,2.1,2.1,0,0,1-1.3,1.3,20.29,20.29,0,0,0-2.6,1.1,5.25,5.25,0,0,0-2.2,1.7c-1.2,1.5-2.4,3-3.5,4.6A16.9,16.9,0,0,0,26,31.9c-0.7,3-.1,6.4,3.9,7.9A26.66,26.66,0,0,0,43,41.3c0.8-.1,1.5-0.3,2.4-0.5-0.4-.4-0.6-0.7-0.9-1a1.51,1.51,0,0,1,.4-0.4c0.4,0.3.7,0.7,1.1,1a0.76,0.76,0,0,0,.4.2c0.5-.1.9-0.2,1.5-0.3-0.6-.7-1.2-1.4-1.8-2a2.09,2.09,0,0,1,.6-0.4,10,10,0,0,1,1,1.1c0.9,1,.9,1,2,0.2h0c0.3-.2.3-0.4,0.1-0.6l-1.2-1.2a10.59,10.59,0,0,0-1.2-1c0.4-.7.4-0.7,0.9-0.2l0.3,0.3c0.7,0.6,1.3,1.2,2,1.9,0.2-.4.4-0.9,0.6-1.3a0.47,0.47,0,0,0-.1-0.6c-0.7-.7-1.5-1.3-2.2-2-0.5-.5-0.5-0.6.1-1,0.8,0.8,1.7,1.5,2.6,2.3,0.1-.5.2-0.9,0.3-1.3a0.86,0.86,0,0,0-.4-1c-0.8-.6-1.5-1.2-2.3-1.7a0.8,0.8,0,0,1-.3-1.1c1,0.7,2,1.4,3.1,2.3a16.25,16.25,0,0,1-.4-1.9,1.26,1.26,0,0,0-.7-1c-0.8-.4-1.5-0.9-2.3-1.4C48.1,27.9,48.1,27.8,48.5,27.1ZM48,51.1V50.9a28.26,28.26,0,0,0-1.5-8.1,0.55,0.55,0,0,0-.6-0.4c-2.8.1-5.5,0.4-8.3,0.4a34.41,34.41,0,0,1-4.5-.5,0.52,0.52,0,0,0-.7.3,1.06,1.06,0,0,0-.2.5,26.94,26.94,0,0,0-1.6,6.2,0.91,0.91,0,0,0,.3.7c0.8,0.8,1.6,1.6,2.5,2.4a6.34,6.34,0,0,1,1.9,5.8c0,0.3-.1.7-0.1,1a15.46,15.46,0,0,0,5.3.4c0.6-.1,1.1-0.3,1.7-0.4a0.87,0.87,0,0,0,.6-0.8c0.4-1.5.7-2.9,1.2-4.4a4.33,4.33,0,0,1,3.2-2.8C47.4,51.2,47.7,51.1,48,51.1Zm5.2-21.7A3.4,3.4,0,0,0,56.1,28a6.47,6.47,0,0,0,1.1-6.9A4,4,0,0,0,53,18.5a6.47,6.47,0,0,0-4,1.6c-0.8.7-.8,0.7-0.1,1.5a19.74,19.74,0,0,1,3.7,5.8C52.8,28.1,53,28.7,53.2,29.4ZM26.4,26.6l0.1-.1a28.89,28.89,0,0,1,6-7,0.33,0.33,0,0,0,.1-0.4,3.77,3.77,0,0,0-2.3-2.6,6.89,6.89,0,0,0-3.5-.2c-2.4.4-4.9,4.2-3.6,7.3A5.88,5.88,0,0,0,26.4,26.6ZM29,60.3v0.1a16.66,16.66,0,0,0,3-.8c1.4-.5,1.8-1.3,1.7-2.8a7.51,7.51,0,0,0-2-4.2A6.18,6.18,0,0,0,26,50.4c-2.2.3-3.6,1.5-3.8,3.5A4.83,4.83,0,0,0,23,57,7.17,7.17,0,0,0,29,60.3Zm20.4,0.4c3.4-.1,5-1,6.6-4.3a3.47,3.47,0,0,0-2.7-5,7.15,7.15,0,0,0-2.9.1c-3,.6-5.5,2.1-5.9,6.1a1.9,1.9,0,0,0,.8,2A7.35,7.35,0,0,0,49.4,60.7ZM28.5,49.1c0.7-2,1.3-4,2-5.9a1.32,1.32,0,0,0-1.9.9c-0.5,1.2-.8,2.5-1.2,3.7a10.38,10.38,0,0,0-.3,1.2A6.15,6.15,0,0,1,28.5,49.1Zm21,1.4a8.11,8.11,0,0,0,1.1-.3c0.3-.1.4-0.2,0.3-0.5a11,11,0,0,0-.3-1.6c-0.4-1.5-.7-3-1.1-4.5-0.2-.6-0.5-0.7-1.1-0.4A19.61,19.61,0,0,1,49.5,50.5Z" style="fill: #092444"/>
      <path d="M39.7,33.7c0.7,0.1,1.5.1,2.2,0.2a0.93,0.93,0,0,1,.7.4,1.4,1.4,0,0,1-.3.9c-0.7.6-1.4,1.1-2.1,1.7a1,1,0,0,0-.3,1.1,0.57,0.57,0,0,0,.7.4l1.9-.3a10.84,10.84,0,0,0,1.9-.8c0.2-.1.5-0.1,0.5,0,0.2,0.2.3,0.6-.1,0.7a12,12,0,0,1-2.6,1.1,11.3,11.3,0,0,1-6.8-.3,6.37,6.37,0,0,1-1.8-1c-0.5-.4-0.4-0.8.1-1a0.44,0.44,0,0,1,.5.1,3,3,0,0,0,1.9,1,17,17,0,0,0,2.2.4c0.4,0.1.5-.1,0.5-0.4a1.28,1.28,0,0,0-.4-1A20,20,0,0,1,37,35.3c-0.6-.8-0.3-1.4.7-1.5a15.56,15.56,0,0,1,2-.1h0Zm1.9,0.9a7,7,0,0,0-3.2-.3c-0.3,0-.3.3-0.2,0.5a17.1,17.1,0,0,0,1.1,1.4,0.37,0.37,0,0,0,.3.1A5.36,5.36,0,0,0,41.6,34.6Z" style="fill: #092444"/>
      <path d="M33.7,22.5a2.19,2.19,0,0,1-.3.5,11.85,11.85,0,0,0-2.1,4.2,0.7,0.7,0,0,1-1,.4,0.6,0.6,0,0,1-.1-0.4,12.43,12.43,0,0,1,2.6-4.6C33,22.3,33.1,22.3,33.7,22.5Z" style="fill: #092444"/>
      <path d="M44.2,32.9a0.93,0.93,0,0,1-1.1-1,1.23,1.23,0,0,1,1-1.3,1.31,1.31,0,0,1,1.2,1.3A1,1,0,0,1,44.2,32.9Z" style="fill: #092444"/>
      <path d="M35.9,32.7a1.06,1.06,0,0,1-1.2-.9,1.29,1.29,0,0,1,1.2-1.2,1.1,1.1,0,0,1,1.1,1A1,1,0,0,1,35.9,32.7Z" style="fill: #092444"/>
      <path d="M42.6,49.9c0.5,0.8,1.1,1.7,1.6,2.5a1.7,1.7,0,0,1-.1.7,0.2,0.2,0,0,0-.2.1c-0.6-.8-1.3-1.6-1.9-2.5a1,1,0,0,1,.4-0.7C42.4,49.9,42.5,49.9,42.6,49.9Z" style="fill: #092444"/>
      <path d="M44.6,47.3c0.2-.2.4-0.3,0.7-0.6l1.8,3a0.83,0.83,0,0,1,0,.5,0.1,0.1,0,0,0-.1.1Z" style="fill: #092444"/>
      <path d="M40.6,54c0.6,0.9,1.1,1.7,1.7,2.6a2.13,2.13,0,0,1,0,.8H42.2c-0.7-.9-1.4-1.7-2-2.6a1.08,1.08,0,0,1,.2-0.7A0.2,0.2,0,0,1,40.6,54Z" style="fill: #092444"/>
      <path d="M38.9,56.4c0.2-.2.4-0.3,0.5-0.4l1.8,2.7c-0.2.1-.3,0.2-0.5,0.3C40.1,58.2,39.5,57.3,38.9,56.4Z" style="fill: #092444"/>
      <path d="M43.9,48.5c0.5,0.7,1,1.5,1.5,2.2,0.3,0.4-.1.5-0.4,0.6-0.5-.7-1.1-1.5-1.5-2.2a0.85,0.85,0,0,1,.2-0.6C43.8,48.4,43.8,48.4,43.9,48.5Z" style="fill: #092444"/>
      <path d="M42.7,55l-1.8-2.7a0.9,0.9,0,0,1,.1-0.5h0.2c0.5,0.8,1.1,1.7,1.6,2.5a2.13,2.13,0,0,1,0,.8C42.8,55,42.8,55,42.7,55Z" style="fill: #092444"/>
      <path d="M46.8,47.4c-0.5-.7-1.1-1.4-1.6-2.1,0.4-.5.6-0.5,0.9,0s0.6,1.1.9,1.6v0.5H46.8Z" style="fill: #092444"/>
      <path d="M38.3,57.4c0.3,0.5.7,1,1,1.5a0.37,0.37,0,0,1-.1.3H38.9c-0.3-.4-0.7-0.8-1-1.2a0.9,0.9,0,0,1,.1-0.5A0.37,0.37,0,0,1,38.3,57.4Z" style="fill: #092444"/>
      <path d="M50,21.6a1.06,1.06,0,0,1-.2-0.5,0.48,0.48,0,0,1,.1-0.4c0.5-.3,1-0.7,1.5-1a0.45,0.45,0,0,1,.4.8c-0.5.3-.9,0.6-1.3,0.8a0.37,0.37,0,0,1-.3.1A0.38,0.38,0,0,0,50,21.6Z" style="fill: #092444"/>
      <path d="M24.9,21.3c-0.5,0-.8-0.4-0.6-0.7a6.67,6.67,0,0,1,2.3-2.7,1.49,1.49,0,0,1,.6.1,2.57,2.57,0,0,1-.2.5,9.43,9.43,0,0,0-1,1c-0.3.4-.5,0.9-0.8,1.3A2.19,2.19,0,0,1,24.9,21.3Z" style="fill: #092444"/>
      <path d="M27.1,54a1.84,1.84,0,0,1-2.9.2,1.24,1.24,0,0,1,.6-1.9,2.5,2.5,0,0,1,1.7.1,1.06,1.06,0,0,0,.5.2l0.3-.3a3.13,3.13,0,0,1,1-.5,1.42,1.42,0,0,1,1.6.5,1.22,1.22,0,0,1-.1,1.4,1.27,1.27,0,0,1-1.4.7A2.84,2.84,0,0,1,27.1,54Zm1.6-1.5c-0.6,0-1,.3-0.9.7a0.59,0.59,0,0,0,.5.7,1.07,1.07,0,0,0,1-.9A0.49,0.49,0,0,0,28.7,52.5Zm-3,1.7a1.18,1.18,0,0,0,.5-0.5,1.06,1.06,0,0,0-.8-0.9,0.85,0.85,0,0,0-.7.7C24.7,54.1,25.1,54,25.7,54.2Z" style="fill: #092444"/>
      <path d="M28.7,59a1.37,1.37,0,0,1-1.3-2.1,3.61,3.61,0,0,1,2.5-1.8,1.33,1.33,0,0,1,1.6,1.4A3,3,0,0,1,28.7,59Zm1.2-3a2.21,2.21,0,0,0-1.7,1,0.76,0.76,0,0,0,0,1,0.84,0.84,0,0,0,1.2.2,2.7,2.7,0,0,0,1.1-1.5C30.6,56.2,30.4,56,29.9,56Z" style="fill: #092444"/>
      <path d="M25.2,58.2a1.55,1.55,0,0,1-1.6-1.4,1.23,1.23,0,0,1,1.3-1.1,1.34,1.34,0,0,1,1.4,1.2A1.11,1.11,0,0,1,25.2,58.2Zm-0.7-1.3c0,0.4.3,0.9,0.6,0.8a0.86,0.86,0,0,0,.8-0.7,0.91,0.91,0,0,0-.9-0.6A0.43,0.43,0,0,0,24.5,56.9Z" style="fill: #092444"/>
      <path d="M48.5,59.2a1.32,1.32,0,0,1-1.6-1.1,11.63,11.63,0,0,1-.4-1.8,1.2,1.2,0,0,1,1-1.4c0.8-.4,1.5-0.4,1.9.2a7.5,7.5,0,0,1,1,2c0.3,1.3-.2,1.9-1.6,2.1H48.5ZM47,56.6a10.26,10.26,0,0,1,.4,1.4,0.81,0.81,0,0,0,1.1.5,0.92,0.92,0,0,0,1-.9,2.79,2.79,0,0,0-.6-1.8,0.8,0.8,0,0,0-1.4-.1A1.62,1.62,0,0,0,47,56.6Z" style="fill: #092444"/>
      <path d="M52,54.3c-0.1-1.2,1.5-1.8,2.3-1.4a1.35,1.35,0,0,1,0,2.2,1.57,1.57,0,0,1-1.6.3C52.2,55.4,52,55,52,54.3Zm2-.2c0-.4-0.1-0.7-0.4-0.7a0.88,0.88,0,0,0-.9.7,0.86,0.86,0,0,0,.7.8C53.7,55,54,54.6,54,54.1Z" style="fill: #092444"/>
      <path d="M52.9,55.9a2,2,0,0,0,.7.1c0.7,0.3.9,0.9,0.4,1.4a4.19,4.19,0,0,1-1.4.9,0.94,0.94,0,0,1-1.4-.8,1.05,1.05,0,0,1,.7-1.5C52.3,56,52.7,55.9,52.9,55.9Zm0.5,1.2a0.6,0.6,0,0,0-.6-0.7,0.88,0.88,0,0,0-.9.8,0.68,0.68,0,0,0,.7.7A0.74,0.74,0,0,0,53.4,57.1Z" style="fill: #092444"/>
      <path d="M51.7,52.9A1.65,1.65,0,0,1,50,54.4a1.14,1.14,0,0,1-.8-0.7,0.91,0.91,0,0,1,.3-1.1,3.7,3.7,0,0,1,1.1-.5C51.3,51.7,51.7,52.1,51.7,52.9Zm-1.2.9c0.2-.3.4-0.5,0.5-0.7a0.35,0.35,0,0,0-.5-0.4,2.65,2.65,0,0,0-.6.5A3.29,3.29,0,0,1,50.5,53.8Z" style="fill: #092444"/>
    </g>
  </g>
</svg>
