<svg id="8454d583-b527-4af6-9432-3f9f76d3cdc3" data-name="Layer 1" xmlns="http://www.w3.org/2000/svg" viewBox="0 0 177.33 225.79"><title>Artboard 13</title><path d="M90.06,102.94Q64,106,53.53,105.29q.73-11.41,7.82-24.88a135.86,135.86,0,0,1,8.89-13.73A36.24,36.24,0,0,1,78,58.09l12.18,2.49q-.17,42.37-.17,42.37" style="fill:#fff;fill-rule:evenodd"/><path d="M6,188.88a12.61,12.61,0,0,0-1.44.82,4.05,4.05,0,0,1-1.84.55A2.71,2.71,0,0,1,1.78,185,14.78,14.78,0,0,1,4,184.44L6.13,184a9.65,9.65,0,0,0,2.54-1,.85.85,0,0,0,.47-.68,30,30,0,0,1,3.59-9.91,30.47,30.47,0,0,1,3.47-5,29.5,29.5,0,0,1,6.48-5.7c1.27-.82,2.6-1.56,3.92-2.3.94-.53,1.91-1,2.87-1.51a41.65,41.65,0,0,1,4.4-2,6.74,6.74,0,0,0,2-1.24,12.82,12.82,0,0,0,2.71-3.16,1.77,1.77,0,0,0,.35-.78c.29-.15.51,0,.74.15,2.59,1.27,5.23,2.46,7.81,3.76.47.24,1,.42,1.45.65a1.11,1.11,0,0,1,.73,1.13q-.05,3-.26,6c-.09,1.25-.08,2.5-.13,3.75-.07,1.68-.16,3.36-.21,5-.06,2.11-.19,4.22-.27,6.34a2.56,2.56,0,0,0,0,.72,2,2,0,0,0,.62-.54q7.41-7.4,14.8-14.82a1.58,1.58,0,0,1,1.91-.44c5.32,1.92,10.67,3.77,16,5.67,1.49.53,3,1.07,4.51,1.57.1-.2,0-.33-.11-.46-2.21-4.22-4.48-8.41-6.72-12.62-1.12-2.1-2.22-4.22-3.38-6.3a1,1,0,0,1,.2-1.3c3.47-4.32,7-8.62,10.4-13l.68-.84c.35-.43.66-.39,1,0,1.08,1.27,2.14,2.54,3.22,3.8,2.63,3.07,5.22,6.17,7.86,9.24.75.87.79,1,.28,2-3.18,6.35-6.35,12.7-9.57,19.13,1.71-.64,3.34-1.27,5-1.91,5.14-2,10.3-3.95,15.42-6a1.43,1.43,0,0,1,1.65.24c1.16,1,2.23,2.13,3.34,3.19,1.54,1.45,3.06,2.92,4.6,4.38,2.62,2.48,5.19,5,8,7.54,0-1.19-.13-2.27-.21-3.35-.12-1.73-.25-3.45-.37-5.18s-.26-3.59-.39-5.39c-.11-1.61-.23-3.21-.33-4.82-.06-1-.18-2-.2-3a.92.92,0,0,1,.49-.95c.29-.16.57-.35.88-.5,3.28-1.63,6.52-3.32,9.77-5,.2-.11.41-.28.66-.11a8.68,8.68,0,0,0,1.3,1.44c.88.78,1.7,1.64,2.61,2.39a22.67,22.67,0,0,0,3.83,2.7c.08,0,.18.07.22.23a35.76,35.76,0,0,1-3.92-.95,15.29,15.29,0,0,1-3.7-1.5,1.28,1.28,0,0,0,.22.68c.16.32.32.65.49,1,.09.16.27.18.44.22a23.68,23.68,0,0,1,2.28.7c1.18.41,2.34.89,3.48,1.41a82,82,0,0,1,8.46,4.53,29.6,29.6,0,0,1,4,3,30.58,30.58,0,0,1,5.66,6.71,31.56,31.56,0,0,1,2.91,5.88,28,28,0,0,1,1.46,5.42.63.63,0,0,0,.37.48,10.1,10.1,0,0,0,3.17,1.17c1,.19,2,.4,3,.61a4.22,4.22,0,0,1,1.27.5,2.6,2.6,0,0,1,1.21,2.86,2.65,2.65,0,0,1-3.41,2,3.75,3.75,0,0,1-1.06-.45l-1.56-.91c-.1-.07-.19-.15-.29,0a4.4,4.4,0,0,0,.7.91c.81,1,1.63,1.9,2.43,2.86a4.09,4.09,0,0,1,.8,1.52,3.33,3.33,0,0,1-5.89,2.84,6,6,0,0,1-.77-1.38q-.61-1.54-1.24-3.08c-.07-.17-.1-.37-.27-.48l-.06,0c-.05.55-.12,1.1-.16,1.65-.07,1-.09,1.92-.18,2.88a4,4,0,0,1-1,2.49,3.08,3.08,0,0,1-2.52,1,3.28,3.28,0,0,1-2.76-1.58A3.37,3.37,0,0,1,160,196a10.09,10.09,0,0,1,.69-2l1.15-2.8c0-.16,0-.23-.18-.16a6.75,6.75,0,0,1-2.68,1.5,5.09,5.09,0,0,1-3.26-.08,2.73,2.73,0,0,1-1.84-2.74,3,3,0,0,1,1.11-2.12,6.28,6.28,0,0,1,2.13-1.18l2.67-.89a10.56,10.56,0,0,0,1.71-.76.51.51,0,0,0,.3-.59c-.1-.62-.18-1.24-.3-1.85a19.33,19.33,0,0,0-1.92-5.57,19.91,19.91,0,0,0-2.48-3.54,17.13,17.13,0,0,0-3.76-3.24,17.69,17.69,0,0,0-5.72-2.34c-.75-.17-1.51-.28-2.27-.41a.91.91,0,0,0-.25,0c.36,1,.82,1.91,1.15,2.89a23.26,23.26,0,0,1,.82,3c-.21.08-.24-.06-.3-.15a33.84,33.84,0,0,0-2-2.88,11,11,0,0,0-1.28-1.47c-.39-.07-.21.15-.16.31l1.25,3.46c.79,2.17,1.47,4.37,2.08,6.6.31,1.11.58,2.23.79,3.37a9.19,9.19,0,0,1,.21,1.47,16,16,0,0,1-.83-1.73c-.27-.51-.49-1-.74-1.56s-.54-1.08-.82-1.61-.54-1-.81-1.53-.59-1-.91-1.61a3.29,3.29,0,0,0-.33,1.36c-.09.47-.07,1-.13,1.43a5.73,5.73,0,0,0,0,1.37c.06.48.06,1,.12,1.44s.15.9.25,1.35.21.94.34,1.4a13.59,13.59,0,0,0,.47,1.29c.18.44.38.88.6,1.31a13,13,0,0,0,.7,1.18c.27.4.56.78.85,1.16s.57.69.89,1.08a1.31,1.31,0,0,1-.75,0,13.14,13.14,0,0,1-2-.54,4.63,4.63,0,0,1-1.33-.72,2.06,2.06,0,0,0-.3-.2.27.27,0,0,0-.41.13,2.7,2.7,0,0,0-.16,1.13,13.39,13.39,0,0,0,1.44,5,10.79,10.79,0,0,0,.85,1.34c0,.24-.12.27-.3.15-.82-.5-1.65-1-2.43-1.55a16.11,16.11,0,0,1-1.79-1.45,1.49,1.49,0,0,0-.23-.14,3.3,3.3,0,0,0,.23.78,24.41,24.41,0,0,1,1.1,3.5,4.2,4.2,0,0,1,.2,1.34c-.17.05-.22-.07-.28-.16a8.39,8.39,0,0,0-1.72-1.63.16.16,0,0,0-.27.1,28,28,0,0,1-.61,3.47,25.39,25.39,0,0,1-2,5.84,14.87,14.87,0,0,1-1.2,2c-.12.17-.22.37-.48.44.3-1.22.64-2.42.9-3.64s.51-2.43.66-3.71c-.26.1-.33.29-.42.44-1.38,2.23-2.87,4.39-4.45,6.48-1.17,1.56-2.38,3.08-3.69,4.52q-1.09,1.2-2.25,2.34a22,22,0,0,1-2.35,2l-.16.13h0c-.15,0-.19,0-.17-.16a.5.5,0,0,1,.06-.11.31.31,0,0,1,.12-.14,40.21,40.21,0,0,0,2.41-3.51,25.48,25.48,0,0,0,2.87-6.52,2.15,2.15,0,0,0,.06-.28.55.55,0,0,0,0-.14c-.12-.08-.17,0-.21.09a34.92,34.92,0,0,1-3,3.95,28.92,28.92,0,0,1-2.39,2.41,27.56,27.56,0,0,1-3.48,2.7,24.44,24.44,0,0,1-6.33,2.93,51.89,51.89,0,0,1-7.1,1.56c-1.23.19-2.47.37-3.71.53-.69.09-1.39.12-2.08.19l-2.58.24h-.14c-2,.08-3.94.22-5.92.2a19.72,19.72,0,0,1-2.08-.21c-1.14-.14-2.28-.35-3.42-.53a32.22,32.22,0,0,1-3.3-.74.31.31,0,0,0-.36,0s.05.1.08.15L85,221.58c0,.28-.15.2-.3.16l-2.18-.46q-2.32-.52-4.59-1.23a15,15,0,0,1-2.41-1c-.08,0-.16-.12-.3,0,.18.22.34.45.53.66s.53.56.78.85.44.3.29.5-.4,0-.59-.1c-2.09-.78-4.16-1.62-6.2-2.55l-2.16-1a37.41,37.41,0,0,1-6.27-3.68c-.07,0-.16-.17-.21,0a10,10,0,0,0,.81,1.27l.41.59c0,.14,0,.21-.16.17-1.31-.88-2.55-1.86-3.78-2.85a36,36,0,0,1-3.35-3,13,13,0,0,1-1.4-1.63.28.28,0,0,1-.16-.18.36.36,0,0,0,0,.33,29.81,29.81,0,0,0,2.37,5.06.16.16,0,0,1-.21,0,32.63,32.63,0,0,1-3.79-2.63,51.37,51.37,0,0,1-5.74-5.15,53,53,0,0,1-4.18-5c-.1-.13-.16-.3-.34-.36h-.1a7,7,0,0,0,.62,2c.24.63.55,1.23.83,1.84,0,.15,0,.19-.16.16a3.7,3.7,0,0,1-.71-.81,17.37,17.37,0,0,1-2.91-4.87,14.12,14.12,0,0,1-.45-1.52.14.14,0,0,0-.09-.09c-.08,0-.13.06-.13.13a11.17,11.17,0,0,0,.2,3.58,2.22,2.22,0,0,1,0,.27c-.17.07-.24,0-.31-.13a8.66,8.66,0,0,1-1.34-2.29,18.62,18.62,0,0,1-1.23-4.51,28.12,28.12,0,0,1-.31-3.23c0-.55-.1-1.1-.08-1.65,0-1.37.11-2.73.23-4.1.09-1,.22-2.05.34-3.08,0-.24.07-.47.11-.73-.19.11-.21.28-.27.43a23.66,23.66,0,0,1-1.88,3.81c-.22.34-.47.66-.71,1-.14,0-.2,0-.17-.16a31.57,31.57,0,0,0,1.29-5.54c.09-.62.11-1.25.19-1.86.16-1.17.08-2.36.17-3.53.13-1.71.07-3.42.12-5.12,0-.43,0-.86,0-1.3-.18,0-.23.13-.3.24a16.71,16.71,0,0,0-1.32,2.88,2.43,2.43,0,0,1-.3.66c0-.4.08-.8.14-1.2.21-1.28.44-2.56.65-3.84,0,0,0-.09,0-.14.05-.46.07-.67-.58-.54s-1.19.11-1.79.19a17.81,17.81,0,0,0-8.54,3.43,18.11,18.11,0,0,0-6.58,9.68,25.27,25.27,0,0,0-.74,3.82.42.42,0,0,0,.22.47,5.61,5.61,0,0,0,1.16.58l2.53.86a12.6,12.6,0,0,1,1.87.75,4.39,4.39,0,0,1,1.75,1.57,2.76,2.76,0,0,1-1.06,3.79,4.77,4.77,0,0,1-2.87.43,6.77,6.77,0,0,1-3.14-1.37c-.16-.12-.28-.32-.51-.34-.09.17,0,.29.06.42.48,1.16.94,2.32,1.45,3.46a4.54,4.54,0,0,1,.3,2.55,2.79,2.79,0,0,1-1.5,2.1,3.41,3.41,0,0,1-3.51,0,3,3,0,0,1-1.16-1.25,4.13,4.13,0,0,1-.47-1.65c-.09-1.46-.2-2.93-.3-4.39a.4.4,0,0,0,0-.14.18.18,0,0,0-.09-.09.13.13,0,0,0-.12,0,1.43,1.43,0,0,0-.13.26Q9.69,194,9,195.68a4.58,4.58,0,0,1-1.11,1.67,3,3,0,0,1-3.12.77,3.26,3.26,0,0,1-2.31-2.2,3.36,3.36,0,0,1,.14-2.4,5.17,5.17,0,0,1,.87-1.32c.9-1,1.78-2.09,2.66-3.13.06-.18,0-.23-.19-.19" style="fill:#69cad1"/><path d="M138.81,148.63a10.24,10.24,0,0,0-1.34.7l-3.67,1.86L128.27,154c-.3.15-.59.33-.88.49a.36.36,0,0,0-.21.47.94.94,0,0,1,0,.28,26.74,26.74,0,0,0,.2,3.17,22.11,22.11,0,0,0,.22,2.8.58.58,0,0,1,0,.14,26.76,26.76,0,0,0,.19,3.17,26.1,26.1,0,0,0,.22,2.87.66.66,0,0,1,0,.14,27.86,27.86,0,0,0,.19,3.09c.08,1,.11,2,.22,3s.14,2.25.2,3.38a.18.18,0,0,1-.07.19c-.11,0-.17,0-.24-.11l-2.52-2.38c-1.41-1.35-2.79-2.72-4.23-4-1-.91-1.92-1.89-2.93-2.79s-2-2-3-2.88-1.74-1.67-2.61-2.49c-.33-.31-.68-.61-1-.92a.34.34,0,0,0-.4-.05l-1.49.56-7.27,2.8-4.84,1.87-5.25,2-2.43.94c-.15-.2,0-.33.08-.46l5.06-10.15L100.1,150c.38-.76.38-.58-.16-1.26s-1.28-1.5-1.92-2.25L95.93,144,94,141.74,91.73,139,89.8,136.8l-1.34-1.6c-.15-.18-.25-.18-.4,0l-1.68,2.07-2.61,3.27-2.66,3.32L79,146.45l-2.49,3.09a.36.36,0,0,0,0,.46c.17.29.33.58.49.88l2.91,5.49,3.5,6.56,2.31,4.33,1.41,2.6c0,.07.06.14,0,.19a.16.16,0,0,1-.13,0l-5-1.75L78.21,167l-8.43-3c-1.41-.5-2.82-1-4.22-1.48a.63.63,0,0,0-.76.19q-3.79,3.82-7.6,7.63l-8,8a2,2,0,0,1-.51.45c-.06,0-.09-.05-.09-.06a20.24,20.24,0,0,1,.07-3,4.64,4.64,0,0,0,0-.65c0-1.83.22-3.65.18-5.48.18-1.12.05-2.26.16-3.38s0-2.41.15-3.6,0-2.17.14-3.24c.08-.89.11-1.78.12-2.66,0-.14,0-.29,0-.43a.56.56,0,0,0-.39-.61l-4.17-2-.72-.33-5.27-2.53-9.76-4.68-.63-.33c.17-.27.44-.25.66-.31,1.94-.56,3.88-1.1,5.83-1.65l5.55-1.58.55-.18a3.21,3.21,0,0,1,1.1-.51c2.63-.75,5.27-1.51,7.91-2.24a1.14,1.14,0,0,0,1-1.06c.39-2.64.8-5.28,1.2-7.91a2.22,2.22,0,0,1,.33-.94l0-.18a1.88,1.88,0,0,1,0-1.19c.25-1.58.49-3.16.72-4.74a24.1,24.1,0,0,0,.53-5.13.9.9,0,0,1,.12-.45c.3.08.3.08.27.67a3.19,3.19,0,0,0,0-.67,2.94,2.94,0,0,1,.07-.7c.1-.37.3-.53.66-.27a.87.87,0,0,1,.13.15l.14.24.18.29.09.14.05.07.1.14.09.15.17.21c1.16,1.57,2.12,3.28,3.34,4.81l.22.34c2.63,3.88,5.32,7.73,7.94,11.62.19.45.54.35.89.25l18.78-3.26a10.38,10.38,0,0,1,3.29.23c5.72.79,11.43,1.66,17.14,2.47A1.15,1.15,0,0,0,109,134l8.28-12.87c.18-.28.37-.56.57-.84a9.69,9.69,0,0,0,.82-1.25c.27-.27.06-.81.52-1,.09,0,.09.22.13.12a13.32,13.32,0,0,1,1.12-1.84c.15-.23.25-.6.58-.55s.25.42.36.65c.38,1.67.54,3.38,1,5,.2,1.25.44,2.49.65,3.73,0,.28.16.56,0,.83a1,1,0,0,0,.13.6,1.79,1.79,0,0,1,.32.87c.57,3.22,1.18,6.44,1.74,9.66a1.15,1.15,0,0,0,1,1c2.78.67,5.54,1.43,8.33,2.11a4.26,4.26,0,0,1,1.22.44,3.14,3.14,0,0,0,.81.3l10.77,2.73c.16,0,.33,0,.44.24l-.63.33-7.77,4-.44.24" style="fill:#7838ff"/><path d="M71.73,101.63c-.85-.59-1.62-1.29-2.41-1.95-2.07-1.7-4.12-3.4-6.18-5.11-.18-.15-.38-.29-.6-.46l-8.46,7c-.19-.18-.1-.35-.07-.5.38-2,.85-4,1.42-6a1.24,1.24,0,0,1,.43-.64l6.4-5.29c.09-.08.2-.13.32-.22L64,89.62l11.14,9.2c.87.71.62.69,1.45,0l9.75-8,2.78-2.3c.71.07,1.11.63,1.59,1,3.72,3.09,7.47,6.14,11.17,9.25a.74.74,0,0,0,1.13,0q4-3.34,8.07-6.66c1.38-1.13,2.74-2.28,4.12-3.4.32-.26.6-.38,1-.09,1.56,1.25,3.1,2.51,4.61,3.82a1.77,1.77,0,0,1,.3.41c.58,1.74,1.09,3.51,1.59,5.27l.46,1.66c.09.49-.2.41-.44.26a5.64,5.64,0,0,1-.8-.61c-1.8-1.55-3.68-3-5.47-4.56a.82.82,0,0,0-1.28,0c-1.55,1.32-3.13,2.61-4.71,3.91a3.28,3.28,0,0,1-.83.56c-.64.1-1.28.11-1.92.19a6.83,6.83,0,0,0-3.77,1.76,1.8,1.8,0,0,1-.83.55c-1.19.07-2.37-.15-3.55-.15-.52-.2-1.11,0-1.63-.23-1.57-1.11-3-2.4-4.49-3.62-1.23-1-2.46-2-3.67-3-.19-.16-.37-.41-.68-.31-2.6,2.1-5.15,4.26-7.73,6.37a3.53,3.53,0,0,1-1,.62,33.28,33.28,0,0,1-4,.26,3.59,3.59,0,0,0-1.21.07c-.81.1-1.63.1-2.44.19a.8.8,0,0,1-.89-.34" style="fill:#744da9"/><path d="M57.88,87.9a.66.66,0,0,1,.09-.48,78,78,0,0,1,3.94-8,2.05,2.05,0,0,1,.19-.3c.3-.37.45-.38.82-.07l9.4,7.77,3.23,2.66c.26.21.29.21.56,0l2.78-2.29L87,80.5l2.12-1.74c.28-.14.45.05.64.2,4,3.3,7.95,6.54,11.89,9.85.77.64.8.65,1.57,0Q109,84,114.8,79.22c.25-.21.49-.49.89-.3,1.09,2.38,2.1,4.8,3,7.24.07.09,0,.22.12.3a.49.49,0,0,0,0,.13c-.21.38-.38,0-.51,0-.74-.54-1.42-1.14-2.11-1.74-.41-.35-.69-.33-1.11,0l-11.78,9.74c-.15.12-.32.22-.46.35a.68.68,0,0,1-1,0c-2.54-2.13-5.11-4.23-7.66-6.34-1.5-1.24-3-2.51-4.52-3.7-.25-.19-.36-.57-.74-.57l-2.85,2.33L78,93.29l-2.2,1.82c-2.24-1.82-4.43-3.65-6.64-5.47l-6.65-5.48-1.31,1.06-2.84,2.35c-.16.13-.3.32-.54.33Z" style="fill:#744da9"/><path d="M88.93,74.58l-4.3,3.52-8.46,7-.11.09a.31.31,0,0,1-.45,0l-1.4-1.14-9.62-8-.34-.27a.23.23,0,0,1,0-.32l.19-.31,1.82-2.77c.09-.14.2-.26.32-.42.21.16.41.29.59.44q4,3.26,7.9,6.53c.93.76.66.74,1.51,0l8.85-7.31,3.67-3c.36-.08.58.19.81.38,3.9,3.24,7.81,6.46,11.72,9.68.78.65.79.64,1.55,0,2.69-2.17,5.33-4.4,8-6.6.22-.18.42-.41.76-.32a38,38,0,0,1,2.16,3.91c-.25.65-.88.94-1.37,1.34-3.17,2.61-6.33,5.24-9.51,7.85-.72.59-.89.61-1.6,0-4-3.39-8.13-6.69-12.16-10.07-.15-.12-.24-.39-.52-.3" style="fill:#744da9"/><path d="M89,84.29c.08-.14.19-.14.3,0l1.56,1.28,6.51,5.38,4.61,3.83.22.18c.22.16.29.16.5,0l2.4-2,3-2.48L111,88l4.34-3.59.11-.09c.22-.16.29-.16.5,0l2.61,2.16c.09.07.17.19.3.08s0,0,.05,0c.73,2,1.45,4.05,2.09,6.1a.29.29,0,0,1,0,.07l-2.74-2.24-2.34-1.92c-.23-.19-.27-.19-.49,0l-3.66,3-3.52,2.88-3.72,3.08-1.83,1.52c-.23.19-.32.2-.57,0s-.68-.54-1-.81l-6.84-5.66-5-4.13a1.4,1.4,0,0,0-.18-.11c0-1.19,0-2.38,0-3.57,0-.21.07-.43-.13-.6" style="fill:#ab87e5"/><path d="M91.33,35a16.48,16.48,0,0,1,2.39-.12c.07.41-.25.73-.21,1.11a1.19,1.19,0,0,0,.63,0,1.64,1.64,0,0,1,.92,0,7.29,7.29,0,0,0-.21,3.49c.16,1.78.1,3.55.2,5.33s.15,3.6.21,5.4c.12,3.5.2,7,.39,10.5a14.27,14.27,0,0,1-.07,3.37c-.21.36-.57.3-.9.31s-.47.19-.38.56c.33,1.39.3,1.43-1.08,1.09a8.41,8.41,0,0,1-2.3-.48,1.14,1.14,0,0,1-.29-.92,26.43,26.43,0,0,0-.09-3.07.65.65,0,0,1,.56-.77A.62.62,0,0,0,91,60.5,11.88,11.88,0,0,1,90.78,58c0-1.95-.12-3.89-.2-5.83-.13-3.36-.24-6.72-.37-10.08-.09-2.16-.26-4.32-.18-6.48,0-.54-.26-1.1.06-1.62h0c.13-.08.28,0,.42-.06.52-.08.76.09.68.65,0,.14-.1.34.14.42" style="fill:#744da9"/><path d="M95.45,64.19c0-.91,0-1.83,0-2.74a4,4,0,0,0-.12-1.36,1.56,1.56,0,0,1,0-.5c0-.77,0-1.54,0-2.31a3.43,3.43,0,0,0-.11-1.21,1.52,1.52,0,0,1,0-.5c0-.7,0-1.39,0-2.09A4.62,4.62,0,0,0,95,52a1.6,1.6,0,0,1,0-.5c0-.72,0-1.44,0-2.16A4,4,0,0,0,94.9,48a1.53,1.53,0,0,1,0-.5c0-.72,0-1.44,0-2.16a3.41,3.41,0,0,0-.11-1.21,1.5,1.5,0,0,1,0-.5c0-.72,0-1.44,0-2.16A3.87,3.87,0,0,0,94.6,40a.21.21,0,0,1,0-.07c0-1.2,0-2.4,0-3.61,0-.31.26-.29.47-.33a11.54,11.54,0,0,1,2.91.48c-.26.24-.53.4-.66.67a1.71,1.71,0,0,0-.23.85,4.57,4.57,0,0,1,2.63,1.37c-.37.35-.4.41-.41.66,0,.49.06.59.64.89a1.67,1.67,0,0,0-.14.55c.1,2.83.13,5.66.31,8.49.09,1.44.08,2.88.14,4.32.07,1.8.19,3.6.19,5.4,0,1,0,1,1,1.26.26.24,0,.32-.14.38a2.83,2.83,0,0,1-1,.06.65.65,0,0,0-.78.63,2,2,0,0,1-.3.87A.53.53,0,0,1,99,63a6.31,6.31,0,0,1-1.54.09c-.25,0-.52-.06-.73.17s-.1,1.09-.84,1.11a.56.56,0,0,1-.44-.17" style="fill:#744da9"/><path d="M90.09,34a.52.52,0,0,0,0,.07,17.67,17.67,0,0,1,.15,3.37,3.5,3.5,0,0,0,.11,1.21,1.47,1.47,0,0,1,0,.5c0,.72,0,1.44,0,2.16a4.28,4.28,0,0,0,.12,1.43,1.56,1.56,0,0,1,0,.5c0,.75,0,1.49,0,2.23a3.71,3.71,0,0,0,.11,1.28,1.53,1.53,0,0,1,0,.5c0,.79,0,1.59,0,2.38a3.28,3.28,0,0,0,.11,1.14,1.75,1.75,0,0,1,0,.57c0,.77,0,1.54,0,2.31a2.86,2.86,0,0,0,.1,1,1.76,1.76,0,0,1,0,.57c0,.77,0,1.54,0,2.31a5.5,5.5,0,0,0,.1,1.21,5.75,5.75,0,0,1,0,1.22,1.28,1.28,0,0,0,.15.76c-.21.2-.43.06-.64,0a11.8,11.8,0,0,1-7-7.37c-.08-.22-.19-.49,0-.68s.45,0,.67.07.57.24,1,.39c-.6-1.5-1.07-3-1.56-4.43a10.66,10.66,0,0,1-.34-1.18c-.12-.58,0-.75.64-.66.38.05.75.17,1.13.25s.67-.09.57-.58a13.62,13.62,0,0,1-.08-2.59c0-.74.18-1,.93-1s.87-.27.8-.88a4.7,4.7,0,0,1,.55-2.51c.27-.58.13-.9-.41-1.14l-.32-.22L87,38.1,86.74,38,86.56,38l-.3-.07A.81.81,0,0,1,86,37.8a.68.68,0,0,1-.31-.54,12.19,12.19,0,0,1,.06-2.71c0-.24.08-.62.39-.6s.18.41.22.63a.52.52,0,0,0,.08.26.08.08,0,0,1,0,.1c.08.2.15.41.4.16h0a.33.33,0,0,0,.16-.14,1.37,1.37,0,0,1,.6-.37A7.15,7.15,0,0,1,90.09,34" style="fill:#744da9"/><path d="M88.93,74.58a.18.18,0,0,1,.24-.1,2.34,2.34,0,0,1,.42.28L95,79.28l4.46,3.66c.74.61,1.46,1.25,2.22,1.85s.61.66,1.4,0c1.53-1.28,3.08-2.54,4.62-3.81l4.45-3.68,1.9-1.55a1.14,1.14,0,0,1,.34.53c.43.88.84,1.76,1.26,2.63a.87.87,0,0,0-.63.31L110.46,83l-5.29,4.35-2,1.66c-.18.15-.38.29-.56.45a.3.3,0,0,1-.44,0l-1.45-1.19L95,83.57l-4.6-3.82c-.33-.28-.66-.56-1-.83a1.74,1.74,0,0,0-.32-.16q0-1.86,0-3.72c0-.17,0-.34-.16-.45" style="fill:#ab87e5"/><path d="M111.93,71.83a7.17,7.17,0,0,0-1.42,1.1c-1.61,1.3-3.2,2.62-4.8,3.94l-2.83,2.35-.22.19a.33.33,0,0,1-.46,0l-1.35-1.09-3-2.48-3.72-3.09-2.84-2.34-1.9-1.55c-.09-.08-.2-.13-.3-.2,0-.91,0-1.83,0-2.74a.64.64,0,0,0-.45-.7,2.74,2.74,0,0,1,1.93.09q5.63,4.61,11.22,9.28a.79.79,0,0,0,1.23,0c2.07-1.76,4.18-3.47,6.27-5.2a8.16,8.16,0,0,1,.74-.58c.24.35.49.69.71,1.06.39.66.86,1.26,1.18,2" style="fill:#ab87e5"/><path d="M110,68.82a.47.47,0,0,1-.2.36l-2.62,2.14-2.88,2.39c-.55.46-1.12.91-1.67,1.38a.3.3,0,0,1-.44,0l-1.23-1-2.89-2.39-3.78-3.12-2.95-2.43a4.58,4.58,0,0,1-.74-.68.22.22,0,0,1,.33,0A18.92,18.92,0,0,1,94,66a.76.76,0,0,0,.21,0,.18.18,0,0,0,.19-.23c-.07-.23-.15-.45-.22-.68-.33-1-.44-1,.65-1h.64l.49,0c1.53,1,2.88,2.3,4.32,3.47.58.47,1.19.9,1.72,1.42.3.29.52.29.85,0,1.31-1.05,2.57-2.16,3.89-3.21a1.38,1.38,0,0,1,.74-.42,12,12,0,0,1,1.41,1.7c.41.53.79,1.08,1.18,1.62" style="fill:#744da9"/><path d="M135.65,140.79a2,2,0,0,1-.64-.08l-9.35-2.38-.34-.1a.35.35,0,0,1-.24-.25c0-.14-.09-.28-.12-.42-.25-1.42-.5-2.83-.75-4.25-.32-1.75-.66-3.48-1-5.23a6,6,0,0,1-.2-1.42c1.26.54,2.46,1.22,3.66,1.88a62.44,62.44,0,0,1,5.76,3.58,38.1,38.1,0,0,1,5.66,4.7c.12.13.31.22.32.44-.2.09-.33-.06-.47-.13-1.47-.71-3-1.4-4.49-2a22.8,22.8,0,0,0-3.51-1.08,5.69,5.69,0,0,0-1.7-.2c-.07.16,0,.23.12.31l3,2.8q.87.81,1.77,1.6l2.23,1.95a2.63,2.63,0,0,1,.24.27" style="fill:#69cad1"/><path d="M101.52,61h-.94c-.27,0-.35-.08-.36-.34s0-.62,0-.94,0-.86,0-1.3a1.67,1.67,0,0,0,0-.43,10.33,10.33,0,0,1-.13-2.51c0-.38,0-.77,0-1.15a1.63,1.63,0,0,0,0-.36,17.7,17.7,0,0,1-.14-3.37,3.22,3.22,0,0,0-.11-1,1.76,1.76,0,0,1,0-.57c0-.77,0-1.54,0-2.31a3.53,3.53,0,0,0-.11-1.21,1.78,1.78,0,0,1,0-.57c0-.79,0-1.59,0-2.38a3.37,3.37,0,0,0-.11-1.07c-.11-.33,0-.42.41-.61h0c.1.17.31,0,.42.16h0c.08.09.21.06.29.14h0c.07.09.21.06.28.15h0a.35.35,0,0,0,.2.12,5.62,5.62,0,0,1,2,1.76,10.49,10.49,0,0,1,1.7,3.48,21,21,0,0,1,.76,6.93c0,.07,0,.14-.09.18s-.3-.1-.45-.17l-.82-.45c-.28-.15-.34-.12-.36.18q-.09,1.88-.18,3.75c0,.22,0,.43,0,.65a.15.15,0,0,1-.08.1.14.14,0,0,1-.13,0c-.13-.14-.25-.29-.39-.43s-.21-.32-.42-.38-.14.25-.17.37a8.79,8.79,0,0,1-.65,1.91,1.82,1.82,0,0,0-.12.63.66.66,0,0,1,.1.39,2.15,2.15,0,0,1-.18.58l-.08.07" style="fill:#744da9"/><path d="M85.91,66.93a2.64,2.64,0,0,1-.64.57L76.2,75l-.37.28-1.4-1.14L69,69.63c-.11-.09-.23-.18-.33-.28a.23.23,0,0,1,0-.32l.21-.3,1.83-2.6a.92.92,0,0,1,.36-.38,2.58,2.58,0,0,1,.68.49l3.67,3,.28.23a.3.3,0,0,0,.44,0l2.39-2,2.28-1.88c.27-.22.52,0,.78,0a10.07,10.07,0,0,0,2.87.62c.36.06.71.1,1.06.18s.49.12.44.45" style="fill:#744da9"/><path d="M76.37,59.56a1.34,1.34,0,0,0-.66-1.06,2.48,2.48,0,0,0-1-.37c-.45-.08-.87-.07-1.07.47a.24.24,0,0,1-.24.17,1,1,0,0,1-.2-.64,14.1,14.1,0,0,1,.08-2.74c.06-.43.13-.86.18-1.28a.14.14,0,0,0-.17-.17c-.19,0-.37.09-.56.12a.18.18,0,0,1-.22-.14,1.79,1.79,0,0,1,0-.36,17.59,17.59,0,0,1,.1-2.88c.13-1.07.27-2.15.46-3.21,0,0,0-.08,0-.12H72.9c-.18.06-.27.37-.46.29s-.12-.38-.13-.58a7.08,7.08,0,0,1,.21-1.72c.16-.82.36-1.64.57-2.46a2.84,2.84,0,0,1,.62-1.13,5.51,5.51,0,0,1,1.15-1.09.72.72,0,0,0,.34-.85,5.68,5.68,0,0,1,0-1.8,1.4,1.4,0,0,1,.07-.22l1.7.77a3.64,3.64,0,0,0,0,1.92.87.87,0,0,1-.34.61,11,11,0,0,0-1,1.17c-.77,1-.77,1,.44,1.36.6.16.7.37.38.93a7.25,7.25,0,0,0-.82,3.18c0,.38,0,.57.49.44.76-.2.92,0,.87.81a13.92,13.92,0,0,0,.46,5.48c-.46,2,.13,4,0,6,0,.38.07.78-.2,1.11-.39.11-.47-.22-.59-.45a2.26,2.26,0,0,1-.29-1.56" style="fill:#744da9"/><path d="M52.64,129.4c-.11.76-.22,1.51-.33,2.27s-.25,1.66-.37,2.48-.22,1.47-.33,2.2-.27,1.65-.38,2.48a.55.55,0,0,1-.48.52c-2.79.78-5.57,1.58-8.36,2.38l-1.25.33c.86-1.36,1.7-2.73,2.57-4.08a27.79,27.79,0,0,1,2.77-3.67,1,1,0,0,0,.27-.71c0-.7,0-1.39,0-2.09,0-.17,0-.34,0-.5a.2.2,0,0,1,.19-.18l.5,0c.77,0,1.54,0,2.31,0a1.28,1.28,0,0,0,.8-.24,11.15,11.15,0,0,1,2.07-1.16" style="fill:#69cad1"/><path d="M109.6,99.17c.58-.5,1.16-1,1.75-1.49l4-3.3c.31-.26.34-.31.72,0,1,.88,2.11,1.74,3.16,2.61l3.44,2.84.11.09c.16.12.21.08.3-.19,0,.06.11.11.11.17a21.22,21.22,0,0,0,.48,2.15,8.14,8.14,0,0,1,.27,1.68c0,.31.17.6.13.91-.56.29-1-.11-1.43-.3-2.11-1.75-4.25-3.47-6.32-5.26a.76.76,0,0,0-1.18,0,6.1,6.1,0,0,1-1.6,1.21c-1.17-.19-2.27-.7-3.46-.8-.2,0-.45,0-.47-.32" style="fill:#ab87e5"/><path d="M53.51,123.32a6.08,6.08,0,0,1-.18,1.76c-.14,1.18-.35,2.35-.53,3.52,0,.21-.09.42-.14.62a13.12,13.12,0,0,1-6.12-4.86,18.28,18.28,0,0,1-2.46-5,.4.4,0,0,1,0-.37,3.2,3.2,0,0,1,.64.43,20.08,20.08,0,0,0,5.88,3.17c.18.06.36.17.52,0a10.47,10.47,0,0,1,2.41.71" style="fill:#69cad1"/><path d="M107.45,65.5c-.57.48-1.13,1-1.7,1.44l-3.11,2.56-.18.11a1,1,0,0,1-.49-.29l-4.78-3.94-.94-.78a.82.82,0,0,1-.31-.38c.17,0,.33,0,.37-.23l.16-1c.85-.19,1.73.07,2.59-.14h0c.26-.34.46-.08.66.07.75.56,1.45,1.18,2.16,1.78a.7.7,0,0,0,1.06,0c.73-.61,1.48-1.21,2.2-1.84a1.91,1.91,0,0,1,.61.59,6.57,6.57,0,0,0,.81.91,4.83,4.83,0,0,1,.88,1.12" style="fill:#ab87e5"/><path d="M77.09,61.59a.43.43,0,0,0,.14-.39q0-1.73,0-3.46a.71.71,0,0,0,0-.22,6.39,6.39,0,0,1-.13-1.93,1,1,0,0,1,.2-.81c.1-.11.08-.27.08-.41a1.18,1.18,0,0,1,1.23-1.13.58.58,0,0,1,.43.52,11,11,0,0,0,2.44,4.66.76.76,0,0,1,.26.71,1.69,1.69,0,0,0-.09.85c.23,1.63.05,3.27.19,4.9,0,.37.12.79-.42.91-.24,0-.44-.18-.68-.14a.53.53,0,0,0-.25-.25,8.51,8.51,0,0,1-2-1.71.48.48,0,0,0-.35-.22c-.42-.58-1-1.07-1-1.87" style="fill:#744da9"/><path d="M71.73,101.63a1.71,1.71,0,0,0,1.2.11,9.44,9.44,0,0,1,1.93-.12h.22l.12.06c.43.56.26,1.25.31,1.87.16,1.78.35,3.56.34,5.35,0,.3.07.64-.26.84-.28-.06-.36-.31-.44-.52a1.22,1.22,0,0,0-1.25-.76c-1.17-.05-2.33.15-3.5.1-.45-.14-.41-.53-.44-.89-.07-1.1-.22-2.19-.37-3.28,0-.78-.38-1.55-.15-2.34a1.91,1.91,0,0,1,.83-.14l1.13-.08c.14,0,.29,0,.33-.21" style="fill:#744da9"/><path d="M127.53,106a8.82,8.82,0,0,1,1.84,2.11c.24.36.45.74.68,1.11a3.07,3.07,0,0,1,.32,2.7,6.22,6.22,0,0,1-2.06,3,2.57,2.57,0,0,1-.68.41c-.34.13-.64.33-1,.48a2.35,2.35,0,0,0-1.93.28c-.26-.48,0-1,.06-1.41a52.09,52.09,0,0,1,2.17-8.05c.1-.27.12-.65.57-.62" style="fill:#744da9"/><path d="M122.92,126.06c-.13-.65-.27-1.31-.39-2s-.26-1.55-.4-2.33a.4.4,0,0,1,0-.27c.61-.22,1.16.1,1.74.18a2,2,0,0,0,.58.11c.67.17,1.41,0,2,.38a.79.79,0,0,0,.26.1,24.8,24.8,0,0,0,2.81.12c1-.11,2.07,0,3.09-.21a1.75,1.75,0,0,1,1,0c0,.4-.31.64-.54.89a7.19,7.19,0,0,1-2.18,1.52,14.29,14.29,0,0,1-4.07,1.18,27.18,27.18,0,0,1-4,.3" style="fill:#69cad1"/><path d="M81.43,65.78a.72.72,0,0,0,.23-.84,1.78,1.78,0,0,1-.08-.71c0-.72,0-1.43,0-2.15a6.68,6.68,0,0,0-.11-1.42,5.81,5.81,0,0,1,0-1.29.43.43,0,0,1,.27-.39l.08,0a1.57,1.57,0,0,0,.67.47,2.26,2.26,0,0,1,.61.56,4.83,4.83,0,0,1-.36-2.22c.06-.54.31-.68.69-.33a13.28,13.28,0,0,0,2.46,1.88.43.43,0,0,1,.22.49A7.37,7.37,0,0,0,86,62.3a22.69,22.69,0,0,1,.11,2.79,2.63,2.63,0,0,0,.37,1.69,1,1,0,0,0-.58.15c-.07-.14-.17-.27-.32-.26a9.06,9.06,0,0,1-1.28-.18,16.59,16.59,0,0,1-2.05-.32,1.27,1.27,0,0,1-.83-.39" style="fill:#744da9"/><path d="M86.49,66.78c-.12-.18-.39-.07-.5-.24s-.07-.46-.07-.7c0-.65,0-1.29,0-1.94a4.23,4.23,0,0,0-.11-1.35,2.12,2.12,0,0,1,0-.64c0-.48,0-1,0-1.44a.9.9,0,0,1,.29-.77h.1a1.68,1.68,0,0,1,.41,0,16.05,16.05,0,0,0,3.28.86,4.7,4.7,0,0,0,1.68.14c.12.09.17.2,0,.25a3.2,3.2,0,0,1-.57,0,.27.27,0,0,0-.26.28.41.41,0,0,0,0,.14,9.93,9.93,0,0,1,.13,2.49c0,.31,0,.62,0,.93a1.17,1.17,0,0,0,.15.62l-.33,0a1.61,1.61,0,0,0-.74-.16c-.42,0-.82-.21-1.25-.12a2.28,2.28,0,0,0-.43,0,.5.5,0,0,0-.45.74c.15.4.31.8.47,1.23-.37.09-.64-.11-.93-.18a2.83,2.83,0,0,1-.83-.22" style="fill:#744da9"/><path d="M52.39,104.11a26.17,26.17,0,0,1,3.6-.61,2,2,0,0,0,.73-.26c.37,0,.74-.28,1.1,0a38.35,38.35,0,0,1,1,4.6.52.52,0,0,1-.17.58c-1.74-.1-3.48.34-5.23.07a.72.72,0,0,1-.4-.56c-.22-1-.52-2.08-.76-3.13-.06-.26-.12-.52.08-.74" style="fill:#744da9"/><path d="M57.75,103.22a1.07,1.07,0,0,1-1,0c.75-.64,1.5-1.28,2.25-1.91l3.17-2.62.22-.18a.24.24,0,0,1,.32,0l.84.68,2.95,2.43c.17.14.32.29.48.44,0,.25-.23.23-.39.29l-.42.1a8.36,8.36,0,0,1-1,.07,2.67,2.67,0,0,0-.44.08,12.43,12.43,0,0,0-1.41.15c-1.52.22-3,.34-4.56.59a1.78,1.78,0,0,1-.78,0,.72.72,0,0,1-.21-.14" style="fill:#744da9"/><path d="M48.31,109.44a2.31,2.31,0,0,1-1.11-2.06,1.58,1.58,0,0,1,.4-1.06,2.87,2.87,0,0,1,.74-.68,10,10,0,0,1,3.75-1.41,15.32,15.32,0,0,1,1,3.55c.1.44.45.87.2,1.37a4.68,4.68,0,0,1-1.62.16c-1.11.08-2.24,0-3.35.13" style="fill:#744da9"/><path d="M122.66,104.21a4,4,0,0,0,1.41.44,10.86,10.86,0,0,0,1.66.44,3.1,3.1,0,0,1,1.37.58c.15.18.06.36,0,.54-.25.79-.52,1.58-.78,2.36-.07.2-.1.5-.45.46a12.69,12.69,0,0,0-3.43,0,2.06,2.06,0,0,1-1.53-.19.57.57,0,0,1-.12-.6,27.53,27.53,0,0,1,1.33-4.11c.22-.16.36.08.54.11" style="fill:#744da9"/><path d="M86.49,34.85c-.22-.16-.12-.4-.15-.6s0-.2-.16-.19a.2.2,0,0,0-.16.21,5.43,5.43,0,0,1-.1.85q0,1,0,2.09c0,.31.12.51.45.54-.4.8-1.23,1.07-1.89,1.55-.24.17-.39,0-.47-.26a2.92,2.92,0,0,1-.14-1.16,1.72,1.72,0,0,0-.3.37c-.84,1.11-1.81,1-2.44-.34a6.27,6.27,0,0,1,0-.93.73.73,0,0,1,.48-.71,3.75,3.75,0,0,1,1.65-2.81c.06.24.09.42.15.58a2.62,2.62,0,0,0,.24.52,3.61,3.61,0,0,0,.4.51,3.16,3.16,0,0,0,.43.38.87.87,0,0,0,.52.26c.11-.28.2-.57.34-.84a5.48,5.48,0,0,1,.47-.72,2.25,2.25,0,0,1,.7-.69c0,.3,0,.53,0,.76s0,.43,0,.65" style="fill:#744da9"/><path d="M53.51,123.32a9.88,9.88,0,0,1-2-.42c-.18,0-.26-.19-.39-.29a5.42,5.42,0,0,1-.76-2.6,3.76,3.76,0,0,1-.05-1.14c0-.83.12-1,.93-1s1.44,0,2.15,0a1,1,0,0,1,.74.23c0,.29,0,.58,0,.86a10.76,10.76,0,0,1-.16,2.21q-.14,1-.3,1.91c0,.08-.1.16-.15.23" style="fill:#744da9"/><path d="M105.14,62.88a.47.47,0,0,1-.22.43l-2.33,1.91a.27.27,0,0,1-.38,0l-1.88-1.56-.94-.78c-.12-.1-.22,0-.33,0a7.75,7.75,0,0,0,.3-1.45.26.26,0,0,1,.28-.26H101c.19,0,.39,0,.52-.14s0-.41.14-.58V60a33.79,33.79,0,0,1,3.47,2.91" style="fill:#744da9"/><path d="M48.31,109.44a2,2,0,0,1,1.16-.31H51.2a3.11,3.11,0,0,0,1-.1c.35-.12.69.09,1,.1.48.4.38,1,.5,1.5.2.88.23,1.79.39,2.67a.89.89,0,0,1-.13.75,16.25,16.25,0,0,1-3.21,0c0-.17,0-.33.05-.5s.08-.52.1-.78a2.35,2.35,0,0,0-1.09-2.34.53.53,0,0,1-.09-.11c-.05-.12-.2-.1-.28-.17h0c-.07-.09-.2-.06-.27-.15h0a.37.37,0,0,0-.2-.12.09.09,0,0,1-.1,0l-.16-.11h0c-.06-.11-.2-.08-.28-.16h0c-.05,0-.09-.11-.16-.13Z" style="fill:#744da9"/><path d="M50.79,114a1.2,1.2,0,0,1,.55-.15h2.07a1.05,1.05,0,0,1,.54.15,1.55,1.55,0,0,1,.34,1.14,5.66,5.66,0,0,1-.17,2.47c0,.15,0,.3,0,.44H50.94c-.45,0-.56.12-.58.55,0,.17,0,.34,0,.5s0,.58,0,.86a1.5,1.5,0,0,1-.1-.34,14.73,14.73,0,0,1,.06-2.86c.08-.52.13-1,.21-1.56a3.93,3.93,0,0,1,.13-.48c.16-.18,0-.43.13-.62a.08.08,0,0,1,0-.11" style="fill:#744da9"/><path d="M77.09,61.59a6.62,6.62,0,0,0,.68,1.17,1.45,1.45,0,0,1,.33.7L76,65.22a.26.26,0,0,1-.38,0l-2.44-2c-.13-.11-.17-.22,0-.37l.18-.22a23.77,23.77,0,0,1,3-3c0,.06.12.11.12.17a4,4,0,0,0,.6,1.86" style="fill:#744da9"/><path d="M66.54,102.2c.15,0,.31,0,.42-.11a1.45,1.45,0,0,0,.9,0,5.6,5.6,0,0,1,1.41-.07,16.36,16.36,0,0,1,.41,2.45.4.4,0,0,1-.13.35,2,2,0,0,1-1,.15,23.92,23.92,0,0,0-3.36.11,2,2,0,0,0-.81.25c-.42.1-.38-.24-.44-.47a13.78,13.78,0,0,0-.51-2.16l0-.11a.44.44,0,0,1,.38-.14h1.07c.08-.09.21-.05.29-.14h1.16c.08-.09.21-.05.29-.14" style="fill:#744da9"/><path d="M81.57,36.26a1,1,0,0,0-.29.81c0,.32,0,.65,0,1-.25.6-.39,1.24-.59,1.85-.15.45-.38.66-.85.39a2.87,2.87,0,0,0-1.53-.34,1.66,1.66,0,0,0-.36,0l-.15,0-.14.06-.13.06-.13.06-.12.07-.1.08,0,0-.11.08h-.07c-.12,0-.26-.07-.27-.2,0-.48,0-1,0-1.43,0-.18.15-.23.29-.27h0c.16.19.41,0,.59.15h0a.77.77,0,0,0,.85,0,5.17,5.17,0,0,1,.65-3,1.09,1.09,0,0,1,.46-.55,2.45,2.45,0,0,0,2.07,1.07" style="fill:#744da9"/><path d="M126.52,122.17a14.26,14.26,0,0,1-2.18-.2.61.61,0,0,1-.31-.67c.17-1.27.12-2.56.32-3.83,0-.14.08-.27.11-.41a4.68,4.68,0,0,0,.19-.8.41.41,0,0,1,.14-.19s.09-.07.09-.1c0-.38.24-.52.61-.48a6.15,6.15,0,0,0,.71,0,.48.48,0,0,1,.46.27h0c-.05.1-.21.06-.25.19h0a.2.2,0,0,0-.16.15h0a.2.2,0,0,0-.15.16h0c-.16.09-.21.28-.32.42h0a.33.33,0,0,0-.13.17h0c-.13.06-.1.2-.16.29h0c-.12.08-.09.22-.14.33s0,.38-.05.57a.91.91,0,0,0,.22.66,4.57,4.57,0,0,1,1,2.73c0,.26,0,.53,0,.79" style="fill:#744da9"/><path d="M124.79,116.07a.36.36,0,0,0,0,.13c-.16.22,0,.51-.13.73a20.36,20.36,0,0,0-.31,3.13,4.43,4.43,0,0,1-.07.85,1.56,1.56,0,0,0,.07,1.05.67.67,0,0,1-.42-.12,1.17,1.17,0,0,1-.2-1c.16-1.57.19-3.15.47-4.71.2-.8.25-1.63.44-2.44a3.91,3.91,0,0,0,.14-.63,1.46,1.46,0,0,1,0-.2,3.32,3.32,0,0,0,.12-.51,1.88,1.88,0,0,1,0-.21c.15-.9.46-1.75.67-2.63a.81.81,0,0,1,.3-.55s.07-.07.09-.11l1.06-3.23a.86.86,0,0,1,.43.29.55.55,0,0,0-.29.39c-.6,1.72-1.15,3.45-1.59,5.22-.32,1.3-.59,2.61-.83,3.93a4.28,4.28,0,0,0,0,.57" style="fill:#a293c1"/><path d="M54.12,117.66c0-.76,0-1.51,0-2.27,0-.44-.09-.89-.15-1.33a3.79,3.79,0,0,0-.09-1c-.11-.48-.13-1-.19-1.48a18.47,18.47,0,0,0-.44-2.45,27.69,27.69,0,0,0-.65-3.05c-.16-.62-.33-1.24-.5-1.85.09-.06.18-.14.3-.12a2.15,2.15,0,0,0,0,.43c.31,1.22.66,2.44.89,3.68a.89.89,0,0,0,.09.2,3.14,3.14,0,0,1,.45,1.49c.2,1,.26,1.94.42,2.91a19,19,0,0,1,.14,4.84c0,.26,0,.52,0,.78,0,0,0,0,0,.09-.23-.26,0-.64-.23-.87" style="fill:#ab87e5"/><path d="M69.59,104.51c-.08-.56-.18-1.11-.25-1.67,0-.26,0-.51-.06-.77h.16a10.48,10.48,0,0,1,.3,2.3c.07.16,0,.18-.14.15" style="fill:#ab87e5"/><path d="M91.33,35c-.09,0-.18-.08-.19-.19s0-.33,0-.49S91,34,90.8,34l-.71,0a1.68,1.68,0,0,1,.89-.16c.17,0,.25.1.26.26a3.31,3.31,0,0,0,.09.91" style="fill:#7267a9"/><path d="M48.55,196.21c.23.16.31.43.52.67-.35-.13-.35-.13-.66-.54,0-.05.06-.13.15-.13" style="fill:#cce5e9"/><path d="M85.19,211.43c.1,0,.21,0,.26-.14a1.24,1.24,0,0,1,.66.32,1.94,1.94,0,0,1-.93-.18" style="fill:#a9d5d9"/><path d="M144.31,196.43a.3.3,0,0,0,.3-.15,2.43,2.43,0,0,1,.57.57,1.45,1.45,0,0,1-.87-.42" style="fill:#a6d3d9"/><path d="M83,210a.37.37,0,0,1-.12,0c-.11-.09-.38-.1-.29-.29s.25,0,.39.06a.41.41,0,0,1,.27.14c-.09,0-.2,0-.25.12" style="fill:#bcdde0"/><path d="M119.15,207.53l.15.14c-.12.19-.33.25-.52.43a.79.79,0,0,1,.37-.58" style="fill:#9fd0d5"/><path d="M143.28,169c-.2-.16-.15-.42-.32-.67a.59.59,0,0,1,.49.36c-.13.06-.15.19-.16.31" style="fill:#d0e8eb"/><path d="M57.66,199.57a.36.36,0,0,1-.14-.27c0-.1-.12-.18,0-.3.2.08.22.28.31.44l-.13.13" style="fill:#aed7db"/><path d="M6,188.88c.09-.07.18-.15.27-.21a.13.13,0,0,1,.12,0,.14.14,0,0,1,0,.12.46.46,0,0,1-.23.26L6,188.88" style="fill:#cfe7eb"/><path d="M48.55,196.21l-.15.13-.27-.37.14-.14.27.38" style="fill:#96ccd1"/><path d="M78.39,38.71a.59.59,0,0,1-.85,0c.28,0,.57.08.85,0" style="fill:#796bab"/><path d="M33.42,186.44l.17.16c-.07.09-.13.19-.2.27s-.1.1-.17,0a.13.13,0,0,1,0-.12c.06-.12.14-.23.21-.35" style="fill:#aad5da"/><path d="M86.91,35.11a.92.92,0,0,1-.15.22c-.11.09-.22,0-.25-.1a1.47,1.47,0,0,1,0-.28.32.32,0,0,0,.41.16" style="fill:#7468a9"/><path d="M161.64,191.08a.77.77,0,0,1,.07-.12c.06-.07.14-.16.23-.12s0,.16,0,.24a.81.81,0,0,1-.12.16l-.18-.16" style="fill:#b3d9dd"/><path d="M64.45,204.33a1.85,1.85,0,0,1-.16-.17.11.11,0,0,1,0-.11.1.1,0,0,1,.1,0l.25.26-.19,0" style="fill:#bddee3"/><path d="M65.38,206.14l.15-.15a.66.66,0,0,1,.25.26.11.11,0,0,1,0,.17,1,1,0,0,1-.39-.29" style="fill:#99cdd3"/><path d="M65.77,206.42v-.17l.26.25a.1.1,0,0,1,0,.1.11.11,0,0,1-.11,0,1.79,1.79,0,0,1-.17-.17" style="fill:#c1e0e3"/><path d="M171.32,188.77l-.16-.12s0-.05,0-.06.06-.07.08-.06a.6.6,0,0,1,.38.25h-.29" style="fill:#b9dcdf"/><path d="M77.54,38.74c-.21,0-.44.09-.59-.15.2,0,.42,0,.59.15" style="fill:#796bab"/><path d="M50.78,114.16c0,.21.09.45-.13.62a.85.85,0,0,1,.13-.62" style="fill:#7468a9"/><path d="M59.58,204.1l.18,0a.42.42,0,0,1,.1.07s.05.08,0,.11-.1,0-.15,0a1.87,1.87,0,0,1-.17-.17" style="fill:#b0d8dc"/><path d="M125.8,116.65a.37.37,0,0,1,.32-.42.71.71,0,0,1-.32.42" style="fill:#7267a9"/><path d="M100.36,41.06c-.16,0-.34,0-.42-.16a.48.48,0,0,1,.42.16" style="fill:#6e65a8"/><path d="M125.38,117.42c0-.14,0-.26.14-.33a.39.39,0,0,1-.14.33" style="fill:#7267a9"/><path d="M100.65,41.2a.28.28,0,0,1-.29-.14.3.3,0,0,1,.29.14" style="fill:#6e65a8"/><path d="M100.93,41.35a.28.28,0,0,1-.28-.15.3.3,0,0,1,.28.15" style="fill:#6e65a8"/><path d="M118.85,86.46a.3.3,0,0,1-.12-.3.28.28,0,0,1,.12.3" style="fill:#cbbcd8"/><path d="M125.52,117.1c0-.13,0-.25.16-.29a.33.33,0,0,1-.16.29" style="fill:#7267a9"/><path d="M126.4,116c0-.14.13-.17.25-.19a.31.31,0,0,1-.25.19" style="fill:#7267a9"/><path d="M49.49,110.15c.13,0,.24,0,.28.17a.37.37,0,0,1-.28-.17" style="fill:#7769aa"/><path d="M49.21,110a.28.28,0,0,1,.27.15.31.31,0,0,1-.27-.15" style="fill:#7769aa"/><path d="M48.48,109.57a.26.26,0,0,1,.28.16.3.3,0,0,1-.28-.16" style="fill:#7769aa"/><path d="M87.06,35a.2.2,0,0,1-.16.14.18.18,0,0,1,.16-.14" style="fill:#7468a9"/><path d="M101.14,41.48a.23.23,0,0,1-.2-.12.22.22,0,0,1,.2.12" style="fill:#6e65a8"/><path d="M57.87,87.88c0,.06,0,.09-.06.07s0,0,0,0h.05" style="fill:#7867a8"/><path d="M126.11,116.25a.17.17,0,0,1,.15-.16.19.19,0,0,1-.15.16" style="fill:#7267a9"/><path d="M126.25,116.1a.17.17,0,0,1,.16-.15.18.18,0,0,1-.16.15" style="fill:#7267a9"/><path d="M49,109.88a.23.23,0,0,1,.2.12.22.22,0,0,1-.2-.12" style="fill:#7769aa"/><path d="M48.75,109.72l.16.11a.14.14,0,0,1-.16-.11" style="fill:#7769aa"/><path d="M125.67,116.82a.19.19,0,0,1,.13-.17.18.18,0,0,1-.13.17" style="fill:#7267a9"/><path d="M48.31,109.44l.16.13a.17.17,0,0,1-.16-.13" style="fill:#7769aa"/><path d="M119.3,207.67a.17.17,0,0,1,.14-.12.17.17,0,0,1-.14.12" style="fill:#9fd0d5"/><path d="M119.31,207.3l-.11.12a.13.13,0,0,1,.11-.12" style="fill:#9fd0d5"/><path d="M90.1,208a9.72,9.72,0,0,1-2.14-.13,1.27,1.27,0,0,0-.36,0,14.58,14.58,0,0,1-2.43-.26,27.9,27.9,0,0,1-3-.61,23.86,23.86,0,0,1-2.93-1,20.44,20.44,0,0,1-4.08-2.28,21.09,21.09,0,0,1-4-3.69,22.56,22.56,0,0,1-3.24-5,21.32,21.32,0,0,1-1.7-5.11,15.49,15.49,0,0,1-.3-2.21,9.36,9.36,0,0,1-.11-1.29,8.91,8.91,0,0,1,.42-2.47,3.63,3.63,0,0,1,.51-.95,2.42,2.42,0,0,1,1.63-.83,10.39,10.39,0,0,1,2.3-.16,3.23,3.23,0,0,1,.86.09.74.74,0,0,0,.28,0,17,17,0,0,1,2.87.19,15.28,15.28,0,0,1,2.22.22.69.69,0,0,0,.21,0,12.52,12.52,0,0,1,2.15.19,14.41,14.41,0,0,1,2.22.23,1.92,1.92,0,0,0,.43,0,4.37,4.37,0,0,1,1.29.12.42.42,0,0,0,.14,0c1.3,0,2.59.23,3.89.17a3.92,3.92,0,0,1,1.29.1,1.88,1.88,0,0,0,.5,0h1.81a4,4,0,0,0,1.15-.09,2.09,2.09,0,0,1,.5,0,16.57,16.57,0,0,0,2.88-.14,2.49,2.49,0,0,1,.43,0,5,5,0,0,0,1.43-.12.4.4,0,0,1,.14,0,16.11,16.11,0,0,0,2.51-.19,11.22,11.22,0,0,0,2.07-.23.67.67,0,0,1,.21,0c.73,0,1.43-.21,2.15-.16.65-.22,1.34-.05,2-.25a2.08,2.08,0,0,1,.5,0A4.47,4.47,0,0,0,108,182a1.5,1.5,0,0,1,.43,0h3.32a6.48,6.48,0,0,1,1.07.13,2.54,2.54,0,0,1,1.82,1.38,6,6,0,0,1,.68,1.89,10.68,10.68,0,0,1,.14,3,16.45,16.45,0,0,1-.6,3.32,22.09,22.09,0,0,1-2.71,5.88,21.29,21.29,0,0,1-3.77,4.25,20.77,20.77,0,0,1-4.1,2.8A25.61,25.61,0,0,1,97,207.27c-1,.2-2.08.34-3.12.47-.62.08-1.24.08-1.87.13a13.24,13.24,0,0,1-1.88.13" style="fill:#5c929d"/><path d="M109.6,99.17a.82.82,0,0,0,.25.12A11.14,11.14,0,0,1,113,100a1.44,1.44,0,0,0,.62.17,5.64,5.64,0,0,1,3,2.1,8,8,0,0,1,.57.75,12.6,12.6,0,0,1,2,5.85,9.49,9.49,0,0,1-1,5c-.18.39-.35.78-.52,1.18a18.3,18.3,0,0,1-2.45,3.87c-.27.3-.22.42.16.51.61.13,1.21.28,1.81.46.29.09.62.12.82.4-.09.17-.18.34-.28.5l-4.81,7.46q-2,3.15-4,6.32a.55.55,0,0,1-.59.3l-1.21-.16-3.49-.53c-.83-.12-1.67-.21-2.5-.33l-3.34-.51L95.28,133l-2.64-.38-2.42-.35L88.58,132a3.08,3.08,0,0,0-1,0l-4.89.84-3.68.67-3.76.62-2.76.49-3.61.64a5.54,5.54,0,0,1-.58,0c-.37.12-.61-.12-.86-.32l-2.32-3.38c-1.41-2.06-2.8-4.12-4.22-6.17-.49-.71-1-1.4-1.44-2.15a.15.15,0,0,1,0-.2,2.12,2.12,0,0,1,.8-.3,17.14,17.14,0,0,0,4.41-2c.16-.09.31-.2.47-.28q2.49-.84,5-1.51a3.77,3.77,0,0,0,.43-.13c1.66-.5,3.34-.89,5-1.3a3.11,3.11,0,0,0,.31-.09,23.75,23.75,0,0,0,5-2.27l.25-.14.23-.16.32-.21a37.77,37.77,0,0,0,4.91-3.86,3.14,3.14,0,0,0,.43-.42c.89-.74,1.55-1.7,2.37-2.5.1-.1.17-.23.28-.33s.28-.31.49-.22.19.31.2.5a4.11,4.11,0,0,1-.19,1.06,14.51,14.51,0,0,1-3.16,5.39l-.35.35c-.09.13-.31.19-.26.39s.16.06.25.07H87a11.61,11.61,0,0,0,5-1.49l.37-.23A11.9,11.9,0,0,0,96,109.7c.06-.1.12-.21.19-.3s.27-.48.54-.39.21.4.21.64c0,.53,0,1.06,0,1.58a1.4,1.4,0,0,1,0,.21,3.88,3.88,0,0,0-.13.6,7.64,7.64,0,0,1-1.59,3.33c.67.12,1.13,0,2.24-.68a3.93,3.93,0,0,0,.34-.21,12,12,0,0,0,2.91-3.16c.18-.29.34-.58.52-.86s.19-.53.48-.4.17.42.14.66c-.09.73-.36,1.43-.45,2.25.66-.18,1.21-.47,1.81-.63l.38-.14a11.17,11.17,0,0,0,4-2.42,6.93,6.93,0,0,0,.61-.71l.16-.21.08-.14.11-.2.07-.14.1-.21.06-.15.09-.24.06-.18a3.55,3.55,0,0,0,0-2.4,2,2,0,0,0-2.48-1.31,1.7,1.7,0,0,0-1.21,1.82,1.17,1.17,0,0,0,1.14.92.93.93,0,0,0,1-.9c0-.18-.07-.44.18-.48s.38.18.49.37a2.13,2.13,0,0,1,.33,1.65,1.38,1.38,0,0,1-.05.19,2.13,2.13,0,0,1-.12.26,1.4,1.4,0,0,1-.09.17L108,108l-.06.07-.13.14-.07.07-.16.14a3.16,3.16,0,0,1-3.59.14,2.06,2.06,0,0,1-.35-.25,5.8,5.8,0,0,1-1.39-1.9,4.78,4.78,0,0,1,.28-4.16,1.44,1.44,0,0,1,.63-.67c.14-.13.29-.25.42-.38a6.94,6.94,0,0,1,4.13-2,18.3,18.3,0,0,1,1.93-.11" style="fill:#69cad1"/><path d="M66.25,159.89c-.47-.17-.94-.33-1.4-.51a.36.36,0,0,0-.44.09l-.75.75a2.38,2.38,0,0,1-.59.51,1.13,1.13,0,0,1-.68.19,13.27,13.27,0,0,1-8.59-3l-.14-.17-.06-.08-.14-.15-.08-.07-.18-.13c-.22-.24-.65-.4-.29-.84a1.81,1.81,0,0,1,1-.17H58.4a1.39,1.39,0,0,0,1-.27,3.22,3.22,0,0,1,1.48.14,14.1,14.1,0,0,0,7.67-.94.79.79,0,0,1,.42-.07,2.12,2.12,0,0,0,1.22.3,4,4,0,0,1,1.83.16.37.37,0,0,1,.09.2.66.66,0,0,1-.07.31,1.22,1.22,0,0,1-.1.18l-.12.16-.06.08-.11.17a12.74,12.74,0,0,1-4.49,3.12,1.35,1.35,0,0,1-.91,0" style="fill:#ddedef"/><path d="M115.08,160.76a8.77,8.77,0,0,1-1.43-1.29c-.24-.23-.48-.47-.7-.71a.53.53,0,0,0-.64-.15l-2.54,1a1.52,1.52,0,0,1-.69.17,1.64,1.64,0,0,1-1.07-.33,12.29,12.29,0,0,1-3.14-2.39c-.21-.22-.46-.44-.4-.8s.59-.45,1-.46c.74,0,1.47,0,2.21,0a1.57,1.57,0,0,0,1-.23c.31-.14.56,0,.81.16a13.91,13.91,0,0,0,10.86.28,10.75,10.75,0,0,0,2.51-1.54l.17-.13.08-.06c.43-.43,1.14-.58,1.26-1.31,0,0,.12,0,.18,0a1.39,1.39,0,0,0-.07.7c0,.48,0,1,0,1.43a1.81,1.81,0,0,1-.58,1.81,13,13,0,0,1-7.91,4c-.25,0-.52.14-.76,0h0a.47.47,0,0,0-.18-.11" style="fill:#deeef0"/><path d="M53.39,141.36c.22-.24.18-.59.31-.86a1.05,1.05,0,0,1,.81-.23c6,0,12,0,18,0l.29,0c.46.06.64.44.85.78a8.38,8.38,0,0,1,.72,1.45c.05.26.16.53-.17.7a3,3,0,0,1-1.07.1h-20a2.79,2.79,0,0,1-1.07-.11c-.42-.34-.32-.77-.2-1.2a.55.55,0,0,1,.16-.17l.19-.1a4.22,4.22,0,0,0,1.18-.39" style="fill:#c8e4e5"/><path d="M125.08,140.93a.55.55,0,0,1,.43.13,7.69,7.69,0,0,1,1.19,2.29c.07.19.31.58-.23.61a1.94,1.94,0,0,0-1.87-.78q-9.52,0-19,0a2,2,0,0,1-1.32-.21,2.27,2.27,0,0,1,.17-1.87.6.6,0,0,1,.58-.35c.26,0,.53,0,.79,0H123a11.32,11.32,0,0,1,2.07.2" style="fill:#cae4e6"/><path d="M73,140.5H53.7a6.29,6.29,0,0,1,.26-1.59c.19-.94.19-1,1.21-1H65.25a1.58,1.58,0,0,1,1,.22.76.76,0,0,0,.74.14c.61-.1,1.22-.21,1.82-.33a4.23,4.23,0,0,1,.85-.09c.28-.16.62.06.89-.15h0a.4.4,0,0,1,.35,0,7.55,7.55,0,0,1,2.19,2.53c0,.06,0,.14-.07.19" style="fill:#a9d4d6"/><path d="M124.54,152.94a.25.25,0,0,0-.18.21c0,.19,0,.38,0,.57s0,.18-.12.15c-.46-.17-.62.24-.9.43l-.13.07a1.57,1.57,0,0,0-.57,0c-5,0-10,0-15.07,0-.4.18-.66-.07-.91-.32s-.44-.55-.66-.82l-.12-.18-.18-.27c-.18-.34-.47-.65-.31-1.08s.7-.26,1.07-.26c1.88,0,3.77.07,5.65-.07a2.19,2.19,0,0,1,.82.23,5.17,5.17,0,0,0,2.74.14c2.73.23,5.47.07,8.2.12A2.61,2.61,0,0,1,125,152a.33.33,0,0,1,.13.42.56.56,0,0,1-.12.18l-.08.07a.71.71,0,0,0-.27.27.1.1,0,0,1-.1,0" style="fill:#e0eff1"/><path d="M112.36,134a7.5,7.5,0,0,1,.71-1.15c.45-.69.92-1.38,1.38-2.06.06-.1.15-.18.22-.27a.92.92,0,0,1,.82-.5c1.8,0,3.61-.07,5.41,0a3.4,3.4,0,0,1,.25,1c.29,1.51.56,3,.82,4.53,0,.26.06.52.09.79s-.26.2-.4.15a5.68,5.68,0,0,1-.88-.49,13.09,13.09,0,0,0-5.34-1.62,19.6,19.6,0,0,0-2.44,0c-.26,0-.74.13-.64-.45" style="fill:#a3d1d3"/><path d="M96.16,140.08a11.08,11.08,0,0,1-1.34-1.5c-.77-.86-1.5-1.76-2.24-2.64a3.73,3.73,0,0,1-.5-.67c.11-.15.24-.09.34-.08l3.85.55,4.13.6,2.85.4,2.35.34a.41.41,0,0,1,.12.07.39.39,0,0,1-.19.49,13.83,13.83,0,0,0-1.83,1.91c-.17.18-.34.34-.62.25a13.21,13.21,0,0,0-2.73-.1c-1.05,0-2.11,0-3.17,0a1.23,1.23,0,0,0-1,.39" style="fill:#a9d4d6"/><path d="M108.16,160.13c-1.09.43-2.19.86-3.28,1.28l-8.68,3.3-.4.15a.15.15,0,0,1-.13,0,.14.14,0,0,1,0-.12,1.68,1.68,0,0,1,.11-.26l2.55-5.09a2.1,2.1,0,0,1,.16-.23c.31-.4.75-.36,1.18-.36,2.15,0,4.3,0,6.44,0a5.64,5.64,0,0,1,2.07,1.07.2.2,0,0,1,0,.32" style="fill:#cce5e8"/><path d="M124.65,157a6.3,6.3,0,0,1,.11.64c.07,1,.12,2,.19,3s.17,2.05.24,3.08c0,.45,0,.91,0,1.36-.4-.09-.3-.43-.34-.69s-.08-.48-.42-.45c-1.79.12-3.58,0-5.38.06.21.48.9.63.79,1.28a1.07,1.07,0,0,1-.4-.29l-3.21-3.06c-.1-.1-.19-.21-.28-.32-.18-.55.31-.45.55-.5a15,15,0,0,0,4-1.33A18.41,18.41,0,0,0,124,157.3c.19-.16.35-.42.67-.33" style="fill:#cee6e9"/><path d="M66.28,138.18H54.69c-.48,0-.48,0-.59.49a.4.4,0,0,1-.15.24,7.07,7.07,0,0,1,.29-1.88,3,3,0,0,1,1.51-1.17,12.9,12.9,0,0,1,7.36-1.5,1.55,1.55,0,0,1,.68.2.86.86,0,0,1,.16.14L66.21,138a1,1,0,0,1,.08.2" style="fill:#a6d3d5"/><path d="M122.6,139.34a1.44,1.44,0,0,1,.12.41c0,.5.32.63.71.72a4.42,4.42,0,0,1,1.09.31,1.4,1.4,0,0,1-.78.07c-6.13,0-12.26,0-18.4,0-.58,0-1.13.28-1.71.11-.26-.07-.36-.26-.23-.48.42-.68.79-1.41,1.65-1.65,5.45,0,10.9,0,16.35,0,.45,0,1-.14,1.2.51" style="fill:#abd5d7"/><path d="M70.3,161.31a24.22,24.22,0,0,1-2.89-1c0-.25.17-.33.33-.41a17.31,17.31,0,0,0,3.43-2.22,1.37,1.37,0,0,1,.57-.29,25.23,25.23,0,0,1,5-.13c.53,0,.72.4,1,.74a22.63,22.63,0,0,1,1.6,3,1.85,1.85,0,0,1-1.24.23c-2.45,0-4.89,0-7.34,0-.14,0-.29,0-.41.08" style="fill:#c8e3e5"/><path d="M38.77,145.53l2.74-.8,5.79-1.64a2.17,2.17,0,0,1,.7-.15,4.32,4.32,0,0,0,.82-.21c.34-.13.55,0,.44.33a17.21,17.21,0,0,0-.61,5.24.5.5,0,0,1-.21.43c-.37-.12-.33-.45-.32-.72,0-.59-.23-.81-.82-.8-2.26,0-4.52,0-6.78,0-.5.13-.82.57-1.3.72a7.29,7.29,0,0,1-1.31-.65c.13-.67.65-1.15.85-1.78" style="fill:#b2d8d9"/><path d="M122.6,139.34A.67.67,0,0,0,122,139a4.51,4.51,0,0,1-.5,0H105.76a1.58,1.58,0,0,1-.91-.14,3.46,3.46,0,0,1,1.74-1.62,15.05,15.05,0,0,1,2,.21,7.33,7.33,0,0,1,1.07.15c.24.06.35-.1.5-.2.31-.4.75-.36,1.18-.36H120a11.66,11.66,0,0,0,1.5-.06.69.69,0,0,1,.76.57,9.61,9.61,0,0,1,.3,1.74" style="fill:#a9d4d6"/><path d="M54.38,136.16a7.27,7.27,0,0,1,.09-.85,27.14,27.14,0,0,0,.51-3.38.87.87,0,0,1,.13-.54c.07-.49.39-.65.84-.66h4.65a1.48,1.48,0,0,1,.75.22,26.7,26.7,0,0,1,1.88,2.74c-.13.51-.56.34-.87.34a14.23,14.23,0,0,0-5.92,1.29c-.46.21-.88.5-1.33.71-.23.11-.45.32-.73.12" style="fill:#a2d1d3"/><path d="M72.18,137.45a5.36,5.36,0,0,1,1.33-.27c2.85-.51,5.71-1,8.57-1.48l2.12-.38c.07,0,.15,0,.17.07a.18.18,0,0,1,0,.13c-.18.25-.37.5-.56.75l-2.35,2.91a1.36,1.36,0,0,1-.16.14,1.8,1.8,0,0,0-.83-.2c-2.19,0-4.38,0-6.57,0a3.08,3.08,0,0,0-.64.09.67.67,0,0,1-.74-.29c-.19-.21-.36-.44-.55-.65-.54-.61-.53-.65.24-.83" style="fill:#a7d3d5"/><path d="M51.65,168.4c0-1,0-2,.09-3,.06-.79.05-1.58.09-2.37a1.36,1.36,0,0,1,.09-.7,1.44,1.44,0,0,1,1-.22c2.5,0,5,0,7.49,0,.35,0,.79-.12,1,.37-.09.11-.17.23-.27.33l-2.53,2.53c-.12.12-.25.21-.38.32-1.78-.13-3.56,0-5.34-.07-.54,0-.8.22-.8.77s0,.92,0,1.37c0,.26.05.61-.36.68" style="fill:#cfe7e9"/><path d="M119.86,165.27c-.06-.28-.31-.42-.48-.61a6.43,6.43,0,0,1-.71-.77c.1-.17.24-.12.34-.12h4.61a3,3,0,0,0,1-.1c.31-.1.43,0,.45.36s0,.48,0,.72a.39.39,0,0,0,.14.32,8.7,8.7,0,0,1,.15,1.29c.08,1.2.17,2.4.26,3.6,0,.19,0,.38,0,.58a.14.14,0,0,1-.07.1.25.25,0,0,1-.13,0l-.06,0-.16-.14L120,165.49a2.13,2.13,0,0,1-.18-.22" style="fill:#d4e9ec"/><path d="M61.34,162.47a.38.38,0,0,0-.31-.15H51.92a32.58,32.58,0,0,1,.16-3.89c.16-.27.07-.56.07-.84s.17-.4.45-.24a4.27,4.27,0,0,1,.58.43,13.94,13.94,0,0,0,8.44,3.35c.27,0,.66-.12.74.34a5.48,5.48,0,0,1-1,1" style="fill:#cae4e7"/><path d="M120.91,130.06a.41.41,0,0,1-.37.17h-1.07c-1.29,0-2.58,0-3.87,0a1.36,1.36,0,0,0-.92.3,2.35,2.35,0,0,1,.46-.89q2.05-3.21,4.12-6.41c.08-.12.16-.24.25-.35a.21.21,0,0,1,.12-.05c.06,0,.08,0,.09.09.29,2.16.74,4.29,1.13,6.43,0,.23,0,.48.07.72" style="fill:#9fd0d1"/><path d="M61.35,131H55.62a.34.34,0,0,0-.36.27c0,.06-.09.11-.14.16a9.08,9.08,0,0,1,.2-1.71c.26-1.83.55-3.65.84-5.47a3.5,3.5,0,0,1,.12-.49.1.1,0,0,1,.17,0,.92.92,0,0,1,.18.22c1,1.63,2.16,3.18,3.22,4.77.5.76,1.07,1.48,1.5,2.28" style="fill:#a0d0d1"/><path d="M51.65,168.4c.16-.11.15-.29.15-.45,0-.53,0-1.05,0-1.58a3.61,3.61,0,0,1,0-.5.5.5,0,0,1,.57-.5h5.24a.51.51,0,0,1,.53.29h0l-.14.14h0l-.14.14h0l-.14.14h0l-.14.14h0l-.14.14h0l-.14.14h0l-.14.14h0l-.14.14h0l-.14.14h0l-.14.14h0l-.14.14h0l-.14.14a4.1,4.1,0,0,1-.27.33l-4.24,4.22c-.11.11-.2.27-.39.3s-.09-.15-.09-.23c0-.89.07-1.78.1-2.66a3.81,3.81,0,0,1,.11-.93" style="fill:#d3e9eb"/><path d="M96.16,140.08v-.21c0-.27,0-.35.28-.37h6.45a.45.45,0,0,1,.38.28.17.17,0,0,1,0,.17.91.91,0,0,1-.09.17l0,.08-.09.16a7.43,7.43,0,0,1-.42.75l-.15.26-.09.19a15.34,15.34,0,0,0-1.2,3.34c-.06.26,0,.65-.45.68a5,5,0,0,1-.86-1c-1.07-1.26-2.14-2.53-3.2-3.8a1.12,1.12,0,0,1-.11-.19c-.12-.12-.17-.3-.31-.41h0a.36.36,0,0,0-.15-.16Z" style="fill:#add6d7"/><path d="M126.71,141.35a12.6,12.6,0,0,1,1.88.43l5.27,1.32a.59.59,0,0,1,.32.14,6.87,6.87,0,0,1,1.18,1.43.83.83,0,0,1,.08.22.61.61,0,0,1,0,.25c-.24.43-.66.34-1,.34-1.75,0-3.5,0-5.25,0a5,5,0,0,0-1.21.12c-.38,0-.42-.26-.48-.51a19.29,19.29,0,0,0-1-3.16c-.09-.21-.43-.65.25-.58" style="fill:#b1d8d9"/><path d="M106.29,158.85a1.48,1.48,0,0,1-.83.15H99.36a1.92,1.92,0,0,0-.91.14,2.9,2.9,0,0,1,.12-.33l2.79-5.57a1.42,1.42,0,0,1,.12-.17c.36-.09.45.21.56.42a14.1,14.1,0,0,0,3.91,4.87c.15.12.39.23.33.5" style="fill:#c6e2e5"/><path d="M121.75,137.17a3.55,3.55,0,0,1-1.2.15h-9.48a1.86,1.86,0,0,0-.91.14,16.79,16.79,0,0,1,1.59-2.46,1.75,1.75,0,0,1,1-.3,13.35,13.35,0,0,1,8.46,1.82c.25.16.59.27.59.66" style="fill:#a6d3d5"/><path d="M124.79,113.63a6.7,6.7,0,0,1-.24,1.56c-.06.3,0,.64-.2.9a12.11,12.11,0,0,0-2.28-.1,1.64,1.64,0,0,0-.91.38c-.21-.09-.07-.36-.27-.5l-1.65,2.57c-.13-.11-.09-.24-.11-.35-.38-.54-.12-1.11-.05-1.66a33.87,33.87,0,0,1,.57-3.53,1.21,1.21,0,0,1,.32-.7.5.5,0,0,1,.25-.14c1.47-.11,2.95-.21,4.43-.2.23,0,.57.06.42.48a.44.44,0,0,1,0,.14c-.12.13,0,.32-.13.45a.33.33,0,0,1,0,.13c-.16.17,0,.42-.14.59" style="fill:#744da9"/><path d="M70.3,161.31c0-.11-.11-.25.08-.27a4.86,4.86,0,0,1,.57,0c2.4,0,4.79,0,7.19,0a5.17,5.17,0,0,1,1.14,0h0c.06.09,0,.23.15.29h0a6,6,0,0,0,.58,1,20.8,20.8,0,0,1,1.52,2.91c-.15.09-.28,0-.4,0l-7.46-2.64a1.45,1.45,0,0,1-.19-.1c-.08-.07-.21,0-.29-.12l-.15,0c-.06,0-.11-.09-.19-.1l-.25-.05-.18-.09h-.06l0,0c-.09-.09-.22-.06-.31-.12h-.06l-.06,0c-.09-.08-.22-.05-.31-.12a.16.16,0,0,1-.13,0c-.08-.07-.21,0-.29-.12l-.15,0c-.08-.06-.21,0-.28-.11l-.15,0a.44.44,0,0,0-.19-.1h-.05Z" style="fill:#cde6e8"/><path d="M75.09,147a.14.14,0,0,1-.07.12.17.17,0,0,1-.1.11l0,0a1,1,0,0,1-.12.15h0a.56.56,0,0,0-.14.16,8.8,8.8,0,0,1-1.28,1.59c-2.22-.18-4.44-.05-6.67-.08a2.15,2.15,0,0,1-.71,0c-.08-.06-.16-.15-.14-.24.1-.78-.11-1.57,0-2.36a.74.74,0,0,1,.64-.26c2.77,0,5.55-.09,8.32,0a.66.66,0,0,1,.24.13c.15.22.06.44,0,.65" style="fill:#d3e9ea"/><path d="M127.82,145.56a.44.44,0,0,1,.39-.28H135c.27,0,.27,0,.35-.43a4.28,4.28,0,0,1,1.59,1.74,21.54,21.54,0,0,1-2.59,1.3,18.55,18.55,0,0,0-2.66-.08c-1.22,0-2.45,0-3.67,0-.4-.38-.16-.92-.33-1.35a.93.93,0,0,1,.14-.87" style="fill:#b4dadb"/><path d="M40.24,147.14c.14-.18.34-.14.53-.14h7c.56,0,.58,0,.59.56,0,.29,0,.58,0,.86a.39.39,0,0,0,.14.32l.09.1c.09.26.13.5-.15.68-1.65,0-3.29,0-4.94,0a1.82,1.82,0,0,0-.78.07,4.28,4.28,0,0,1-1-.45c-.53-.25-1.05-.53-1.58-.8-.17-.43.12-.8.16-1.2" style="fill:#b5dadc"/><path d="M66,149a1.3,1.3,0,0,1,.55-.15h6.26a.61.61,0,0,1,.6.31h0c-.13.07-.09.22-.15.32a2.58,2.58,0,0,1,.42.82c.18.53,0,.87-.54,1-2.39-.08-4.78,0-7.17,0a4.91,4.91,0,0,1-1.14-.06c-.4-.14-.28-.37-.07-.58a4.91,4.91,0,0,0,1-1.47c.07-.09.14-.17.27-.13" style="fill:#d7ebed"/><path d="M73,139.2a.45.45,0,0,1,.39-.28h7.5c.27,0,.27,0,.35.42h0l-.13.15h0a.43.43,0,0,0-.14.17,16.13,16.13,0,0,1-1.59,2,24.83,24.83,0,0,0-4.74,0c-.34.1-.48-.13-.6-.37-.21-.4-.45-.78-.66-1.18l-.13-.25c-.06-.1-.13-.2-.18-.3a1.11,1.11,0,0,1-.11-.24.14.14,0,0,1,.06-.15" style="fill:#a9d4d6"/><path d="M54.41,117.66c0-1.07-.22-2.13-.16-3.2a6.53,6.53,0,0,1-.14-1.7c-.19-.48,0-.75.48-.78,1-.06,2.06,0,3.08-.12.48-.05.68.27.67.73a1.18,1.18,0,0,1,0,.26,2.36,2.36,0,0,0-.09,1,16,16,0,0,1-.1,2.83c-.05.08-.12.18-.22.13a3.37,3.37,0,0,0-2.78.14c-.08-.05-.15-.11-.24-.15s-.29,0-.31.14a3.35,3.35,0,0,0,0,.42.37.37,0,0,1-.13.31" style="fill:#744da9"/><path d="M121.17,116.36a.45.45,0,0,1,.37-.53,1.32,1.32,0,0,1,.35,0H124c.22,0,.37.07.4.3,0,.79-.17,1.56-.24,2.34,0,.12,0,.23,0,.35q-.08,1.53-.16,3.07l-1.75-.35a1.79,1.79,0,0,1-.28-.87,7.8,7.8,0,0,0-.16-1c-.14-.79-.28-1.58-.4-2.38a2.89,2.89,0,0,1-.15-.91" style="fill:#744da9"/><path d="M55.13,116.94c0-.3.27-.37.5-.42a7.38,7.38,0,0,1,1.83-.17.43.43,0,0,1,.47.34s.06.07.09.1a.36.36,0,0,1,.12.15,1.21,1.21,0,0,0,.22.53,1.78,1.78,0,0,0,1,.91.51.51,0,0,1,.37.4,4,4,0,0,1,0,1.09,6.5,6.5,0,0,0-.11,1.71A2.34,2.34,0,0,1,59.3,123a3.58,3.58,0,0,1-.9-1.1c-.86-1.27-1.7-2.54-2.55-3.81-.05,0-.09-.1-.14-.15s0-.1,0-.14l-.14-.14-.14-.15-.14-.29c-.05,0-.09-.1-.14-.14s0-.1,0-.14" style="fill:#744da9"/><path d="M118,120.28l-3.31-.87s0,0,0-.06.14-.24.24-.34a11.74,11.74,0,0,0,1.71-2.38l.87-1.57a1.51,1.51,0,0,1,1-.21c.47,0,.76.22.75.73a23,23,0,0,1-.47,3.5,3.11,3.11,0,0,1-.76,1.2" style="fill:#744da9"/><path d="M77.69,158l-.07,0c-.23-.07-.2-.41-.43-.45a6.08,6.08,0,0,0-.92-.09c-.43,0-.86,0-1.3,0H73.24a3.49,3.49,0,0,0-1.28.13,1.14,1.14,0,0,1-.36,0c-.08-.41.34-.55.47-.86a15.78,15.78,0,0,0,2.4-3.56c.09-.19.16-.42.46-.35a2.09,2.09,0,0,1,.17.23l2.37,4.44c.09.17.15.35.22.53" style="fill:#c1e0e1"/><path d="M59.46,156.11c0,.27-.23.36-.44.4a2.73,2.73,0,0,1-.57,0H53.64a1.5,1.5,0,0,0-.84.15c-.48,0-.61-.3-.63-.69a1.84,1.84,0,0,1,0-.78l0-.56c.09-.15.12-.29,0-.42h0c-.11-.55.33-.47.62-.5a11.21,11.21,0,0,0,1.83-.12.67.67,0,0,1,.22-.05,6.18,6.18,0,0,1,1.34,1,8.39,8.39,0,0,0,1.84,1l.24.13.15.08.23.09.24.07.32.09a.35.35,0,0,1,.22.14" style="fill:#d8ebec"/><path d="M128,147.73a1.31,1.31,0,0,1,.69-.15h5.41c.18,0,.24.14.27.29h0c-.09.07-.22,0-.29.15h0c-.09.07-.22,0-.29.15h0c-.09.07-.23,0-.3.15h0c-.09.07-.23,0-.3.15h0c-.09.07-.23,0-.3.15h0l-.15.11c-.64.34-1.27.69-1.91,1l-2.7,1.38c-.19.1-.4.17-.59.26a.31.31,0,0,1-.14-.24,17.5,17.5,0,0,1,.56-3.41" style="fill:#b7dbdd"/><path d="M74.49,141.66a.47.47,0,0,1,.45-.29h3.87c.25,0,.48,0,.6.3h0a.49.49,0,0,0-.14.16h0a.3.3,0,0,0-.14.19,2.74,2.74,0,0,1-.59.81c-.81,1-1.64,2.07-2.47,3.1a2.55,2.55,0,0,1-.26.25c-.37,0-.32-.3-.36-.51a25.18,25.18,0,0,0-.79-3.13l-.08-.29-.06-.17a2.13,2.13,0,0,1-.09-.25.15.15,0,0,1,.06-.15" style="fill:#aed6d8"/><path d="M42.7,149.6c0-.11-.12-.24.08-.28a1,1,0,0,1,.21,0h4.8a1.31,1.31,0,0,1,.69.15,1.07,1.07,0,0,1,.34.69,13.07,13.07,0,0,0,.56,2,.57.57,0,0,1,0,.67c-.69-.32-1.39-.63-2.07-1-1-.51-2.09-1-3.13-1.56a.48.48,0,0,0-.18-.11.12.12,0,0,1-.11,0,.46.46,0,0,0-.18-.11.12.12,0,0,1-.11,0,.41.41,0,0,0-.19-.11h-.05l0,0a.35.35,0,0,0-.2-.12h0l0,0c-.07-.08-.21,0-.28-.14Z" style="fill:#b9dcde"/><path d="M73.19,151.19a1,1,0,0,0,.44-.88,6.82,6.82,0,0,1,.75,1.42,1.4,1.4,0,0,1,0,.91,12.24,12.24,0,0,1-1.66,2.94c-.15.21-.31.44-.64.38a.31.31,0,0,0-.34-.29H69.4a.4.4,0,0,1-.4-.42c.34-.51,1-.66,1.38-1.06.22-.21.48-.38.69-.6.44-.43.89-.85,1.3-1.32a3.66,3.66,0,0,1,.83-1.07" style="fill:#d6eaeb"/><path d="M54.84,153.65c-.12.26-.34.29-.59.29H52.61a.35.35,0,0,0-.4.31,13.22,13.22,0,0,1-2-1,2.61,2.61,0,0,1-.59-1.26,2.19,2.19,0,0,1-.07-.45.48.48,0,0,1,.08-.22,1.22,1.22,0,0,1,1-.31c.73,0,1.46,0,2.19,0s.6.6.89.91l.09.16.13.23.19.29.16.2a2.8,2.8,0,0,1,.35.41l.09.15,0,.07a.87.87,0,0,1,.08.15v.09" style="fill:#d3e9e9"/><path d="M103.4,140.79h21.12a.75.75,0,0,1,.57.15H104.86a.29.29,0,0,0-.3.25,7.3,7.3,0,0,0-.3,1.76V143c0,.16,0,.32,0,.48a3.16,3.16,0,0,1,0,.64,1.27,1.27,0,0,1-.32.74,8.2,8.2,0,0,1-2.17.14c-.36-.18-.22-.49-.16-.75a10.68,10.68,0,0,1,1-2.47l.1-.18.19-.34c.13-.21.23-.46.51-.52" style="fill:#c3e1e2"/><path d="M106,152.93s0,.1,0,.14c-.2.4-.59.34-.94.35a10.52,10.52,0,0,0-2.33.15c-.63-.36-.82-.9-.63-1.78a20.37,20.37,0,0,1,1-2,.78.78,0,0,0,.11-.16h0c.12-.06.09-.2.15-.3h0a1.7,1.7,0,0,1,.94-.46.32.32,0,0,1,.23.24c.22,1,.68,1.86.88,2.83l.43.87c.05,0,.09.1.14.14" style="fill:#d4e9ea"/><path d="M104.27,148.88c0,.16-.09.28-.27.28a1.6,1.6,0,0,0-.63.14.73.73,0,0,0-.18-.72c-.49-.55-1-1.13-1.43-1.7a1.52,1.52,0,0,1-.39-.59,1.08,1.08,0,0,1,.28-1.31,1.29,1.29,0,0,1,.68-.15H104a.93.93,0,0,1,.2.72,21.93,21.93,0,0,0,.22,2.85.55.55,0,0,1-.13.47" style="fill:#c8e3e4"/><path d="M52.09,141.94a.42.42,0,0,0-.14.38c0,.26,0,.52,0,.78a4.72,4.72,0,0,1,0,1.91,1,1,0,0,1-1,.76,4.75,4.75,0,0,1-1.62-.11.52.52,0,0,1-.21-.57,5.78,5.78,0,0,1,1-2.73.77.77,0,0,1,.45-.2c.57-.17,1.15-.32,1.72-.47q.07,0,0,.08s0,0,0,0h0l-.14.14" style="fill:#c3e1e2"/><path d="M52.22,155.22a1.8,1.8,0,0,1,0,.35,1,1,0,0,0,.57,1.12,1.58,1.58,0,0,0,.58.58l.15.14h0l.15.14h0s.09.1.15.14a.71.71,0,0,0,.3.3c.65.41,1.27.85,1.94,1.24a9.44,9.44,0,0,0,1.38.61,16,16,0,0,0,2.63.72,2.79,2.79,0,0,0,.43,0,1.73,1.73,0,0,1,.43,0,8.51,8.51,0,0,0,2.15.13,2.63,2.63,0,0,1-.71.73c-.12-.16-.29-.15-.46-.15a16.94,16.94,0,0,1-2.63-.3,11.78,11.78,0,0,1-2.47-.76,11.45,11.45,0,0,1-2.87-1.64c-.52-.42-1.05-.82-1.57-1.23-.16,0-.11.14-.12.23s0,.19,0,.29,0,.39-.15.53c0-1,0-1.91,0-2.87a1.43,1.43,0,0,1,.09-.34" style="fill:#b6dbdf"/><path d="M136.92,146.58a1.63,1.63,0,0,1-.57-.54c-.29-.45-.7-.78-1-1.2h0l-.14-.14a9.16,9.16,0,0,0-.84-1.07.52.52,0,0,1-.16-.39l.14,0c.13.11.32,0,.45.12a6.8,6.8,0,0,1,1.58.41c.88.33,1.79.55,2.68.85.27.09.64.08.67.5a21.84,21.84,0,0,1-2.78,1.43" style="fill:#d0e7e8"/><path d="M124.65,157c-.41.33-.84.64-1.21,1a11.83,11.83,0,0,1-2.7,1.89,11.47,11.47,0,0,1-3.86,1.32c-.24,0-.47.09-.7.14s-.18.14-.2.27a2.74,2.74,0,0,1-.71-.73,9.36,9.36,0,0,1,1.55-.26,12.5,12.5,0,0,0,3.25-1.08,11.56,11.56,0,0,0,3.2-2.26c.25-.26.5-.52.76-.76a1.32,1.32,0,0,0,.47-1.15,1.66,1.66,0,0,1,0-.29.64.64,0,0,1,.11.41c0,.5,0,1,0,1.5" style="fill:#b7dbdf"/><path d="M121.75,137.17a10.24,10.24,0,0,0-2.09-1.22,13.23,13.23,0,0,0-2.65-.86,7.64,7.64,0,0,0-1.83-.24c-.53,0-1.05,0-1.58,0a3.9,3.9,0,0,0-1.28.12,1.92,1.92,0,0,1-.57,0,3.63,3.63,0,0,1,.61-1c0,.12.07.25.2.26a3.54,3.54,0,0,0,1.21,0,1.83,1.83,0,0,1,1.06,0,1.86,1.86,0,0,0,.49.07,11.85,11.85,0,0,1,4,.87,11.34,11.34,0,0,1,2.34,1.23c.12.08.27.25.43,0a3.8,3.8,0,0,1,.24,1.17,1.25,1.25,0,0,0-.55-.42" style="fill:#98ccce"/><path d="M102.1,151.78a2.81,2.81,0,0,0,.58,1.72.32.32,0,0,1,.11.1l.12.2.08.14.14.22a26.23,26.23,0,0,1,1.42,2.21,7.62,7.62,0,0,0,1.48,1.46c.31.23.57.5.9.71a15,15,0,0,0,2.14,1.18,3.38,3.38,0,0,1-.91.39c0-.2-.15-.28-.3-.35a10.13,10.13,0,0,1-1.57-.93c-.58-.53-1.24-1-1.78-1.56a14.57,14.57,0,0,1-2.42-3.37l-.29-.58a.58.58,0,0,0-.31-.29l.61-1.27" style="fill:#b4dadd"/><path d="M54.38,136.16a3.6,3.6,0,0,0,1.14-.58,11,11,0,0,1,1.56-.74,10.77,10.77,0,0,1,3-.83,12.69,12.69,0,0,1,2.58-.17c.21,0,.44.06.6-.15a3.74,3.74,0,0,1,.59.87,4.86,4.86,0,0,1-1.5-.11.93.93,0,0,0-.64,0,1.79,1.79,0,0,1-.64.09,12.06,12.06,0,0,0-4.1,1,14.15,14.15,0,0,0-2.69,1.5,1.66,1.66,0,0,1,.13-.88" style="fill:#97ccce"/><path d="M118.73,119.08a13.75,13.75,0,0,1,.19-2.14c0-.43.09-.85.1-1.28a30.25,30.25,0,0,1,1-5.82c0-.15.1-.29.12-.44a2.75,2.75,0,0,1,.08-.33c.41-1.39.77-2.8,1.25-4.17a2,2,0,0,1,.39-.83.25.25,0,0,1,.32,0,1.26,1.26,0,0,1-.15.76c-.39,1.13-.73,2.28-1.05,3.43a3.82,3.82,0,0,0-.07.42,12.26,12.26,0,0,1-.86,3.61,12.34,12.34,0,0,0-.43,2q-.22,1.3-.4,2.61c-.05.38,0,.76-.05,1.14a.49.49,0,0,0-.13.39.76.76,0,0,1-.29.61" style="fill:#a293c1"/><path d="M124.93,152.49l.14-.29a6.73,6.73,0,0,1,.72-1.45,1.81,1.81,0,0,0,.12-.26c0-.09.06-.19.1-.28a10.78,10.78,0,0,0,.83-2.13c.25-.63.25-.63.63-.58a7.76,7.76,0,0,1-.68,4.24,8.73,8.73,0,0,1-2,1.06s-.06-.07-.05-.11,0-.06,0-.06h0c.05,0,.09-.1.14-.14" style="fill:#d1e8ea"/><path d="M50.06,142.35c-.2.6-.41,1.21-.61,1.81a3.67,3.67,0,0,0-.26,1.39.29.29,0,0,1,.07.21,4.57,4.57,0,0,1-.12.69c-.08.61,0,1.22-.06,1.83,0,.35-.12.69-.61.45h0c0-.6,0-1.2,0-1.8a11.49,11.49,0,0,1,.58-3.74c0-.11.07-.23.1-.34s0,0,0-.08c-.37,0-.71.27-1.1.17a3.22,3.22,0,0,1,1-.36c.34-.1.7-.15,1.05-.23" style="fill:#a2d1d4"/><path d="M74.49,141.66v.14c.05,0,.09.1.14.15s0,.1,0,.14a.28.28,0,0,1,.07.19c0,.34-.11.63-.5.24a11.89,11.89,0,0,0-1.16-2c0-.3-.25-.45-.4-.65a16.74,16.74,0,0,0-1.26-1.53,2.61,2.61,0,0,0-.8-.58,5.85,5.85,0,0,1,1.6-.29c-.09.22-.35.09-.48.23a.4.4,0,0,0,0,.13,6.93,6.93,0,0,1,.87,1,.9.9,0,0,0,.42.37s0,.1,0,.14.09.1.14.14l.15.29c.05,0,.09.1.14.14l1,1.74" style="fill:#9cced0"/><path d="M72.18,156.83l-.58.72-1.36,1A13.48,13.48,0,0,1,67.89,160a1.11,1.11,0,0,0-.48.3,4.15,4.15,0,0,1-1.16-.4,2.28,2.28,0,0,0,1-.23,12.22,12.22,0,0,0,3.2-2,7.42,7.42,0,0,0,.92-.79l.26-.34a.16.16,0,0,1,.16,0,1.58,1.58,0,0,1,.41.33" style="fill:#b5dade"/><path d="M127.82,145.56q0,.43,0,.87c-.33.36-.4.33-.67-.3l-.16-.41a1.4,1.4,0,0,1-.06-.21,10.35,10.35,0,0,1-.27-1.54,2.66,2.66,0,0,0-.33-1.09c-.21-.43-.43-.86-.64-1.29a1.08,1.08,0,0,1-.19-.54,2.43,2.43,0,0,1,1.2.29c-.14,0-.3,0-.21.26.19.43.4.86.56,1.31a12.31,12.31,0,0,1,.62,2.4.36.36,0,0,0,.14.24" style="fill:#a2d1d4"/><path d="M103.4,140.79l-.43.58c-.09.07-.07.21-.15.29s-.19.22-.34.12a.26.26,0,0,1-.09-.41v-.14c.05,0,.09-.1.14-.15l.43-.87.14-.15h0l.14-.14s0-.1,0-.14c.39-.44.79-.88,1.16-1.33a3,3,0,0,1,.71-.69,1.57,1.57,0,0,0,.59-.6,1.66,1.66,0,0,1,.86.14c-.07.09-.13.21-.22.26a2.6,2.6,0,0,0-.55.45,2.79,2.79,0,0,1-.65.54.72.72,0,0,0-.32.37,3.11,3.11,0,0,1-.51.58,5.89,5.89,0,0,0-.94,1.3" style="fill:#9cced0"/><path d="M72.18,156.83c-.35,0-.35,0-.43-.29,0,0,0-.06,0-.09s0,0,0,0h0l.14-.14h0c.09-.07.06-.21.15-.28h0a1.25,1.25,0,0,0,.47-.43,13.53,13.53,0,0,0,1.76-3.17,4.45,4.45,0,0,0,.11-.63l.55,1.05a.44.44,0,0,0-.25.24,12.15,12.15,0,0,1-1.59,2.7c-.27.4-.64.71-.9,1.1" style="fill:#afd7da"/><path d="M127.25,146c.14.09.12.24.16.37s.14.22.42.06a.42.42,0,0,1,.14.38q0,.46,0,.92a12.39,12.39,0,0,1-.36,3,2.7,2.7,0,0,0-.06.63,2.45,2.45,0,0,1-.75.38c.11-.61.31-1.2.38-1.82a6.36,6.36,0,0,0,.08-.64,4.14,4.14,0,0,1,.1-1,3.69,3.69,0,0,0,0-.86,1.39,1.39,0,0,1-.31-1,.58.58,0,0,1,.19-.44" style="fill:#a9d4d6"/><path d="M48.48,148.74c.42-.08.42-.08.43-.42,0-.53,0-1.06,0-1.58,0-.17,0-.34.14-.46a.49.49,0,0,1,.15.21c.19,1-.06,1.94.13,2.89a17.85,17.85,0,0,1,.31,2.1s0,.1,0,.14,0,.21.14.29a3.71,3.71,0,0,0,.31.92.8.8,0,0,1,.11.4,2.42,2.42,0,0,1-.86-.41,1.33,1.33,0,0,0-.06-.42,8.8,8.8,0,0,1-.65-2.18,2.3,2.3,0,0,1-.16-.76q0-.36,0-.72" style="fill:#aad5d7"/><path d="M102.39,141.37c.09.38.09.38.43.29a2.85,2.85,0,0,1-.35.85,8.57,8.57,0,0,0-.8,2.48,1.3,1.3,0,0,0-.13.4,5.62,5.62,0,0,1-.15.91,3.54,3.54,0,0,1-.61-.71.43.43,0,0,0,.17-.3,15.39,15.39,0,0,1,.87-2.86,3.57,3.57,0,0,1,.57-1.06" style="fill:#a2d1d4"/><path d="M38.77,145.53c.08.06.17.15.12.23a9.11,9.11,0,0,1-1,1.55,13.64,13.64,0,0,1-2-.93,1,1,0,0,1,.2-.13c.87-.26,1.73-.54,2.62-.72" style="fill:#cfe6e7"/><path d="M74.2,142.52c.34.09.34.09.43-.29a.09.09,0,0,1,.14,0c.21.76.49,1.5.64,2.27a7.77,7.77,0,0,1,.23,1.33.37.37,0,0,0,.16.31,1.93,1.93,0,0,1-.59.72c-.14-.12,0-.33-.15-.45h0c-.32-.49-.22-1.08-.39-1.6a2.89,2.89,0,0,1-.05-.3,2.49,2.49,0,0,0-.08-.37,1.36,1.36,0,0,1,0-.17,2.46,2.46,0,0,0-.08-.33l-.06-.16a1.18,1.18,0,0,1-.09-.24.17.17,0,0,1,.06-.15l-.14-.58" style="fill:#a2d1d4"/><path d="M139.71,145.15c-.16-.21-.42-.22-.64-.3-.83-.3-1.67-.59-2.5-.88a.36.36,0,0,1-.22-.17,6.57,6.57,0,0,1,1.46.32c.76.18,1.52.39,2.28.59a.14.14,0,0,1,.09.09.14.14,0,0,1,0,.12l-.44.23" style="fill:#aed7db"/><path d="M40.24,147.14c.08.06.15.14.12.24-.09.32-.19.64-.28,1a2.91,2.91,0,0,1-.86-.38.4.4,0,0,1,.2-.27c.28-.18.54-.37.81-.55" style="fill:#cfe6e7"/><path d="M59.3,123a14.07,14.07,0,0,0,.17-2.63,1.24,1.24,0,0,1,.13-.55.15.15,0,0,1,.22,0,2,2,0,0,1,.08,1.22,3.59,3.59,0,0,0-.09,1.18,1.07,1.07,0,0,1-.33.88l0,.15c-.11-.06-.12-.18-.14-.29" style="fill:#ab87e5"/><path d="M52.24,141.8v-.12a3.94,3.94,0,0,1,1.15-.32c.09.12,0,.16-.09.19a4.24,4.24,0,0,1-1.06.25" style="fill:#cde6e7"/><path d="M67.42,135l.86.32c-.54.22-.57.2-.86-.32" style="fill:#577e97"/><path d="M80,162.32a1.36,1.36,0,0,1-.58-1,2.25,2.25,0,0,1,.58,1" style="fill:#c8e3e5"/><path d="M70.59,137.74a.32.32,0,0,1-.28.15H69.7a1.43,1.43,0,0,1,.89-.15" style="fill:#9cced0"/><path d="M75.07,146.42c.17.11.13.29.15.45l-.14.17v-.62" style="fill:#cee6e7"/><path d="M96.3,140.22a.41.41,0,0,1,.31.41.52.52,0,0,1-.31-.41" style="fill:#a9d4d6"/><path d="M52.21,154.24c.2.19.2.19,0,.42l0-.42" style="fill:#d3e9e9"/><path d="M134.77,143.38c-.16,0-.33,0-.45-.12a.51.51,0,0,1,.45.12" style="fill:#b1d8d9"/><path d="M132.89,148.61c.05-.14.17-.16.3-.15a.31.31,0,0,1-.3.15" style="fill:#b4dadb"/><path d="M133.18,148.46c.05-.14.17-.16.3-.15a.32.32,0,0,1-.3.15" style="fill:#b4dadb"/><path d="M133.46,148.32c.05-.14.17-.16.3-.15a.32.32,0,0,1-.3.15" style="fill:#b4dadb"/><path d="M133.75,148.17A.27.27,0,0,1,134,148a.33.33,0,0,1-.29.15" style="fill:#b4dadb"/><path d="M134,148a.28.28,0,0,1,.29-.15.32.32,0,0,1-.29.15" style="fill:#b4dadb"/><path d="M73.21,149.5c0-.14,0-.26.15-.32l-.15.32" style="fill:#d3e9ea"/><path d="M103.38,149.29c0,.13,0,.25-.15.3a.32.32,0,0,1,.15-.3" style="fill:#c8e3e4"/><path d="M42.7,149.6a.3.3,0,0,1,.28.14.3.3,0,0,1-.28-.14" style="fill:#b5dadc"/><path d="M124.79,152.64v.17a.14.14,0,0,1-.15.09.26.26,0,0,1,.14-.26" style="fill:#ddedef"/><path d="M79.43,161.3c-.14,0-.16-.16-.15-.29a.29.29,0,0,1,.15.29" style="fill:#c8e3e5"/><path d="M70.73,161.46a.3.3,0,0,1,.28.11.29.29,0,0,1-.28-.11" style="fill:#c8e3e5"/><path d="M71.16,161.6a.3.3,0,0,1,.29.12.31.31,0,0,1-.29-.12" style="fill:#c8e3e5"/><path d="M71.58,161.75a.3.3,0,0,1,.31.12.32.32,0,0,1-.31-.12" style="fill:#c8e3e5"/><path d="M72,161.9a.29.29,0,0,1,.32.12.34.34,0,0,1-.32-.12" style="fill:#c8e3e5"/><path d="M73.19,162.32a.3.3,0,0,1,.29.12.29.29,0,0,1-.29-.12" style="fill:#c8e3e5"/><path d="M132.74,148.71l.15-.11a.14.14,0,0,1-.15.11" style="fill:#b4dadb"/><path d="M103.24,149.58l-.11.16a.16.16,0,0,1,.11-.16" style="fill:#c8e3e4"/><path d="M43.07,149.76a.23.23,0,0,1,.2.12.24.24,0,0,1-.2-.12" style="fill:#b5dadc"/><path d="M43.37,149.91a.22.22,0,0,1,.19.11.22.22,0,0,1-.19-.11" style="fill:#b5dadc"/><path d="M43.66,150.05l.18.11-.18-.11" style="fill:#b5dadc"/><path d="M44,150.19l.18.11-.18-.11" style="fill:#b5dadc"/><path d="M74.64,147.6l.14-.16a.21.21,0,0,1-.14.16" style="fill:#cee6e7"/><path d="M74.78,147.44l.12-.15a.16.16,0,0,1-.12.15" style="fill:#cee6e7"/><path d="M74.92,147.27l.1-.11a.1.1,0,0,1-.1.11" style="fill:#cee6e7"/><path d="M57,166.79l.14-.14a.16.16,0,0,1-.14.14" style="fill:#cfe7e9"/><path d="M55.13,117.09l.14.14-.14-.14" style="fill:#7267a9"/><path d="M79.27,141.81l.14-.16a.2.2,0,0,1-.14.16" style="fill:#a9d4d6"/><path d="M57.15,166.65l.14-.14a.16.16,0,0,1-.14.14" style="fill:#cfe7e9"/><path d="M96.16,140.07a.21.21,0,0,1,.15.16.18.18,0,0,1-.15-.16" style="fill:#a9d4d6"/><path d="M79.13,142a.22.22,0,0,1,.14-.19l-.14.19" style="fill:#a9d4d6"/><path d="M57.29,166.5l.14-.14a.16.16,0,0,1-.14.14" style="fill:#cfe7e9"/><path d="M57.44,166.36l.14-.14a.17.17,0,0,1-.14.14" style="fill:#cfe7e9"/><path d="M57.58,166.22l.14-.14a.17.17,0,0,1-.14.14" style="fill:#cfe7e9"/><path d="M57.73,166.07l.14-.14a.17.17,0,0,1-.14.14" style="fill:#cfe7e9"/><path d="M58,165.79l.14-.14a.17.17,0,0,1-.14.14" style="fill:#cfe7e9"/><path d="M72.85,162.19l.19.1a.2.2,0,0,1-.19-.1" style="fill:#c8e3e5"/><path d="M81,139.66a.23.23,0,0,1,.14-.17l-.14.17" style="fill:#a7d3d5"/><path d="M81.14,139.49l.13-.15a.18.18,0,0,1-.13.15" style="fill:#a7d3d5"/><path d="M72.43,162l.18.09a.18.18,0,0,1-.18-.09" style="fill:#c8e3e5"/><path d="M70.39,161.33l.19.1a.2.2,0,0,1-.19-.1" style="fill:#c8e3e5"/><path d="M56.43,167.37l.14-.14a.16.16,0,0,1-.14.14" style="fill:#cfe7e9"/><path d="M57.87,165.93l.14-.14a.17.17,0,0,1-.14.14" style="fill:#cfe7e9"/><path d="M56.57,167.23l.14-.14a.16.16,0,0,1-.14.14" style="fill:#cfe7e9"/><path d="M56.71,167.08l.14-.14a.16.16,0,0,1-.14.14" style="fill:#cfe7e9"/><path d="M56.86,166.94l.14-.14a.16.16,0,0,1-.14.14" style="fill:#cfe7e9"/><path d="M55.7,118l.14.15L55.7,118" style="fill:#7267a9"/><path d="M55.56,117.66l.14.14-.14-.14" style="fill:#7267a9"/><path d="M55.42,117.52l.14.15-.14-.15" style="fill:#7267a9"/><path d="M115.08,160.76a.18.18,0,0,1,.18.11l-.18-.11" style="fill:#b7dbdf"/><path d="M97.77,101.19a1.65,1.65,0,0,0,.91.15c.23,0,.49-.08.68.14l0,.11a9.48,9.48,0,0,0-.48,2.6c-.12.83-.23,1.66-.32,2.49,0,.21,0,.45-.34.46a2,2,0,0,0-1.46-.22,15.06,15.06,0,0,1-2.51.11c-.46,0-.91,0-1.19.47-.05.09-.16.08-.24,0a7.31,7.31,0,0,1,.07-2.78,22.5,22.5,0,0,1,.22-2.72c.12-.73.18-.85.95-.87.6,0,1.2,0,1.8,0a14.19,14.19,0,0,1,2,.06" style="fill:#744da9"/><path d="M75.07,101.62c.12-.15.29-.14.46-.14h1.73a5,5,0,0,0,1.14-.1,4.82,4.82,0,0,1,1.15,0,2.38,2.38,0,0,0,.92-.13c.27,0,.57-.11.77.2a3.36,3.36,0,0,1,.1,1.14q0,1.06,0,2.13a5.55,5.55,0,0,1-.15,1.88,12.56,12.56,0,0,1-3,.35,8.62,8.62,0,0,1-1.37,0c-.47,0-.72.17-.71.67a1.2,1.2,0,0,1-.18.83c-.22.08-.24-.07-.25-.21,0-1.83-.23-3.66-.37-5.49,0-.37.07-.77-.27-1.06Z" style="fill:#744da9"/><path d="M97.77,101.19c-.08.16-.23.16-.37.16l-1.51,0a10.56,10.56,0,0,0-2.91.05,1.14,1.14,0,0,1-.7-.17c-1-.77-2-1.59-2.94-2.39a1,1,0,0,1-.41-.57,24.11,24.11,0,0,1,0-4c.05-.1.15-.15.23-.09.24.16.46.35.68.53l6.21,5.15c.55.46,1.13.9,1.69,1.34" style="fill:#ab87e5"/><path d="M89,94.26c.2.16.13.39.13.6,0,1.19,0,2.38,0,3.57a.45.45,0,0,1-.15.32,32.59,32.59,0,0,1-3.14,2.54,35.66,35.66,0,0,1-4.44.2l-.23-.13-.42,0a.25.25,0,0,1-.23-.12c.73-.59,1.46-1.17,2.19-1.77l6.18-5.1.12-.08" style="fill:#fff"/><path d="M103.12,101.63c-.22.37-.45.74-.66,1.12a3.5,3.5,0,0,0-.39,1.59,6.66,6.66,0,0,0,.32,2.2,35.4,35.4,0,0,1-3.79.16c-.29-.45,0-.89,0-1.33.07-1.19.34-2.35.45-3.54a.46.46,0,0,1,.24-.34l0,0h1.5a5.35,5.35,0,0,1,.92.09,9.4,9.4,0,0,0,1.35.06" style="fill:#744da9"/><path d="M91.52,60.73c-.06,0-.11.11-.17.11H90c-.06,0-.12-.07-.18-.1.25-.29.59-.07.87-.15l.58.12.26,0" style="fill:#9c8cb9"/><path d="M99,62.89c-.15.17-.35.11-.53.11l-2.05,0c.12-.16.29-.14.45-.14H99" style="fill:#7867a8"/><path d="M90.67,60.58a.36.36,0,0,1-.31.14H89.8a8.81,8.81,0,0,1-2.57-.57l-.88-.3c-.08-.08-.22-.06-.3-.14h0a1.61,1.61,0,0,0-.23-.17,9.17,9.17,0,0,1-2.37-1.75c-.13-.13-.26-.38-.44-.32s-.14.37-.15.57a4.64,4.64,0,0,0,.4,2c0,.12.19.23.09.41-.43-.23-.67-.68-1.09-.91a2.55,2.55,0,0,1-.57-.57h0c-.23-.3-.45-.61-.7-.9a10.39,10.39,0,0,1-1.84-3.22c-.16-.42-.24-.87-.36-1.31a.25.25,0,0,0-.32-.2,1.4,1.4,0,0,0-1.11,1A.44.44,0,0,1,77.1,54a15.33,15.33,0,0,1-.32-3.14c0-.34,0-.67,0-1a4,4,0,0,1,.13-1.14c.08-.27-.06-.41-.34-.39a1.8,1.8,0,0,0-.94.32.14.14,0,0,1-.19,0,.16.16,0,0,1,0-.13,2.74,2.74,0,0,0,.07-.79A8.45,8.45,0,0,1,76,45.24a2.69,2.69,0,0,1,.43-.83.64.64,0,0,0,.17-.39.77.77,0,0,0-.51-.21l-1.21-.17a.17.17,0,0,1-.14-.26,13.81,13.81,0,0,1,1-1.42c.36-.55.87-1,1.26-1.47h0l.15-.14h0a.86.86,0,0,1,.15-.14h0c.07-.1.21-.07.28-.16h0a.75.75,0,0,1,.17-.13h.12c.08-.08.22-.05.3-.13a3.58,3.58,0,0,1,1.34.13,2.72,2.72,0,0,0,.33.12c.18.05.3.31.49.24s.2-.35.26-.55c.16-.5.31-1,.46-1.5,0-.14.15-.17.28-.17a6.83,6.83,0,0,0,1.22.88c.15.1.28,0,.37-.09l.74-1a.91.91,0,0,1,.3-.31c.17,0,.13.17.13.28a4.29,4.29,0,0,0,.17,1.37c.21.05.34-.12.48-.22.57-.4,1.12-.82,1.68-1.24h.1a1.13,1.13,0,0,1,.17.12l.14,0c.09.08.22.05.3.14s.21.06.29.14l.58.29c.51.26.51.25.28.75s-.29.71-.43,1.07a4.35,4.35,0,0,0-.3,1.84c0,.1,0,.19,0,.29,0,.66,0,.71-.64.7a2.62,2.62,0,0,0-.78.1c-.18.06-.3.14-.29.35a20.78,20.78,0,0,0,.11,3,1.67,1.67,0,0,1,0,.22c0,.62,0,.67-.62.55L83.65,47c-.2,0-.28.05-.22.24.15.51.29,1,.46,1.52.43,1.27.87,2.55,1.32,3.82.1.28.23.56.38,1L84,52.81a1.25,1.25,0,0,0-.27-.09s-.08.05-.08.09a.53.53,0,0,0,0,.21,12.66,12.66,0,0,0,2.82,4.73A14.35,14.35,0,0,0,87.78,59a11.23,11.23,0,0,0,2.9,1.59" style="fill:#ab87e5"/><path d="M87.07,38a.33.33,0,0,1-.3-.14.29.29,0,0,1,.3.14" style="fill:#7468a9"/><path d="M87.35,38.17a.3.3,0,0,1-.29-.14.29.29,0,0,1,.29.14" style="fill:#7468a9"/><path d="M86.63,37.87l-.17-.12.17.12" style="fill:#7468a9"/><path d="M101.66,60.43c0,.2.07.43-.14.58,0-.2-.07-.43.14-.58" style="fill:#6e65a8"/><path d="M122.16,104.09h-.24a.76.76,0,0,1-.69,0,28.05,28.05,0,0,0-3.52-.7,1.61,1.61,0,0,1-.7-.34c-.22-.28-.43-.57-.66-.84a7.44,7.44,0,0,0-2.17-1.72l-.55-.32c.59-.6,1.28-1.08,1.91-1.64.14-.12.26-.07.38,0l1.5,1.23,2.89,2.38,2.05,1.7a3.7,3.7,0,0,1,.3.31c-.18,0-.33-.08-.5-.12" style="fill:#744da9"/><path d="M58,116.91a.1.1,0,0,0,0-.12q0-1.5,0-3c.15-.29,0-.63.13-.91a.08.08,0,0,0,0-.11,11.86,11.86,0,0,1,.22-1.88c.09-.27.14-.55.41-.71a4.26,4.26,0,0,1,.57-.19c1.69-.36,3.39-.6,5.09-.9a2.94,2.94,0,0,0,.83-.12c1.44-.25,2.89-.47,4.35-.63.28,0,.53.21.82.07.9,0,1.8-.21,2.7-.2.38,0,.76,0,1.14,0a.86.86,0,0,1,.88.59c.12.28.23.57.34.86.42.35.41.88.55,1.35a7.47,7.47,0,0,0,.16.92,5.89,5.89,0,0,1-.15,2.43c-.08.23-.23.42-.31.65a2.46,2.46,0,0,1-2.13,1.22,21.32,21.32,0,0,0-3,.42,2.45,2.45,0,0,0-.56.12q-2.42.56-4.82,1.17a2.71,2.71,0,0,0-.68.16,26.89,26.89,0,0,1-4.08.75,1.63,1.63,0,0,1-.71-.05,1,1,0,0,1-.2-.14s0,0-.06,0a1.79,1.79,0,0,1-1.36-1.12c-.21-.16,0-.42-.17-.6" style="fill:#fff"/><path d="M75.93,111l-.4-1.33a.42.42,0,0,0,.13-.39,11.39,11.39,0,0,0-.13-2.3,2.83,2.83,0,0,1,0-.58,5.56,5.56,0,0,0-.13-1.58.2.2,0,0,1,0-.07c.06-.85-.19-1.67-.16-2.51a1.41,1.41,0,0,0-.12-.63c.09,0,.21,0,.24.12a4.63,4.63,0,0,1,.17.84c0,.57.11,1.15.13,1.71,0,1.17.25,2.33.19,3.51a.72.72,0,0,0,.13.61,3.23,3.23,0,0,1,0,2.6" style="fill:#ab87e5"/><path d="M70.46,108.43a1.18,1.18,0,0,1-.74.11,12.73,12.73,0,0,0-.16-2.55c0-.39-.2-.8,0-1.19v-.29l.14-.15c0,.06.1.12.11.18.07.59.11,1.18.18,1.77a13.41,13.41,0,0,1,.16,1.85c0,.18.14.23.28.28" style="fill:#ab87e5"/><path d="M81.72,59a1.45,1.45,0,0,1,.57.57.62.62,0,0,1-.57-.57" style="fill:#7769aa"/><path d="M86.06,59.71a.33.33,0,0,1,.3.14.29.29,0,0,1-.3-.14" style="fill:#7468a9"/><path d="M58.88,110.28c-.21.13-.22.36-.27.56-.12.56-.22,1.12-.33,1.69a1.49,1.49,0,0,1-.11.26c0-.81-.11-.87-.87-.68a2.94,2.94,0,0,1-.71.07H54.67c-.5,0-.5,0-.55.58,0-.06-.11-.12-.11-.18a9.94,9.94,0,0,0-.19-1.56c-.09-.68-.24-1.36-.35-2,0-.19,0-.38-.07-.57H55a2.6,2.6,0,0,0,1-.1,1.2,1.2,0,0,1,.43,0h1.72a1.09,1.09,0,0,1,.62.15,1.54,1.54,0,0,1,.15,1.86" style="fill:#744da9"/><path d="M58.88,110.28c0-.11.14-.24.12-.33a14.41,14.41,0,0,0-.27-1.54,4.64,4.64,0,0,0-.2-1.27c-.23-1.17-.44-2.35-.77-3.5a1.68,1.68,0,0,1,0-.43h.11c.32.13.33.43.4.71.29,1.13.51,2.27.74,3.41a2.6,2.6,0,0,1,.07.45,2.16,2.16,0,0,0,.1.55,6,6,0,0,1,.16,1.82.56.56,0,0,1-.45.11" style="fill:#ab87e5"/><path d="M58.88,107.41a1,1,0,0,1-.12-.25c-.17-1-.39-2.05-.66-3.06-.08-.3,0-.63-.24-.89A11.14,11.14,0,0,0,60,103a.85.85,0,0,1,.21,0,14.72,14.72,0,0,0,1.84-.18c.44,0,.89-.13,1.34-.12h0c.37.4.29.93.42,1.41a18.58,18.58,0,0,0,.41,1.81,1,1,0,0,1-.14,1,1.42,1.42,0,0,1-.91.16c-1.16-.06-2.3.21-3.46.16a2.3,2.3,0,0,0-.83.22" style="fill:#744da9"/><path d="M66.54,102.2a.3.3,0,0,1-.29.14.3.3,0,0,1,.29-.14" style="fill:#786aab"/><path d="M65.1,102.34a.3.3,0,0,1-.29.14.3.3,0,0,1,.29-.14" style="fill:#786aab"/><path d="M120,112.32a6.89,6.89,0,0,1,.29-1.55c.15-.63.3-1.26.46-1.89a.67.67,0,0,1,.11-.18,2.77,2.77,0,0,0,1.75,0,.88.88,0,0,1,.28,0h2.64c.22,0,.37.07.4.31-.13.53-.25,1.07-.39,1.6a12.41,12.41,0,0,0-.37,1.53c0,.06-.07.12-.11.18,0-.15-.09-.29-.27-.28a5.87,5.87,0,0,0-1.72.09,2,2,0,0,1-.57,0h-1.81a1.3,1.3,0,0,0-.7.15" style="fill:#744da9"/><path d="M69.58,104.8c.09.32.1.65.16,1,.13.63.05,1.27.23,1.89a2.38,2.38,0,0,1,0,.28.57.57,0,0,1-.28.59l-3.75.53-.71.09c-.5.15-.74,0-.81-.55a11.8,11.8,0,0,1-.22-3.22c.08-.42.08-.4.41-.44a40.19,40.19,0,0,1,4.94-.14" style="fill:#744da9"/><path d="M64.23,105.39a12.59,12.59,0,0,0,.2,1.76c0,.52.16,1,.24,1.54s.05.4.53.46h.07a1,1,0,0,1-.75.1c-.44-.49-.28-1.14-.44-1.71a3.24,3.24,0,0,1,0-.63l0-.1a5.93,5.93,0,0,0-.14-1.27c-.19-.88-.32-1.76-.48-2.65a1.55,1.55,0,0,0-.1-.27c.09,0,.21,0,.25.11a3.48,3.48,0,0,1,.17.55c.12.63.21,1.27.33,1.91,0,.06.07.12.11.18" style="fill:#ab87e5"/><path d="M78.12,39.77a.33.33,0,0,1-.3.13.29.29,0,0,1,.3-.13" style="fill:#796bab"/><path d="M77.53,40.05a.31.31,0,0,1-.28.16.27.27,0,0,1,.28-.16" style="fill:#796bab"/><path d="M77.7,39.92l-.17.13.17-.13" style="fill:#796bab"/><path d="M77.25,40.2l-.15.14.15-.14" style="fill:#796bab"/><path d="M77.1,40.34l-.15.14.15-.14" style="fill:#796bab"/><path d="M124.65,116.94c0-.25-.07-.51.13-.73,0,.25.09.52-.13.73" style="fill:#7267a9"/><path d="M124.79,113.63c0-.2-.07-.43.14-.59,0,.21,0,.43-.14.59" style="fill:#7368a9"/><path d="M124.94,112.91c0-.16,0-.33.13-.45a.48.48,0,0,1-.13.45" style="fill:#7368a9"/><path d="M115.1,187.38a12.61,12.61,0,0,1-.24,2.37,18.34,18.34,0,0,1-2.11,6,18.08,18.08,0,0,1-2.46,3.55c-.39.43-.75.88-1.17,1.27a23.54,23.54,0,0,1-3.56,2.8c-.82.51-1.66,1-2.53,1.39a24.24,24.24,0,0,1-4.95,1.76,30,30,0,0,1-3.25.61,23.78,23.78,0,0,1-3.51.27c-.53,0-1,.18-1.58.13a4.76,4.76,0,0,1-1.07-.1,1.47,1.47,0,0,0-.43,0,23.67,23.67,0,0,1-6.16-1,24.45,24.45,0,0,1-3.24-1.19,19.76,19.76,0,0,1-4.63-2.89A17.47,17.47,0,0,1,72,200.23a29,29,0,0,1-2.15-2.8,20,20,0,0,1-1.93-3.7,22.26,22.26,0,0,1-1.11-3.5,19.69,19.69,0,0,1-.4-2.85c0-.62,0-1.24,0-1.86a5,5,0,0,1,.5-1.94,1.39,1.39,0,0,1,.7-.7,3,3,0,0,1,1.31-.34,2.82,2.82,0,0,0,.72-.07,2.67,2.67,0,0,1,1.22,0,3.83,3.83,0,0,0,.72.07,9.17,9.17,0,0,1,2.08.14,1.21,1.21,0,0,0,.29,0c.94,0,1.86.18,2.79.25.67.05,1.34.14,2,.19.86.07,1.72.1,2.57.25h.07c.77,0,1.53.17,2.3.17a8.6,8.6,0,0,1,1.29.1,12.62,12.62,0,0,0,1.59,0,5.08,5.08,0,0,1,1.29.1,2.21,2.21,0,0,0,.57,0h2.75a10.87,10.87,0,0,0,1.65-.1,12.22,12.22,0,0,1,1.66,0,2.79,2.79,0,0,0,.93-.09.53.53,0,0,1,.21,0,25.42,25.42,0,0,0,2.73-.17c.76,0,1.52-.16,2.29-.24a1.36,1.36,0,0,1,.21,0A13.53,13.53,0,0,0,103,183a11.54,11.54,0,0,0,2-.22.93.93,0,0,1,.29,0c.84,0,1.67-.22,2.51-.16a24.48,24.48,0,0,1,4-.14,4.29,4.29,0,0,1,.93.11,2.26,2.26,0,0,1,1.55,1.07,4.81,4.81,0,0,1,.71,1.95,6.48,6.48,0,0,1,.17,1.84" style="fill:#5d939e"/><path d="M81.3,101.35q1.89-.14,3.79-.15a1.66,1.66,0,0,0,.84-.12c.43,0,.87-.24,1.23.18a16.35,16.35,0,0,1,.07,3.53,38.51,38.51,0,0,0-.1,4.09c0,.31.11.7-.32.86-.39-.46-.22-1-.23-1.52,0-1.19,0-1.21-1.23-1.16-1,0-1.92.18-2.88.14-.58,0-.66.34-.66.8q0,2.92,0,5.85a4.49,4.49,0,0,1-.08,1.08.31.31,0,0,1-.28.15c-.3-.3-.2-.68-.21-1,0-3.61,0-7.22.05-10.83a5.86,5.86,0,0,0,0-.94,1.5,1.5,0,0,1,0-.93" style="fill:#744da9"/><path d="M81.72,114.92a.43.43,0,0,1-.15-.39c0-.31,0-.62,0-.94q0-3,0-6c0-.64,0-.64.64-.65h1.37a5.72,5.72,0,0,0,1-.09,9.24,9.24,0,0,1,1.94,0,.24.24,0,0,1,.24.22c0,.17,0,.34,0,.5,0,.72,0,1.44,0,2.16a1.22,1.22,0,0,1,0,1.27c-.59.52-1.16,1.06-1.77,1.55a23.36,23.36,0,0,1-3.3,2.37" style="fill:#744da9"/><path d="M98.64,106.68a.86.86,0,0,1,.26-.11,23.67,23.67,0,0,1,3-.18,1.58,1.58,0,0,1,.48.15s.08.06.1.1a6.39,6.39,0,0,0,1.24,1.64,2.13,2.13,0,0,1,0,1.54,9.19,9.19,0,0,1-.5,2.64l-2,.82a.43.43,0,0,1,0-.44c.16-.67.33-1.35.48-2a5.34,5.34,0,0,0,.07-.63c-.2-.06-.21.1-.26.18a13.94,13.94,0,0,1-1.34,2.12,14.64,14.64,0,0,1-1.86,1.9,2.4,2.4,0,0,1-.43.25c-.39-.69-.08-1.41,0-2.09.13-1.62.31-3.24.52-4.85a1.66,1.66,0,0,1,.36-1" style="fill:#744da9"/><path d="M75.92,114.47a12.59,12.59,0,0,0,.15-2.56c-.13-1-.11-1.08.82-1.18a19.23,19.23,0,0,1,4.29,0,16.84,16.84,0,0,1,0,4.58,23,23,0,0,1-4.7,2.26,1.36,1.36,0,0,1-.49.09,5.5,5.5,0,0,1,0-3.2" style="fill:#744da9"/><path d="M90.09,109a2.1,2.1,0,0,1,.09-.63,2.17,2.17,0,0,0,0-.85.67.67,0,0,0-.47.36,7.7,7.7,0,0,1-.71.81l-1.41,1.52a1.1,1.1,0,0,1-.57.42,6.51,6.51,0,0,1-.05-2.37,16.2,16.2,0,0,1,.06-1.7,13.51,13.51,0,0,0,.11-1.72.65.65,0,0,1,.69-.66A32.63,32.63,0,0,1,92,104c.45,0,.9,0,.87.68,0,.22,0,.44,0,.66a11.5,11.5,0,0,0-.13,1.39c0,.55.09,1.1,0,1.65a1.32,1.32,0,0,1-.3.79,4.39,4.39,0,0,1-2.35-.18" style="fill:#744da9"/><path d="M92.86,107.55c.13-.1.12-.25.14-.39s.09-.32.37-.33h1.79a6.36,6.36,0,0,0,1.35-.11,5.65,5.65,0,0,1,1.29,0c.32,0,.32,0,.41.44.36.61,0,1.22,0,1.81-.12,1.27-.18,2.55-.42,3.81-.2.06-.27-.1-.27-.23a1.48,1.48,0,0,0-.74-1.22c0-.69,0-1.39,0-2.08a.13.13,0,0,0-.07-.1.14.14,0,0,0-.12,0c-.32.48-.62,1-1,1.43a10.91,10.91,0,0,1-3.15,3,.63.63,0,0,1-.21-.59c.16-1.78.21-3.58.54-5.35,0,0,.06-.07.09-.11" style="fill:#744da9"/><path d="M90.09,109c.4,0,.8,0,1.2,0a3,3,0,0,1,1.11.15.32.32,0,0,1,.13.24,26,26,0,0,1-.4,4.37,6.79,6.79,0,0,1-1.85.91,10.54,10.54,0,0,1-3.35.66c-.29-.32-.17-.66,0-1,.36-.48.73-1,1.09-1.44a11.91,11.91,0,0,0,1.95-3.6.58.58,0,0,1,.16-.32" style="fill:#744da9"/><path d="M59.75,118.68a23,23,0,0,0,4.61-.7l.28,0a.3.3,0,0,1,.45.28c0,.93.3,1.89-.27,2.75a17.82,17.82,0,0,1-4,1.87,4.71,4.71,0,0,1-1.32.31l.14-.87c.17-.37,0-.79.13-1.16q0-.64,0-1.29a2.14,2.14,0,0,1,0-1.15" style="fill:#744da9"/><path d="M117,103.07a6.62,6.62,0,0,0,1.53.26,33.93,33.93,0,0,1,3.39.76c-.5,1.48-1,3-1.36,4.48a1,1,0,0,1-.24.59,2.41,2.41,0,0,0-1.32-.29.86.86,0,0,1-.11-.26,11.75,11.75,0,0,0-1.89-5.54" style="fill:#744da9"/><path d="M65.24,117.8l3.42-.86c.49-.12,1-.22,1.48-.32.13,0,.25.05.27.18a4,4,0,0,1-.12,2.42l-4.62,1.36-.56.14a15.87,15.87,0,0,1-.06-2.63c0-.13.1-.21.2-.28" style="fill:#744da9"/><path d="M70.6,116.53a14,14,0,0,1,2.6-.46l.36,0a2.34,2.34,0,0,0,2.1-1.14c.06,0,.17,0,.17.08a11.79,11.79,0,0,1-.05,2.79c-1.66.4-3.32.8-5,1.27l-.21,0a4.55,4.55,0,0,1,0-2.56" style="fill:#744da9"/><path d="M108.46,108.73a.24.24,0,0,1,0,.12l-.12.15a4,4,0,0,1-1.26,1.44,10.55,10.55,0,0,1-3.51,1.88.32.32,0,0,1-.12-.25,16,16,0,0,1,.59-3.63c.22.09.44.2.66.28a2.78,2.78,0,0,0,2.6-.27c.1-.07.21-.12.31-.17a1.45,1.45,0,0,0,.15-.15h0a.85.85,0,0,0,.14-.15h0a.38.38,0,0,0,.14-.18.21.21,0,0,1,0-.11.61.61,0,0,0,.12-.17.22.22,0,0,1,0-.12c.41-.14.75-.14.72.44h0c-.1.08-.07.22-.14.32a.22.22,0,0,1,0,.12.5.5,0,0,0-.13.18.19.19,0,0,1,0,.11.55.55,0,0,0-.13.17" style="fill:#744da9"/><path d="M108.89,107.84c0-.12,0-.23-.18-.28l-.54-.16a2.33,2.33,0,0,0-.36-1.85.43.43,0,0,0-.27-.23c-.11.11,0,.22,0,.32a1,1,0,0,1-.53,1,1.4,1.4,0,0,1-2-.74.69.69,0,0,1-.05-.28,2.64,2.64,0,0,1,.34-1.24,1.48,1.48,0,0,1,.9-.68,2.12,2.12,0,0,1,2.75,1.21,3.14,3.14,0,0,1-.1,2.9" style="fill:#744da9"/><path d="M119,108.86a1,1,0,0,1,1.21,0c.06,0,.07.16.11.25l0,.27c-.08.09-.05.21-.12.3a5.22,5.22,0,0,1-.23,1.26c-.26,1.16-.48,2.33-.68,3.5a2.93,2.93,0,0,1-.25,1.17c0-.09,0-.19,0-.28a.28.28,0,0,0-.31-.31h-1.27c.25-.6.48-1.2.75-1.79a9.43,9.43,0,0,0,.81-4.2c0-.07,0-.14,0-.22" style="fill:#744da9"/><path d="M96.75,111.3c.88.25.88.16.87,1.09,0,.12,0,.24,0,.36a2.79,2.79,0,0,1-.12,2,4.81,4.81,0,0,1-2.44.95.22.22,0,0,1-.24-.11c-.06-.11,0-.17.09-.24.23-.3.48-.59.69-.92a6.27,6.27,0,0,0,.89-2.1,2.13,2.13,0,0,1,.13-.33c.15-.18,0-.42.13-.59a.26.26,0,0,1,0-.13" style="fill:#744da9"/><path d="M92.13,113.76a2.82,2.82,0,0,1,.1-1,.38.38,0,0,0,0-.14c-.06-1.17.22-2.32.16-3.49a10.86,10.86,0,0,0,.16-2.45c.18-.42,0-.88.13-1.31v-.57a21.29,21.29,0,0,1,.07-2.9,1.92,1.92,0,0,1,.06-.71h2.65a.5.5,0,0,1,.4.12H93.58a.26.26,0,0,0-.28.27c0,.7-.2,1.38-.17,2.08a2.46,2.46,0,0,1-.09.93,1.27,1.27,0,0,0,0,.36,9.21,9.21,0,0,1-.13,1.72,4.15,4.15,0,0,0,0,.86c-.1.8-.12,1.61-.19,2.42-.06.64-.09,1.28-.12,1.92,0,.28-.09.56-.11.85s0,.57,0,.86l-.31.17" style="fill:#ab87e5"/><path d="M97.5,114.78a12.73,12.73,0,0,0,.12-2c.16-.15.13-.35.13-.54,0-.9.19-1.79.25-2.69a16,16,0,0,0,.19-2.41c0-.06.1-.12.1-.18.07-.57.11-1.14.18-1.71s.17-1.13.25-1.7.13-1.09.19-1.64c0-.24.12-.41.41-.4a4.46,4.46,0,0,0-.22,1.27c-.17.87-.23,1.76-.34,2.63a5.23,5.23,0,0,0-.13,1.28,5,5,0,0,0-.16,1c-.05.67-.16,1.33-.24,2s-.15,1.14-.17,1.72c0,.75-.22,1.48-.18,2.23a.78.78,0,0,1-.05.28,2,2,0,0,0-.06.72.33.33,0,0,1-.28.17" style="fill:#ab87e5"/><path d="M81.29,102.18c.19.2.12.46.13.69q0,1.95,0,3.9,0,4.15,0,8.3l-.16.14a.49.49,0,0,1-.06-.2c.1-2.57-.2-5.14-.13-7.71a11.27,11.27,0,0,0,.06-2.64q0-1.08,0-2.16c.09-.08,0-.23.14-.3" style="fill:#ab87e5"/><path d="M81.15,104.64c.19.2.13.45.13.69q0,2.52,0,5t0,4.83l-.15.11q0-2.3,0-4.59a.59.59,0,0,1-.2-.45q-.08-1.65,0-3.29a.73.73,0,0,1,.2-.45v-1.89" style="fill:#7d70ae"/><path d="M87.22,106.53c0,1.36-.22,2.72-.15,4.08a.43.43,0,0,1-.28.38q0-.63,0-1.27c.19-.2.12-.45.12-.68,0-1.19,0-2.38,0-3.58,0-.23-.06-.48.12-.68a.3.3,0,0,1,.22.27,6.74,6.74,0,0,1-.06,1.47" style="fill:#ab87e5"/><path d="M104,108.43c-.09.63-.19,1.27-.25,1.9a12,12,0,0,0-.21,2,.29.29,0,0,1-.31.13,16.78,16.78,0,0,1,.28-2.34c.1-.61.15-1.23.22-1.84l.27.16" style="fill:#ab87e5"/><path d="M70.6,116.53q0,1.28,0,2.56l-.32.12q0-1,0-2.08c0-.19,0-.39-.17-.52.14-.14.3-.1.47-.09" style="fill:#ab87e5"/><path d="M65.24,117.8a1.44,1.44,0,0,0-.13.7c0,.74,0,1.48,0,2.22a.47.47,0,0,1-.28.25,3.72,3.72,0,0,0,.12-1.13c0-.52,0-1.05,0-1.57,0-.21-.12-.29-.3-.33.17-.18.39-.11.59-.13" style="fill:#ab87e5"/><path d="M75.77,117.79c0-.81,0-1.61,0-2.42,0-.16,0-.34-.14-.45a.5.5,0,0,1,.27-.45q0,1.21,0,2.41c0,.26,0,.52,0,.78a.22.22,0,0,1-.18.12" style="fill:#ab87e5"/><path d="M86.62,115.34h-.28c-.09,0-.2,0-.22-.11a.25.25,0,0,1,.05-.19,1.27,1.27,0,0,1,.46-.42.49.49,0,0,1,0,.7" style="fill:#736dab"/><path d="M86.62,115.34v-.7a.57.57,0,0,1,.28-.3l0,1h-.31" style="fill:#ab87e5"/><path d="M96.74,111.43c0,.2.08.43-.13.59,0-.21,0-.42.13-.59" style="fill:#7468a9"/><path d="M108.76,108.15a.28.28,0,0,1,.14-.32.35.35,0,0,1-.14.32" style="fill:#7669aa"/><path d="M108.16,107.52l-.12.17.12-.17" style="fill:#7669aa"/><path d="M108,107.8a.21.21,0,0,1-.14.18l.14-.18" style="fill:#7669aa"/><path d="M108.31,109l.12-.15-.12.15" style="fill:#7669aa"/><path d="M108.46,108.73l.13-.17-.13.17" style="fill:#7669aa"/><path d="M108.61,108.45l.13-.18-.13.18" style="fill:#7669aa"/><path d="M107.73,108.12l-.15.15.15-.15" style="fill:#7669aa"/><path d="M107.87,108l-.14.15.14-.15" style="fill:#7669aa"/><path d="M71.17,153.65A5.81,5.81,0,0,1,69.45,155a4.83,4.83,0,0,1-.45.23,9.71,9.71,0,0,1-3.38,1.12,7.93,7.93,0,0,1-2.13.18c-.26,0-.53,0-.79,0a7.07,7.07,0,0,1-1.42-.11c-.41-.09-.85-.06-1.27-.18l-.55-.14h-.29c-.07-.09-.21-.06-.29-.14h-.29c0-.05-.1-.09-.14-.14h-.14c0-.05-.1-.09-.15-.14a5.62,5.62,0,0,1-2.35-1.26c-.29-.24-.65-.4-.83-.76.19-.37.55-.37.88-.37q7.22,0,14.44,0c.33,0,.69,0,.88.37" style="fill:#e0eff1"/><path d="M72,156a.29.29,0,0,1-.15.28A.29.29,0,0,1,72,156" style="fill:#d6eaeb"/><path d="M71.89,156.25l-.14.14.14-.14" style="fill:#d6eaeb"/><path d="M71.75,156.4s0,.09,0,.14H71.6l.14-.14" style="fill:#d6eaeb"/><path d="M53.54,157.41l-.15-.14.15.14" style="fill:#d8ebec"/><path d="M53.68,157.55l-.15-.14.15.14" style="fill:#d8ebec"/><path d="M53.83,157.7l-.15-.14.15.14" style="fill:#d8ebec"/><path d="M107.3,154.37c0-.12.06-.25.2-.27a4.36,4.36,0,0,1,.57,0h14.35a4.37,4.37,0,0,1,.58,0c.13,0,.18.14.2.27l-.14.15c-.49.33-.95.72-1.46,1a11,11,0,0,1-3.54,1.3,12.72,12.72,0,0,1-3.7.25,14.59,14.59,0,0,1-4.18-.88c-.49-.19-.95-.46-1.42-.69-.21.11-.31-.08-.45-.16l-.2-.15a2.08,2.08,0,0,1-.26-.18l-.11-.1-.05-.05-.1-.11,0-.05-.1-.1,0-.05a.41.41,0,0,1-.08-.12v-.07" style="fill:#e4f1f3"/><path d="M108.31,155.24l.43.29c-.08.42-.08.43-.41.43h-2.92a1.21,1.21,0,0,0-.69.14.37.37,0,0,0-.17.29c-.25-.09-.32-.34-.45-.53-.38-.51-.73-1-1.09-1.57a.6.6,0,0,1,0-.21l-.14-.15s0-.1,0-.14l-.14-.14v-.14a.9.9,0,0,1,.77-.29h1.79a1.38,1.38,0,0,0,.76-.15,1,1,0,0,1,.41.39,3,3,0,0,0,.89.91,1.93,1.93,0,0,0,.15.15l.14.14.14.14.14.14.29.15c0,.05.1.09.14.14" style="fill:#d9ecee"/><path d="M123.05,154.52l.14-.15-.14.15" style="fill:#e0eff1"/><path d="M74.35,143.1a1,1,0,0,1,0,.14c.08.08.05.22.14.3s0,.32.14.43a1.36,1.36,0,0,1,0,.14c.08.08,0,.22.14.29v.29a1.21,1.21,0,0,1-.95.23c-2.92,0-5.84,0-8.76,0-.58.07-.95-.36-1.38-.62a1.33,1.33,0,0,0-.33-.18l-.17-.06a1.43,1.43,0,0,0-.34-.08,2,2,0,0,1-.35-.06,1.12,1.12,0,0,0-.48-.06l-.12.06a.15.15,0,0,0,0,.12s0,.06,0,.07l.08.14a2.37,2.37,0,0,1,.2.34,2,2,0,0,1,0,1.13c0,.18-.11.39-.38.22-.25-.47-.7-.44-1.14-.44H53a2.23,2.23,0,0,1-1.13-.15.25.25,0,0,1,0-.37c0-.23,0-.47,0-.7a3.24,3.24,0,0,1,.15-1.18h22.4" style="fill:#cde6e7"/><path d="M52.09,141.94l.14-.14-.14.14" style="fill:#cde6e7"/><path d="M126.67,144a3.42,3.42,0,0,1,.43,1.59,1.57,1.57,0,0,1-.78.08h-7.61a5.53,5.53,0,0,0-1,.08c-.28.11-.44-.09-.61-.25a3.76,3.76,0,0,0-3.39-1.1c-2.84-.06-5.67,0-8.51,0-.38,0-.78.08-1.1-.22v-.72c.14-.12,0-.32.14-.43h20.85c1.09,0,.92-.1,1.38.79a1.36,1.36,0,0,0,.18.22" style="fill:#cfe7e8"/><path d="M115.53,151.92a1.41,1.41,0,0,0-.36,0,3.83,3.83,0,0,1-2.71-.33l-.26-.12a3.24,3.24,0,0,1-1.87-2.28c0-.18-.09-.35-.14-.53a1.18,1.18,0,0,1,0-.23c.11-.72.21-.84.85-.61s1.32-.14,2,0a4.83,4.83,0,0,0,1.77.13c.69,0,1.39,0,2.08,0a1,1,0,0,0,1.28-.81c.36,0,.33.26.35.47a5.15,5.15,0,0,1,0,1,4.87,4.87,0,0,1-.63,1.73,3.61,3.61,0,0,1-2.3,1.6" style="fill:#a5cecc"/><path d="M110.33,148.59a.92.92,0,0,1,0,.14c.13.12,0,.32.14.44a4.71,4.71,0,0,0,1.74,2.32,3.48,3.48,0,0,1-1.13.15h-4.89a4.43,4.43,0,0,0-.57,0c-.13,0-.18.14-.2.27a3.62,3.62,0,0,1-.59-1.29,6.84,6.84,0,0,1-.48-1.64s-.06-.07-.09-.1,0-.29,0-.43a.94.94,0,0,1,.73-.22q2.23,0,4.46,0c.34,0,.68,0,.88.37" style="fill:#daecee"/><path d="M115.53,151.92a6,6,0,0,0,2-1.47,1.5,1.5,0,0,1,.17-.13,1,1,0,0,1,1-.37c2.2,0,4.41,0,6.61,0,.3,0,.7-.11.82.36,0,.1,0,.19,0,.29s-.09.1-.14.14a5.51,5.51,0,0,1-.87,1.45c-.12-.16-.29-.14-.46-.14h-7.22a3.56,3.56,0,0,1-1.14-.11,2.68,2.68,0,0,0-.72,0" style="fill:#ddedef"/><path d="M124.93,152.49l-.14.14.14-.14" style="fill:#ddedef"/><path d="M106,152.93l-.14-.14.14.14" style="fill:#d9ecee"/><path d="M103.11,140.07l-.14.15.14-.15" style="fill:#a9d4d6"/><path d="M103.25,139.92l-.14.14.14-.14" style="fill:#a9d4d6"/><path d="M102.53,141.08l-.14.15.14-.15" style="fill:#a2d1d4"/><path d="M135.19,144.69l.14.14-.14-.14" style="fill:#b4dadb"/><path d="M64.81,144.83a.39.39,0,0,1,.32-.14h9.66a3.43,3.43,0,0,1,.28,1.23c0,.17,0,.33,0,.5H66.71c-.25,0-.54-.1-.75.15a.12.12,0,0,1-.14,0,.36.36,0,0,1-.1-.13c0-.07-.05-.15-.08-.22l-.06-.13a1.15,1.15,0,0,0-.1-.19l-.09-.11-.09-.12-.08-.13a1.55,1.55,0,0,0-.16-.19c-.12-.17-.36-.28-.26-.55" style="fill:#cee6e7"/><path d="M65.82,146.56H66c0,.43.16.83.16,1.26A10.06,10.06,0,0,0,66,149l-.14.15c-.15.25-.4.23-.64.23-2,0-3.93,0-5.89,0a1.77,1.77,0,0,1-.91-.17.83.83,0,0,1-.32-.37,7.11,7.11,0,0,1-.14-.76.71.71,0,0,1,0-.31.41.41,0,0,1,.19-.22.42.42,0,0,1,.18,0l.35.08.17,0a1.57,1.57,0,0,0,.51.05h.34a1.29,1.29,0,0,0,.4,0l.15-.05.21-.1.14-.07.21-.13.15-.11c.36-.17.45-.8,1-.62a21.4,21.4,0,0,0,3.86,0" style="fill:#a2d0ce"/><path d="M53.68,152.06a.7.7,0,0,1-.32-.36c-.13-.22-.18-.49-.4-.66a.47.47,0,0,1-.16-.15.78.78,0,0,1-.12-.32.59.59,0,0,1,.08-.36.87.87,0,0,1,.72-.25c1.69,0,3.38-.05,5.07,0a1.16,1.16,0,0,1,.69.37,3.89,3.89,0,0,0,4.56.88c.12,0,.24,0,.36-.06l.15-.05.14-.06h7.84a1.57,1.57,0,0,1,.91.14.55.55,0,0,1,0,.2c-.22.32-.45.64-.68,1-1.9-.12-3.8,0-5.7-.07-4-.16-7.94,0-11.91,0a1.75,1.75,0,0,1-1.18-.23" style="fill:#dcedef"/><path d="M64.09,151.34a.47.47,0,0,0-.14,0,4.15,4.15,0,0,1-2.24.42,3.57,3.57,0,0,1-2.22-.92c-.25-.22-.49-.46-.74-.69s-.63-.64-.45-1.15a1.47,1.47,0,0,0,.84.15h5.4a3.6,3.6,0,0,1,1,.05c.08,0,.18,0,.27-.06a3.07,3.07,0,0,1-1.12,1.66,1.31,1.31,0,0,0-.18.22h0l-.15.14h0c-.07.09-.21.06-.29.15" style="fill:#a4cfcd"/><path d="M73.48,139.92l-.14-.14.14.14" style="fill:#a7d3d5"/><path d="M73.19,139.49l-.14-.14.14.14" style="fill:#a7d3d5"/><path d="M58.16,112.89a1.73,1.73,0,0,1-.13.91c0-.2,0-.41,0-.61a.35.35,0,0,1,.14-.29" style="fill:#7468a9"/><path d="M59.75,118.68q0,.58,0,1.15H59.6q0-.58,0-1.16a.21.21,0,0,1,.14,0" style="fill:#ab87e5"/><path d="M58,116.91a1.08,1.08,0,0,1,.17.6c-.26-.14-.15-.39-.17-.6" style="fill:#7267a9"/><path d="M53.68,152.06H59.6a2.68,2.68,0,0,0,1-.11,1.47,1.47,0,0,1,.5,0h1.59a3.09,3.09,0,0,1,.93.1,2.48,2.48,0,0,0,.72,0h7.29a5.66,5.66,0,0,1,.65,0c.13,0,.18.14.2.27a7,7,0,0,1-1.3,1.3,1.58,1.58,0,0,0-.91-.14H55.82a1.48,1.48,0,0,0-.84.14h-.14l-.14-.14a1.9,1.9,0,0,0-.14-.14l-.43-.58c-.05,0-.09-.1-.14-.14l-.14-.29c-.05,0-.09-.11-.14-.14s0-.1,0-.14" style="fill:#ddedef"/><path d="M58.88,156a.3.3,0,0,1,.29.14.3.3,0,0,1-.29-.14" style="fill:#ddedef"/><path d="M58.16,155.67l.15.14-.15-.14" style="fill:#ddedef"/><path d="M58.45,155.82l.14.14-.14-.14" style="fill:#ddedef"/><path d="M74.78,142.23h-.14s0-.1,0-.14l.14.14" style="fill:#a9d4d6"/><path d="M74.64,141.95l-.14-.15.14.15" style="fill:#a9d4d6"/><path d="M53,150.9s0,.1,0,.14-.34.14-.53.14h-2a.91.91,0,0,0-.78.29,4.61,4.61,0,0,1-.43-2c-.15-1-.07-1.07.83-1.09a11.68,11.68,0,0,1,1.92,0c.7.34.61,1.06.81,1.65,0,.13-.06.28.06.41s0,.19,0,.29.09.1.14.15" style="fill:#cee6e7"/><path d="M49.78,151.92a.3.3,0,0,1-.14-.29.3.3,0,0,1,.14.29" style="fill:#cee6e7"/><path d="M53.68,152.21l.14.14-.14-.14" style="fill:#dcedef"/><path d="M54,152.64l.14.14-.14-.14" style="fill:#dcedef"/><path d="M54.55,153.36l.14.14-.14-.14" style="fill:#d8ebec"/><path d="M54.69,153.51l.14.14-.14-.14" style="fill:#d8ebec"/><path d="M104.12,144.11H113a1.58,1.58,0,0,1,.91.14c.62.42.72,1.17.2,1.48a6,6,0,0,0-1.29-.09c-2.78,0-5.56-.05-8.34,0a.77.77,0,0,1-.55-.13v-.72a1.19,1.19,0,0,1,.14-.72" style="fill:#cfe7e8"/><path d="M104.27,143c0,.16,0,.33-.14.43,0-.16,0-.33.14-.43" style="fill:#cae4e6"/><path d="M102.82,141.66a.29.29,0,0,1,.15-.29.31.31,0,0,1-.15.29" style="fill:#a2d1d4"/><path d="M104,145.56a8.75,8.75,0,0,1,2.21-.14H114c.18,0,.24.13.27.29.36.53,0,.94-.24,1.37l-.12.15-.07.07-.13.12-.06.06-.12.11-.06.05-.12.11-.14.08-.15,0h-.08c-.16,0-.32.08-.48.14a1.94,1.94,0,0,1-1.46,0l-.27-.09c-.29-.08-.37,0-.39.3,0,.12,0,.24,0,.36a1.46,1.46,0,0,0-.83-.15h-5.24c-.16-.12-.14-.29-.14-.46a6.26,6.26,0,0,0-.1-1,9.46,9.46,0,0,1,0-1.44" style="fill:#d4e9ea"/><path d="M52.09,148.59H49.6c-.31,0-.38.07-.4.37s0,.33,0,.5c-.18-.14-.14-.34-.14-.53,0-.84,0-1.67,0-2.51.17-.22,0-.51.14-.72,0,0,0-.09,0-.14.59,0,1.18,0,1.77,0,.38,0,.65-.07.74-.48,0,0,.06-.07.09-.1s0,.19,0,.29c.38.57.11,1.25.31,1.85,0,.49.3,1,0,1.48" style="fill:#c7e3e4"/><path d="M102.68,153.65l.14.14-.14-.14" style="fill:#d4e9ea"/><path d="M102.83,153.94l.14.15-.14-.15" style="fill:#d4e9ea"/><path d="M120.17,109.73a.3.3,0,0,1,.12-.3.31.31,0,0,1-.12.3" style="fill:#7669aa"/><path d="M118.29,148.74q0-.6,0-1.21a.46.46,0,0,0-.14-.39,2.54,2.54,0,0,1-.58-1.44c0-.12.07-.24.2-.26a3.73,3.73,0,0,1,.5,0h8a1.48,1.48,0,0,1,.84.14,1.09,1.09,0,0,1,0,.14c.16.22,0,.51.14.73-.06.35.18.67.13,1a.91.91,0,0,0-.27.49.37.37,0,0,1-.15.23c-2.5-.15-5,0-7.51-.09-.61,0-.76.49-1.16.67" style="fill:#d4e9ea"/><path d="M118.29,148.74c.18-.14.12-.35.15-.53s.09-.32.37-.33h7.77a.45.45,0,0,1,.39.28,4.79,4.79,0,0,1-.87,2.17c-.12-.16-.29-.14-.46-.14h-7.1a1.63,1.63,0,0,0-.84.14.29.29,0,0,1,0-.07,10.73,10.73,0,0,0,.58-1.52" style="fill:#d7ebed"/><path d="M125.94,150.76l.14-.14-.14.14" style="fill:#d7ebed"/><path d="M49.2,145.7c0,.24.09.52-.14.72v-.14c0-.2-.06-.43.15-.58" style="fill:#c3e1e2"/><path d="M127.24,146.42c-.23-.21-.11-.48-.14-.73a.33.33,0,0,1,.14.29q0,.22,0,.43" style="fill:#cfe7e8"/><path d="M74.64,144c-.17-.1-.14-.27-.14-.43.17.11.14.27.14.43" style="fill:#c8e4e5"/><path d="M74.78,144.4a.3.3,0,0,1-.14-.29.3.3,0,0,1,.14.29" style="fill:#c8e4e5"/><path d="M74.49,143.53a.29.29,0,0,1-.14-.3.31.31,0,0,1,.14.3" style="fill:#c8e4e5"/><path d="M59.75,121.12c0,.28,0,.57,0,.85a.38.38,0,0,1-.13.31q0-.39,0-.78a.48.48,0,0,1,.13-.39" style="fill:#6e65a8"/><path d="M81.14,106.54q0,2.1,0,4.19a1.39,1.39,0,0,1-.76.15c-.79,0-1.58,0-2.36,0a12.44,12.44,0,0,0-1.7.17.24.24,0,0,0-.23.24c0,.21,0,.43,0,.64a2,2,0,0,1-.14-.89q0-1.3,0-2.6c0-.46,0-.91,0-1.36,0-.3.08-.37.4-.38h2a2.57,2.57,0,0,0,.85-.09,1.84,1.84,0,0,1,.57,0h1.37" style="fill:#744da9"/><path d="M81.29,102.18a.34.34,0,0,1-.14.3l0-1.13h.17q0,.42,0,.83" style="fill:#ab87e5"/><path d="M87.22,106.53q0-.79,0-1.59a13.31,13.31,0,0,1,.14-3.78.7.7,0,0,1,.46-.18,36.81,36.81,0,0,1,4.46.05,1,1,0,0,0,.57.16.75.75,0,0,1,.16.53,8.86,8.86,0,0,1-.1,1.34,7.12,7.12,0,0,0-.05,1.2c0,.19,0,.38-.13.53a1.93,1.93,0,0,0,0-.21c0-.31-.08-.35-.33-.37H90.07a3,3,0,0,0-1.13.11,1.26,1.26,0,0,1-.43,0h-.64c-.46,0-.5,0-.51.48s0,.86,0,1.29a.44.44,0,0,1-.14.39" style="fill:#744da9"/><path d="M92.27,101c-.16.2-.39.14-.6.14H86.31a.52.52,0,0,1-.39-.1l2.34-2,.82-.68a9.21,9.21,0,0,1,1.34,1.05c.63.5,1.23,1,1.84,1.56" style="fill:#744da9"/><path d="M64.22,107.4l.29,1.86a5.09,5.09,0,0,1-1.2.24c-1.2.22-2.41.43-3.62.64-.12,0-.24,0-.36,0s-.12-.11-.12-.17c0-.58-.24-1.13-.19-1.71-.12-.12,0-.31-.13-.44l0-.43c.09-.43.09-.43.41-.44h1a3.61,3.61,0,0,0,1.21-.11,1.78,1.78,0,0,1,.57,0h2c.14.17,0,.41.13.58" style="fill:#744da9"/><path d="M74.18,112.41a2.22,2.22,0,0,1-4.44,0,2.22,2.22,0,1,1,4.44,0" style="fill:#000029"/><path d="M66.6,115.37a2.21,2.21,0,1,1,2.25-2.15,2.19,2.19,0,0,1-2.25,2.15" style="fill:#000029"/><path d="M61,116.42c-.13,0-.24,0-.27-.21-.22-1.23-.44-2.45-.66-3.68a.23.23,0,0,1,.21-.3c.52-.09,1-.2,1.56-.25a1.17,1.17,0,0,1,1.25.65,1.14,1.14,0,0,1,0,1,.25.25,0,0,0,.1.36,1,1,0,0,1,.36.44,1.21,1.21,0,0,1-.4,1.48,1.79,1.79,0,0,1-.66.27l-.28.06-1.24.21" style="fill:#000029"/><path d="M58.9,107.84c.16.11.13.28.13.44-.15-.11-.13-.28-.13-.44" style="fill:#786aab"/><path d="M64.22,107.4c-.2-.16-.11-.38-.13-.58.19.16.12.38.13.58" style="fill:#786aab"/><path d="M69.7,183.24c0-.24.13-.39.41-.37a9.25,9.25,0,0,1,1.44.07,2.29,2.29,0,0,0,.43,0c1.18,0,2.35.15,3.52.28.74.08,1.48.12,2.23.19s1.43.16,2.15.24c.55.06,1.1.07,1.65.14.81.11,1.63.11,2.44.19,1.34.13,2.69.1,4,.19a29,29,0,0,0,3.24.05c1.13-.05,2.26-.06,3.39-.13s2.54-.17,3.81-.28,2.43-.26,3.65-.38c.72-.07,1.44-.11,2.15-.18s1.38-.17,2.08-.23a43.56,43.56,0,0,1,5.62-.19.68.68,0,0,1,.47.14.79.79,0,0,1,.07.69,30.48,30.48,0,0,1-2.38,6.95,4.35,4.35,0,0,1-3.16,2.48,51.15,51.15,0,0,1-5.79.8,136.24,136.24,0,0,1-13.71.26,67.44,67.44,0,0,1-12.76-1.31c-.45-.09-.89-.23-1.33-.32a3.27,3.27,0,0,1-2.44-2.14,22.94,22.94,0,0,1-1.37-6.4.91.91,0,0,1,.17-.75" style="fill:#fff"/><path d="M69.7,183.24a25.94,25.94,0,0,0,1,6.1,8,8,0,0,0,.71,1.65,2.52,2.52,0,0,0,1.6,1.25,39.63,39.63,0,0,0,4,.84c2.21.35,4.44.57,6.67.72,2.52.17,5,.23,7.58.22,1.59,0,3.18,0,4.77-.06,2.36-.06,4.71-.2,7.06-.45a32.13,32.13,0,0,0,4-.68,3.87,3.87,0,0,0,2.65-2,20.92,20.92,0,0,0,1.43-3.31A33.75,33.75,0,0,0,112.4,183a1.1,1.1,0,0,1,1.15.38,2.88,2.88,0,0,1,.66,1.1,7.39,7.39,0,0,1,.45,2.25,15.28,15.28,0,0,1-1,6.08A20.35,20.35,0,0,1,105,203.23a2.16,2.16,0,0,1-.33.14,2,2,0,0,1-1-.44,25.46,25.46,0,0,0-10.42-3.14,30.68,30.68,0,0,0-11.45,1.43,35.8,35.8,0,0,0-5,1.86,1.18,1.18,0,0,1-.7.14,9,9,0,0,1-1.86-1.35A21.82,21.82,0,0,1,67,189.4a14,14,0,0,1-.3-3.08A7.51,7.51,0,0,1,67,184.4a4,4,0,0,1,.27-.66,1.24,1.24,0,0,1,.75-.63,6,6,0,0,1,1.2-.22c.31,0,.31,0,.5.36"/><path d="M77.51,194.94a18.87,18.87,0,0,1,2.58-1.13A34.55,34.55,0,0,1,86.52,192a24.67,24.67,0,0,1,5.18-.4,22.91,22.91,0,0,1,10.65,3c.22.13.43.28.64.43a2.67,2.67,0,0,1-.8.52A22.64,22.64,0,0,1,96,197.77c-.88.18-1.77.32-2.66.41a31.9,31.9,0,0,1-4.23.21,23.28,23.28,0,0,1-8.45-1.68,18.21,18.21,0,0,1-2.84-1.49c-.12-.08-.27-.13-.34-.28" style="fill:#e86d7f"/><path d="M87.34,101.2a9.08,9.08,0,0,1-.09,1.65,7.29,7.29,0,0,0,0,1.22c0,.29,0,.58,0,.87l-.14-.16,0-3.59h0a.17.17,0,0,1,.28,0Z" style="fill:#ab87e5"/><path d="M92.69,105.38c0,.31,0,.61,0,.92a.49.49,0,0,1-.13.39q0-.5,0-1a.38.38,0,0,1,.13-.31" style="fill:#796bab"/><path d="M107.45,154.52l-.15-.15.15.15" style="fill:#e0eff1"/><path d="M107.59,154.66l-.14-.14.14.14" style="fill:#e0eff1"/><path d="M107.73,154.81l-.14-.14.14.14" style="fill:#e0eff1"/><path d="M107.88,155l-.14-.14.14.14" style="fill:#e0eff1"/><path d="M108.31,155.24l-.14-.14.14.14" style="fill:#deeef0"/><path d="M51.95,147.15a1.27,1.27,0,0,1-.15-.68c0-.4,0-.8,0-1.2h9.56c.45,0,.59,0,.56.58,0,0,0,.1,0,.14a.23.23,0,0,1,.09.23.66.66,0,0,1-.16.3l-.07,0c-.28.29-.48.67-.87.86a25.14,25.14,0,0,0-2.95-.06H52.83a1.23,1.23,0,0,1-.89-.22" style="fill:#d0e7e8"/><path d="M61.92,146.28V146s.08-.07.09-.1a2.4,2.4,0,0,0-.09-1.49c-.08-.08,0-.21-.14-.29h0a.2.2,0,0,1,0-.29.89.89,0,0,1,.72,0h.43c.08.08.21.05.29.13h.15c.07.09.21.06.29.14l1.16.73.43.58.14.14a.66.66,0,0,1,0,.13,1.08,1.08,0,0,0,.14.16h0c.08.08.06.21.15.29s.05.21.14.29a1.11,1.11,0,0,1,0,.14.3.3,0,0,1-.19.27.75.75,0,0,1-.21,0H62.19c-.21,0-.38,0-.41-.29.09-.07.06-.21.14-.29" style="fill:#9ececc"/><path d="M62.49,143.81h-.72a.5.5,0,0,1,.72,0" style="fill:#c8e4e5"/><path d="M61.77,144.11a.29.29,0,0,1,.14.29.3.3,0,0,1-.14-.29" style="fill:#c8e4e5"/><path d="M63.65,144.11a.29.29,0,0,1-.29-.14.29.29,0,0,1,.29.14" style="fill:#c8e4e5"/><path d="M63.22,144a.3.3,0,0,1-.29-.13.3.3,0,0,1,.29.13" style="fill:#c8e4e5"/><path d="M61.77,143.82c0,.1,0,.19,0,.29-.15-.1-.15-.19,0-.29" style="fill:#c8e4e5"/><path d="M117.56,145.7a5.92,5.92,0,0,1,.51,1c0,.14,0,.28.07.42s0,.43,0,.65-.08.34-.34.36h-4.31a1.75,1.75,0,0,1-.36,0c-.13,0-.18-.14-.2-.27s.21-.06.29-.15h0l.15-.14h0l.15-.14h0l.14-.14h0l.14-.15a2.37,2.37,0,0,0,.44-1.44c0-.06.12-.13.11-.18a2.89,2.89,0,0,0-.4-1.28,1.6,1.6,0,0,1,1.31-.06,4.22,4.22,0,0,1,2.3,1.5" style="fill:#a2d0ce"/><path d="M110.47,149.17c-.17-.11-.13-.28-.14-.44.16.11.14.28.14.44" style="fill:#d4e9ea"/><path d="M65.82,146.42a.3.3,0,0,1-.14-.29.29.29,0,0,1,.14.29" style="fill:#a2d0ce"/><path d="M65.68,146.13a.3.3,0,0,1-.15-.29.3.3,0,0,1,.15.29" style="fill:#a2d0ce"/><path d="M65.53,145.85l-.14-.16.14.16" style="fill:#a2d0ce"/><path d="M65.38,145.56l-.14-.14.14.14" style="fill:#a2d0ce"/><path d="M51.95,147.15h8.56a.45.45,0,0,1,.39.27h-.13a1.12,1.12,0,0,0-.15.14h-.13a1.34,1.34,0,0,0-.15.13h-.15c-.12.13-.31,0-.43.13h-.44c-.17-.15-.41,0-.58-.14h-.14c-.08-.09-.21-.05-.28-.14h0c-.17-.1-.21.07-.29.15V148c.16.22,0,.51.14.73l.15.29a1.5,1.5,0,0,0,.21.58l.23.57H53.58a4.23,4.23,0,0,0-.57,0c-.13,0-.18.14-.2.27a6.06,6.06,0,0,1-.57-1.58c0-.11,0-.23-.15-.3a1.3,1.3,0,0,0,0-.41,2.69,2.69,0,0,1-.12-1" style="fill:#d4e9eb"/><path d="M58.16,148.74c-.23-.21-.11-.48-.14-.73.22.21.11.48.14.73" style="fill:#d0e7e8"/><path d="M58.74,147.73c.2,0,.42-.07.58.14-.2,0-.42.06-.58-.14" style="fill:#d0e7e8"/><path d="M58,147.73c.06-.28.09-.3.29-.15l-.29.15" style="fill:#d0e7e8"/><path d="M59.76,147.86c.11-.16.27-.13.43-.13-.11.16-.27.14-.43.13" style="fill:#d0e7e8"/><path d="M58.31,147.58a.3.3,0,0,1,.28.14.29.29,0,0,1-.28-.14" style="fill:#d0e7e8"/><path d="M60.33,147.72l.15-.13-.15.13" style="fill:#d0e7e8"/><path d="M60.62,147.58l.15-.14-.15.14" style="fill:#d0e7e8"/><path d="M64.09,151.34a.31.31,0,0,1,.29-.15.29.29,0,0,1-.29.15" style="fill:#d7ebed"/><path d="M53,150.9l-.14-.15.14.15" style="fill:#d3e9e9"/><path d="M64.37,151.19l.15-.14-.15.14" style="fill:#d7ebed"/><path d="M113.22,147.72a.29.29,0,0,1-.29.15.31.31,0,0,1,.29-.15" style="fill:#a5cecc"/><path d="M113.37,147.58l-.15.14.15-.14" style="fill:#a5cecc"/><path d="M113.52,147.44l-.15.14.15-.14" style="fill:#a5cecc"/><path d="M113.66,147.29l-.14.14.14-.14" style="fill:#a5cecc"/><path d="M113.8,147.14l-.14.15.14-.15" style="fill:#a5cecc"/><path d="M87.35,101.2h-.28c.1-.16.19-.16.28,0" style="fill:#796bab"/><path d="M72,111.15a1.21,1.21,0,0,1,1.23,1.3,1.18,1.18,0,0,1-1.24,1.2,1.25,1.25,0,0,1,0-2.5" style="fill:#fcfcfc"/><path d="M67.86,113.16a1.18,1.18,0,0,1-1.19,1.26,1.26,1.26,0,1,1,1.19-1.26" style="fill:#f9fbfd"/><path d="M62.75,114.83a.39.39,0,0,1-.26.39,6.22,6.22,0,0,1-.63.14.21.21,0,0,1-.27-.16c0-.12-.06-.23-.08-.35a.21.21,0,0,1,.16-.27,5.3,5.3,0,0,1,.71-.1.4.4,0,0,1,.38.36" style="fill:#e9ebee"/><path d="M61.83,112.88c.29,0,.45.14.48.33a.39.39,0,0,1-.32.41l-.42.09a.21.21,0,0,1-.27-.16,2.15,2.15,0,0,1-.07-.28c0-.19,0-.28.19-.32l.42-.08" style="fill:#dadfe2"/><path d="M88.87,196.61a6,6,0,0,0-2.36.31,3.23,3.23,0,0,1-1.07.19,1.83,1.83,0,0,1-.44-.05.81.81,0,0,1-.39-1.34,2.15,2.15,0,0,1,.63-.54,7.92,7.92,0,0,1,2.86-.9,12.72,12.72,0,0,1,1.6-.11,3.77,3.77,0,0,1,.89.13,1.25,1.25,0,0,1,.92,1.11,1,1,0,0,1-.62,1,1.84,1.84,0,0,1-.75.16H88.87" style="fill:#f1d0d4"/><path d="M61.92,146.28a.3.3,0,0,1-.14.29.31.31,0,0,1,.14-.29" style="fill:#a2d0ce"/></svg>