<svg id="1c49dda4-339e-456e-aabe-62b79f997434" data-name="Layer 1" xmlns="http://www.w3.org/2000/svg"
     xmlns:xlink="http://www.w3.org/1999/xlink" viewBox="0 0 193.29 82.83">
    <defs>
        <linearGradient id="b9c2bd61-5237-4acc-a58b-64f25646a655" x1="48.58" y1="68.32" x2="74.5" y2="68.32"
                        gradientUnits="userSpaceOnUse">
            <stop offset="0" stop-color="#f73d6e"/>
            <stop offset="1" stop-color="#bd2e5a"/>
        </linearGradient>
        <linearGradient id="f3b96cd0-fdb5-4f7a-8030-2a9c02f96799" x1="72.41" y1="68.32" x2="90.77" y2="68.32"
                        xlink:href="#b9c2bd61-5237-4acc-a58b-64f25646a655"/>
        <linearGradient id="1b027dcd-d33a-4485-8062-21df3e602ba7" x1="87.51" y1="60.71" x2="143.38" y2="60.71"
                        xlink:href="#b9c2bd61-5237-4acc-a58b-64f25646a655"/>
        <linearGradient id="2522700e-4f11-4d27-bdad-208f55093874" x1="100.35" y1="69.03" x2="116.16" y2="69.03"
                        xlink:href="#b9c2bd61-5237-4acc-a58b-64f25646a655"/>
        <linearGradient id="5e726055-b70d-463d-839f-7eba76db5f9e" x1="130.87" y1="67.76" x2="149.1" y2="67.76"
                        xlink:href="#b9c2bd61-5237-4acc-a58b-64f25646a655"/>
        <linearGradient id="5ef4b52c-3f39-4bb6-93d7-30e208c56205" x1="113.53" y1="67.32" x2="132.71" y2="67.32"
                        xlink:href="#b9c2bd61-5237-4acc-a58b-64f25646a655"/>
    </defs>
    <title>Boobon active</title>
    <path d="M24.43,28.14c0,5.83-4.75,9.63-10.62,9.63H0V4.88H12.87c5.73,0,10.38,3.71,10.38,9.4a8.23,8.23,0,0,1-2.87,6.44A8.49,8.49,0,0,1,24.43,28.14ZM7.52,11.93v5.83h5.36a2.77,2.77,0,0,0,2.87-2.91,2.75,2.75,0,0,0-2.87-2.91Zm9.4,15.64a3,3,0,0,0-3.1-3.15H7.52v6.3h6.3A3,3,0,0,0,16.91,27.58Z"
          fill="currentColor"/>
    <path d="M26.78,21.33a17.1,17.1,0,1,1,34.2,0,17.1,17.1,0,1,1-34.2,0Zm26.69,0a9.35,9.35,0,0,0-9.58-9.77,9.35,9.35,0,0,0-9.58,9.77,9.35,9.35,0,0,0,9.58,9.77A9.35,9.35,0,0,0,53.47,21.33Z"
          fill="currentColor"/>
    <path d="M63.8,21.33a17.1,17.1,0,1,1,34.2,0,17.1,17.1,0,1,1-34.2,0Zm26.69,0a9.59,9.59,0,1,0-19.17,0,9.59,9.59,0,1,0,19.17,0Z"
          fill="currentColor"/>
    <path d="M126.67,28.14c0,5.83-4.75,9.63-10.62,9.63H102.23V4.88h12.87c5.73,0,10.38,3.71,10.38,9.4a8.23,8.23,0,0,1-2.87,6.44A8.49,8.49,0,0,1,126.67,28.14ZM109.75,11.93v5.83h5.36A2.78,2.78,0,0,0,118,14.84a2.75,2.75,0,0,0-2.87-2.91Zm9.4,15.64a3,3,0,0,0-3.1-3.15h-6.3v6.3H116A3,3,0,0,0,119.15,27.58Z"
          fill="currentColor"/>
    <path d="M129,21.33a17.1,17.1,0,0,1,34.2,0,17.1,17.1,0,1,1-34.2,0Zm26.69,0a9.59,9.59,0,1,0-19.17,0,9.59,9.59,0,1,0,19.17,0Z"
          fill="currentColor"/>
    <path d="M193.29,4.88V37.77h-5.64L175,19.92V37.77h-7.52V4.88h5.64l12.68,17.85V4.88Z" fill="currentColor"/>
    <path d="M63,71.62c-1.72,1.49-3.38,3-5.1,4.38a12.62,12.62,0,0,1-5.17,2.82c-2.19.49-3.64-.45-4-2.67a9.91,9.91,0,0,1,1-5.69A22.63,22.63,0,0,1,59.75,59a10.23,10.23,0,0,1,4.7-1.26,3.73,3.73,0,0,1,3.49,2.44c.25.69.08,1-.63,1.22a21.36,21.36,0,0,0-10.89,7.09,29.89,29.89,0,0,0-2.89,4.82c-.17.3,0,.8,0,1.2a3.44,3.44,0,0,0,1.21-.17,10.38,10.38,0,0,0,2.13-1.48c2.59-2.49,5.17-5,7.66-7.57a2.87,2.87,0,0,1,4.89.92,2,2,0,0,1-.2,1.29c-.71,1.71-1.52,3.38-2.19,5.1-.27.7-.51,1.62.22,2.16s1.52.08,2.14-.37c1.17-.86,2.27-1.81,3.4-2.72.24-.19.44-.52.7-.58a1.7,1.7,0,0,1,.94.2,1,1,0,0,1-.11.62c-1.67,2.13-3.43,4.2-5.93,5.39a6.09,6.09,0,0,1-2.66.63c-1.92,0-3.09-1.56-3.08-3.8A23.26,23.26,0,0,1,63,71.62Z"
          style="fill:url(#b9c2bd61-5237-4acc-a58b-64f25646a655)"/>
    <path d="M77.13,72.14c0,2.86,1.66,4.17,4.27,3.62a14.92,14.92,0,0,0,7-3.9,7.74,7.74,0,0,1,1.23-1.13c.3-.17.78,0,1.18,0a2.38,2.38,0,0,1-.23.87c-2.36,3-5.07,5.53-8.8,6.72-2.36.75-4.72.86-6.86-.63s-2.74-4-2.34-6.45a16.34,16.34,0,0,1,8.8-12.39A7.11,7.11,0,0,1,86.46,58a3.35,3.35,0,0,1,2.46,4.16,3.51,3.51,0,0,1-3.77,3.22c-.7-.08-1.13-.34-.77-1.14a1,1,0,0,0,.09-.36c0-.47,0-.93,0-1.4-.5,0-1.13-.12-1.48.12A13.57,13.57,0,0,0,80.16,65,12.76,12.76,0,0,0,77.13,72.14Z"
          style="fill:url(#f3b96cd0-fdb5-4f7a-8030-2a9c02f96799)"/>
    <path d="M94.72,54.09c-1.53.07-3,.25-4.4.19a1.68,1.68,0,0,1-1.59-2.42,1,1,0,0,1,1.16-.78c1.79.14,3.6.18,5.39.28a1,1,0,0,0,1.08-.67,64.19,64.19,0,0,0,2.82-6.73c.17-.69.54-1,1.2-.8a11.48,11.48,0,0,1,2.31.55A1.87,1.87,0,0,1,103.77,46a36.64,36.64,0,0,1-2.27,5.09c1.59,0,38.59-2.2,40.08-2.2a4.78,4.78,0,0,1,1.23.07c.23.06.38.37.57.57-.21.16-.4.42-.62.46-2,.32-39.7,3.13-41.71,3.46a1.42,1.42,0,0,0-.95.59A109.1,109.1,0,0,0,93.43,69.1a19.3,19.3,0,0,0-.82,3.79c-.22,1.93.84,2.78,2.65,2A20,20,0,0,0,99,72.62c.93-.67,1.7-1.55,2.57-2.3a1.37,1.37,0,0,1,.84-.36c.52,0,.79.33.4.82-2.26,2.88-4.75,5.52-8.21,7a7.14,7.14,0,0,1-2.83.56,4.06,4.06,0,0,1-4.26-4.25,16.62,16.62,0,0,1,1.55-7C90.75,63,92.57,59,94.33,55Z"
          style="fill:url(#1b027dcd-d33a-4485-8062-21df3e602ba7)"/>
    <path d="M116.16,70.75c-2.54,2.85-4.8,5.9-8.65,7a7.44,7.44,0,0,1-3,.23c-3.11-.48-4.58-2.66-4-5.95a26.42,26.42,0,0,1,4.27-10.19,4.62,4.62,0,0,1,5.51-1.39c.72.34,1,.84.55,1.56-.73,1.19-1.54,2.32-2.21,3.54-1.11,2.06-2.19,4.14-3.17,6.26a2.48,2.48,0,0,0,.12,2.89c.85.87,2,.5,3,.18a13.57,13.57,0,0,0,5.79-4C114.85,70.24,115.37,70,116.16,70.75Z"
          style="fill:url(#2522700e-4f11-4d27-bdad-208f55093874)"/>
    <path d="M135.64,70.88c.21,3.2,2.43,4.47,5.95,3.26a15.12,15.12,0,0,0,5.59-3.58,3.34,3.34,0,0,1,.89-.8c.28-.11.68.06,1,.11,0,.25,0,.56-.14.73-2,2.41-4,4.73-7,5.95a9.31,9.31,0,0,1-7.75.15,5.58,5.58,0,0,1-3.28-4.93c-.35-4.5,1.67-8,4.82-11a8.43,8.43,0,0,1,6.49-2.7c3.18.22,4.69,2.83,3.26,5.68a12.54,12.54,0,0,1-5.35,5.14C138.74,69.66,137.22,70.19,135.64,70.88ZM136,68.1a12.29,12.29,0,0,0,5.84-4.6,5.22,5.22,0,0,0,.37-1.78,5.09,5.09,0,0,0-1.87.36A11.56,11.56,0,0,0,136,68.1Z"
          style="fill:url(#5e726055-b70d-463d-839f-7eba76db5f9e)"/>
    <path d="M118.38,74.57a9.33,9.33,0,0,0,1.28-1.33c1.5-2.31,3-4.62,4.38-7a45.16,45.16,0,0,0,4.33-9.52c.2-.64.57-.8,1.21-.58a4.83,4.83,0,0,1,2.79,2.18,2.66,2.66,0,0,1,.25,1.91,24,24,0,0,1-1.87,4.12,44,44,0,0,1-10.06,12.42A10.64,10.64,0,0,1,118,78.34a2.69,2.69,0,0,1-3.7-1.49,8.3,8.3,0,0,1-.53-5.37c.65-3.4,1.47-6.77,2.17-10.16a31.27,31.27,0,0,0,.36-3.13c.09-.93.43-1.19,1.35-1a4.54,4.54,0,0,1,3.66,5.74c-.67,2.38-1.57,4.69-2.32,7a10.51,10.51,0,0,0-.85,4.41Z"
          style="fill:url(#5ef4b52c-3f39-4bb6-93d7-30e208c56205)"/>
</svg>