<svg id="c62441e7-f1ce-417f-a2a3-5fcb31c37472" data-name="Layer 1" xmlns="http://www.w3.org/2000/svg"
     viewBox="0 0 193.29 82.83">
    <title>Boobon crystal</title>
    <path d="M24.43,28.14c0,5.83-4.75,9.63-10.62,9.63H0V4.88H12.87c5.73,0,10.38,3.71,10.38,9.4a8.23,8.23,0,0,1-2.87,6.44A8.49,8.49,0,0,1,24.43,28.14ZM7.52,11.93v5.83h5.36a2.78,2.78,0,0,0,2.87-2.91,2.75,2.75,0,0,0-2.87-2.91Zm9.4,15.64a3,3,0,0,0-3.1-3.15H7.52v6.3h6.29A3,3,0,0,0,16.91,27.58Z"
          fill="currentColor"/>
    <path d="M26.78,21.33a17.1,17.1,0,0,1,34.2,0,17.1,17.1,0,1,1-34.2,0Zm26.69,0a9.35,9.35,0,0,0-9.58-9.77,9.35,9.35,0,0,0-9.58,9.77,9.35,9.35,0,0,0,9.58,9.77A9.35,9.35,0,0,0,53.47,21.33Z"
          fill="currentColor"/>
    <path d="M63.8,21.33a17.1,17.1,0,1,1,34.2,0,17.1,17.1,0,1,1-34.2,0Zm26.69,0a9.59,9.59,0,1,0-19.17,0,9.59,9.59,0,1,0,19.17,0Z"
          fill="currentColor"/>
    <path d="M126.67,28.14c0,5.83-4.75,9.63-10.62,9.63H102.23V4.88h12.87c5.73,0,10.38,3.71,10.38,9.4a8.23,8.23,0,0,1-2.87,6.44A8.49,8.49,0,0,1,126.67,28.14ZM109.75,11.93v5.83h5.36A2.78,2.78,0,0,0,118,14.84a2.75,2.75,0,0,0-2.87-2.91Zm9.4,15.64a3,3,0,0,0-3.1-3.15h-6.3v6.3H116A3,3,0,0,0,119.15,27.58Z"
          fill="currentColor"/>
    <path d="M129,21.33a17.1,17.1,0,1,1,34.2,0,17.1,17.1,0,1,1-34.2,0Zm26.69,0a9.59,9.59,0,1,0-19.17,0,9.59,9.59,0,1,0,19.17,0Z"
          fill="currentColor"/>
    <path d="M193.29,4.88V37.77h-5.64L175,19.92V37.77h-7.52V4.88h5.64l12.69,17.85V4.88Z" fill="currentColor"/>
    <path d="M30.29,59.78c-.86-.21-1.67-.42-2.48-.6a.47.47,0,0,0-.36.18,9.32,9.32,0,0,0-2,4.82,10.39,10.39,0,0,0,1.52,7c.43.67.44.67,1.2.46l2-.52A8.55,8.55,0,0,1,30.29,59.78Z"
          style="fill:#56d7da"/>
    <path d="M30.6,70.91l1.72-1.8a6.28,6.28,0,0,1,0-7.34L30.64,60C27.77,62.63,27.73,68.34,30.6,70.91Z"
          style="fill:#69cad1"/>
    <path d="M30,74.07c.32.17.61.33.91.47a14.35,14.35,0,0,0,9.28.62c.08,0,.2-.11.2-.17,0-.71,0-1.42,0-2.18-3.48,1-6.76,1.08-9.77-1.19Z"
          style="fill:#69cad1"/>
    <path d="M30.72,59.37C33.71,57,37,57,40.4,58.12V55.76a15.91,15.91,0,0,0-5-.47,11.6,11.6,0,0,0-5.08,1.53c-.1.06-.25.21-.23.29C30.3,57.86,30.51,58.59,30.72,59.37Z"
          style="fill:#9fe6e8"/>
    <path d="M40.25,72.41c-.49-.6-.93-1.14-1.39-1.66a.42.42,0,0,0-.32-.08c-.45.06-.89.16-1.33.2a5.81,5.81,0,0,1-4.13-1l-.36-.29L31,71.32C33.79,73.45,36.9,73.48,40.25,72.41Z"
          style="fill:#69cad1"/>
    <path d="M32.66,61.37a4.25,4.25,0,0,1,3-1.33c.93,0,1.86.14,2.79.2.15,0,.36,0,.44-.07.47-.52.91-1.08,1.36-1.63-3.06-1.23-6.91-1-9.27,1.22Z"
          style="fill:#69cad1"/>
    <path d="M43.65,56.75l-.09-.06c-.65.44-1.27.93-2,1.3s-.89.74-.63,1.43a.73.73,0,0,1,0,.15l.33,2.4Z"
          style="fill:#69cad1"/>
    <path d="M41.38,69.21l-.08,0c-.14,1-.28,2-.41,3a.27.27,0,0,0,.08.22l2.68,1.63L43.7,74Z" style="fill:#69cad1"/>
    <path d="M43.55,56.22v-.09l-2.71-.27v2.19Z" style="fill:#69cad1"/>
    <path d="M43.7,74.53l-2.84-1.66V75Z" style="fill:#69cad1"/>
    <path d="M30.35,71.47l-2.66.73,2,1.7Z" style="fill:#69cad1"/>
    <path d="M40.86,62.11l.07,0-.45-3.24-1.39,1.7Z" style="fill:#69cad1"/>
    <path d="M29.72,57.16l-1.85,1.6,2.48.65Z" style="fill:#69cad1"/>
    <path d="M40.95,68.88l-1.82,1.52L40.48,72Z" style="fill:#69cad1"/>
    <path d="M50.09,72.41V58.51c-.9.77-1.75,1.49-2.59,2.23a.41.41,0,0,0-.09.28q0,4.42,0,8.84a.56.56,0,0,0,.16.37C48.38,71,49.21,71.65,50.09,72.41Z"
          style="fill:#69cad1"/>
    <path d="M47.09,55.63l.38.29c.85.56,1.69,1.13,2.55,1.68a1.24,1.24,0,0,0,.63.19c2.06,0,4.12,0,6.19,0a8.36,8.36,0,0,1,4.66.84l.67-2.56a10.78,10.78,0,0,0-3.3-.43H47.09Z"
          style="fill:#9fe6e8"/>
    <path d="M60.22,67.15l2.74.76a.38.38,0,0,0,.26,0,5.7,5.7,0,0,0,2.34-2.41,8,8,0,0,0,.53-4.71,5.64,5.64,0,0,0-1-2.57L62,59a5.08,5.08,0,0,1,1.18,4.52A4.45,4.45,0,0,1,60.22,67.15Z"
          style="fill:#69cad1"/>
    <path d="M59.6,66.88a4,4,0,0,0,3.19-3.39,4.65,4.65,0,0,0-1.19-4.36c-.37.4-.7.78-1.05,1.15s-.71.72-1.07,1.07a2.41,2.41,0,0,1-.53,3.25.32.32,0,0,0-.11.28C59.08,65.55,59.34,66.21,59.6,66.88Z"
          style="fill:#69cad1"/>
    <path d="M51,58.2l0,.08c.82.67,1.63,1.34,2.45,2a.65.65,0,0,0,.38.08c.94,0,1.87,0,2.81,0a3.56,3.56,0,0,1,2.53.65l2.13-2.06a4.17,4.17,0,0,0-2.08-.67c-1.94-.05-3.88-.06-5.82-.08Z"
          style="fill:#69cad1"/>
    <path d="M50.54,66.94c.89-.72,1.73-1.39,2.55-2.07a.55.55,0,0,0,.14-.38c0-1,0-1.9,0-2.85A1.6,1.6,0,0,0,52.5,60c-.68-.46-1.28-1-2-1.58Z"
          style="fill:#69cad1"/>
    <path d="M58.4,64.93c-.57,0-1.1.1-1.63.11-1,0-2,0-2.93,0a1,1,0,0,0-.54.18c-.7.53-1.39,1.09-2.08,1.63a2.55,2.55,0,0,0-.22.23l.16,0,7.18,0a6.35,6.35,0,0,0,.87-.13Z"
          style="fill:#9fe6e8"/>
    <path d="M51,67.57l0,.1,2.47,1.94a.47.47,0,0,0,.26,0c1.08,0,2.17,0,3.25,0a.71.71,0,0,0,.46-.23c.36-.41.7-.84,1-1.27l.46-.59Z"
          style="fill:#69cad1"/>
    <path d="M59.47,67.6c-.62.76-1.2,1.46-1.77,2.18a.38.38,0,0,0,0,.32c.22.53.44,1.06.68,1.58a.57.57,0,0,0,.33.27c.58.15,1.17.27,1.76.4l1.25.26Z"
          style="fill:#69cad1"/>
    <path d="M62.08,72.43c.06,0,.09-.05.1-.07.4-.57.77-1.15,1.2-1.7a1,1,0,0,0,.13-1,2,2,0,0,0-1.86-1.69,13.89,13.89,0,0,1-1.79-.49Z"
          style="fill:#69cad1"/>
    <path d="M66.58,75.27l0-.08c-1.44-.67-2.87-1.34-4.31-2a.51.51,0,0,0-.42.1c-.5.37-1,.77-1.48,1.16l-1,.82Z"
          style="fill:#69cad1"/>
    <path d="M47.09,75.26h6.45l-3.21-2.13Z" style="fill:#69cad1"/>
    <path d="M54,75.06l-.67-4.79-2.67,2.54Z" style="fill:#69cad1"/>
    <path d="M62.36,72.78,67,74.93l0-.06-3.06-4.31Z" style="fill:#69cad1"/>
    <path d="M47.34,60.33,50,58.08l-3.31-2.22Z" style="fill:#56d7da"/>
    <path d="M47.34,70.59l-.67,4.47L50,72.84Z" style="fill:#69cad1"/>
    <path d="M53.13,69.88l-2.57-2.06v4.54Z" style="fill:#69cad1"/>
    <path d="M58.57,72.36,59,75.12,61.58,73Z" style="fill:#69cad1"/>
    <path d="M64.89,57.83a5.33,5.33,0,0,0-2.36-1.63l-.6,2.43Z" style="fill:#69cad1"/>
    <path d="M102.59,73c-3.52,1.62-7,1-10.54,0,0,.71,0,1.39,0,2.07,0,.09.16.23.27.25a23,23,0,0,0,7.8.63,9.1,9.1,0,0,0,3-.81Z"
          style="fill:#69cad1"/>
    <path d="M103.53,63.78l-3.8-.65a29.83,29.83,0,0,1-4.47-.63l-1.89,1.82a19.46,19.46,0,0,0,2,.57c1.18.21,2.38.34,3.57.52a13.64,13.64,0,0,1,3.94,1Z"
          style="fill:#69cad1"/>
    <path d="M92.45,67l.34.11a24,24,0,0,0,4.9.8,9.73,9.73,0,0,1,3,.48l1.86-1.75a2.78,2.78,0,0,0-.47-.19c-1.15-.25-2.29-.52-3.45-.71a19.84,19.84,0,0,1-5.52-1.22Z"
          style="fill:#69cad1"/>
    <path d="M93.35,58.07A8,8,0,0,1,98,56.93a19.77,19.77,0,0,1,4.78.71V55.33A22.17,22.17,0,0,0,95,55.12c-.75.14-1.47.43-2.21.65Z"
          style="fill:#9fe6e8"/>
    <path d="M92.24,72.57a16.27,16.27,0,0,0,8,.84,5.49,5.49,0,0,0,2.16-.82c-.52-.51-1-1-1.5-1.45a.5.5,0,0,0-.38,0,18.52,18.52,0,0,1-1.95.39,10.77,10.77,0,0,1-4.45-.64c-.18-.06-.33-.11-.49.09C93.17,71.48,92.71,72,92.24,72.57Z"
          style="fill:#69cad1"/>
    <path d="M103.12,72.56c.72.19,1.38.33,2,.54a.64.64,0,0,0,.89-.36,7.6,7.6,0,0,0,.75-4.87,17.39,17.39,0,0,0-.44-1.87l-2.89.78C104.84,68,104.8,71.13,103.12,72.56Z"
          style="fill:#69cad1"/>
    <path d="M92.8,58.49l-2.17-.57a.37.37,0,0,0-.49.19,6.6,6.6,0,0,0-.94,3.6,6.77,6.77,0,0,0,.65,3.14l2.68-.69A4.43,4.43,0,0,1,92.8,58.49Z"
          style="fill:#56d7da"/>
    <path d="M102.67,58a16.17,16.17,0,0,0-6.45-.58,6,6,0,0,0-2.66,1c.5.49,1,1,1.46,1.42a.46.46,0,0,0,.37,0c.32-.09.62-.25.94-.32a9.73,9.73,0,0,1,4.48.18.54.54,0,0,0,.45-.08C101.74,59.18,102.17,58.64,102.67,58Z"
          style="fill:#69cad1"/>
    <path d="M102.7,72.32c1.9-1.36,1.57-4.7.26-5.31l-1.73,1.83a1.46,1.46,0,0,1-.15,1.85Z" style="fill:#69cad1"/>
    <path d="M94.71,62.15a1.71,1.71,0,0,1,.13-1.83l-1.66-1.55C91.76,60,91.63,62.84,93,63.9Z" style="fill:#69cad1"/>
    <path d="M88.34,74.41l.07.05c1-.59,2-1.17,3-1.76a.4.4,0,0,0,.18-.3c-.1-1.05-.22-2.11-.34-3.16h-.08Z"
          style="fill:#69cad1"/>
    <path d="M106.55,56.2l-.06-.06L103.41,58a.28.28,0,0,0-.13.21c.12,1.07.25,2.14.37,3.21l.08,0Z" style="fill:#69cad1"/>
    <path d="M88.37,74.93l3.3.32V73.06Z" style="fill:#69cad1"/>
    <path d="M103.24,57.62l3.08-1.82,0-.08-3.07-.31Z" style="fill:#69cad1"/>
    <path d="M103.26,66.41l2.78-.77A4.17,4.17,0,0,0,103.89,64Z" style="fill:#69cad1"/>
    <path d="M90.08,65.25a4,4,0,0,0,2,1.62l.63-2.35Z" style="fill:#69cad1"/>
    <path d="M101.49,60.11l1.8,1.6-.38-3.3Z" style="fill:#69cad1"/>
    <path d="M103,72.95l.5,2.07a5.63,5.63,0,0,0,1.88-1.48Z" style="fill:#69cad1"/>
    <path d="M93,58.11l-.58-2.18-1.8,1.47.07.12Z" style="fill:#69cad1"/>
    <path d="M91.68,69l.38,3.2,1.35-1.64Z" style="fill:#69cad1"/>
    <path d="M128.41,55.61c-.92.71-1.78,1.38-2.64,2a.72.72,0,0,1-.41.12H113.24a.72.72,0,0,1-.41-.12c-.86-.65-1.71-1.32-2.64-2Z"
          style="fill:#9fe6e8"/>
    <path d="M119.08,72.35c-.88-.76-1.71-1.46-2.52-2.17a.61.61,0,0,1-.16-.41q0-4.38,0-8.75a.47.47,0,0,1,.1-.32c.84-.74,1.69-1.46,2.59-2.23Z"
          style="fill:#69cad1"/>
    <path d="M119.53,72.35V58.47c.9.77,1.75,1.49,2.59,2.23a.48.48,0,0,1,.09.33q0,4.38,0,8.76a.52.52,0,0,1-.12.36C121.26,70.87,120.42,71.59,119.53,72.35Z"
          style="fill:#69cad1"/>
    <path d="M128.78,61.67l-2.84-3.61,2.84-2.27Z" style="fill:#69cad1"/>
    <path d="M109.81,61.68V55.79l2.85,2.27Z" style="fill:#56d7da"/>
    <path d="M122.42,75.22h-6.28a3.2,3.2,0,0,1,.26-.23c.88-.59,1.76-1.17,2.64-1.75a.48.48,0,0,1,.41-.05c1,.64,2,1.3,3,1.95Z"
          style="fill:#69cad1"/>
    <path d="M119.9,58.22h5.33l-.84,1.09a4.53,4.53,0,0,0-.47.6,1,1,0,0,1-1.2.53.76.76,0,0,1-.36-.13C121.57,59.65,120.78,59,119.9,58.22Z"
          style="fill:#69cad1"/>
    <path d="M118.7,58.22l-2.56,2.18c-.05,0-.15,0-.23,0a1.14,1.14,0,0,1-1.27-.57c-.36-.57-.82-1.07-1.28-1.65Z"
          style="fill:#69cad1"/>
    <path d="M119.64,72.79l2.64-2.25.67,4.46Z" style="fill:#69cad1"/>
    <path d="M119,72.79,115.65,75l.67-4.46Z" style="fill:#69cad1"/>
    <path d="M110.24,61.78l2.71-3.43,1.73,2.21-4.39,1.28Z" style="fill:#69cad1"/>
    <path d="M123.91,60.57l1.73-2.22,2.71,3.43,0,.07Z" style="fill:#69cad1"/>
    <path d="M148.15,72.43l-5.24-13.8c1.13.44,2.18.84,3.23,1.27a.55.55,0,0,1,.24.31q1.85,4.84,3.68,9.68a.43.43,0,0,1,0,.36C149.42,71,148.81,71.66,148.15,72.43Z"
          style="fill:#69cad1"/>
    <path d="M137.92,58.66l-5.24,13.73c-.63-.75-1.23-1.47-1.81-2.2-.06-.08,0-.28,0-.41q1.28-3.37,2.57-6.73c.36-.93.71-1.86,1.08-2.79a.68.68,0,0,1,.29-.37C135.82,59.48,136.82,59.1,137.92,58.66Z"
          style="fill:#56d7da"/>
    <path d="M142.49,58.66,146.4,69l-.33-.17c-1-.6-2-1.18-2.94-1.8a1.1,1.1,0,0,1-.42-.51c-.68-1.85-1.34-3.7-2-5.55a.44.44,0,0,1,.11-.54C141.35,59.88,141.89,59.3,142.49,58.66Z"
          style="fill:#69cad1"/>
    <path d="M134.43,68.89l3.91-10.23c.57.65,1.12,1.26,1.64,1.89a.44.44,0,0,1,0,.36q-1,2.88-2.06,5.74a.65.65,0,0,1-.25.31l-3.21,2Z"
          style="fill:#69cad1"/>
    <path d="M134.47,69.76h11.87c-.46.51-.91.94-1.28,1.43a1.55,1.55,0,0,1-1.42.64c-2.35,0-4.71,0-7.06,0a.7.7,0,0,1-.62-.29C135.49,70.94,135,70.38,134.47,69.76Z"
          style="fill:#69cad1"/>
    <path d="M146,69.29H134.81a2.1,2.1,0,0,1,.22-.19c.95-.59,1.9-1.19,2.86-1.77a.93.93,0,0,1,.46-.13h4.06a.78.78,0,0,1,.38.1l3,1.86Z"
          style="fill:#9fe6e8"/>
    <path d="M145.21,55.61c-.92.83-1.78,1.6-2.64,2.35a.61.61,0,0,1-.37.11h-3.62a.54.54,0,0,1-.34-.09c-.83-.77-1.66-1.54-2.54-2.37Z"
          style="fill:#9fe6e8"/>
    <path d="M144.51,75c.09-1,.17-1.89.25-2.77a.41.41,0,0,1,.08-.22l1.92-2.15c.35.94.68,1.81,1,2.69a.26.26,0,0,1-.08.23Z"
          style="fill:#69cad1"/>
    <path d="M152.07,75.22H145l.93-.66c.66-.46,1.31-.94,2-1.38a.5.5,0,0,1,.43,0c1.25.64,2.49,1.31,3.73,2l.11,0Z"
          style="fill:#69cad1"/>
    <path d="M135.78,75.21h-7a3.56,3.56,0,0,1,.29-.21c1.13-.62,2.25-1.23,3.39-1.84a.52.52,0,0,1,.43,0C133.82,73.78,134.74,74.46,135.78,75.21Z"
          style="fill:#69cad1"/>
    <path d="M134.06,69.92,135.81,72a.37.37,0,0,1,.1.17c.09.92.18,1.83.27,2.86l-2.38-1.71c-.8-.57-.8-.57-.46-1.48Z"
          style="fill:#69cad1"/>
    <path d="M150.34,70.5l2.18,4.34,0,.07-4.1-2.15Z" style="fill:#69cad1"/>
    <path d="M132.45,72.72l-4,2.14-.07-.06,2.17-4.3Z" style="fill:#69cad1"/>
    <path d="M142.94,58.21l2.67-2.44.58,3.72Z" style="fill:#69cad1"/>
    <path d="M135.28,55.77l2.64,2.44-3.18,1.26Z" style="fill:#69cad1"/>
    <path d="M142.07,58.52l-1.71,1.81-1.62-1.81Z" style="fill:#69cad1"/>
    <path d="M159.16,72.42c-.89-.76-1.72-1.47-2.55-2.2a.57.57,0,0,1-.14-.38q0-4.39,0-8.78a.48.48,0,0,1,.09-.33c.85-.74,1.7-1.47,2.6-2.24Z"
          style="fill:#69cad1"/>
    <path d="M159.62,72.42V58.52c.1.07.18.12.26.18.75.64,1.5,1.27,2.23,1.92a.66.66,0,0,1,.2.44q0,4.38,0,8.75a.66.66,0,0,1-.18.45C161.32,71,160.5,71.66,159.62,72.42Z"
          style="fill:#69cad1"/>
    <path d="M156.17,75.27c1.12-.74,2.13-1.41,3.15-2.07a.81.81,0,0,1,.42-.09h8.9a.66.66,0,0,1,.38.08c.87.67,1.73,1.35,2.67,2.08Z"
          style="fill:#69cad1"/>
    <path d="M168.52,72.66H160c.72-.62,1.4-1.16,2-1.75a1.73,1.73,0,0,1,1.37-.5c1,0,2.07,0,3.1,0a.6.6,0,0,1,.42.15C167.42,71.25,167.94,71.93,168.52,72.66Z"
          style="fill:#9fe6e8"/>
    <path d="M172.08,69.19V75.1l-2.87-2.28Z" style="fill:#69cad1"/>
    <path d="M156.14,55.61h6.49l-1.07.73c-.64.44-1.29.87-1.94,1.3a.41.41,0,0,1-.34.05C158.26,57,157.25,56.34,156.14,55.61Z"
          style="fill:#9fe6e8"/>
    <path d="M156.41,60.3l-.68-4.48L159.05,58Z" style="fill:#69cad1"/>
    <path d="M155.73,75.08l.68-4.48,2.64,2.25Z" style="fill:#56d7da"/>
    <path d="M162.38,60.3,159.73,58l3.32-2.22Z" style="fill:#69cad1"/>
    <path d="M168.93,72.53l-1.74-2.23L171.57,69l.06.07Z" style="fill:#69cad1"/>
    <path d="M75,68.73l-2.72-5.31C71.82,62.6,71.4,61.79,71,61c0-.1-.08-.28,0-.35.56-.72,1.13-1.42,1.74-2.17l1.35,3c.6,1.32,1.2,2.63,1.78,4a1.05,1.05,0,0,1,0,.68C75.59,66.92,75.28,67.78,75,68.73Z"
          style="fill:#69cad1"/>
    <path d="M83.15,58.46c.55.73,1.06,1.41,1.55,2.09a.37.37,0,0,1,0,.32c-1.21,2.51-2.43,5-3.69,7.59-.06-.16-.1-.25-.12-.35a6.89,6.89,0,0,0-.26-1,3.58,3.58,0,0,1,.19-3.1c.77-1.68,1.41-3.41,2.11-5.13Z"
          style="fill:#69cad1"/>
    <path d="M76.26,65.16l-3.08-6.67.38.1c.85.29,1.7.57,2.54.88a.68.68,0,0,1,.37.35c.43,1.19.84,2.4,1.26,3.59a.41.41,0,0,1-.11.53C77.15,64.33,76.7,64.75,76.26,65.16Z"
          style="fill:#69cad1"/>
    <path d="M79.92,65.23c-.51-.51-1-1-1.4-1.43a.42.42,0,0,1-.07-.35q.55-1.85,1.14-3.68a.53.53,0,0,1,.26-.31c.93-.36,1.88-.71,2.94-1.1Z"
          style="fill:#69cad1"/>
    <path d="M78.25,72.76l2.58-3.19.81,5.5Z" style="fill:#69cad1"/>
    <path d="M68.39,55.61h7.12l-.6.49c-.65.52-1.3,1-2,1.54a.49.49,0,0,1-.41.08c-1.37-.66-2.74-1.34-4.1-2C68.43,55.7,68.42,55.67,68.39,55.61Z"
          style="fill:#9fe6e8"/>
    <path d="M77.6,72.73l-3.28,2.39.84-5.45Z" style="fill:#69cad1"/>
    <path d="M80.6,55.63h6.8l-.35.21c-1.21.61-2.42,1.2-3.62,1.82a.45.45,0,0,1-.6-.07c-.67-.58-1.36-1.14-2-1.7a2.28,2.28,0,0,0-.26-.16Z"
          style="fill:#9fe6e8"/>
    <path d="M77.72,72.23c-.83-1-1.58-2-2.32-2.94a.46.46,0,0,1-.08-.36c.29-.87.59-1.74.92-2.68.09.15.15.25.2.35a12,12,0,0,0,.78,1.53C78.09,69.39,77.78,70.76,77.72,72.23Z"
          style="fill:#69cad1"/>
    <path d="M77.92,73.05l3.18,2.22H74.85Z" style="fill:#69cad1"/>
    <path d="M80,66.16c.26,1,.51,1.86.74,2.74a.34.34,0,0,1-.07.25l-2.42,3c0-.26,0-.42,0-.58a7.07,7.07,0,0,0,0-.76,5.47,5.47,0,0,1,.9-3C79.4,67.31,79.65,66.77,80,66.16Z"
          style="fill:#69cad1"/>
    <path d="M68.17,56.05l4.27,2.1-1.8,2.16L68.1,56.14Z" style="fill:#69cad1"/>
    <path d="M83.4,58.13,87.66,56l0,.06-2.63,4.25Z" style="fill:#69cad1"/>
    <path d="M76.31,59.06,73.19,58,76,55.81Z" style="fill:#69cad1"/>
    <path d="M79.73,59.06l.36-3.25L82.69,58Z" style="fill:#69cad1"/>
    <path d="M79.7,65.69l-1.31,2.76h-.06V64.38Z" style="fill:#69cad1"/>
    <path d="M77.86,64.39v4l-.06,0c-.42-.87-.85-1.74-1.27-2.62a.27.27,0,0,1,.05-.24C77,65.15,77.46,64.76,77.86,64.39Z"
          style="fill:#69cad1"/>
</svg>