<svg version="1.1"
	 xmlns="http://www.w3.org/2000/svg" xmlns:xlink="http://www.w3.org/1999/xlink" xmlns:a="http://ns.adobe.com/AdobeSVGViewerExtensions/3.0/"
	 x="0px" y="0px" width="85.6px" height="85.1px" viewBox="0 0 85.6 85.1" style="enable-background:new 0 0 85.6 85.1;"
	 xml:space="preserve">
<path d="M77.8,60.8c0.6-0.6,1.2-5.3,1.3-6.5l3,2.7l-0.9-12.8l4.5,1.8c0,0-1.2-28.5-19.7-31.3c0,0-1.7-3,0.6-3.1
	c0,0-3.6-3.1-7.5-2.7c0,0-0.1-3.7,2.4-4.1c0,0-9.5-1.5-12.1,0.6l0.7-3.4L43.7,3l-0.5-3c0,0-8.6,1.9-11,5.3c0,0-1.2-3.1-0.8-5
	c0,0-3.3,3.6-3,6.8c0,0-4.7-1.6-5.1-5.5c0,0-3.7,2.9-3.4,7.8c0,0-4.2,0.2-5.5-2.4c0,0-2.7,3.5-1.7,9.6c0,0-4.1,0.4-8.2-1.7
	c0,0,0,4.4,1.1,6.6c0,0-5.1,4.3-4.7,8c0,0-1.5,9.4-0.2,11.7l1.5-2.1c0,0-0.9,13.9,0.9,17.8L5.3,56c0,0-0.7,10.1,1.4,12.8l1-2.3
	c0,0,5.6-1.4,6.9,3.3S23.1,84.4,34,84.2s12.8,0.9,12.8,0.9l-3-5.3c0,0,13.3-0.8,17.9,0.3l-2.1-4.8l6-0.5l0.2-3.3l6.6-0.9l0.2-4.7
	L78,65L77.8,60.8z"/>
</svg>
