<svg id="e22ce8c4-323f-4268-b1e2-30dc1a3b3842" data-name="Layer 1" xmlns="http://www.w3.org/2000/svg"
     xmlns:xlink="http://www.w3.org/1999/xlink" viewBox="0 0 193.29 82.83">
    <defs>
        <linearGradient id="cca43841-4f06-492e-9511-8265101878fa" x1="133.98" y1="54.03" x2="133.98" y2="77.3"
                        gradientUnits="userSpaceOnUse">
            <stop offset="0" stop-color="#c84bfd"/>
            <stop offset="1" stop-color="#ad26fe"/>
        </linearGradient>
        <linearGradient id="43678b27-0923-447d-ba63-ba079f64e153" x1="83.93" y1="53.64" x2="83.93" y2="78.26"
                        xlink:href="#cca43841-4f06-492e-9511-8265101878fa"/>
        <linearGradient id="9892db84-c262-41db-867a-219d0f7d8d9b" x1="110.65" y1="53.64" x2="110.65" y2="78.26"
                        xlink:href="#cca43841-4f06-492e-9511-8265101878fa"/>
        <linearGradient id="ccb5ab64-257e-45fc-9fbb-e93dba3dc380" x1="60.37" y1="53.61" x2="60.37" y2="78.29"
                        xlink:href="#cca43841-4f06-492e-9511-8265101878fa"/>
    </defs>
    <title>Boobon cool</title>
    <path d="M24.43,26.69c0,5.83-4.75,9.63-10.62,9.63H0V3.43H12.87c5.73,0,10.38,3.71,10.38,9.4a8.23,8.23,0,0,1-2.87,6.44A8.49,8.49,0,0,1,24.43,26.69ZM7.52,10.48v5.83h5.36a2.78,2.78,0,0,0,2.87-2.91,2.75,2.75,0,0,0-2.87-2.91Zm9.4,15.64A3,3,0,0,0,13.81,23H7.52v6.3h6.3A3,3,0,0,0,16.91,26.12Z"
          fill="currentColor"/>
    <path d="M26.78,19.88a17.1,17.1,0,1,1,34.2,0,17.1,17.1,0,1,1-34.2,0Zm26.69,0a9.35,9.35,0,0,0-9.58-9.77,9.35,9.35,0,0,0-9.58,9.77,9.35,9.35,0,0,0,9.58,9.77A9.35,9.35,0,0,0,53.47,19.88Z"
          fill="currentColor"/>
    <path d="M63.8,19.88a17.1,17.1,0,1,1,34.2,0,17.1,17.1,0,0,1-34.2,0Zm26.69,0a9.59,9.59,0,1,0-19.17,0,9.59,9.59,0,1,0,19.17,0Z"
          fill="currentColor"/>
    <path d="M126.67,26.69c0,5.83-4.74,9.63-10.62,9.63H102.24V3.43h12.87c5.73,0,10.38,3.71,10.38,9.4a8.23,8.23,0,0,1-2.87,6.44A8.49,8.49,0,0,1,126.67,26.69ZM109.75,10.48v5.83h5.36A2.77,2.77,0,0,0,118,13.39a2.75,2.75,0,0,0-2.87-2.91Zm9.4,15.64A3,3,0,0,0,116,23h-6.3v6.3H116A3,3,0,0,0,119.15,26.12Z"
          fill="currentColor"/>
    <path d="M129,19.88a17.1,17.1,0,1,1,34.2,0,17.1,17.1,0,1,1-34.2,0Zm26.69,0a9.59,9.59,0,1,0-19.17,0,9.59,9.59,0,1,0,19.17,0Z"
          fill="currentColor"/>
    <path d="M193.29,3.43V36.32h-5.64L175,18.47V36.32h-7.52V3.43h5.64l12.69,17.85V3.43Z" fill="currentColor"/>
    <path d="M132.24,72h6.28c.81,0,1.62,0,2.42,0,.3,0,.45.09.45.4q0,2.19.11,4.37c0,.31-.11.44-.42.43s-.41,0-.62,0l-13.62-.07c-.12,0-.23,0-.38,0,0-.26,0-.49,0-.73q0-9.59,0-19.19c0-.88.06-1.75.08-2.63,0-.31.12-.48.45-.49,1.68,0,3.37-.1,5-.12.11,0,.32.24.33.38,0,.67,0,1.34,0,2q-.08,7.71-.16,15.42C132.24,71.9,132.24,72,132.24,72Z"
          style="fill:url(#cca43841-4f06-492e-9511-8265101878fa)"/>
    <path d="M83.56,53.64a12.14,12.14,0,0,1,7.28,2,10.79,10.79,0,0,1,4.3,6.82,14.53,14.53,0,0,1-1,9.76,10.19,10.19,0,0,1-7.95,5.8A12.76,12.76,0,0,1,79,77.26a10.28,10.28,0,0,1-5.79-6.46,14.37,14.37,0,0,1,.16-10.25,10.42,10.42,0,0,1,8.52-6.74C82.53,53.7,83.21,53.67,83.56,53.64Zm5.55,12.22.15,0a30.9,30.9,0,0,0-.7-3.43,4.36,4.36,0,0,0-3.77-3.22A4.86,4.86,0,0,0,79.7,61.4a9.24,9.24,0,0,0,.17,9.21,4.73,4.73,0,0,0,4.85,2.06,4.54,4.54,0,0,0,3.78-3.1A10,10,0,0,0,89.12,65.87Z"
          style="fill:url(#43678b27-0923-447d-ba63-ba079f64e153)"/>
    <path d="M110.28,53.64a12.14,12.14,0,0,1,7.28,2,10.79,10.79,0,0,1,4.3,6.82,14.53,14.53,0,0,1-1,9.76,10.19,10.19,0,0,1-7.95,5.8,12.76,12.76,0,0,1-7.27-.81,10.28,10.28,0,0,1-5.79-6.46A14.37,14.37,0,0,1,100,60.55a10.42,10.42,0,0,1,8.52-6.74C109.24,53.7,109.93,53.67,110.28,53.64Zm5.55,12.22.15,0a30.9,30.9,0,0,0-.7-3.43,4.36,4.36,0,0,0-3.77-3.22,4.86,4.86,0,0,0-5.09,2.21,9.24,9.24,0,0,0,.17,9.21,4.73,4.73,0,0,0,4.85,2.06,4.54,4.54,0,0,0,3.78-3.1A10,10,0,0,0,115.83,65.87Z"
          style="fill:url(#9892db84-c262-41db-867a-219d0f7d8d9b)"/>
    <path d="M68.18,60.71a38,38,0,0,0-4-1.26c-4.4-.91-7.64,2.31-7.59,6.54a7.49,7.49,0,0,0,1,4,5.41,5.41,0,0,0,5.21,2.62,8.68,8.68,0,0,0,4.92-2,6.38,6.38,0,0,1,.7.82c.66,1.09,1.28,2.21,1.94,3.31.2.33,0,.48-.21.65a10.42,10.42,0,0,1-4,2.21,13.71,13.71,0,0,1-8.78,0,9.72,9.72,0,0,1-6-5.94,14.86,14.86,0,0,1-.69-9.09,10.84,10.84,0,0,1,8.08-8.31,14.35,14.35,0,0,1,10.13.72c2.06,1,1.65.78,1.06,2.51a24.27,24.27,0,0,1-1.31,2.8,4.37,4.37,0,0,1-.46.63Z"
          style="fill:url(#ccb5ab64-257e-45fc-9fbb-e93dba3dc380)"/>
</svg>