<svg xmlns="http://www.w3.org/2000/svg" xmlns:xlink="http://www.w3.org/1999/xlink" viewBox="0 0 284.69 230.26" width="285px" height="230px">
    <defs>
        <linearGradient id="83791f8d-8d48-4fe8-a65c-29db1ba319e9" x1="139.57" y1="1506.53" x2="141.73" y2="1507.41" gradientTransform="matrix(0.93, -0.37, 0.37, 0.93, -637.68, -1120.64)" gradientUnits="userSpaceOnUse">
            <stop offset="0.01" stop-color="#00ff7f"/>
            <stop offset="0.43" stop-color="#00aeef"/>
            <stop offset="0.49" stop-color="#07a8ef"/>
            <stop offset="0.59" stop-color="#1999ef"/>
            <stop offset="0.69" stop-color="#3780ef"/>
            <stop offset="0.81" stop-color="#605def"/>
            <stop offset="0.88" stop-color="#7a47ef"/>
        </linearGradient>
        <linearGradient id="a35b2f8d-09ff-451b-8402-8523f1e053fc" data-name="Безымянный градиент 9" x1="52.02" y1="86.06" x2="216.45" y2="86.06" gradientUnits="userSpaceOnUse">
            <stop offset="0.3" stop-color="#ffc313"/>
            <stop offset="1" stop-color="#d19e04"/>
        </linearGradient>
    </defs>
    <title>boobon-blog</title>
    <g>
        <path d="M43.87,230l2.51,0.28A15.43,15.43,0,0,1,43.87,230Z" style="fill: url(#83791f8d-8d48-4fe8-a65c-29db1ba319e9)"/>
        <g>
            <path d="M91.58,185.21a2.09,2.09,0,0,0,.38.26Z" style="fill: #69cad1"/>
            <path d="M217.09,141.41c2.2,2,7,2.38,7,2.38-9.87-9.94-6.33-23.06-6.33-23.06a112,112,0,0,1,6.74,13.52c-1.23-9.88-7.59-25.59-7.59-25.59a50.77,50.77,0,0,1,6.75,8.86,44,44,0,0,0-6.58-15.68,25.64,25.64,0,0,1,6.84-1.33c-7.5-2.54-13.21-15.94-13.21-15.94,2.81,2.33,13,4.27,13,4.27-9.21-4.13-21.64-20.38-21.64-20.38,6.14,3.23,15.59,5.61,15.59,5.61-7.31-2.87-24.19-19.4-24.19-19.4,5.74-.15,17.08,5.93,17.08,5.93-9.26-10.09-24.78-17.24-27.11-18.28C200.14,42.84,202.6,36,202.6,36c-15.26,1.94-21-2.24-30.58-4.13,2.81-2.69,4.77-6.89,6.27-10.65,1.87-4.67.68-12.68-4.18-17.4-3.88-3.77-15.23-6.69-20.49.74-2.72,3.84-.66,9.86,3.94,10.68C160,15.73,162.95,13.7,162,11a4.49,4.49,0,0,0-1.22-1.81,2.79,2.79,0,0,1,.29,1.48,1.42,1.42,0,0,1-.12.51,1.34,1.34,0,0,1-.4.46,2.24,2.24,0,0,1-2.15.29,2,2,0,0,1-1.3-1.7,4.43,4.43,0,0,1,.47-1.92,3.09,3.09,0,0,1,3.2-1.3c2.12,0.22,3.31,2.7,3,4.77-1,7-8.55,8.68-12.08,10.2l-1,.4c0.92-2.86-.56-7.29-0.56-7.29-4.36,10.06-10.19,11.61-9.26,10.68,4.15-4.15,3-10.48,3-10.48-7.39,8.63-12.42,9.83-12.42,9.83,4-6.89,2.21-12.24,2.21-12.24C122,26.94,110.5,29.47,110.5,29.47c-7,1.55-15.29,6.91-15.29,6.91-18.36,3.51-34.58-5.45-34.58-5.45,4.18,14.14,14.28,16.56,14.28,16.56s-7,2-14.67,13.84C54.12,70.77,50.07,78,50.07,78c1.81-.12,5.14-2.59,5.14-2.59C52.29,87.16,44.13,90,44.13,90c1.2,1.89,10.4-1.24,12-1.8-1.37.52-8.1,3.73-10.48,17.32-2.49,14.23-1.61,11-1.61,11a24.7,24.7,0,0,1,3-6.73L46.7,121.38c-0.29,11.54-3.08,17.4-3.08,17.4,3-2.91,5.41-10,5.41-10-4.2,25.47,4.08,32.56,4.08,32.56-1.23-5.06-.31-7.43-0.31-7.43,1.35,7.89,8.84,14.47,8.84,14.47-3-2.74-4.62-9.49-4.62-9.49A79.77,79.77,0,0,0,80.49,181c-2-2.2-4.79-10.06-4.79-10.06,2.68,5.11,13.76,12.86,15.87,14.32C90.12,184,87.75,180,87.75,180c6.84,6.18,25.6,12.81,25.6,12.81-1.74-1.68-4-4.5-4-4.5,2.39,2.82,20.14,6,18.21,5.61s-8.12-4.18-8.12-4.18C124,192,135.65,193,135.65,193s23.23-.09,37.07-5.41,21.59-18.93,21.59-18.93c-2,10.16-10.07,19.06-10.07,19.06,11-7.36,22.5-26.72,22.5-26.72a80.93,80.93,0,0,1-2.79,12.7c5.92-6.78,7.08-19.5,7.08-19.5,3,2.24,3.56,3.67,3.56,3.67,0.09-2.67-2-8.09-2.88-10.17,1.7,2.69,9.09,6.66,9.09,6.66C216,150.42,214.89,139.42,217.09,141.41Z" style="fill: #69cad1"/>
        </g>
        <ellipse cx="135.36" cy="212.28" rx="90.56" ry="4.61" style="fill: #011627;opacity: 0.15"/>
        <path d="M157.33,193a43.51,43.51,0,0,1-2.23,7.57s28.35-4.61,34.57,1c4.78,4.32.22,9.94-5.83,9.94H140.63s10.66-7.05,11.81-18.36" style="fill: #ffc313"/>
        <path d="M114,193a43.51,43.51,0,0,0,2.23,7.57s-28.35-4.61-34.57,1c-4.78,4.32-.22,9.94,5.83,9.94h43.21s-10.66-7.05-11.81-18.36" style="fill: #ffc313"/>
        <path d="M172.37,132.75a3,3,0,0,0-1.65-.65c-5.44-.93-21.36,2.12-35.26,2.12-12.55,0-26-2.35-32.31-2.12-1.68,0-2.87.3-3.39,0.81-3.07,3.07-1,21.53,13.45,31.32,5.39,3.65,12.51,6.09,21.73,6.09,10.07,0,17.85-2.34,23.72-5.86C174.49,155,176.55,136.93,172.37,132.75Z" style="fill: #111"/>
        <g>
            <path d="M137.34,158.32a39.74,39.74,0,0,1,21.33,6.15c-5.88,3.52-13.66,5.86-23.72,5.86-9.23,0-16.34-2.45-21.73-6.09C113.21,164.23,124.67,158.32,137.34,158.32Z" style="fill: #e86d7f"/>
            <path d="M170.71,132.09s-2.22,11-5.69,14.46c-2.06,2.06-13.23,3.16-28.09,3.16s-25.15-1.75-29.12-3.07-4.66-14.56-4.66-14.56c6.32-.23,19.76,2.12,32.31,2.12C149.36,134.22,165.27,131.16,170.71,132.09Z" style="fill: #fff"/>
        </g>
        <g style="opacity: 0.75">
            <path d="M136.14,163a17.62,17.62,0,0,0-5.31.28c-1.45.3-4,1.12-4.94,2.37a1.41,1.41,0,0,0,.61,2.32c1.42,0.48,3.61-.58,5.05-0.76,1.7-.21,3.47.29,5.13-0.16C139.11,166.41,138.32,163.29,136.14,163Z" style="fill: #fff"/>
        </g>
        <path d="M134.94,171.32c-8.64,0-16.14-2.11-22.29-6.27a35.1,35.1,0,0,1-15-25c-0.35-3.7.16-6.55,1.41-7.8,0.69-.69,2-1,4.06-1.1a109.15,109.15,0,0,1,12.37.83c6.17,0.61,13.16,1.3,20,1.3s14.06-.73,20.45-1.38c6.75-.68,12.09-1.22,15-0.73a3.86,3.86,0,0,1,2.19.93c1.79,1.79,2.54,5.49,2,9.89a32.38,32.38,0,0,1-15.89,23.38C152.52,169.3,144.37,171.32,134.94,171.32Zm-30.87-38.25h-0.89c-2.15.06-2.64,0.45-2.72,0.52-0.65.65-1.17,2.82-.84,6.21a33.55,33.55,0,0,0,14.14,23.59c5.81,3.93,12.94,5.92,21.18,5.92,9.07,0,16.88-1.92,23.21-5.72A30.84,30.84,0,0,0,173.1,141.7c0.45-3.69-.11-6.93-1.43-8.25a2.16,2.16,0,0,0-1.11-.38c-2.63-.45-8.1.1-14.45,0.75s-13.74,1.39-20.65,1.39-13.95-.69-20.16-1.31C110.8,133.46,106.85,133.07,104.07,133.07Z" style="fill: #1299ac;stroke: #1299ac;stroke-miterlimit: 10;stroke-width: 3px"/>
        <g>
            <path d="M52,120.45s-17.31,5.63-28.79,43.37c-1.49,4.89-11.85,7.75-10.14-.78,9.09-45.32,35.44-63.7,35.44-63.7Z" style="fill: #69cad1"/>
            <path d="M21,156.78c2.24-.66,3.76,1.48,5.44,3s5.67,3.33,7.35,4.76c4,3.4,2.35,6.94.32,8.12-2.53,1.48-8,.67-11.07-4.68l-2.41-4.27C18.57,160.41,18.92,157.37,21,156.78Z" style="fill: #69cad1"/>
            <path d="M19.06,163.5h0c2.88-.05,3.94,3.31,4.16,5.17l1.32,7.22c0.45,4.35-2.24,6.47-5.12,6.53h0c-2.88.05-5.73-2-5.37-6.33l1-7.26C15,165.94,17,163.54,19.06,163.5Z" style="fill: #69cad1"/>
            <path d="M15.8,161.56h0c2.09,2,.47,5.12-0.67,6.6L11,174.22c-2.74,3.41-6.14,3-8.23,1h0c-2.09-2-2.64-5.47.63-8.27l5.85-4.43C11.23,160.47,14.3,160.13,15.8,161.56Z" style="fill: #69cad1"/>
            <path d="M17.6,155.94l-0.22,1c0.36,2.32-4.35,4-5.83,4.42l-5.67,1.85c-3.46.84-5.46-1.1-5.82-3.42h0c-0.36-2.32,1-4.84,4.51-5l6,0C15.79,154.89,17,151.85,17.6,155.94Z" style="fill: #69cad1"/>
        </g>
        <g>
            <path d="M212.16,89.51s15.32,21,32.61,13.44c12.47-5.48,15-15.34,17.86-19.6s7.42-7.49,10.14.78-11.88,32.8-33.78,35.09c-26.82,2.8-30.89-8.09-30.89-8.09Z" style="fill: #69cad1"/>
            <path d="M269.36,96.65c-2.31.34-3.52-2-5-3.69s-5.16-4.08-6.62-5.72c-3.47-3.92-1.37-7.2.8-8.09,2.71-1.11,8,.44,10.32,6.16l1.8,4.56C272.23,93.38,271.46,96.34,269.36,96.65Z" style="fill: #69cad1"/>
            <path d="M265.19,82h0c-2.88,0-3.88-4-4.08-6.23l-1.21-8.61c-0.38-5.18,2.34-7.65,5.22-7.66h0c2.88,0,5.7,2.53,5.27,7.63l-1.16,8.62C269.24,79.17,267.25,82,265.19,82Z" style="fill: #69cad1"/>
            <path d="M268.1,89.55h0c-2.6-.54-2.86-3.76-2.68-5.48l0.28-6.74c0.48-4,3.32-5.34,5.92-4.81h0c2.6,0.54,4.72,3,3.52,6.76l-2.41,6.3C272.2,88.18,270,89.93,268.1,89.55Z" style="fill: #69cad1"/>
            <path d="M273.29,91l-0.67-.61c-2-.77-1.24-5.31-0.87-6.67l1.11-5.37c0.91-3.14,3.37-3.86,5.38-3.09h0c2,0.77,3.4,3,1.95,5.89l-2.76,4.74C275,90,276.82,92.37,273.29,91Z" style="fill: #69cad1"/>
            <path d="M269.79,95.72h0.91c2,0.8,9.9-4.26,10.55-5.5l2.83-4.7c1.47-2.92.14-5.12-1.86-5.92h0c-2-.8-4.55-0.09-5.43,3l-5.89,4.68C269.9,92,266.24,94.37,269.79,95.72Z" style="fill: #69cad1"/>
        </g>
        <path d="M101.81,17.46s1.79,9,14.53,10.95l-9.41,7S98.62,29.41,101.81,17.46Z" style="fill: #69cad1"/>
        <path d="M103.15,34.18s-9.9.4-15.78-7.76c0,0-1.54,7.76,7.89,11.95" style="fill: #69cad1"/>
        <g>
            <path d="M67.45,96H56.32C52.84,96,52,95.2,52,91.73q0-9.59,0-19.18c0-2.94.88-3.83,3.76-3.84,3.79,0,7.58,0,11.46,0a5.23,5.23,0,0,0,.18-1.5c-0.78-3.56,1.12-5,4.18-6.14a135.3,135.3,0,0,1,30.95-7.37,246.79,246.79,0,0,1,50.57-1.31c15.49,1.13,30.83,3.26,45.32,9.42,2,0.84,2.91,1.83,2.59,4a21,21,0,0,0,0,2.93c4,0,7.82,0,11.61,0,2.91,0,3.82.9,3.82,3.79q0,9.93,0,19.87c0,2.58-1,3.61-3.56,3.64-3.86.05-7.73,0-11.54,0a2.52,2.52,0,0,0-.28.85c0.83,4-1.43,6.51-4.11,9C189.17,113,180.52,118.35,169.9,120c-12.46,1.93-22.46-3.25-28.29-14.48a46,46,0,0,0-4.48-7.11c-2-2.58-3.67-2.57-5.76,0a30.08,30.08,0,0,0-4,6.06c-6.9,14.36-19.94,19-34.74,14.26a53.86,53.86,0,0,1-24.17-16.14,5.16,5.16,0,0,1-1-2.63A30.45,30.45,0,0,1,67.45,96Zm61.77-38.67c-5.87.48-17,1.13-28,2.36A105.92,105.92,0,0,0,74.94,66,2.41,2.41,0,0,0,73,68.6c0.08,9.67,0,19.34.08,29A3.82,3.82,0,0,0,74,100c6,6.34,13.08,11.13,21.58,13.5,12.32,3.43,20.95-.52,26.8-11.89a36.53,36.53,0,0,1,4.94-7.34,11.53,11.53,0,0,1,4.9-3.1c4.16-1.37,7.3.79,9.64,3.91a102.84,102.84,0,0,1,5.64,9.07c4.58,7.68,11.22,11.37,20.21,10.32,10.88-1.28,19.45-6.94,26.89-14.59a3.49,3.49,0,0,0,.75-2.24c0-9.67,0-19.34.06-29A2.36,2.36,0,0,0,193.53,66c-2.31-.74-4.57-1.65-6.91-2.32C169.57,58.82,152.07,57.69,129.23,57.35Zm-71.72,25c0-3,.08-5.92-0.06-8.87,0-.68-0.81-1.33-1.24-2-0.44.61-1.25,1.21-1.26,1.83q-0.15,9,0,18c0,0.63.78,1.25,1.2,1.88,0.45-.64,1.27-1.27,1.3-1.94C57.58,88.28,57.5,85.32,57.51,82.36ZM211,82.1h0c0,3-.08,6.07.06,9.09,0,0.68.82,1.32,1.26,2,0.41-.61,1.16-1.22,1.17-1.84q0.13-9,0-18c0-.63-0.76-1.25-1.17-1.87-0.44.65-1.22,1.29-1.25,2C210.87,76.34,211,79.22,211,82.1Z" style="fill: url(#a35b2f8d-09ff-451b-8402-8523f1e053fc)"/>
            <path d="M129.23,57.35c22.84,0.33,40.35,1.46,57.39,6.34,2.33,0.67,4.59,1.58,6.91,2.32a2.36,2.36,0,0,1,1.86,2.64c-0.07,9.67,0,19.34-.06,29a3.49,3.49,0,0,1-.75,2.24c-7.44,7.65-16,13.31-26.89,14.59-9,1.05-15.62-2.64-20.21-10.32a102.84,102.84,0,0,0-5.64-9.07c-2.34-3.12-5.48-5.28-9.64-3.91a11.53,11.53,0,0,0-4.9,3.1,36.53,36.53,0,0,0-4.94,7.34c-5.85,11.38-14.48,15.32-26.8,11.89C87,111.15,80,106.36,74,100a3.82,3.82,0,0,1-.86-2.42c-0.06-9.67,0-19.34-.08-29A2.41,2.41,0,0,1,74.94,66a105.92,105.92,0,0,1,26.3-6.29C112.27,58.48,123.36,57.83,129.23,57.35Zm0.09,4.41c-5.28.41-15.72,0.77-26,2.14-8.09,1.08-16,3.43-24,5.18-1.37.3-1.74,1-1.73,2.39,0.06,8.22,0,16.44.07,24.66a3.62,3.62,0,0,0,1,2.36c5.53,5.29,11.84,9.28,19.34,11.13,8.18,2,14.53-.3,18.69-6.81,0.82-1.28,1.44-2.68,2.18-4a31.79,31.79,0,0,1,7.6-9.55,12.13,12.13,0,0,1,17.17,1.37,54.43,54.43,0,0,1,7.06,10.24c4.07,7.39,10.08,10.54,18.33,9,8-1.45,14.59-5.51,20.39-11a5.41,5.41,0,0,0,1.51-3.49c0.13-6.77,0-13.54,0-20.32,0-5.71,0-5.72-5.61-7.3C168.65,63.18,151.61,62,129.31,61.76Z" style="fill: #fff"/>
            <path d="M57.5,82.36c0,3,.08,5.92-0.06,8.87,0,0.67-.85,1.29-1.3,1.94-0.42-.63-1.19-1.24-1.2-1.88q-0.14-9,0-18c0-.62.82-1.22,1.26-1.83,0.43,0.66,1.21,1.31,1.24,2C57.58,76.44,57.51,79.41,57.5,82.36Z" style="fill: #fff"/>
            <path d="M211,82.1c0-2.88-.08-5.77.06-8.64,0-.67.81-1.31,1.25-2,0.41,0.62,1.16,1.24,1.17,1.87q0.14,9,0,18c0,0.62-.76,1.23-1.17,1.84-0.44-.66-1.22-1.3-1.26-2-0.14-3-.06-6.06-0.06-9.09h0Z" style="fill: #fff"/>
            <path d="M129.31,61.76c22.3,0.26,39.34,1.42,56,6.08,5.61,1.57,5.6,1.59,5.61,7.3,0,6.77.09,13.55,0,20.32a5.41,5.41,0,0,1-1.51,3.49c-5.8,5.46-12.41,9.52-20.39,11-8.25,1.5-14.26-1.65-18.33-9a54.43,54.43,0,0,0-7.06-10.24,12.13,12.13,0,0,0-17.17-1.37,31.79,31.79,0,0,0-7.6,9.55c-0.74,1.33-1.36,2.73-2.18,4-4.17,6.51-10.51,8.83-18.69,6.81-7.51-1.85-13.82-5.85-19.34-11.13a3.62,3.62,0,0,1-1-2.36c-0.07-8.22,0-16.44-.07-24.66,0-1.37.37-2.09,1.73-2.39,8-1.75,15.92-4.1,24-5.18C113.59,62.53,124,62.17,129.31,61.76Zm-5.77,2.47c-2.68.14-4.94,0.37-7.21,0.35a2.27,2.27,0,0,0-2.61,2.11C112,74.16,110.2,81.6,108.38,89c-1.53,6.25-3.13,12.49-4.7,18.75,4.67,0.7,9.84-2.7,10.93-7,1.8-7.2,3.63-14.39,5.4-21.6C121.2,74.3,122.31,69.43,123.54,64.23Zm30.31,37.46,8.86-36-3.62-.47a13.31,13.31,0,0,0-.59,1.53c-2.2,8.9-4.23,17.84-6.66,26.68C151,96.63,151.78,99,153.85,101.69ZM136.38,84.29L140,85.14l5.36-21.48c-1.79.61-3.94,0.77-4.15,1.49C139.44,71.39,138,77.74,136.38,84.29Z" style="fill: #092444"/>
            <path d="M123.54,64.23c-1.23,5.2-2.33,10.07-3.53,14.91-1.77,7.21-3.61,14.4-5.4,21.6-1.09,4.35-6.26,7.75-10.93,7,1.57-6.26,3.17-12.5,4.7-18.75,1.82-7.44,3.63-14.89,5.35-22.35a2.27,2.27,0,0,1,2.61-2.11C118.6,64.6,120.86,64.38,123.54,64.23Z" style="fill: #fff"/>
            <path d="M153.85,101.69c-2.07-2.7-2.88-5.07-2-8.25,2.43-8.84,4.46-17.78,6.66-26.68a13.31,13.31,0,0,1,.59-1.53l3.62,0.47Z" style="fill: #fff"/>
            <path d="M136.38,84.29c1.61-6.55,3.06-12.89,4.86-19.13,0.21-.72,2.36-0.89,4.15-1.49L140,85.14Z" style="fill: #fff"/>
        </g>
    </g>
</svg>
