<svg id="97ae4cfc-e763-47e2-823a-e26f58f5ae65" data-name="Layer 1" xmlns="http://www.w3.org/2000/svg" xmlns:xlink="http://www.w3.org/1999/xlink" viewBox="0 0 177.7 225.79">
    <defs>
        <linearGradient id="3bf93965-d488-4c32-a608-3800617e00da" x1="88.43" y1="134.67" x2="88.43" y2="120.32" gradientUnits="userSpaceOnUse">
            <stop offset="0" stop-color="#82ba5d"/>
            <stop offset="1" stop-color="#3c7c39"/>
        </linearGradient>
        <linearGradient id="738c2a3e-54f1-4dc3-8565-420532c3e4a7" x1="76.87" y1="80.63" x2="100.32" y2="79.79" xlink:href="#3bf93965-d488-4c32-a608-3800617e00da"/>
        <clipPath id="51f65380-54d6-404d-9ff0-ffa5478d9e3b">
            <path d="M113.44,121.74s-21.46-4.25-50.2-.21c0,0-8.14.6-7.95,3.26s3.7,1.4,2.87,5-1.14,9,3.75,8.6,18-4.16,29.07-4.51c19.87-.6,24.51,4.23,26.76,3.56,1.15-.37.57-3.1-.13-3.75s.5-2.32,1.54-2.64,3.16-2.83,2.14-4.71-2.18-3.17-3.39-3.4-4.45-1.2-4.45-1.2" style="fill: url(#3bf93965-d488-4c32-a608-3800617e00da);clip-rule: evenodd"/>
        </clipPath>
        <linearGradient id="c77f68ae-3087-4eda-bc3c-d59ffbc405d6" x1="88.71" y1="134.49" x2="88.71" y2="118.1" xlink:href="#3bf93965-d488-4c32-a608-3800617e00da"/>
        <clipPath id="3eb60417-d26b-49b2-8e0a-5b72af09c036">
            <path d="M88.58,93.67s-.52-.41-3.91-.78a6.73,6.73,0,0,1-5.45-5.19,1.37,1.37,0,0,0,0-.21,1.66,1.66,0,0,0-1.74-1.1h-.22l-.41.67c-.54-.92.07-4,.07-4l-.76.25c-.39-1.29.43-5.56.43-5.56l-.56.6c-.32-.78.52-3.61.52-3.61,0-1.15,1.79-2.3,1.79-2.3a6.26,6.26,0,0,1-.08-2.09,4.93,4.93,0,0,0,2.48.85,4.1,4.1,0,0,1,.91-2.92c.31.85,1.62,1,1.62,1a3.09,3.09,0,0,1,1.36-2.3c0,1.24,1.38,1.91,1.38,1.91a3.57,3.57,0,0,1,1.21-2,3.69,3.69,0,0,0,.06,1.59c.9-1,3.63-1.19,3.63-1.19l0,.92,2-.07-.35,1a2.14,2.14,0,0,1,.94-.16,13.18,13.18,0,0,1,2.84.46c-.79,0-.89,1.2-.89,1.2a3.48,3.48,0,0,1,2.2,1.15l0,0c-.65,0-.28,1-.28,1,5.6,1.59,4.84,10.48,4.84,10.48l-1.32-.76-.21,4-.83-.94a7.32,7.32,0,0,1-.65,2l0,.48-.06.83-1.72,0L97.1,90.2H95l-.18,1-1.88-.09.46,1.56a33.81,33.81,0,0,0-5.54-.8Z" style="fill: url(#738c2a3e-54f1-4dc3-8565-420532c3e4a7);clip-rule: evenodd"/>
        </clipPath>
        <linearGradient id="35f70e5b-07b6-43eb-86bb-238c8c4fb954" x1="76.2" y1="80.71" x2="101.43" y2="79.8" xlink:href="#3bf93965-d488-4c32-a608-3800617e00da"/>
        <clipPath id="120012b0-672e-42e6-9a9f-67719eed4932">
            <path d="M91.87,88.57a8.77,8.77,0,0,1-6.54-2.87,3.47,3.47,0,0,0,.53,2.71S82.53,86,82,82.57c0,0-1.15.11-1.18,1.13,0,0-.84-3.26-.18-5h-.22c-.32,0-.88,0-1.06.41,0,0,0-2.94,1.09-3.86l-1.74-.3s1.7-2.94,3-3h.15c1.17,0,1.38.53,1.38.53l.58-2,1.29.87L86.19,70l.06,1.65L88,70.34l1.69.74A5.19,5.19,0,0,0,89,74.55l-1.44.07L87.64,78l-2-.44a53.26,53.26,0,0,0,1.86,5.26l-1.7-.8s1.42,5.42,6.5,6.53a2.74,2.74,0,0,1-.39,0" style="fill: #fff;clip-rule: evenodd"/>
        </clipPath>
    </defs>
    <title>бубон-01(1)</title>
    <path d="M83.79,208.31s6.93,3,10.56.46c0,0-3.35,4.59-10.56-.46" style="fill: #dcb9bc"/>
    <path d="M41.35,167.66s-8.54,11.72-18.17,7.49c-6.95-3.05-8.37-8.55-10-10.92s-4.13-4.17-5.65.43,6.62,18.28,18.82,19.55c14.94,1.56,17.21-4.51,17.21-4.51Z" style="fill: #85c4c7"/>
    <path d="M12.14,168.13c1.29.19,2-1.11,2.77-2.05s2.88-2.27,3.69-3.19c1.94-2.18.76-4-.45-4.51-1.51-.62-4.46.24-5.75,3.43l-1,2.54c-.86,2-.43,3.61.74,3.78" style="fill: #85c4c7"/>
    <path d="M10.57,164.57h0c1.6-.19,1.92-2.13,1.9-3.17l.17-4.08c-.09-2.44-1.73-3.4-3.33-3.21A3,3,0,0,0,6.84,158L8,161.94c.19,1.6,1.45,2.77,2.6,2.63" style="fill: #85c4c7"/>
    <path d="M8.92,165.89h0c1-1.26-.13-2.86-.88-3.59l-2.75-3c-1.77-1.67-3.62-1.2-4.62.06a3,3,0,0,0,1,4.52l3.57,2c1.26,1,3,.95,3.7,0" style="fill: #85c4c7"/>
    <path d="M10.34,168.85l-.19-.51c0-1.31-2.71-1.89-3.56-2l-3.27-.59a2.43,2.43,0,1,0-.07,4.76L6.54,170c2.89-.46,3.81,1.12,3.81-1.18" style="fill: #85c4c7"/>
    <path d="M76.63,171.8s-13.07-17.41-27-45.13C10.72,49.25,46.3,22,49.63,21.15s27-15.12,14,54.54,33.26,84.85,33.26,84.85Z" style="fill: #85c4c7"/>
    <path d="M63.7,150.16S57.08,134,47.78,115.51c-26-51.74-2.23-69.91,0-70.51s18-10.1,9.35,36.44,20.1,61.19,20.1,61.19Z" style="fill: #d96e80"/>
    <path d="M102,173.09s15.42-19.48,30.66-51.24C174.85,33.93,136.46,3,132.68,2S102-15.15,116.78,64,79,160.3,79,160.3Z" style="fill: #85c4c7"/>
    <path d="M136.35,167.66s8.54,11.72,18.17,7.49c6.95-3.05,8.37-8.55,10-10.92s4.13-4.17,5.65.43-6.62,18.28-18.82,19.55c-14.94,1.56-17.21-4.51-17.21-4.51Z" style="fill: #85c4c7"/>
    <path d="M165.56,168.13c-1.29.19-2-1.11-2.77-2.05s-2.88-2.27-3.69-3.19c-1.94-2.18-.76-4,.45-4.51,1.51-.62,4.46.24,5.75,3.43l1,2.54c.86,2,.43,3.61-.74,3.78" style="fill: #85c4c7"/>
    <path d="M167.13,164.57h0c-1.6-.19-1.92-2.13-1.9-3.17l-.17-4.08c.09-2.44,1.73-3.4,3.33-3.21a3,3,0,0,1,2.47,3.9l-1.14,3.93c-.19,1.6-1.45,2.77-2.6,2.63" style="fill: #85c4c7"/>
    <path d="M168.78,165.89h0c-1-1.26.13-2.86.88-3.59l2.75-3c1.77-1.67,3.62-1.2,4.62.06a3,3,0,0,1-1,4.52l-3.57,2c-1.26,1-3,.95-3.7,0" style="fill: #85c4c7"/>
    <path d="M167.36,168.85l.19-.51c0-1.31,2.71-1.89,3.56-2l3.27-.59a2.43,2.43,0,1,1,.07,4.76l-3.29-.49c-2.89-.46-3.81,1.12-3.81-1.18" style="fill: #85c4c7"/>
    <path d="M117.53,147.78s6.61-19.88,15.92-42.7c26-63.75,2.23-86.15,0-86.88s-18-12.45-9.35,44.9S104,138.5,104,138.5Z" style="fill: #d96e80"/>
    <path d="M89.15,224.89c29.08,0,53.33-15.18,53.33-44.52s-23.57-53.12-52.66-53.12S37.17,151,37.17,180.37s22.9,44.52,52,44.52" style="fill: #85c4c7;fill-rule: evenodd"/>
    <path d="M113.67,174.83c-4.63,0-8.39,2.41-8.39,5.39s3.76,5.39,8.39,5.39,8.39-2.41,8.39-5.39-3.76-5.39-8.39-5.39" style="fill: #a08396;fill-rule: evenodd"/>
    <path d="M89,175.57c-3,0-5.49,2-5.49,4.45S86,184.47,89,184.47s5.49-2,5.49-4.45S92,175.57,89,175.57" style="fill: #85c4c7;fill-rule: evenodd"/>
    <path d="M79.71,174.51a4.77,4.77,0,1,1-4.78,4.78,4.78,4.78,0,0,1,4.78-4.78" style="fill: #312a20;fill-rule: evenodd"/>
    <path d="M112.95,184c-4.63,0-8.39,2.41-8.39,5.39s3.76,5.39,8.39,5.39,8.39-2.41,8.39-5.39-3.76-5.39-8.39-5.39" style="fill: #a08396;fill-rule: evenodd"/>
    <path d="M89.26,225.78c-36-3-52.09-19.85-52.09-45.77s20.54-53.81,52.09-51.65c31.55-2.16,53.28,25.73,53.28,51.65s-17.23,42.73-53.24,45.77Z" style="fill: #85c4c7;fill-rule: evenodd"/>
    <path d="M131.12,209.47h0c-3.78,6.37-17,14.8-41.82,16.32-17.52-.61-35.33-5.1-42-16.3h0q-4.88-2.43-2.64-8.41a5.42,5.42,0,0,1-4.88-1.38,13.78,13.78,0,0,1,6.44-9.83q-1.52-3.08-6.44,2.22a13.39,13.39,0,0,1,9-7.76h0c3.73-4.81,13.75-10.52,39.82,1.35h.53v0a6.55,6.55,0,0,0,.69,0c26.07-11.88,36.09-6.17,39.82-1.35h0a13.39,13.39,0,0,1,9,7.76q-4.93-5.3-6.44-2.22a13.78,13.78,0,0,1,6.44,9.83,5.42,5.42,0,0,1-4.88,1.38q2.23,6-2.64,8.41" style="fill: #c9e4e9;fill-rule: evenodd"/>
    <path d="M75.29,197.52s6.93,8,15.48,7.53c4.1-.2,7.13-7,12.68-8.72,0,0,1.54,23.16-14.74,21.44-14.84-1.57-13.42-20.25-13.42-20.25" style="fill: #ba4857"/>
    <path d="M99.08,213.89c-11.67-8.4-18.07.27-17.84.87a12.16,12.16,0,0,0,8.6,3.1,10.44,10.44,0,0,0,9.24-4" style="fill: #d96e80"/>
    <path d="M84.84,205.29s-.2,5.17,1.56,5.86,4.62,1.54,6.87-.48S94.34,205,94.34,205a71.54,71.54,0,0,1-9.5.29" style="fill: #fff"/>
    <path d="M84.52,189.3c0,4.6,9.48,4.59,9.48,0s-9.48-4.59-9.48,0m9.83,4.24h0l0,0a7.85,7.85,0,0,1-1,.54l0,0,0,0h0a8.48,8.48,0,0,1-1.27.46c-.47.13-.69.81-.69,1.39l.08,7.1a12.08,12.08,0,0,0,9.09-6.68c.79-1.18,1.59-1.31,2.4-.8a1.67,1.67,0,0,1,.46,2.17c-6.3,11.68-21.82,11.68-28.12,0a1.67,1.67,0,0,1,.46-2.17c.81-.51,1.61-.37,2.4.8a12.08,12.08,0,0,0,9.09,6.68l.08-7.1c0-.58-.23-1.26-.69-1.39a8.46,8.46,0,0,1-1.27-.46h0l0,0,0,0a7.81,7.81,0,0,1-1-.54l0,0h0a5.18,5.18,0,0,1-2.54-4.24c0-7.45,15.27-7.61,15.27,0A5.18,5.18,0,0,1,94.35,193.54Z" style="fill: #312a20;fill-rule: evenodd"/>
    <path d="M98.54,174.51a4.77,4.77,0,1,0,4.78,4.78,4.78,4.78,0,0,0-4.78-4.78" style="fill: #312a20;fill-rule: evenodd"/>
    <path d="M37.27,176.75c21.09-13,29.09-33.81,29.62-44-5.76,1.35-9.34,2.15-10.81,3.67q2.11-.82,3-.37c-5.49,1.94-6.57,4.39-8.36,5.66q-.58,2.17,1.24,2.49-8.57-4.42-8.32,2.54,2.23-4.2,5,.79-4.25-1.32-6.48,4.18a6.84,6.84,0,0,1,3.34-.41c-4.25,3-7.59,6.78-6.72,9.11-2.89,3.15-2.16,13.93-1.52,16.37" style="fill: #85c4c7;fill-rule: evenodd"/>
    <path d="M142.15,186.38c-24.06-26.1-32.59-48.68-31-54.57,8.42,1.74,11.19,3.66,13.61,8.79,2.42-.14,7.69,2.29,9.91,4.7-1.84-.73-4.26.87-4.79,1.58,4.41.55,4.79,2.92,5.77,4.55,1.9.24,2.2,4.55.38,4.72,3.69-.61,6.92,1.76,6.45,3.51-.82-1.69-4.74,1-4.46,1.62,4.75,1.06,2.84,6,2.81,6.11,2.79,2.53,2.82,12.77,1.27,19" style="fill: #85c4c7;fill-rule: evenodd"/>
    <path d="M80,174.51a4.77,4.77,0,1,1-4.78,4.78A4.78,4.78,0,0,1,80,174.51" style="fill: #312a20;fill-rule: evenodd"/>
    <path d="M82.88,174.51A1.88,1.88,0,1,1,81,176.4a1.88,1.88,0,0,1,1.88-1.88" style="fill: #fff;fill-rule: evenodd"/>
    <path d="M101.46,174.51a1.88,1.88,0,1,1-1.88,1.88,1.88,1.88,0,0,1,1.88-1.88" style="fill: #fff;fill-rule: evenodd"/>
    <path d="M114.7,184c4.63,0,8.39,2.41,8.39,5.39s-3.76,5.39-8.39,5.39-8.39-2.41-8.39-5.39,3.76-5.39,8.39-5.39m-50.86,0c4.63,0,8.39,2.41,8.39,5.39s-3.76,5.39-8.39,5.39-8.39-2.41-8.39-5.39S59.2,184,63.84,184Z" style="fill: #a08396;fill-rule: evenodd"/>
    <path d="M116.67,122.11S110.44,93,96.82,86.55s-19.36,2.14-22.78,7-10.84,14.66-12.81,28l2.41,6.83,27.12-1,19.75-.71,6.28-1.59Z" style="fill: #82ba5d"/>
    <g>
        <path d="M113.44,121.74s-21.46-4.25-50.2-.21c0,0-8.14.6-7.95,3.26s3.7,1.4,2.87,5-1.14,9,3.75,8.6,18-4.16,29.07-4.51c19.87-.6,24.51,4.23,26.76,3.56,1.15-.37.57-3.1-.13-3.75s.5-2.32,1.54-2.64,3.16-2.83,2.14-4.71-2.18-3.17-3.39-3.4-4.45-1.2-4.45-1.2" style="fill-rule: evenodd;fill: url(#3bf93965-d488-4c32-a608-3800617e00da)"/>
        <g style="clip-path: url(#51f65380-54d6-404d-9ff0-ffa5478d9e3b)">
            <rect x="55.1" y="117.48" width="67.21" height="21.26" style="fill: url(#c77f68ae-3087-4eda-bc3c-d59ffbc405d6)"/>
        </g>
    </g>
    <path d="M64.47,127s-1.54,5.72.24,6.48,8.53-1.82,11.64-1.93,1.62-5.29,1-6.07S64.47,127,64.47,127" style="fill: #fff"/>
    <path d="M68.42,130.52a1,1,0,0,1-.9,1.17l-1.4.25-.61-3.33,1.3-.23a1,1,0,0,1,1.23.76.83.83,0,0,1-.17.69.89.89,0,0,1,.55.69m-2-1.33.11.6.54-.11a.29.29,0,1,0-.1-.57Zm1.24,1.4a.31.31,0,0,0-.37-.25l-.64.11.12.64.64-.12A.31.31,0,0,0,67.65,130.59Z" style="fill: #111b2b"/>
    <path d="M69,129.62A1.76,1.76,0,1,1,71.06,131,1.75,1.75,0,0,1,69,129.62m2.71-.48a1,1,0,1,0-1.94.34,1,1,0,1,0,1.94-.34Z" style="fill: #111b2b"/>
    <path d="M73.23,128.91a1.76,1.76,0,1,1,2,1.54,1.74,1.74,0,0,1-2-1.54m2.73-.32a1,1,0,1,0-2,.23,1,1,0,0,0,1.1.9A1,1,0,0,0,76,128.59Z" style="fill: #111b2b"/>
    <g>
        <path d="M88.58,93.67s-.52-.41-3.91-.78a6.73,6.73,0,0,1-5.45-5.19,1.37,1.37,0,0,0,0-.21,1.66,1.66,0,0,0-1.74-1.1h-.22l-.41.67c-.54-.92.07-4,.07-4l-.76.25c-.39-1.29.43-5.56.43-5.56l-.56.6c-.32-.78.52-3.61.52-3.61,0-1.15,1.79-2.3,1.79-2.3a6.26,6.26,0,0,1-.08-2.09,4.93,4.93,0,0,0,2.48.85,4.1,4.1,0,0,1,.91-2.92c.31.85,1.62,1,1.62,1a3.09,3.09,0,0,1,1.36-2.3c0,1.24,1.38,1.91,1.38,1.91a3.57,3.57,0,0,1,1.21-2,3.69,3.69,0,0,0,.06,1.59c.9-1,3.63-1.19,3.63-1.19l0,.92,2-.07-.35,1a2.14,2.14,0,0,1,.94-.16,13.18,13.18,0,0,1,2.84.46c-.79,0-.89,1.2-.89,1.2a3.48,3.48,0,0,1,2.2,1.15l0,0c-.65,0-.28,1-.28,1,5.6,1.59,4.84,10.48,4.84,10.48l-1.32-.76-.21,4-.83-.94a7.32,7.32,0,0,1-.65,2l0,.48-.06.83-1.72,0L97.1,90.2H95l-.18,1-1.88-.09.46,1.56a33.81,33.81,0,0,0-5.54-.8Z" style="fill-rule: evenodd;fill: url(#738c2a3e-54f1-4dc3-8565-420532c3e4a7)"/>
        <g style="clip-path: url(#3eb60417-d26b-49b2-8e0a-5b72af09c036)">
            <rect x="75.68" y="66.8" width="27.24" height="26.87" style="fill: url(#35f70e5b-07b6-43eb-86bb-238c8c4fb954)"/>
        </g>
    </g>
    <g style="opacity: 0.30000000000000004">
        <path d="M91.87,88.57a8.77,8.77,0,0,1-6.54-2.87,3.47,3.47,0,0,0,.53,2.71S82.53,86,82,82.57c0,0-1.15.11-1.18,1.13,0,0-.84-3.26-.18-5h-.22c-.32,0-.88,0-1.06.41,0,0,0-2.94,1.09-3.86l-1.74-.3s1.7-2.94,3-3h.15c1.17,0,1.38.53,1.38.53l.58-2,1.29.87L86.19,70l.06,1.65L88,70.34l1.69.74A5.19,5.19,0,0,0,89,74.55l-1.44.07L87.64,78l-2-.44a53.26,53.26,0,0,0,1.86,5.26l-1.7-.8s1.42,5.42,6.5,6.53a2.74,2.74,0,0,1-.39,0" style="fill: #fff;fill-rule: evenodd"/>
        <g style="clip-path: url(#120012b0-672e-42e6-9a9f-67719eed4932)">
            <rect x="78.74" y="69.98" width="13.52" height="18.6" style="fill: #fff"/>
        </g>
    </g>
    <path d="M71.65,102.31a5.13,5.13,0,0,0,.31.76.6.6,0,0,0,1.14.14.73.73,0,0,0,.31-.11c1.5-1,3.74-1.82,4.36-3.65a1.65,1.65,0,0,0-1-2.05,2.45,2.45,0,0,0-2.24.62c-.25-.93-.67-1.92-1.59-2.13a2.5,2.5,0,0,0-.5-.06c-.54.73-1,1.44-1.49,2.1l-.42.6a11.71,11.71,0,0,0,.49,2.08c.17.58.39,1.15.6,1.72" style="fill: #f0f0f1"/>
    <path d="M85.06,104c-1.18-1.52-4.65-1.61-4.83.81-.15,1.92,1.38,3.24,2.85,4.16,1.08.68,3.36,2.55,4.69,1.94a1,1,0,0,0,.52-.81,6,6,0,0,0,1.15-2.83,7.88,7.88,0,0,0,0-4.45c-1.1-3.23-4.47-.78-4.34,1.18" style="fill: #f0f0f1"/>
    <path d="M72.94,108.92a3.65,3.65,0,0,0-1.8,1.54,2.2,2.2,0,0,0-4.3-.15c-.46,2.5,1.83,5.22,3.65,6.66a.71.71,0,0,0,.82.08.69.69,0,0,0,.49.09c1.17-.26,1.78-1.39,2.29-2.37a8.28,8.28,0,0,0,1.13-3.86c-.06-1.32-.88-2.41-2.27-2" style="fill: #f0f0f1"/>
    <path d="M98.73,117.63a.56.56,0,0,0,.63-.14.54.54,0,0,0,.39-.05,3.08,3.08,0,0,0,1.12-2.35,6.54,6.54,0,0,0-.12-3.17c-.37-1-1.26-1.59-2.2-.93a2.89,2.89,0,0,0-1,1.6,1.74,1.74,0,0,0-3.26,1c.28,2,2.68,3.45,4.4,4.08" style="fill: #f0f0f1"/>
    <path d="M101.84,99.6a2.51,2.51,0,0,0-2.1,1.13c-.46-.87-1.1-1.77-2.07-1.77a1.88,1.88,0,0,0-2,1.75,6.51,6.51,0,0,0,1.18,3.39c.31.54.65,1.06,1,1.58a5.25,5.25,0,0,0,.49.69.61.61,0,0,0,1.17-.12.71.71,0,0,0,.29-.18c1.28-1.3,3.33-2.67,3.53-4.65a1.7,1.7,0,0,0-1.45-1.83" style="fill: #f0f0f1"/>
    <path d="M91.59,95.33c-.5-1.1-2.83-1.18-2.67.61A5.31,5.31,0,0,0,90,98.36c.29.42.79,1.27,1.37,1.42a.38.38,0,0,0,.3.09c1.72-.24,3.68-2.65,3-4.43a1.48,1.48,0,0,0-1.7-.89,2.57,2.57,0,0,0-1.4.77" style="fill: #f0f0f1"/>
    <path d="M107.05,109.62a2.13,2.13,0,0,0-.91,1c-.67-.74-2.53-.23-2,1.15a4.39,4.39,0,0,0,1.47,1.64c.33.26.94.81,1.43.78a.31.31,0,0,0,.26,0c1.3-.62,2.25-3,1.27-4.24a1.22,1.22,0,0,0-1.56-.28" style="fill: #f0f0f1"/>
    <path d="M86,113.85a2,2,0,0,0-1.83.5c-.2-.75-.54-1.56-1.29-1.73a1.49,1.49,0,0,0-1.88,1,5.17,5.17,0,0,0,.32,2.83c.14.47.31.94.49,1.4a4.14,4.14,0,0,0,.25.62.49.49,0,0,0,.93.11.58.58,0,0,0,.25-.09c1.22-.78,3-1.48,3.55-3a1.35,1.35,0,0,0-.79-1.67" style="fill: #f0f0f1"/>
    <path d="M98.9,93.26a1.17,1.17,0,0,0,0,.76.7.7,0,0,0-.89,1,2.6,2.6,0,0,0,2.39.41.23.23,0,0,0,.18-.19.21.21,0,0,0,.12-.1,1.24,1.24,0,0,0-.14-1,2.64,2.64,0,0,0-.74-1c-.34-.25-.78-.26-.95.17" style="fill: #f0f0f1"/>
    <path d="M85,96.73a1.18,1.18,0,0,0-1.09.3c-.12-.45-.32-.93-.77-1a.89.89,0,0,0-1.12.59,3.07,3.07,0,0,0,.19,1.68c.08.28.19.56.29.83a2.43,2.43,0,0,0,.15.37.29.29,0,0,0,.55.07.35.35,0,0,0,.15-.05c.72-.47,1.81-.88,2.11-1.77a.8.8,0,0,0-.47-1" style="fill: #f0f0f1"/>
    <path d="M111.54,132.38a52.59,52.59,0,0,0-28.16-4.21q-1.85.23-3.71.59c-5,1-9.25,6.75-14.34,9.11,3.58,5.68,8.81,3.78,17.15,2.93,8.68,9.22,20.82,13,10.19,1.46,18.87,17.89,14.48,9.25,6.62-3.18,5.37,12.26,26,16.29,16.76,17.31,8.29,2.39,2.52-8.35-3.92-21.28,3.83,6,8.28,5.29-.59-2.74" style="fill: #b2d9dd;fill-rule: evenodd"/>
    <path d="M111.81,132.64c-18.52,9.34-34.57,10-46.47,5.23,4.61-3.14,8.71-10.16,14.67-10-1.91.5-4.53.46-4.57,2.16a101.53,101.53,0,0,1,12.25-4.7c-2.79,1.12-2.41,2.56-2.35,3,7.53-.83,7.64-3.73,3.68-9.08,3.69,2.25,4.53,2.4,6.16,5.79q1.73-.4,1.92-3.31,2.57,3.22-.41,6.77,3.59-5.16,7-.81-3.09-1.1-2.68,1.54c6.16-1.72,9.16.9,10.78,3.5" style="fill: #b2d9dd;fill-rule: evenodd"/>
    <path d="M89.27,184.89c-3,0-5.49,2-5.49,4.45s2.46,4.45,5.49,4.45,5.49-2,5.49-4.45-2.46-4.45-5.49-4.45" style="fill: #d96e80;fill-rule: evenodd"/>
    <path d="M93.51,187.27c0,.39-1.09.65-2.39.59s-2.35-.42-2.32-.81,1.09-.65,2.39-.59,2.34.43,2.33.81" style="fill: #de869e"/>
    <path d="M71.68,169a9.79,9.79,0,0,1,2.6-2.82,2.88,2.88,0,0,1,1.85-.69,6.28,6.28,0,0,1,1.68.39,4.05,4.05,0,0,0,1.5.29c5.1-.57,4.31-2.87.15-4.52l-.17,0a5.74,5.74,0,0,0-4.18.26,5.16,5.16,0,0,0-2.53,2.92c-.37,1.49-.29,2.79-.9,4.21" style="fill: #4b7374"/>
    <path d="M107.54,169.33a13.64,13.64,0,0,0,.47-5.11,6.46,6.46,0,0,0-.79-2.14,5.38,5.38,0,0,0-1.6-1.68,6.07,6.07,0,0,0-2.23-.92,8,8,0,0,0-2.54-.11,5.64,5.64,0,0,0-2.92,1.07c-3.69,3.88-1.28,4.69,3.05,3.5.13,0,.31-.07.43-.12a12.06,12.06,0,0,1,1.41-.26,6,6,0,0,1,1,0,2.56,2.56,0,0,1,1,.33,3.66,3.66,0,0,1,1.14,1,5.45,5.45,0,0,1,1.52,4.45" style="fill: #4b7374"/>
</svg>
