<svg id="743ca748-e6f7-43f6-81de-d5b4d46fc884" data-name="Layer 1" xmlns="http://www.w3.org/2000/svg"
     xmlns:xlink="http://www.w3.org/1999/xlink" viewBox="0 0 193.29 82.83">
    <defs>
        <clipPath id="caf04bbe-ffa4-46f6-8dce-addf44178061">
            <rect x="95.14" y="49.4" width="18.15" height="6.9" style="fill:none"/>
        </clipPath>
        <clipPath id="30393767-155f-4d52-9b1c-1e3f4c4a6a7a">
            <rect x="80.86" y="49.39" width="4.68" height="12.79" style="fill:none"/>
        </clipPath>
        <clipPath id="7cffe526-031d-46a3-864b-84f80b58396d">
            <rect x="123.4" y="49.28" width="14.69" height="2.78" style="fill:none"/>
        </clipPath>
        <clipPath id="e651cfe4-9b7e-499f-9133-e5144334f62c">
            <rect x="64.96" y="49.33" width="6.98" height="3.53" style="fill:none"/>
        </clipPath>
        <clipPath id="aeae6ad4-3008-4d51-ad7d-06938da951f6">
            <rect x="52.33" y="49.33" width="4.96" height="10.37" style="fill:none"/>
        </clipPath>
    </defs>
    <title>Boobon Kids</title>
    <path d="M61.2,64.61c-.92,1-1.78,2-2.61,3a1.15,1.15,0,0,0-.21.69c0,2,0,3.92,0,5.88v.74c-.75,0-1.47.12-2.19.14-1.25,0-2.49,0-3.74,0-.41,0-.63-.12-.65-.61-.08-2.57-.24-5.14-.28-7.71-.08-5.2-.11-10.41-.15-15.61,0-.67,0-1.34.09-2,.05-.86.1-.93,1-1,1.22-.05,2.45-.07,3.68-.08.53,0,1.07.09,1.6.06s.71.22.69.73c0,1.62,0,3.25-.06,4.87,0,1.88-.12,3.76-.18,5.8l.63-.76c2.71-3.28,5.43-6.55,8.11-9.85a1.45,1.45,0,0,1,1.91-.57c1.19.48,2.43.81,3.64,1.23a8.91,8.91,0,0,1,1,.47c-.21.34-.36.63-.56.89-2.15,2.86-4.29,5.73-6.46,8.58a.79.79,0,0,0,0,1.07c2.38,4.12,4.72,8.26,7.06,12.4a4.64,4.64,0,0,1,.2.5,3.57,3.57,0,0,1-.61.33q-2.36.75-4.74,1.47a1.06,1.06,0,0,1-1.4-.6c-1.66-3-3.37-6-5.07-9l-.62-1.09"
          style="fill:#eeb847"/>
    <path d="M86.7,61.73c-.08,4.15-.17,8.31-.23,12.46a.7.7,0,0,1-.71.8A24.46,24.46,0,0,1,80,75c-.4,0-.34-.3-.35-.55,0-2-.1-4-.1-5.93q0-8.08,0-16.15c0-1.17.08-2.33.1-3.5,0-.34.12-.52.47-.53,2,0,4-.05,6,0,.12,0,.33.22.35.36A9.29,9.29,0,0,1,86.56,50c0,3.92.1,11.76.14,11.76"
          style="fill:#85c4c7"/>
    <path d="M99.14,48.15a27.37,27.37,0,0,1,6.84.57,12.58,12.58,0,0,1,9.65,10.79A15.67,15.67,0,0,1,114.16,69a11.1,11.1,0,0,1-6.69,5.42,19.22,19.22,0,0,1-6.67.88c-2.41-.08-4.82-.26-7.23-.38-.49,0-.67-.2-.66-.72q.14-12.56.25-25.11c0-.49.18-.65.65-.67,1.78-.06,3.56-.15,5.34-.22m.39,20.77a1.34,1.34,0,0,0,.39.1,34.82,34.82,0,0,0,4-.13,4.89,4.89,0,0,0,3.93-2.65,8.72,8.72,0,0,0,0-8.15c-1.46-2.87-4.74-4.19-8.32-3.47Z"
          style="fill:#82ba5d"/>
    <path d="M122,67.22c1.23.62,2.35,1.28,3.54,1.79a8.3,8.3,0,0,0,5.45.52,2.29,2.29,0,0,0,1.51-1.06,1.8,1.8,0,0,0-.72-2.6,22.59,22.59,0,0,0-3.26-1.19c-1.31-.43-2.69-.68-3.95-1.23-3.12-1.36-4.39-3.92-4.35-7.23a7.71,7.71,0,0,1,5.81-7.44,17.18,17.18,0,0,1,12,1l.26.14c.82.47.93.62.57,1.51-.51,1.28-1.11,2.53-1.67,3.78-.17.37-.39.43-.79.25a13.11,13.11,0,0,0-7.18-1.38,3.91,3.91,0,0,0-1.44.5,1.74,1.74,0,0,0,.11,3.09c.86.37,1.78.62,2.68.92a51.78,51.78,0,0,1,5.14,1.74,6.79,6.79,0,0,1,4.2,6.72,7.51,7.51,0,0,1-4.22,6.8A13,13,0,0,1,129,75.28a17.83,17.83,0,0,1-8-2.05c-1.12-.59-1.16-.61-.76-1.81s.85-2.29,1.31-3.42a5.51,5.51,0,0,1,.45-.76"
          style="fill:#ba4857"/>
    <g style="opacity:0.699999988079071">
        <g style="clip-path:url(#caf04bbe-ffa4-46f6-8dce-addf44178061)">
            <path d="M95.14,49.66s14.56-2.19,18.15,6.25c0,0,.11.88-1,0-1.61-1.25-2.6-3.88-8-4.65-5.25-.75-8.61.13-9.07-1.6"
                  style="fill:#fff"/>
        </g>
    </g>
    <g style="opacity:0.699999988079071">
        <g style="clip-path:url(#30393767-155f-4d52-9b1c-1e3f4c4a6a7a)">
            <path d="M80.94,49.4h2.92s1.68-.34,1.68,2.23V62.09s-.75.66-.75-1.6.22-9.44-.8-9.75-3.59-.23-3.06-1.34"
                  style="fill:#fff"/>
        </g>
    </g>
    <g style="opacity:0.699999988079071">
        <g style="clip-path:url(#7cffe526-031d-46a3-864b-84f80b58396d)">
            <path d="M138.08,50.72s-9.7-3.66-14.62.66c0,0-.5,1.53,1.6,0s7.18-1.75,9.37-.92,3.86,1.82,3.66.29"
                  style="fill:#fff"/>
        </g>
    </g>
    <g style="opacity:0.699999988079071">
        <g style="clip-path:url(#e651cfe4-9b7e-499f-9133-e5144334f62c)">
            <path d="M71.94,50.59,69,49.4s-.73-.4-1.86.59A13.51,13.51,0,0,0,65,52.85a2.08,2.08,0,0,0,1.93-1.13c.73-1.26,1.79-1.59,2.66-1.2s1.87,1.09,2.39.07"
                  style="fill:#fff"/>
        </g>
    </g>
    <g style="opacity:0.699999988079071">
        <g style="clip-path:url(#aeae6ad4-3008-4d51-ad7d-06938da951f6)">
            <path d="M52.33,49.33h3.22s1.73,0,1.73,1.4v9s-.73,0-.86-1.33.39-8-1.06-8.11c-1-.08-3.14.25-3-.93"
                  style="fill:#fff"/>
        </g>
    </g>
    <path d="M24.43,28.14c0,5.83-4.75,9.63-10.62,9.63H0V4.88H12.87c5.73,0,10.38,3.71,10.38,9.4a8.23,8.23,0,0,1-2.87,6.44A8.49,8.49,0,0,1,24.43,28.14ZM7.52,11.93v5.83h5.36a2.77,2.77,0,0,0,2.87-2.91,2.75,2.75,0,0,0-2.87-2.91Zm9.4,15.64a3,3,0,0,0-3.1-3.15H7.52v6.3h6.3A3,3,0,0,0,16.91,27.58Z"
          fill="currentColor"/>
    <path d="M26.78,21.33a17.1,17.1,0,1,1,34.2,0,17.1,17.1,0,1,1-34.2,0Zm26.69,0a9.35,9.35,0,0,0-9.58-9.77,9.35,9.35,0,0,0-9.58,9.77,9.35,9.35,0,0,0,9.58,9.77A9.35,9.35,0,0,0,53.47,21.33Z"
          fill="currentColor"/>
    <path d="M63.8,21.33a17.1,17.1,0,1,1,34.2,0,17.1,17.1,0,1,1-34.2,0Zm26.69,0a9.59,9.59,0,1,0-19.17,0,9.59,9.59,0,1,0,19.17,0Z"
          fill="currentColor"/>
    <path d="M126.67,28.14c0,5.83-4.75,9.63-10.62,9.63H102.23V4.88h12.87c5.73,0,10.38,3.71,10.38,9.4a8.23,8.23,0,0,1-2.87,6.44A8.49,8.49,0,0,1,126.67,28.14ZM109.75,11.93v5.83h5.36A2.78,2.78,0,0,0,118,14.84a2.75,2.75,0,0,0-2.87-2.91Zm9.4,15.64a3,3,0,0,0-3.1-3.15h-6.3v6.3H116A3,3,0,0,0,119.15,27.58Z"
          fill="currentColor"/>
    <path d="M129,21.33a17.1,17.1,0,0,1,34.2,0,17.1,17.1,0,1,1-34.2,0Zm26.69,0a9.59,9.59,0,1,0-19.17,0,9.59,9.59,0,1,0,19.17,0Z"
          fill="currentColor"/>
    <path d="M193.29,4.88V37.77h-5.64L175,19.92V37.77h-7.52V4.88h5.64l12.68,17.85V4.88Z" fill="currentColor"/>
</svg>