<svg id="e94ed46e-c57a-44e6-83f6-bd731ccf804e" data-name="Layer 1" xmlns="http://www.w3.org/2000/svg" xmlns:xlink="http://www.w3.org/1999/xlink" viewBox="0 0 177.33 225.79"><defs><clipPath id="6b40fbe3-533d-48b5-9829-fe6145ee4c87"><path d="M123.07,104.07s-7.84-36.67-25-44.74S73.73,62,69.42,68.15,55.78,86.58,53.31,103.42l3,8.59,34.12-1.23,24.86-.9,7.9-2Z" style="fill:none"/></clipPath><linearGradient id="4c646226-200f-421c-86a9-29c9a8f72ac8" x1="263.96" y1="-36.56" x2="263.96" y2="-12.83" gradientTransform="translate(-175.31 147.06) rotate(-2.07)" gradientUnits="userSpaceOnUse"><stop offset="0" stop-color="#f73d6e"/><stop offset="1" stop-color="#a22751"/></linearGradient><linearGradient id="cbe52398-3c48-480e-8a6c-7f760da61934" x1="36.24" y1="153.55" x2="139.56" y2="153.55" gradientTransform="matrix(1, 0, 0, 1, 0, 0)" xlink:href="#4c646226-200f-421c-86a9-29c9a8f72ac8"/><linearGradient id="ea3c12ef-cfdc-4256-bc10-d835895fcb9c" x1="250.35" y1="-86.15" x2="283.29" y2="-86.15" xlink:href="#4c646226-200f-421c-86a9-29c9a8f72ac8"/></defs><title>Artboard 13</title><path d="M123.2,104.07s-7.84-36.67-25-44.74S73.87,62,69.56,68.15,55.91,86.58,53.44,103.42l3,8.59,34.12-1.23,24.86-.9,7.9-2Z" style="fill:#df265f"/><g style="clip-path:url(#6b40fbe3-533d-48b5-9829-fe6145ee4c87)"><path d="M122.09,81.23l-7.2-6L101.7,86.17,88.51,75.28h0v4.27h0L101.7,90.44l13.19-10.89,8.82,7.28A35.07,35.07,0,0,0,122.09,81.23Z" style="fill:#fff;opacity:0.7000000000000001"/><path d="M75.33,86.17,62.14,75.28l-7.28,6a35.62,35.62,0,0,0-1.56,5.56l8.84-7.3L75.33,90.44,88.5,79.56V75.29Z" style="fill:#fff"/><g style="opacity:0.7000000000000001"><path d="M122.09,71.24l-7.2-6L101.7,76.18,88.51,65.29h0v4.27h0L101.7,80.45l13.19-10.89,8.82,7.28A35.07,35.07,0,0,0,122.09,71.24Z" style="fill:#fff"/></g><path d="M75.33,76.18,62.14,65.29l-7.28,6a35.62,35.62,0,0,0-1.56,5.56l8.84-7.3L75.33,80.45,88.5,69.57V65.3Z" style="fill:#fff"/><path d="M122.09,61.39l-7.2-6L101.7,66.33,88.51,55.44h0v4.27h0L101.7,70.6l13.19-10.89L123.7,67A35.07,35.07,0,0,0,122.09,61.39Z" style="fill:#fff;opacity:0.7000000000000001"/><path d="M75.33,66.33,62.14,55.44l-7.28,6A35.62,35.62,0,0,0,53.3,67l8.84-7.3L75.33,70.6,88.5,59.72V55.45Z" style="fill:#fff"/><path d="M75.33,95.84,62.14,84.94l-9.49,7.84c0,.33,0,.66,0,1v3.3l9.52-7.86,13.18,10.89L88.5,89.22V85Z" style="fill:#fff"/><path d="M124.37,92.78l-9.48-7.83L101.7,95.84,88.51,84.94h0v4.27h0l13.19,10.89,13.19-10.89,9.51,7.85V93.78C124.39,93.44,124.38,93.11,124.37,92.78Z" style="fill:#fff;opacity:0.7000000000000001"/><path d="M75.33,105.71,62.14,94.82l-9.49,7.84c0,.33,0,.66,0,1V107l9.52-7.86L75.33,110,88.5,99.1V94.83Z" style="fill:#fff"/><path d="M124.37,102.65l-9.48-7.83L101.7,105.71,88.51,94.82h0V99.1h0L101.7,110l13.19-10.89,9.51,7.85v-3.29C124.39,103.32,124.38,103,124.37,102.65Z" style="fill:#fff;opacity:0.7000000000000001"/></g><path d="M118.93,103.61s-27-5.35-63.17-.28c0,0-10.24.76-10,4.13s4.65,1.76,3.61,6.27-1.43,11.26,4.72,10.8,22.63-5.23,36.58-5.64c25-.75,30.84,5.32,33.68,4.46,1.45-.44.7-3.89-.17-4.7s.62-2.92,1.93-3.33,4-3.56,2.68-5.91-2.74-4-4.26-4.3S118.93,103.61,118.93,103.61Z" style="fill:url(#4c646226-200f-421c-86a9-29c9a8f72ac8)"/><path d="M57.31,110.27s-1.93,7.22.29,8.16,10.73-2.28,14.64-2.43,2-6.64,1.26-7.64S57.31,110.27,57.31,110.27Z" style="fill:#fff"/><path d="M62.28,114.64a1.27,1.27,0,0,1-1.13,1.47l-1.76.32-.76-4.19,1.64-.3a1.24,1.24,0,0,1,1.54,1,1.07,1.07,0,0,1-.22.89A1.1,1.1,0,0,1,62.28,114.64ZM59.76,113l.13.74.68-.12a.38.38,0,0,0-.13-.74Zm1.56,1.78a.38.38,0,0,0-.47-.33l-.8.15.15.8.8-.15A.38.38,0,0,0,61.31,114.75Z" style="fill:#000a33"/><path d="M63,113.52a2.21,2.21,0,1,1,2.57,1.78A2.19,2.19,0,0,1,63,113.52Zm3.4-.62a1.24,1.24,0,1,0-1,1.47A1.21,1.21,0,0,0,66.43,112.9Z" style="fill:#000a33"/><path d="M68.34,112.63a2.21,2.21,0,1,1,2.46,1.94A2.19,2.19,0,0,1,68.34,112.63Zm3.43-.41a1.24,1.24,0,1,0-1.08,1.4A1.21,1.21,0,0,0,71.77,112.23Z" style="fill:#000a33"/><path d="M61.85,216.28a1.31,1.31,0,0,0,.24.16Z" style="fill:#69cad1"/><path d="M140.72,188.75c1.38,1.24,4.4,1.5,4.4,1.5-6.2-6.25-4-14.49-4-14.49a70.38,70.38,0,0,1,4.23,8.49c-.77-6.21-4.77-16.08-4.77-16.08a31.9,31.9,0,0,1,4.24,5.57,27.62,27.62,0,0,0-4.13-9.85,16.11,16.11,0,0,1,4.3-.84c-4.71-1.6-8.3-10-8.3-10,1.77,1.47,8.19,2.68,8.19,2.68-5.79-2.59-13.6-12.8-13.6-12.8a54.25,54.25,0,0,0,9.8,3.53c-4.6-1.8-15.2-12.19-15.2-12.19,3.6-.1,10.74,3.73,10.74,3.73-5.82-6.34-15.57-10.83-17-11.48,10.46.32,12-3.95,12-3.95-9.59,1.22-13.21-1.41-19.22-2.6a19.37,19.37,0,0,0,3.94-6.69c1.17-2.93.43-8-2.63-10.93-2.44-2.37-9.57-4.2-12.87.46-1.71,2.41-.41,6.2,2.48,6.71,1.54.28,3.39-1,2.81-2.71a2.82,2.82,0,0,0-.77-1.14,1.75,1.75,0,0,1,.18.93.89.89,0,0,1-.08.32.84.84,0,0,1-.25.29,1.41,1.41,0,0,1-1.35.18,1.26,1.26,0,0,1-.82-1.07,2.78,2.78,0,0,1,.29-1.2,1.94,1.94,0,0,1,2-.81c1.33.14,2.08,1.7,1.89,3-.64,4.37-5.37,5.45-7.59,6.41l-.61.25a23.28,23.28,0,0,0,.82-3.83c-2.74,6.32-7.57,6.55-7,6,2.61-2.61,1.9-6.59,1.9-6.59-3.85,7.2-10.66,6.4-10.66,6.4C89,110.82,88.34,108,88.34,108c-7.37,8.85-14.6,10.44-14.6,10.44-4.38,1-10.18,2.82-10.18,2.82-11.28,7.35-21.16-1.91-21.16-1.91,2.63,8.88,9,10.41,9,10.41S47,131,42.15,138.43c-3.84,5.93-6.39,10.49-6.39,10.49,1.14-.08,3.23-1.63,3.23-1.63-1.84,7.37-7,9.17-7,9.17.76,1.19,6.54-.78,7.54-1.13-.86.33-5.09,2.34-6.59,10.89-1.56,8.94-1,6.93-1,6.93a15.52,15.52,0,0,1,1.85-4.23l-.18,7.25c-.18,7.25-1.93,10.93-1.93,10.93,1.88-1.83,3.4-6.28,3.4-6.28-2.64,16,2.56,20.46,2.56,20.46-.77-3.18-.2-4.67-.2-4.67.85,5,5.55,9.09,5.55,9.09-1.88-1.72-2.91-6-2.91-6A50.13,50.13,0,0,0,54.88,213.6c-1.27-1.38-3-6.32-3-6.32,1.69,3.21,8.65,8.08,10,9A17.81,17.81,0,0,1,59.44,213c4.3,3.89,16.09,8.05,16.09,8.05C74.44,220,73,218.24,73,218.24c1.5,1.77,12.66,3.77,11.44,3.53s-5.1-2.62-5.1-2.62c2.91,1.39,10.2,2,10.2,2s14.6-.06,23.29-3.4S126.4,205.9,126.4,205.9c-1.29,6.39-6.33,12-6.33,12,6.9-4.63,14.14-16.79,14.14-16.79a50.86,50.86,0,0,1-1.75,8c3.72-4.26,4.45-12.25,4.45-12.25a6.48,6.48,0,0,1,2.24,2.31c.06-1.68-1.27-5.08-1.81-6.39,1.07,1.69,5.71,4.19,5.71,4.19C140.06,194.42,139.33,187.51,140.72,188.75Z" style="fill:#69cad1"/><path d="M102.3,142.41a15.85,15.85,0,0,0-26.69,0Z" style="fill:#69cad1"/><path d="M112.61,183.31a1.91,1.91,0,0,0-1-.41c-3.42-.59-13.42,1.33-22.16,1.33-7.88,0-16.33-1.48-20.3-1.33a3.43,3.43,0,0,0-2.13.51c-1.93,1.93-.65,13.53,8.45,19.68a23.82,23.82,0,0,0,13.66,3.83A28.55,28.55,0,0,0,104,203.24C113.94,197.28,115.24,185.94,112.61,183.31Z" style="fill:#111"/><path d="M90.6,199.38a25,25,0,0,1,13.4,3.87,28.55,28.55,0,0,1-14.91,3.68,23.82,23.82,0,0,1-13.66-3.83A37.43,37.43,0,0,1,90.6,199.38Z" style="fill:#e86d7f"/><path d="M111.57,182.9s-1.4,6.91-3.58,9.09c-1.3,1.3-8.31,2-17.65,2S74.54,192.87,72,192s-2.93-9.15-2.93-9.15c4-.14,12.42,1.33,20.3,1.33C98.15,184.23,108.15,182.31,111.57,182.9Z" style="fill:#fff"/><g style="opacity:0.75"><path d="M89.85,202.33a11.07,11.07,0,0,0-3.34.17,6,6,0,0,0-3.1,1.49.89.89,0,0,0,.39,1.46c.89.3,2.27-.37,3.17-.48,1.07-.13,2.18.18,3.22-.1C91.71,204.46,91.21,202.5,89.85,202.33Z" style="fill:#fff"/></g><path d="M89.09,207.55a24.51,24.51,0,0,1-14-3.94,22.06,22.06,0,0,1-9.43-15.74c-.22-2.33.1-4.11.89-4.9a3.77,3.77,0,0,1,2.55-.69,68.59,68.59,0,0,1,7.77.52c3.88.38,8.27.81,12.55.81s8.83-.46,12.85-.87c4.24-.43,7.59-.77,9.41-.46a2.43,2.43,0,0,1,1.38.58c1.13,1.13,1.6,3.45,1.25,6.22a20.34,20.34,0,0,1-10,14.69A29.26,29.26,0,0,1,89.09,207.55Zm-19.4-24h-.56c-1.35,0-1.66.28-1.71.33-.41.41-.73,1.78-.53,3.9a21.08,21.08,0,0,0,8.89,14.83,23.29,23.29,0,0,0,13.31,3.72,28,28,0,0,0,14.59-3.59,19.38,19.38,0,0,0,9.39-13.77c.29-2.32-.07-4.35-.9-5.18a1.35,1.35,0,0,0-.7-.24c-1.65-.28-5.09.07-9.08.47s-8.63.87-13,.87-8.76-.44-12.67-.82C73.92,183.76,71.45,183.51,69.7,183.51Z" style="fill:#1299ac;stroke:#1299ac;stroke-miterlimit:10;stroke-width:3px"/><path d="M41.46,154.88s-3.21-2.26-17.8,6.36a30.91,30.91,0,0,0-13.36,16.5,27.12,27.12,0,0,0,6.46,2,18.13,18.13,0,0,1,4.84-7.62c8.55-8.22,22.15-3.64,22.15-3.64Z" style="fill:#69cad1"/><path d="M21.52,186.9c-1.22-.65-3.94-1.27-5.14-1.94l-.62-.37a28.48,28.48,0,0,1,.72-3.85,27.77,27.77,0,0,1-6.5-2,28.19,28.19,0,0,0-1,4.1A9.92,9.92,0,0,1,6,184l-3.67.76a2.71,2.71,0,0,0-2.11,3.68c.53,1.38,2,2.3,4,1.32l2.43-1.42a3.88,3.88,0,0,0-.45.59l-3,3.5c-1.64,2.15-.83,4.22.71,5.16h0c1.55.94,3.69.73,4.92-1.73l1.73-4.27v0a3.82,3.82,0,0,0,.06.43l.32,4.6c.35,2.68,2.37,3.59,4.14,3.17s3.13-2.08,2.28-4.69l-1.77-4.26c0-.09-.07-.19-.12-.29,2.59,2.74,6,2.5,7.3,1.28C23.88,190.86,24.41,188.46,21.52,186.9Zm-13,.39.3-.21c0,.06,0,.11,0,.16Z" style="fill:#ff2e6b"/><rect x="8.96" y="177.12" width="8.72" height="4.5" rx="1.21" ry="1.21" transform="translate(47.18 2.72) rotate(15.1)" style="fill:#fff"/><path d="M136.24,154.88s3.21-2.26,17.8,6.36a30.91,30.91,0,0,1,13.36,16.5,27.12,27.12,0,0,1-6.46,2,18.13,18.13,0,0,0-4.84-7.62c-8.55-8.22-22.15-3.64-22.15-3.64Z" style="fill:#69cad1"/><path d="M154.91,191.85c1.33,1.22,4.71,1.46,7.3-1.28,0,.1-.08.2-.12.29l-1.77,4.26c-.86,2.61.51,4.27,2.28,4.69s3.79-.49,4.14-3.17l.32-4.6a3.82,3.82,0,0,0,.06-.43v0l1.73,4.27c1.23,2.46,3.37,2.68,4.92,1.73h0c1.55-.94,2.35-3,.71-5.16l-3-3.5a3.88,3.88,0,0,0-.45-.59l2.43,1.42c2,1,3.5.05,4-1.32a2.71,2.71,0,0,0-2.11-3.68l-3.67-.76a9.92,9.92,0,0,1-3-1.23,28.19,28.19,0,0,0-1-4.1,27.77,27.77,0,0,1-6.5,2,28.48,28.48,0,0,1,.72,3.85l-.62.37c-1.21.67-3.93,1.29-5.14,1.94C153.29,188.46,153.82,190.86,154.91,191.85Zm14-4.61c0-.06,0-.11,0-.16l.3.21Z" style="fill:#ff2e6b"/><rect x="160.02" y="177.12" width="8.72" height="4.5" rx="1.21" ry="1.21" transform="translate(369.81 309.74) rotate(164.9)" style="fill:#fff"/><path d="M45.94,159.81h-7c-2.18,0-2.7-.52-2.7-2.7q0-6,0-12.05c0-1.85.55-2.41,2.36-2.41h7.2a3.29,3.29,0,0,0,.11-.94c-.49-2.23.7-3.12,2.63-3.86A85,85,0,0,1,68,133.21a155.08,155.08,0,0,1,31.78-.82c9.73.71,19.37,2.05,28.48,5.92,1.25.53,1.83,1.15,1.62,2.5a13.22,13.22,0,0,0,0,1.84h7.29c1.83,0,2.4.57,2.4,2.38q0,6.24,0,12.48c0,1.62-.62,2.27-2.24,2.29-2.43,0-4.86,0-7.25,0-.1.28-.2.42-.18.54.52,2.52-.9,4.09-2.58,5.63-4.89,4.47-10.33,7.86-17,8.9-7.83,1.21-14.11-2-17.77-9.1a28.88,28.88,0,0,0-2.82-4.47c-1.26-1.62-2.31-1.61-3.62,0a18.9,18.9,0,0,0-2.52,3.81c-4.33,9-12.53,11.91-21.83,9A33.84,33.84,0,0,1,46.57,163.9a3.24,3.24,0,0,1-.6-1.66A19.13,19.13,0,0,1,45.94,159.81Zm38.81-24.3c-3.69.3-10.66.71-17.58,1.48a66.55,66.55,0,0,0-16.53,4,1.52,1.52,0,0,0-1.2,1.63c.05,6.08,0,12.15,0,18.23a2.4,2.4,0,0,0,.54,1.52,29.59,29.59,0,0,0,13.56,8.48c7.74,2.15,13.16-.32,16.84-7.47a23,23,0,0,1,3.11-4.61,7.25,7.25,0,0,1,3.08-1.95c2.61-.86,4.59.49,6.06,2.46a64.62,64.62,0,0,1,3.55,5.7c2.88,4.82,7.05,7.15,12.7,6.48,6.84-.8,12.22-4.36,16.9-9.17a2.19,2.19,0,0,0,.47-1.41c0-6.08,0-12.15,0-18.23a1.48,1.48,0,0,0-1.17-1.66c-1.45-.47-2.87-1-4.34-1.46C110.11,136.43,99.11,135.72,84.75,135.51ZM39.69,151.22c0-1.86,0-3.72,0-5.57,0-.43-.51-.84-.78-1.25-.28.38-.78.76-.79,1.15q-.09,5.65,0,11.29c0,.4.49.79.75,1.18.29-.41.8-.8.82-1.22C39.74,154.94,39.69,153.08,39.69,151.22Zm96.42-.16h0c0,1.91,0,3.81,0,5.71,0,.42.51.83.79,1.24.26-.39.73-.77.74-1.16q.08-5.64,0-11.29c0-.4-.48-.78-.73-1.17-.27.41-.76.81-.78,1.24C136.06,147.44,136.11,149.25,136.11,151.06Z" style="fill:url(#cbe52398-3c48-480e-8a6c-7f760da61934)"/><path d="M84.75,135.51c14.35.21,25.35.92,36.06,4,1.47.42,2.89,1,4.34,1.46a1.48,1.48,0,0,1,1.17,1.66c0,6.08,0,12.15,0,18.23a2.19,2.19,0,0,1-.47,1.41c-4.68,4.81-10.06,8.37-16.9,9.17-5.65.66-9.82-1.66-12.7-6.48a64.62,64.62,0,0,0-3.55-5.7c-1.47-2-3.45-3.32-6.06-2.46a7.25,7.25,0,0,0-3.08,1.95,23,23,0,0,0-3.11,4.61c-3.68,7.15-9.1,9.63-16.84,7.47A29.59,29.59,0,0,1,50,162.32a2.4,2.4,0,0,1-.54-1.52c0-6.08,0-12.15,0-18.23a1.52,1.52,0,0,1,1.2-1.63,66.55,66.55,0,0,1,16.53-4C74.1,136.22,81.07,135.81,84.75,135.51Zm.05,2.77c-3.32.26-9.88.48-16.35,1.35-5.08.68-10.06,2.16-15.08,3.26-.86.19-1.1.64-1.09,1.5,0,5.17,0,10.33,0,15.5a2.28,2.28,0,0,0,.6,1.48,26.79,26.79,0,0,0,12.16,7c5.14,1.27,9.13-.19,11.75-4.28.51-.8.9-1.68,1.37-2.52a20,20,0,0,1,4.78-6,7.62,7.62,0,0,1,10.79.86,34.2,34.2,0,0,1,4.44,6.44c2.56,4.64,6.34,6.63,11.52,5.68a25.18,25.18,0,0,0,12.81-6.89,3.4,3.4,0,0,0,.95-2.19c.08-4.25,0-8.51,0-12.77,0-3.59,0-3.6-3.52-4.58C109.53,139.17,98.82,138.44,84.81,138.28Z" style="fill:#fff"/><path d="M39.69,151.22c0,1.86.05,3.72,0,5.57,0,.42-.53.81-.82,1.22-.26-.39-.75-.78-.75-1.18q-.09-5.65,0-11.29c0-.39.51-.77.79-1.15.27.42.76.83.78,1.25C39.74,147.5,39.69,149.37,39.69,151.22Z" style="fill:#fff"/><path d="M136.11,151.06c0-1.81-.05-3.62,0-5.43,0-.42.51-.82.78-1.24.26.39.73.78.73,1.17q.08,5.64,0,11.29c0,.39-.48.77-.74,1.16-.28-.41-.77-.82-.79-1.24-.09-1.9,0-3.81,0-5.71Z" style="fill:#fff"/><path d="M84.81,138.28c14,.16,24.72.89,35.16,3.82,3.53,1,3.52,1,3.52,4.58,0,4.26.06,8.51,0,12.77a3.4,3.4,0,0,1-.95,2.19,25.18,25.18,0,0,1-12.81,6.89c-5.18.94-9-1-11.52-5.68a34.2,34.2,0,0,0-4.44-6.44A7.62,7.62,0,0,0,83,155.56a20,20,0,0,0-4.78,6c-.47.83-.85,1.71-1.37,2.52-2.62,4.09-6.61,5.55-11.75,4.28a26.79,26.79,0,0,1-12.16-7,2.28,2.28,0,0,1-.6-1.48c0-5.17,0-10.33,0-15.5,0-.86.23-1.31,1.09-1.5,5-1.1,10-2.58,15.08-3.26C74.93,138.76,81.49,138.53,84.81,138.28Zm-3.63,1.56c-1.68.09-3.11.23-4.53.22A1.43,1.43,0,0,0,75,141.38c-1.08,4.69-2.22,9.37-3.36,14-1,3.93-2,7.85-3,11.78a6.45,6.45,0,0,0,6.87-4.43c1.13-4.53,2.28-9,3.4-13.58C79.71,146.16,80.41,143.1,81.18,139.83Zm19,23.54,5.57-22.61-2.27-.29a8.37,8.37,0,0,0-.37,1c-1.38,5.59-2.66,11.21-4.19,16.76A5.42,5.42,0,0,0,100.23,163.37Zm-11-10.94,2.29.54,3.37-13.5c-1.13.38-2.48.48-2.61.94C91.17,144.33,90.26,148.32,89.25,152.43Z" style="fill:#092444"/><path d="M81.18,139.83c-.77,3.27-1.47,6.32-2.22,9.37-1.11,4.53-2.27,9-3.4,13.58a6.45,6.45,0,0,1-6.87,4.43c1-3.93,2-7.85,3-11.78,1.14-4.68,2.28-9.36,3.36-14a1.43,1.43,0,0,1,1.64-1.32C78.08,140.06,79.5,139.92,81.18,139.83Z" style="fill:#fff"/><path d="M100.23,163.37A5.42,5.42,0,0,1,99,158.19c1.52-5.55,2.8-11.17,4.19-16.76a8.37,8.37,0,0,1,.37-1l2.27.29Z" style="fill:#fff"/><path d="M89.25,152.43c1-4.12,1.92-8.1,3.05-12,.13-.46,1.48-.56,2.61-.94L91.55,153Z" style="fill:#fff"/><path d="M100.95,60.39a8.6,8.6,0,0,0,.82-2.47l1,1.19.27-5,1.66.94s1-11.17-6.09-13.18c0,0-.5-1.25.41-1.19a4.41,4.41,0,0,0-2.77-1.44s.13-1.45,1.12-1.49c0,0-3.63-1-4.75-.37L93.09,36l-2.53.09,0-1.18s-3.43.3-4.56,1.52a4.56,4.56,0,0,1-.07-2A4.43,4.43,0,0,0,84.36,37s-1.77-.84-1.73-2.38a3.84,3.84,0,0,0-1.71,2.87s-1.63-.12-2-1.19a5.06,5.06,0,0,0-1.14,3.66,6.26,6.26,0,0,1-3.12-1.06,8,8,0,0,0,.09,2.62s-2.21,1.44-2.25,2.89c0,0-1,3.57-.65,4.55l.7-.75s-1,5.38-.54,7l1-.31s-.76,3.92-.09,5.07l.51-.83s2.25-.26,2.5,1.63,2.57,6.07,6.85,6.55,4.93,1,4.93,1l-.9-2.23s5.2.36,7,1l-.58-2,2.36.1.23-1.28h2.63l.3-1.82,2.17-.08Z" style="fill:url(#ea3c12ef-cfdc-4256-bc10-d835895fcb9c)"/><path d="M87.81,39.86s-1.47,2.32-.95,4.38l-1.81.07.15,4.25L82.66,48A67.14,67.14,0,0,0,85,54.63l-2.13-1s1.79,6.82,8.18,8.22a11.14,11.14,0,0,1-8.73-3.58A4.4,4.4,0,0,0,83,61.68s-4.18-3-4.79-7.34c0,0-1.44.14-1.49,1.41,0,0-1.05-4.13-.23-6.33,0,0-1.27-.14-1.61.51,0,0,0-3.71,1.36-4.85L74,44.7s2.13-3.7,3.76-3.76,1.93.66,1.93.66l.73-2.47,1.63,1.12,1.34-1.77.08,2.08,2.21-1.62Z" style="fill:#fdf9f6;opacity:0.5"/></svg>