<svg id="d8507e87-d8ff-41f9-b0fa-bbb8c69c5e09" data-name="Layer 1" xmlns="http://www.w3.org/2000/svg" viewBox="0 0 177.33 225.79"><title>Artboard 13</title><path d="M124.65,103.19s-7.9-36.94-25.17-45.08S74.94,60.82,70.6,67,56.86,85.57,54.37,102.54l3,8.66L91.79,110l25-.9,8-2Z" style="fill:#fff243;fill-rule:evenodd"/><path d="M54.06,99.64a182.4,182.4,0,0,1,36.22-2.75,165.33,165.33,0,0,1,34.6,4.26l-.17.73a164.55,164.55,0,0,0-34.44-4.24,181.63,181.63,0,0,0-36.07,2.74Z" style="fill:#fff"/><path d="M57.4,88.29a217.83,217.83,0,0,1,32.51-1.44,211.81,211.81,0,0,1,31.83,3.21l-.13.73a211.1,211.1,0,0,0-31.72-3.19A217.09,217.09,0,0,0,57.49,89Z" style="fill:#fff"/><path d="M63,76.93a235.93,235.93,0,0,1,27.4-.55A220.68,220.68,0,0,1,117,78.92l-.12.74a219.89,219.89,0,0,0-26.49-2.54,235.2,235.2,0,0,0-27.32.55Z" style="fill:#fff"/><path d="M70.33,66.16c5.92-.29,13-.37,20.54-.07,6.4.25,13.18.76,20,1.64l-.09.74c-6.78-.88-13.54-1.39-19.92-1.64-7.55-.29-14.58-.21-20.48.07Z" style="fill:#fff"/><path d="M85,35.54s-1.78-.85-1.74-2.4A3.86,3.86,0,0,0,81.52,36s-1.65-.12-2-1.2a5.1,5.1,0,0,0-1.15,3.69,6.3,6.3,0,0,1-3.14-1.07,8,8,0,0,0,.1,2.64S73.05,41.53,73,43c0,0-1.06,3.6-.66,4.59l.7-.76s-1,5.42-.55,7l1-.31s-.77,4-.09,5.11l.52-.84s2.27-.26,2.52,1.64,2.5,4.4,6.81,4.89S87.92,66,87.92,66l-.53-1.2s5.24.36,7,1l-.59-2,2.38.1.23-1.29h2.65l.3-1.84,2.19-.08.12-1.65a8.61,8.61,0,0,0,.82-2.49l1,1.19.27-5.07,1.68.94s1-11.26-6.14-13.28c0,0-.5-1.26.41-1.2A4.44,4.44,0,0,0,97,37.75s.13-1.46,1.13-1.5c0,0-3.66-1.05-4.79-.37l.44-1.29-2.55.09,0-1.18s-3.46.31-4.6,1.53a4.61,4.61,0,0,1-.07-2A4.46,4.46,0,0,0,85,35.54" style="fill:#f2c544;fill-rule:evenodd"/><path d="M56.25,102.44s-10.31.76-10.07,4.16,4.69,1.78,3.63,6.32-1.44,11.34,4.75,10.88,22.8-5.27,36.85-5.69c12.5-.38,20.24.94,25.22,2.26s7.27,2.67,8.71,2.24.71-3.92-.17-4.74.62-2.94,1.95-3.35,4-3.59,2.7-6-2.76-4-4.29-4.33-5.65-1.5-5.65-1.5-12.53-2.48-32-2.48a228.86,228.86,0,0,0-31.68,2.2" style="fill:#f2c544;fill-rule:evenodd"/><path d="M57.82,109.44s-1.95,7.28.3,8.23,10.81-2.3,14.75-2.44,2.07-6.69,1.27-7.69-16.32,1.91-16.32,1.91" style="fill:#fff;fill-rule:evenodd"/><path d="M62.82,113.84h0a1.28,1.28,0,0,1-1.14,1.48l-1.77.32-.76-4.22,1.65-.3a1.25,1.25,0,0,1,1.55,1,1.08,1.08,0,0,1-.22.89,1.11,1.11,0,0,1,.69.86m-2.55-1.69h0l.14.75.69-.12a.36.36,0,0,0,.3-.44A.36.36,0,0,0,61,112Zm1.57,1.79a.39.39,0,0,0-.47-.33l-.81.15.15.81.81-.15A.39.39,0,0,0,61.85,113.95Z" style="fill:#001136;fill-rule:evenodd"/><path d="M62.75,113.77h0a1.28,1.28,0,0,1-1.14,1.48l-1.77.32-.76-4.22,1.65-.3a1.25,1.25,0,0,1,1.55,1,1.08,1.08,0,0,1-.22.89,1.11,1.11,0,0,1,.69.86m-2.55-1.69h0l.14.75.69-.12a.36.36,0,0,0,.3-.44.36.36,0,0,0-.44-.31Zm1.57,1.79a.39.39,0,0,0-.47-.33l-.81.15.15.81.81-.15A.39.39,0,0,0,61.77,113.87Z" style="fill:#001136;fill-rule:evenodd"/><path d="M63.58,112.71h0a2.23,2.23,0,1,1,2.59,1.8,2.21,2.21,0,0,1-2.59-1.8m3.42-.62a1.25,1.25,0,1,0-1,1.48A1.22,1.22,0,0,0,67,112.09Z" style="fill:#001136;fill-rule:evenodd"/><path d="M63.5,112.64h0a2.23,2.23,0,1,1,2.59,1.8,2.21,2.21,0,0,1-2.59-1.8m3.42-.62a1.25,1.25,0,1,0-1,1.48A1.22,1.22,0,0,0,66.93,112Z" style="fill:#001136;fill-rule:evenodd"/><path d="M68.92,111.82h0a2.23,2.23,0,1,1,2.48,2,2.21,2.21,0,0,1-2.48-2m3.46-.41a1.25,1.25,0,1,0-1.09,1.41A1.22,1.22,0,0,0,72.38,111.41Z" style="fill:#001136;fill-rule:evenodd"/><path d="M68.85,111.74h0a2.23,2.23,0,1,1,2.48,2,2.21,2.21,0,0,1-2.48-2m3.46-.41a1.25,1.25,0,1,0-1.09,1.41A1.22,1.22,0,0,0,72.3,111.33Z" style="fill:#001136;fill-rule:evenodd"/><path d="M133.63,168.11s13.69-4.62,22.31,3.66c6.21,6,5.58,12.4,6.34,15.54s4.58,7,6.2,1.75c1.75-5.71-1.69-20.66-14.61-28.29-14.7-8.68-17.93-6.4-17.93-6.4Z" style="fill:#85c4c7;fill-rule:evenodd"/><path d="M133.56,168s13.69-4.62,22.31,3.66c6.21,6,5.58,12.4,6.34,15.54s4.58,7,6.2,1.75c1.75-5.71-1.69-20.66-14.61-28.29-14.7-8.68-17.93-6.4-17.93-6.4Z" style="fill:#69cad1;fill-rule:evenodd"/><path d="M165,183.58c-1.3-.71-2.52.41-3.76,1.1s-4,1.3-5.18,2c-2.92,1.57-2.38,4-1.29,5,1.37,1.25,4.85,1.49,7.48-1.41l2.07-2.32c1.69-1.75,1.87-3.68.69-4.32" style="fill:#85c4c7;fill-rule:evenodd"/><path d="M164.9,183.51c-1.3-.71-2.52.41-3.76,1.1s-4,1.3-5.18,2c-2.92,1.57-2.38,4-1.29,5,1.36,1.25,4.85,1.49,7.48-1.41l2.07-2.32c1.69-1.75,1.87-3.68.69-4.32" style="fill:#69cad1;fill-rule:evenodd"/><path d="M165.25,188c-1.78-.42-2.88,1.52-3.27,2.64l-1.78,4.29c-.86,2.63.52,4.3,2.29,4.72s3.82-.49,4.17-3.2l.33-4.63c.42-1.78-.46-3.52-1.74-3.82" style="fill:#85c4c7;fill-rule:evenodd"/><path d="M165.17,187.92c-1.78-.42-2.88,1.52-3.27,2.64l-1.78,4.29c-.86,2.63.52,4.3,2.29,4.72s3.82-.49,4.17-3.2l.33-4.63c.42-1.78-.46-3.52-1.74-3.82" style="fill:#69cad1;fill-rule:evenodd"/><path d="M167.53,187.23c-1.56,1-1,3.1-.47,4.17l1.75,4.3c1.24,2.48,3.39,2.7,5,1.75s2.37-3,.72-5.2l-3-3.52c-1-1.56-2.81-2.18-3.92-1.5" style="fill:#85c4c7;fill-rule:evenodd"/><path d="M167.45,187.16c-1.56,1-1,3.1-.47,4.17l1.75,4.3c1.24,2.48,3.39,2.7,5,1.75s2.37-3,.72-5.2l-3-3.52c-1-1.56-2.81-2.18-3.92-1.5" style="fill:#69cad1;fill-rule:evenodd"/><path d="M167.17,183.52v.62c-.53,1.39,2.15,3.08,3,3.52l3.26,1.91c2,1,3.53.05,4.06-1.33a2.73,2.73,0,0,0-2.12-3.71l-3.7-.77c-3.26-.64-3.62-2.69-4.52-.23" style="fill:#85c4c7;fill-rule:evenodd"/><path d="M167.09,183.44v.62c-.53,1.39,2.15,3.08,3,3.52l3.26,1.91c2,1,3.53.05,4.06-1.33a2.73,2.73,0,0,0-2.12-3.71l-3.7-.77c-3.26-.64-3.62-2.69-4.52-.23" style="fill:#69cad1;fill-rule:evenodd"/><path d="M44.15,168.11s-13.69-4.62-22.31,3.66c-6.21,6-5.58,12.4-6.34,15.54s-4.58,7-6.2,1.75c-1.75-5.71,1.69-20.66,14.61-28.29,14.7-8.68,17.93-6.4,17.93-6.4Z" style="fill:#85c4c7;fill-rule:evenodd"/><path d="M44.07,168s-13.69-4.62-22.31,3.66c-6.21,6-5.58,12.4-6.34,15.54s-4.58,7-6.2,1.75c-1.75-5.71,1.69-20.66,14.61-28.29,14.7-8.68,17.93-6.4,17.93-6.4Z" style="fill:#69cad1;fill-rule:evenodd"/><path d="M12.81,183.58c1.3-.71,2.52.41,3.76,1.1s4,1.3,5.18,2c2.92,1.57,2.38,4,1.29,5-1.37,1.25-4.85,1.49-7.48-1.41l-2.07-2.32c-1.69-1.75-1.87-3.68-.69-4.32" style="fill:#85c4c7;fill-rule:evenodd"/><path d="M12.73,183.51c1.3-.71,2.52.41,3.76,1.1s4,1.3,5.18,2c2.92,1.57,2.38,4,1.29,5-1.37,1.25-4.85,1.49-7.48-1.41l-2.07-2.32c-1.69-1.75-1.87-3.68-.69-4.32" style="fill:#69cad1;fill-rule:evenodd"/><path d="M12.53,188c1.78-.42,2.88,1.52,3.27,2.64l1.78,4.29c.86,2.63-.52,4.3-2.29,4.72s-3.82-.49-4.17-3.2l-.33-4.63c-.42-1.78.47-3.52,1.74-3.82" style="fill:#85c4c7;fill-rule:evenodd"/><path d="M12.45,187.92c1.78-.42,2.88,1.52,3.27,2.64l1.78,4.29c.86,2.63-.52,4.3-2.29,4.72s-3.82-.49-4.17-3.2l-.33-4.63c-.42-1.78.46-3.52,1.74-3.82" style="fill:#69cad1;fill-rule:evenodd"/><path d="M10.25,187.23c1.56,1,1,3.1.47,4.17L9,195.71c-1.24,2.48-3.39,2.7-5,1.75s-2.37-3-.72-5.2l3-3.52c1-1.56,2.81-2.18,3.92-1.5" style="fill:#85c4c7;fill-rule:evenodd"/><path d="M10.18,187.16c1.56,1,1,3.1.47,4.17l-1.75,4.3c-1.24,2.48-3.39,2.7-5,1.75s-2.37-3-.72-5.2l3-3.52c1-1.56,2.81-2.18,3.92-1.5" style="fill:#69cad1;fill-rule:evenodd"/><path d="M10.61,183.52v.62c.53,1.39-2.15,3.08-3,3.52l-3.26,1.91c-2,1-3.53.05-4.06-1.33a2.73,2.73,0,0,1,2.12-3.71l3.7-.77c3.26-.64,3.62-2.69,4.52-.23" style="fill:#85c4c7;fill-rule:evenodd"/><path d="M10.54,183.44v.62c.53,1.39-2.15,3.08-3,3.52l-3.26,1.91c-2,1-3.53.05-4.06-1.33a2.73,2.73,0,0,1,2.12-3.71l3.7-.77c3.26-.64,3.62-2.69,4.52-.23" style="fill:#69cad1;fill-rule:evenodd"/><path d="M64.31,209.78a1.25,1.25,0,0,0,.22.15l-.22-.15" style="fill:#85c4c7;fill-rule:evenodd"/><path d="M64.24,209.71a1.3,1.3,0,0,0,.22.15l-.22-.15" style="fill:#85c4c7;fill-rule:evenodd"/><path d="M141.84,188.5c1.39,1.25,4.43,1.51,4.43,1.51-6.25-6.29-4-14.6-4-14.6a70.93,70.93,0,0,1,4.27,8.56c-.78-6.25-4.8-16.2-4.8-16.2a32.16,32.16,0,0,1,4.28,5.61,27.83,27.83,0,0,0-4.16-9.92,16.25,16.25,0,0,1,4.33-.84c-4.75-1.61-8.36-10.09-8.36-10.09,1.78,1.48,8.25,2.71,8.25,2.71-5.83-2.61-13.7-12.9-13.7-12.9a54.68,54.68,0,0,0,9.87,3.55c-4.63-1.82-15.31-12.28-15.31-12.28,3.63-.1,10.82,3.75,10.82,3.75-5.86-6.39-15.69-10.91-17.16-11.57,10.54.33,12.1-4,12.1-4-9.66,1.23-13.31-1.42-19.36-2.62a19.5,19.5,0,0,0,4-6.74c1.18-3,.43-8-2.65-11-2.46-2.39-9.64-4.24-13,.47-1.72,2.43-.42,6.24,2.49,6.76,1.55.28,3.41-1,2.83-2.73a2.86,2.86,0,0,0-.78-1.15,1.77,1.77,0,0,1,.18.93.9.9,0,0,1-.08.32.85.85,0,0,1-.26.29,1.42,1.42,0,0,1-1.36.18,1.27,1.27,0,0,1-.82-1.08,2.82,2.82,0,0,1,.3-1.21,2,2,0,0,1,2-.82c1.34.14,2.1,1.71,1.9,3-.64,4.4-5.41,5.49-7.65,6.46l-.62.25a23.33,23.33,0,0,0,.82-3.86c-2.76,6.37-7.62,6.6-7,6,2.62-2.62,1.91-6.64,1.91-6.64-3.88,7.26-10.74,6.45-10.74,6.45,4.89-5.1,4.27-8,4.27-8-7.43,8.92-14.71,10.52-14.71,10.52-4.41,1-10.25,2.84-10.25,2.84-11.36,7.4-21.32-1.92-21.32-1.92,2.65,8.95,9,10.49,9,10.49s-4.44,1.27-9.29,8.76c-3.87,6-6.44,10.57-6.44,10.57,1.15-.08,3.25-1.64,3.25-1.64-1.85,7.43-7,9.24-7,9.24.76,1.19,6.59-.78,7.6-1.14-.87.33-5.13,2.36-6.64,11-1.57,9-1,7-1,7a15.62,15.62,0,0,1,1.87-4.26l-.18,7.3c-.18,7.3-1.95,11-1.95,11,1.89-1.84,3.42-6.33,3.42-6.33C32.79,196.64,38,201.12,38,201.12c-.78-3.21-.2-4.7-.2-4.7.85,5,5.6,9.16,5.6,9.16-1.9-1.74-2.93-6-2.93-6a50.51,50.51,0,0,0,14.86,14c-1.28-1.39-3-6.37-3-6.37,1.7,3.24,8.71,8.14,10,9.06A17.91,17.91,0,0,1,60,212.95c4.33,3.91,16.21,8.11,16.21,8.11-1.1-1.07-2.55-2.85-2.55-2.85,1.51,1.78,12.75,3.8,11.53,3.55S80,219.12,80,219.12c2.93,1.4,10.28,2.07,10.28,2.07s14.71-.06,23.47-3.43,13.67-12,13.67-12c-1.3,6.43-6.38,12.07-6.38,12.07,6.95-4.66,14.24-16.92,14.24-16.92a51.28,51.28,0,0,1-1.77,8c3.75-4.29,4.48-12.34,4.48-12.34a6.52,6.52,0,0,1,2.25,2.32c.06-1.69-1.28-5.12-1.82-6.44,1.08,1.7,5.75,4.22,5.75,4.22-3-2.52-3.73-9.48-2.33-8.23" style="fill:#69cad1;fill-rule:evenodd"/><path d="M113.53,183a1.93,1.93,0,0,0-1-.41C109,182,99,184,90.16,184c-7.94,0-16.45-1.49-20.45-1.34a3.45,3.45,0,0,0-2.14.51c-1.95,1.95-.65,13.63,8.51,19.83a24,24,0,0,0,13.76,3.86,28.76,28.76,0,0,0,15-3.71c10-6,11.32-17.43,8.68-20.08" style="fill:#000006;fill-rule:evenodd"/><path d="M113.45,182.95a1.92,1.92,0,0,0-1-.41c-3.44-.59-13.52,1.34-22.32,1.34-7.94,0-16.45-1.49-20.45-1.34a3.45,3.45,0,0,0-2.15.51c-1.95,1.95-.65,13.63,8.51,19.83a24,24,0,0,0,13.76,3.86,28.77,28.77,0,0,0,15-3.71c10-6,11.32-17.43,8.68-20.08" style="fill:#000006;fill-rule:evenodd"/><path d="M91.35,199.21a25.16,25.16,0,0,1,13.5,3.89,28.76,28.76,0,0,1-15,3.71A24,24,0,0,1,76.08,203a37.71,37.71,0,0,1,15.28-3.75" style="fill:#d57481;fill-rule:evenodd"/><path d="M91.28,199.13a25.16,25.16,0,0,1,13.5,3.9,28.77,28.77,0,0,1-15,3.71A24,24,0,0,1,76,202.88a37.7,37.7,0,0,1,15.28-3.75" style="fill:#e86d7f;fill-rule:evenodd"/><path d="M112.48,182.61s-1.41,7-3.6,9.16c-1.31,1.31-8.37,2-17.78,2s-15.92-1.11-18.43-1.94-3-9.21-3-9.21c4-.14,12.51,1.34,20.45,1.34,8.8,0,18.88-1.93,22.32-1.34" style="fill:#fff;fill-rule:evenodd"/><path d="M112.41,182.53s-1.41,7-3.6,9.16c-1.31,1.31-8.37,2-17.78,2s-15.92-1.11-18.43-1.94-3-9.21-3-9.21c4-.14,12.51,1.34,20.45,1.34,8.8,0,18.88-1.93,22.32-1.34" style="fill:#fff;fill-rule:evenodd"/><path d="M89.83,207.44h0a24.69,24.69,0,0,1-14.11-4,22.22,22.22,0,0,1-9.5-15.86c-.22-2.35.1-4.15.89-4.94a3.81,3.81,0,0,1,2.57-.7,69.11,69.11,0,0,1,7.83.52c3.9.38,8.33.82,12.64.82s8.9-.46,12.95-.87c4.28-.43,7.65-.78,9.48-.46a2.44,2.44,0,0,1,1.39.59c1.13,1.13,1.61,3.48,1.26,6.26a20.5,20.5,0,0,1-10.06,14.8,29.48,29.48,0,0,1-15.34,3.8M70.29,183.23h-.56c-1.36,0-1.67.28-1.72.33-.41.41-.74,1.79-.53,3.93a21.25,21.25,0,0,0,9,14.94,23.47,23.47,0,0,0,13.41,3.75,28.24,28.24,0,0,0,14.7-3.62A19.52,19.52,0,0,0,114,188.69c.29-2.34-.07-4.38-.91-5.22a1.37,1.37,0,0,0-.71-.24c-1.67-.28-5.13.07-9.15.47s-8.7.88-13.07.88-8.83-.44-12.76-.83C74.55,183.47,72.05,183.23,70.29,183.23Z" style="fill:#5d939e;fill-rule:evenodd"/><path d="M86.71,152.37a15,15,0,1,1-15-15,15,15,0,0,1,15,15" style="fill:#d7d8e0;fill-rule:evenodd"/><path d="M86.63,152.29a15,15,0,1,1-15-15,15,15,0,0,1,15,15" style="fill:#d7d8e0;fill-rule:evenodd"/><path d="M72.34,162c12.7.63,14.63-11.23,15-12.71l-3.75-7.75-6.81-4.12H66.11s0-4.15-3.56,2S57.76,161.25,72.34,162" style="fill:#f7f9fc;fill-rule:evenodd"/><path d="M72.27,161.9c12.7.63,14.63-11.23,15-12.71l-3.75-7.75-6.81-4.12H66s0-4.15-3.56,2-4.79,21.88,9.79,22.61" style="fill:#f7f9fc;fill-rule:evenodd"/><path d="M71.74,148.07c-.16,0-.31,0-.46,0a3,3,0,0,1-4.08,4.19c0,.11,0,.22,0,.34a4.58,4.58,0,1,0,4.58-4.58" style="fill:#303434;fill-rule:evenodd"/><path d="M71.67,148a4.6,4.6,0,0,0-.46,0,3,3,0,0,1-4.08,4.19c0,.11,0,.22,0,.34A4.58,4.58,0,1,0,71.67,148" style="fill:#4a4a48;fill-rule:evenodd"/><path d="M71.74,137.4h0a15,15,0,1,1-15,15,15,15,0,0,1,15-15m0-3a18,18,0,1,0,18,18A18,18,0,0,0,71.74,134.4Z" style="fill:#5d939e;fill-rule:evenodd"/><path d="M71.67,137.33h0a15,15,0,1,1-15,15,15,15,0,0,1,15-15m0-3a18,18,0,1,0,18,18A18,18,0,0,0,71.67,134.33Z" style="fill:#1299ac;fill-rule:evenodd"/><path d="M84.32,144.28a14.94,14.94,0,0,0-25.16,0Z" style="fill:#85c4c7;fill-rule:evenodd"/><path d="M84.25,144.21a14.94,14.94,0,0,0-25.16,0Z" style="fill:#69cad1;fill-rule:evenodd"/><path d="M120.39,153a12.32,12.32,0,1,1-12.32-12.32A12.32,12.32,0,0,1,120.39,153" style="fill:#d7d8e0;fill-rule:evenodd"/><path d="M120.32,153A12.32,12.32,0,1,1,108,140.64,12.32,12.32,0,0,1,120.32,153" style="fill:#d7d8e0;fill-rule:evenodd"/><path d="M110.68,159.29c10.35-1.53,10-11.42,10.1-12.68L116.51,141l-6.16-2.23-8.65,1.73s-.7-3.35-2.55,2.16S98.8,161,110.68,159.29" style="fill:#f7f9fc;fill-rule:evenodd"/><path d="M110.61,159.21c10.35-1.53,10-11.42,10.1-12.68l-4.27-5.65-6.16-2.23-8.65,1.73s-.7-3.35-2.55,2.16-.34,18.43,11.54,16.67" style="fill:#f7f9fc;fill-rule:evenodd"/><path d="M108.08,147.81a3.55,3.55,0,0,1,.38,0,2.47,2.47,0,0,0-.38,1.31,2.48,2.48,0,0,0,3.74,2.15c0,.09,0,.18,0,.28a3.77,3.77,0,1,1-3.77-3.77" style="fill:#303434;fill-rule:evenodd"/><path d="M108,147.73a3.65,3.65,0,0,1,.38,0,2.48,2.48,0,0,0,3.36,3.45c0,.09,0,.18,0,.28a3.77,3.77,0,1,1-3.77-3.77" style="fill:#4a4a48;fill-rule:evenodd"/><path d="M108.08,140.72h0A12.32,12.32,0,1,1,95.76,153a12.32,12.32,0,0,1,12.32-12.32m0-3A15.31,15.31,0,1,0,123.39,153,15.33,15.33,0,0,0,108.08,137.72Z" style="fill:#5d939e;fill-rule:evenodd"/><path d="M108,140.64h0A12.32,12.32,0,1,1,95.69,153,12.32,12.32,0,0,1,108,140.64m0-3A15.31,15.31,0,1,0,123.32,153,15.33,15.33,0,0,0,108,137.64Z" style="fill:#1299ac;fill-rule:evenodd"/><path d="M117.62,145.25a12.31,12.31,0,0,0-19.09,0Z" style="fill:#85c4c7;fill-rule:evenodd"/><path d="M117.55,145.18a12.31,12.31,0,0,0-19.09,0Z" style="fill:#69cad1;fill-rule:evenodd"/><path d="M77.23,54.37q.5-1.42,1.55-1.49a10.19,10.19,0,0,0,4.9,7.37A7.41,7.41,0,0,1,83,56.88a10.42,10.42,0,0,0,8.45,3.55,12.15,12.15,0,0,1-7.78-8,8.73,8.73,0,0,0,1.75.81,23.5,23.5,0,0,1-1.84-6.61,3,3,0,0,0,2.29.63,10.84,10.84,0,0,1-.18-4.36,5.52,5.52,0,0,0,1.89.09c-.33-1.93-.27-3.16.63-4.38a5.16,5.16,0,0,1-2.06-1.37,3.63,3.63,0,0,1-1.93,1.45,4.48,4.48,0,0,1-.37-1.7,2.64,2.64,0,0,1-1.42,1.49,2.63,2.63,0,0,1-1.55-1,5.5,5.5,0,0,1-.87,2.38,4.78,4.78,0,0,1-1.69-.46,1.44,1.44,0,0,1-.56,0,45.06,45.06,0,0,0-3.41,4,8.58,8.58,0,0,0,2.27.37q-1.45,1.58-1.4,4.89a3.09,3.09,0,0,1,1.64-.51,13.83,13.83,0,0,0,.31,6.21" style="fill:#fff243;fill-rule:evenodd"/><path d="M77.9,53.32a2.7,2.7,0,0,0-.63,1.07l0,.13,0-.14a16.79,16.79,0,0,1-.52-3.29,11.66,11.66,0,0,1,.2-2.89,3.49,3.49,0,0,0-.82.14,2.75,2.75,0,0,0-.74.35l-.07,0v-.08a10,10,0,0,1,.33-2.89,5,5,0,0,1,1-2,8.83,8.83,0,0,1-1.07-.11,8.39,8.39,0,0,1-1.12-.26l-.06,0,0,0q.89-1.16,1.74-2.16t1.67-1.84l0,0h0a.94.94,0,0,0,.24,0l.31,0h0a3.72,3.72,0,0,0,.74.29,6.06,6.06,0,0,0,.9.17,4.75,4.75,0,0,0,.53-1.05,6.39,6.39,0,0,0,.31-1.29l0-.11.06.09a2.28,2.28,0,0,0,.63.61,3.05,3.05,0,0,0,.88.38,2,2,0,0,0,.76-.52,3.48,3.48,0,0,0,.62-.95l.07-.15V37a6.2,6.2,0,0,0,.12,1,3.22,3.22,0,0,0,.23.69,3.83,3.83,0,0,0,1.06-.55,3.49,3.49,0,0,0,.82-.87l0,0,0,0c.16.13.32.27.48.41a3.41,3.41,0,0,0,1.57,1h.06l0,.05a3.89,3.89,0,0,0-.76,1.9A8.62,8.62,0,0,0,87.68,43v0h0a3.88,3.88,0,0,1-.84,0,7.76,7.76,0,0,1-1-.12,10.32,10.32,0,0,0-.13,2.1,11.46,11.46,0,0,0,.31,2.2v0h0a3.32,3.32,0,0,1-1.25-.08,2.91,2.91,0,0,1-1-.49,21.7,21.7,0,0,0,.64,3.17,25.57,25.57,0,0,0,1.19,3.32l0,.09-.09,0a7.61,7.61,0,0,1-.86-.34q-.39-.18-.81-.42a11.79,11.79,0,0,0,2.78,4.73,13.47,13.47,0,0,0,4.94,3.14l.19.07h-.2a10.2,10.2,0,0,1-4.56-.76A11.53,11.53,0,0,1,83.09,57a6.54,6.54,0,0,0,.11,1.54,8.5,8.5,0,0,0,.52,1.72l.05.12-.11-.07a11.09,11.09,0,0,1-3.35-3.2,10.11,10.11,0,0,1-1.57-4.16,1.38,1.38,0,0,0-.85.4m-.66.91a2.65,2.65,0,0,1,.6-1,1.47,1.47,0,0,1,.94-.42h0v0A10,10,0,0,0,80.38,57a11,11,0,0,0,3.21,3.1,8.48,8.48,0,0,1-.48-1.61,6.6,6.6,0,0,1-.1-1.66v-.1l.07.07A11.49,11.49,0,0,0,87,59.63a10.05,10.05,0,0,0,4.32.76,13.46,13.46,0,0,1-4.78-3.09,11.89,11.89,0,0,1-2.83-4.87l0-.1.09.06a10.1,10.1,0,0,0,.9.47,7.5,7.5,0,0,0,.76.3,25.55,25.55,0,0,1-1.15-3.25,21.81,21.81,0,0,1-.66-3.29v-.1l.08.07a2.86,2.86,0,0,0,1,.54,3.2,3.2,0,0,0,1.17.09,11.53,11.53,0,0,1-.3-2.17,10.41,10.41,0,0,1,.13-2.16v0h0a7.85,7.85,0,0,0,1,.13,3.85,3.85,0,0,0,.78,0,8.6,8.6,0,0,1-.14-2.43,4,4,0,0,1,.74-1.89,3.57,3.57,0,0,1-1.54-1l-.44-.38a3.56,3.56,0,0,1-.81.85,3.92,3.92,0,0,1-1.12.58h0l0,0A3.22,3.22,0,0,1,84,38a6,6,0,0,1-.11-.81,3.43,3.43,0,0,1-.56.83,2.12,2.12,0,0,1-.81.55h0a3.16,3.16,0,0,1-.92-.4,2.39,2.39,0,0,1-.59-.55,6.33,6.33,0,0,1-.3,1.21,4.81,4.81,0,0,1-.55,1.09v0h0a6.16,6.16,0,0,1-.94-.17,3.85,3.85,0,0,1-.75-.29l-.31,0-.23,0q-.81.83-1.65,1.82t-1.7,2.11a8.42,8.42,0,0,0,1,.24,8.83,8.83,0,0,0,1.15.11h.09l-.06.07a4.87,4.87,0,0,0-1.07,2,9.85,9.85,0,0,0-.33,2.79,2.81,2.81,0,0,1,.7-.32,3.58,3.58,0,0,1,.9-.15H77v.05a11.55,11.55,0,0,0-.2,2.92A16.58,16.58,0,0,0,77.24,54.23Z" style="fill:#ce9fc4"/><path d="M85.17,205.43q-1.29.28-1.52-.74a4.5,4.5,0,0,1,3.86-2.38,14.63,14.63,0,0,1,2.59.1,3.85,3.85,0,0,1,.4,0s0,0,0,0,.19-.08.27-.05a.64.64,0,0,1,.23.2s0,0,0,0c.47.37.44.44.47.85a1.06,1.06,0,0,1-.81,1.35,12.92,12.92,0,0,1-3.69.18,2.31,2.31,0,0,1-1.89.47" style="fill:#f2d4d5;fill-rule:evenodd"/><path d="M84.17,205.34a1.54,1.54,0,0,0,1,0h0a3.06,3.06,0,0,0,1.07-.05,1.77,1.77,0,0,0,.78-.41h0a12.37,12.37,0,0,0,1.82,0,13.5,13.5,0,0,0,1.85-.22,1,1,0,0,0,.66-.45,1.27,1.27,0,0,0,.12-.85h0a1.24,1.24,0,0,0-.21-.58,2.29,2.29,0,0,0-.48-.52l-.09,0-.28,0a29.12,29.12,0,0,1-2.94-.07,5.53,5.53,0,0,0-2.35.74,4,4,0,0,0-1.47,1.61.92.92,0,0,0,.47.65m0,.08a1,1,0,0,1-.52-.73h0A4,4,0,0,1,85.12,203a5.61,5.61,0,0,1,2.39-.75h0a29.26,29.26,0,0,0,2.93.07l.26,0h.13a2.15,2.15,0,0,1,.54.51,1.63,1.63,0,0,1,.09,1.52,1.13,1.13,0,0,1-.71.49h0a13.57,13.57,0,0,1-1.87.22,12.49,12.49,0,0,1-1.81,0,1.85,1.85,0,0,1-.81.42,3.15,3.15,0,0,1-1.09.05" style="fill:#f2d4d5"/></svg>