<svg id="dd3cfea1-f277-4402-b2de-5ed76006be8a" data-name="Layer 1" xmlns="http://www.w3.org/2000/svg"
     viewBox="0 0 193.29 82.83">
    <title>Boobon smile</title>
    <path d="M24.43,25c0,5.83-4.75,9.63-10.62,9.63H0V1.7H12.87c5.73,0,10.38,3.71,10.38,9.4a8.23,8.23,0,0,1-2.87,6.44A8.49,8.49,0,0,1,24.43,25ZM7.52,8.75v5.83h5.36a2.77,2.77,0,0,0,2.87-2.91,2.75,2.75,0,0,0-2.87-2.91Zm9.4,15.64a3,3,0,0,0-3.1-3.15H7.52v6.3h6.3A3,3,0,0,0,16.91,24.39Z"
          fill="currentColor"/>
    <path d="M26.78,18.14a17.1,17.1,0,1,1,34.2,0,17.1,17.1,0,1,1-34.2,0Zm26.69,0a9.35,9.35,0,0,0-9.58-9.77,9.35,9.35,0,0,0-9.58,9.77,9.35,9.35,0,0,0,9.58,9.77A9.35,9.35,0,0,0,53.47,18.14Z"
          fill="currentColor"/>
    <path d="M63.8,18.14a17.1,17.1,0,1,1,34.2,0,17.1,17.1,0,1,1-34.2,0Zm26.69,0a9.59,9.59,0,1,0-19.17,0,9.59,9.59,0,1,0,19.17,0Z"
          fill="currentColor"/>
    <path d="M126.67,25c0,5.83-4.75,9.63-10.62,9.63H102.23V1.7h12.87c5.73,0,10.38,3.71,10.38,9.4a8.23,8.23,0,0,1-2.87,6.44A8.49,8.49,0,0,1,126.67,25ZM109.75,8.75v5.83h5.36A2.78,2.78,0,0,0,118,11.66a2.75,2.75,0,0,0-2.87-2.91Zm9.4,15.64a3,3,0,0,0-3.1-3.15h-6.3v6.3H116A3,3,0,0,0,119.15,24.39Z"
          fill="currentColor"/>
    <path d="M129,18.14a17.1,17.1,0,0,1,34.2,0,17.1,17.1,0,1,1-34.2,0Zm26.69,0a9.59,9.59,0,1,0-19.17,0,9.59,9.59,0,1,0,19.17,0Z"
          fill="currentColor"/>
    <path d="M193.29,1.7V34.59h-5.64L175,16.73V34.59h-7.52V1.7h5.64l12.68,17.85V1.7Z" fill="currentColor"/>
    <path d="M52.84,64.66c1.06.54,2,1.12,3.08,1.55a7.21,7.21,0,0,0,4.73.45A2,2,0,0,0,62,65.74a1.57,1.57,0,0,0-.63-2.26,19.65,19.65,0,0,0-2.83-1c-1.14-.37-2.34-.59-3.43-1.06-2.71-1.18-3.82-3.41-3.78-6.28a6.7,6.7,0,0,1,5.05-6.46,14.92,14.92,0,0,1,10.45.89l.23.12c.71.41.8.54.5,1.31-.44,1.11-1,2.19-1.45,3.29-.15.32-.34.37-.69.21a11.4,11.4,0,0,0-6.23-1.2,3.39,3.39,0,0,0-1.25.44,1.51,1.51,0,0,0,.1,2.68c.75.33,1.55.54,2.33.8a44.94,44.94,0,0,1,4.47,1.51,5.9,5.9,0,0,1,3.65,5.84,6.53,6.53,0,0,1-3.67,5.91,11.27,11.27,0,0,1-5.88,1.23A15.48,15.48,0,0,1,52,69.87c-1-.51-1-.53-.67-1.58s.74-2,1.14-3A4.75,4.75,0,0,1,52.84,64.66Z"
          style="fill:#ffec13"/>
    <path d="M85,63.49c.5-1.93,1-3.86,1.5-5.77.82-2.87,1.7-5.72,2.54-8.58a1.21,1.21,0,0,1,1.28-1l4.43,0c.32,0,.4.16.44.43.36,2.18.75,4.36,1.09,6.55q.78,5,1.5,10c.27,1.82.49,3.64.75,5.46a.46.46,0,0,1-.36.58,16.33,16.33,0,0,1-4.84.62c-.12,0-.34-.23-.36-.37q-.49-3.63-.93-7.26c-.26-2.18-.5-4.37-.75-6.55a2.18,2.18,0,0,0-.13-.35c-.17.62-.3,1.13-.44,1.64-1.11,4-2.22,8-3.31,11.95-.14.5-.36.72-.87.71-1.24,0-2.47,0-3.71-.05-.33,0-.43-.22-.5-.48-.62-2.29-1.25-4.57-1.85-6.86s-1.1-4.36-1.64-6.54a.44.44,0,0,0-.2-.29c-.11.78-.22,1.55-.33,2.33-.54,3.83-1.09,7.65-1.63,11.48-.05.37-.19.51-.56.47L71.64,71c-.43-.05-.58-.25-.49-.73Q73,59.94,74.72,49.58c0-.12.06-.23.08-.35.23-1.08.28-1.16,1.41-1.2s2.54,0,3.81,0a.59.59,0,0,1,.63.48c.52,1.67,1.11,3.32,1.57,5,.88,3.21,1.69,6.44,2.53,9.66a3.13,3.13,0,0,0,.14.36Z"
          style="fill:#ffec13"/>
    <path d="M108.81,70.72a.6.6,0,0,1-.62.7,21.22,21.22,0,0,1-5,0c-.34,0-.3-.26-.3-.48,0-1.72-.09-3.44-.09-5.16q0-7,0-14c0-1,.07-2,.08-3,0-.3.11-.45.41-.46,1.73,0,3.46,0,5.19,0,.11,0,.29.19.3.31a8,8,0,0,1,.08,1.18q0,5.11,0,10.21S108.87,67.11,108.81,70.72Z"
          style="fill:#ffec13"/>
    <path d="M119.42,66.22h6.28c.81,0,1.62,0,2.42,0,.3,0,.45.09.45.4q0,2.19.11,4.37c0,.31-.11.44-.42.43s-.41,0-.62,0L114,71.43c-.12,0-.23,0-.38,0,0-.26,0-.49,0-.73q0-9.59,0-19.19c0-.88.06-1.75.08-2.63,0-.31.12-.48.45-.49,1.68,0,3.37-.1,5-.12.11,0,.32.24.33.38,0,.67,0,1.34,0,2q-.08,7.71-.16,15.42C119.42,66.1,119.42,66.17,119.42,66.22Z"
          style="fill:#ffec13"/>
    <path d="M132.35,71.41c-.13-7.74,0-15.4.2-23.09.79,0,1.51-.09,2.23-.1,4.3,0,8.6,0,12.89-.06.47,0,.64.16.64.61,0,1.47,0,2.94,0,4.48H138.13v4h.61l6.39.11c.72,0,.79,0,.81.75,0,1.35,0,2.71,0,4.14h-7.79v4.19h9.67a21.22,21.22,0,0,1,0,5C142.72,71.58,137.59,71.6,132.35,71.41Z"
          style="fill:#ffec13"/>
    <path d="M104.16,49.26h2.26s1.3-.26,1.3,1.73v8.1s-.58.51-.58-1.24.17-7.31-.62-7.55S103.75,50.12,104.16,49.26Z"
          style="fill:#fff;opacity:0.7000000000000001"/>
    <path d="M90.9,48.95h2.42s1.2-.15,1.52,1.81,1.1,9,1.1,9-.72.45-.83-1.29-.95-8.31-1.75-8.5S90.55,49.84,90.9,48.95Z"
          style="fill:#fff;opacity:0.7000000000000001"/>
    <path d="M76.58,49.25H79s.8,0,1.52,1.81c.85,2.23,2.69,9,2.69,9s-.7.21-1.07-1.5c-.41-1.89-2.3-8.11-3.1-8.29S76.23,50.14,76.58,49.25Z"
          style="fill:#fff;opacity:0.7000000000000001"/>
    <path d="M115.24,49h2.26s1.3-.26,1.3,1.73v8.1s-.58.51-.58-1.24.17-7.31-.62-7.55S114.83,49.87,115.24,49Z"
          style="fill:#fff;opacity:0.7000000000000001"/>
    <path d="M66.23,50.35s-8.26-3.11-12.44.57c0,0-.42,1.3,1.36,0s6.11-1.49,8-.79S66.4,51.65,66.23,50.35Z"
          style="fill:#fff;opacity:0.7000000000000001"/>
    <path d="M147.64,52.32V49.64s.06-.94-1.19-.91-12.44,0-12.44,0-.09.59,1,.59,11-.19,11.34.38S146.39,52.39,147.64,52.32Z"
          style="fill:#fff;opacity:0.7000000000000001"/>
    <path d="M145.31,61V58.8s.05-.77-1-.74-5.19,0-5.19,0-.08.49.79.49,4-.15,4.29.31S144.28,61.06,145.31,61Z"
          style="fill:#fff;opacity:0.7000000000000001"/>
</svg>