<svg version="1.1"
	 xmlns="http://www.w3.org/2000/svg" xmlns:xlink="http://www.w3.org/1999/xlink"
	 x="0px" y="0px" width="84px" height="73.5px" viewBox="0 0 84 73.5" style="enable-background:new 0 0 84 73.5;"
	 xml:space="preserve">
    <path fill="#fff" d="M84,23.3c-0.1,0.2-0.2,0.5-0.3,0.7c-3.3,10-6.7,20-10,30.1C73.1,55.8,72.8,56,71,56c-13.8,0-27.6,0-41.3,0
                c-0.3,0-0.6,0-1.1,0c0.3,1.2,0.6,2.4,0.8,3.5c0.3,0,0.6,0,0.8,0c11.6,0,23.3,0,34.9,0c0.7,0,1.5,0,2.2,0c3.6,0.4,6.3,3.6,6.1,7.4
                c-0.2,3.7-3.3,6.6-7.1,6.6c-3.6,0-6.8-3-6.9-6.6c0-1.3,0.4-2.6,0.5-3.9c-8.5,0-17.2,0-25.9,0c1.7,4.4,0.4,8.2-3.4,9.9
                c-3.4,1.5-7.5,0-9.1-3.4c-1.4-2.9-0.8-7.7,4.2-9.8C21.4,41,17,22.3,12.6,3.5c-0.4,0-0.7,0-1,0c-3.2,0-6.4,0-9.6,0
                C0.8,3.5,0,2.8,0,1.8C0,0.7,0.8,0,2.1,0C6,0,9.8,0,13.7,0c1.3,0,1.8,0.4,2.1,1.7c1.1,4.6,2.2,9.2,3.3,13.8
                c0.4,1.8,0.9,3.7,1.3,5.5c0.4,0,0.7,0,1,0c20.1,0,40.1,0,60.2,0c1.1,0,1.8,0.3,2.4,1.2C84,22.5,84,22.9,84,23.3z M27.7,52.5
                c14.3,0,28.5,0,42.8,0c3.1-9.3,6.2-18.6,9.3-27.9c-19.6,0-39.1,0-58.6,0C23.4,33.9,25.5,43.2,27.7,52.5z M24.5,66.5
                c0,1.9,1.6,3.5,3.5,3.5c1.9,0,3.5-1.6,3.5-3.6c0-1.9-1.6-3.4-3.5-3.4C26,63,24.5,64.6,24.5,66.5z M63,66.5c0,1.9,1.6,3.5,3.5,3.5
                c1.9,0,3.6-1.6,3.5-3.6c0-1.9-1.6-3.5-3.5-3.4C64.5,63,63,64.6,63,66.5z"/>
</svg>
