<svg version="1.1"
	 xmlns="http://www.w3.org/2000/svg" xmlns:xlink="http://www.w3.org/1999/xlink"
	 x="0px" y="0px" width="85.6px" height="82.1px" viewBox="0 0 85.6 82.1" style="enable-background:new 0 0 85.6 82.1;"
	 xml:space="preserve">
	<path fill="#fff" d="M0,76.1c0-1.2,0-2.3,0-3.5c0.1-0.2,0.2-0.4,0.3-0.7c2.2-7.7,4.4-15.4,6.6-23c0.2-0.6,0.3-1.3,0.3-2
				c0-13.1,0-26.2,0-39.3c0-4.5,3-7.6,7.5-7.6c18.8,0,37.6,0,56.4,0c0.7,0,1.3,0.1,2,0.2c3.3,0.8,5.5,3.6,5.5,7.2
				c0,12.6,0,25.3,0,37.9c0,0.5,0.1,1.1,0.2,1.6c1.9,7.2,3.8,14.5,5.7,21.7c0.5,1.9,1.1,3.8,1.1,5.8c0.2,4.7-2.9,7.7-7.6,7.7
				c-23.3,0-46.5,0-69.8,0C3.6,82.1,1.4,80.5,0,76.1C0.1,76.1,0,76.1,0,76.1z M81.5,71.4c-1.9-7.1-3.8-14.2-5.6-21.3
				c-21.9,0-43.7,0-65.6,0c-2,7.1-4.1,14.2-6.1,21.3C30,71.4,55.7,71.4,81.5,71.4z M10.7,46.4c21.5,0,42.9,0,64.3,0
				c0-0.3,0-0.6,0-0.8c0-12.7,0-25.4,0-38.1c0-2.4-1.4-3.9-3.9-3.9c-18.8,0-37.6,0-56.4,0c-2.6,0-4,1.4-4,4c0,12.6,0,25.1,0,37.7
				C10.7,45.7,10.7,46,10.7,46.4z M3.6,75c0.1,2.3,1.6,3.5,4,3.5c23.5,0,46.9,0,70.4,0c0.4,0,0.9,0,1.3-0.1c1.6-0.3,2.7-1.8,2.6-3.4
				C55.9,75,29.8,75,3.6,75z"/>
	<path fill="#fff" d="M59.4,67.8c-11.1,0-22,0-33.1,0c0.5-2.1,1-4,1.5-6c0.3-1.3,0.7-2.6,1-4c0.1-0.5,0.3-0.7,0.8-0.7
		c8.8,0,17.7,0,26.5,0c0.2,0,0.7,0.2,0.7,0.4C57.7,60.9,58.5,64.3,59.4,67.8z M30.9,64.2c8,0,15.9,0,23.9,0c-0.3-1-0.5-1.9-0.7-2.9
		c-0.1-0.6-0.4-0.6-0.9-0.6c-1.4,0-2.7,0-4.1,0c-5.5,0-11.1,0-16.6,0c-0.3,0-0.8,0.1-0.8,0.3C31.4,62,31.1,63.1,30.9,64.2z"/>
	<path fill="#fff" d="M71.3,42.8c-19,0-38,0-57,0c0-11.9,0-23.7,0-35.6c19,0,38,0,57,0C71.3,19,71.3,30.9,71.3,42.8z M17.9,39.2
		c16.7,0,33.2,0,49.8,0c0-9.5,0-19,0-28.4c-16.6,0-33.2,0-49.8,0C17.9,20.3,17.9,29.7,17.9,39.2z"/>
</svg>
