<svg version="1.1"
  xmlns="http://www.w3.org/2000/svg" xmlns:xlink="http://www.w3.org/1999/xlink" xmlns:a="http://ns.adobe.com/AdobeSVGViewerExtensions/3.0/"
  x="0px" y="0px" width="82.158px" height="64.858px" viewBox="0 0 82.158 64.858"
  style="enable-background:new 0 0 82.158 64.858;" xml:space="preserve">
	<g>
	 <path fill="#FFFFFF" d="M4.491,36.863c0-0.603,0-1.108,0-1.612C4.489,26.628,4.489,18.005,4.487,9.382
	  C4.486,7.473,4.96,6.997,6.861,6.998c5.481,0.003,10.963,0.016,16.444-0.009c0.879-0.004,1.493,0.286,2.064,0.961
	  c5.925,6.994,11.885,13.958,17.806,20.956c0.532,0.628,1.064,0.891,1.877,0.84c1.114-0.07,2.236-0.017,3.512-0.017
	  c0-0.416,0-0.784,0-1.151c0-8.751-0.001-17.502,0.001-26.253c0-1.826,0.499-2.321,2.357-2.322c7.309-0.003,14.617-0.003,21.926,0
	  c1.729,0.001,2.239,0.513,2.24,2.227c0.001,6.539,0.001,13.078,0.001,19.618c0,0.408,0,0.816,0,1.326
	  c1.735,0,3.361-0.006,4.987,0.002c1.265,0.006,2.079,0.65,2.083,1.63c0.004,0.997-0.792,1.646-2.066,1.646
	  c-8.879,0.004-17.759,0.002-26.638,0.003c-0.442,0-0.883,0-1.44,0c0,0.535,0,0.974,0,1.412c0,9.52,0,19.041,0,28.561
	  c0,1.8-0.474,2.273-2.276,2.28c-0.16,0.001-0.324,0.023-0.48-0.004c-0.899-0.151-1.299,0.209-1.608,1.102
	  c-1.069,3.087-4.099,5.107-7.344,5.051c-3.366-0.058-6.277-2.109-7.3-5.258c-0.237-0.729-0.55-0.911-1.269-0.904
	  c-3.365,0.036-6.732,0.032-10.097-0.003c-0.65-0.007-0.937,0.196-1.168,0.81c-1.227,3.262-4.302,5.37-7.706,5.353
	  c-3.464-0.018-6.442-2.078-7.678-5.383c-0.218-0.583-0.482-0.81-1.094-0.774c-0.766,0.045-1.539,0.036-2.307-0.004
	  c-1.074-0.055-1.673-0.639-1.675-1.705c-0.016-6.122-0.016-12.245-0.002-18.367c0.003-1.157,0.634-1.734,1.82-1.756
	  C2.663,36.85,3.496,36.863,4.491,36.863z M7.845,10.291c0,8.872,0,17.694,0,26.578c2.729,0,5.427,0,8.208,0
	  c0-0.383,0-0.697,0-1.011c0.001-2.949-0.003-5.898,0.006-8.846c0.004-1.27,0.652-2.053,1.661-2.051
	  c1.019,0.003,1.618,0.751,1.622,2.063c0.007,2.885,0.003,5.769,0.003,8.654c0,0.373,0,0.747,0,1.184
	  c1.448,0,2.769-0.094,4.066,0.041c0.622,0.065,1.362,0.422,1.765,0.891c1.062,1.236,1.997,2.585,2.925,3.929
	  c0.406,0.588,0.849,0.825,1.579,0.818c3.686-0.039,7.372-0.018,11.058-0.023c0.272,0,0.544-0.047,0.868-0.076
	  c0-3.441,0.01-6.803-0.018-10.164c-0.002-0.276-0.216-0.59-0.41-0.818c-5.888-6.898-11.784-13.79-17.694-20.669
	  c-0.203-0.236-0.565-0.476-0.854-0.478C17.726,10.283,12.823,10.291,7.845,10.291z M44.882,33.065c0,3.666,0.003,7.223-0.002,10.78
	  c-0.002,1.466-0.575,2.05-2.025,2.052c-4.84,0.005-9.679-0.011-14.519,0.015c-0.892,0.005-1.521-0.313-2.03-1.028
	  c-0.947-1.331-1.95-2.623-2.892-3.957c-0.347-0.492-0.725-0.704-1.346-0.701c-5.929,0.024-11.859,0.015-17.788,0.02
	  c-0.307,0-0.613,0.04-0.928,0.062c0,5.073,0,10.056,0,15.019c0.854,0.232,1.227-0.013,1.46-0.863
	  c0.996-3.634,4.27-6.07,7.971-6.036c3.738,0.034,6.913,2.553,7.905,6.265c0.063,0.236,0.167,0.461,0.238,0.656
	  c0.134,0.025,0.197,0.047,0.259,0.047c3.494,0.004,6.987-0.018,10.48,0.027c0.736,0.01,1.038-0.21,1.269-0.912
	  c1.032-3.138,3.833-5.146,7.197-5.252c3.196-0.101,6.19,1.863,7.4,4.861c0.119,0.296,0.158,0.629,0.307,0.906
	  c0.086,0.16,0.319,0.336,0.48,0.331c0.123-0.004,0.282-0.266,0.343-0.442c0.06-0.172,0.016-0.38,0.016-0.573
	  c-0.001-6.763-0.002-13.526-0.004-20.288c0-0.312,0-0.625,0-0.99C47.378,33.065,46.179,33.065,44.882,33.065z M71.804,23.026
	  c0-6.648,0-13.195,0-19.771c-1.568,0-3.058,0-4.656,0c0,1.71,0.015,3.367-0.005,5.025c-0.016,1.388-0.622,1.993-2.005,2.003
	  c-2.083,0.015-4.166,0.009-6.25,0.002c-1.528-0.005-2.088-0.567-2.093-2.086c-0.005-1.594-0.001-3.188-0.001-4.823
	  c-1.653,0-3.199,0-4.755,0c0,6.59,0,13.106,0,19.65C58.649,23.026,65.18,23.026,71.804,23.026z M7.888,56.69
	  c0.019,2.707,2.204,4.875,4.901,4.866c2.742-0.01,4.96-2.236,4.938-4.954c-0.022-2.649-2.277-4.886-4.93-4.889
	  C10.079,51.708,7.868,53.95,7.888,56.69z M35.796,57.061c0.002,2.5,2.028,4.51,4.522,4.489c2.491-0.021,4.524-2.079,4.489-4.544
	  c-0.035-2.436-2.056-4.435-4.498-4.447C37.82,52.545,35.794,54.567,35.796,57.061z M60.048,6.94c1.294,0,2.456,0,3.643,0
	  c0-1.257,0-2.451,0-3.661c-1.247,0-2.435,0-3.643,0C60.048,4.527,60.048,5.698,60.048,6.94z"/>
	</g>
</svg>