<svg version="1.1"
	 xmlns="http://www.w3.org/2000/svg" xmlns:xlink="http://www.w3.org/1999/xlink"
	 x="0px" y="0px" width="77.9px" height="77.9px" viewBox="0 0 77.9 77.9" style="enable-background:new 0 0 77.9 77.9;"
	 xml:space="preserve">
    <path fill="#fff" stroke="#501B7D" stroke-miterlimit="10" d="M39,77.2c-3.9-3.9-7.8-7.8-11.7-11.6c1.1-1.1,2.2-2.2,3.5-3.5c1.8,1.8,3.6,3.7,5.5,5.6c0-5.4,0-10.8,0-16.3
        c-3.3,0-6.6,0-9.9,0c0-3.4,0-6.6,0-10c-5.5,0-10.8,0-16.3,0c1.9,1.9,3.8,3.7,5.6,5.5c-1.2,1.2-2.4,2.4-3.5,3.5
        C8.4,46.6,4.5,42.8,0.7,39c3.8-3.8,7.7-7.7,11.6-11.6c1,1,2.2,2.2,3.3,3.4c-1.8,1.7-3.6,3.6-5.6,5.6c5.6,0,10.9,0,16.4,0
        c0-3.3,0-6.5,0-9.9c3.4,0,6.6,0,10,0c0-5.5,0-10.9,0-16.2c-1.8,1.8-3.7,3.7-5.4,5.5c-1.3-1.3-2.4-2.4-3.5-3.5
        c3.8-3.8,7.6-7.6,11.4-11.4c3.8,3.7,7.8,7.6,11.7,11.4c-1.2,1.2-2.3,2.3-3.5,3.5c-1.8-1.8-3.6-3.7-5.6-5.6c0,5.5,0,10.9,0,16.3
        c3.3,0,6.6,0,9.9,0c0,3.4,0,6.6,0,10c5.5,0,10.9,0,16.4,0c-1.9-1.9-3.7-3.7-5.5-5.5c1.3-1.3,2.4-2.4,3.5-3.5
        c3.8,3.8,7.6,7.7,11.4,11.4c-3.8,3.9-7.6,7.8-11.4,11.7c-1.2-1.2-2.3-2.3-3.5-3.4c1.8-1.8,3.7-3.6,5.6-5.6c-5.6,0-11,0-16.4,0
        c0,3.3,0,6.5,0,9.9c-3.4,0-6.6,0-10,0c0,5.5,0,10.9,0,16.2c1.8-1.8,3.6-3.6,5.3-5.4c1.3,1.4,2.5,2.5,3.6,3.6
        C46.7,69.5,42.8,73.4,39,77.2z M31.5,46.4c5,0,9.9,0,14.9,0c0-5,0-10,0-14.9c-5,0-9.9,0-14.9,0C31.5,36.5,31.5,41.4,31.5,46.4z"/>
</svg>
