<svg version="1.1"
	 xmlns="http://www.w3.org/2000/svg" xmlns:xlink="http://www.w3.org/1999/xlink"
	 x="0px" y="0px" width="67.6px" height="75.9px" viewBox="0 0 67.6 75.9" style="enable-background:new 0 0 67.6 75.9;"
	 xml:space="preserve">
	<path fill="#fff" d="M17.9,30.1c0-0.4,0-0.8,0-1.1c0-7.2,0-14.5,0-21.7c0-4,3.1-7.3,7.1-7.4c4.1-0.1,7.5,3.1,7.5,7.2
		c0,4.5,0,9,0,13.5c0,0.3,0,0.7,0,1.1c2.1-1.3,4.2-1.8,6.5-1.1c2.3,0.7,3.8,2.2,4.7,4.3c3.8-2.2,4.8-2.3,9.2-0.4c0-2.9,0-5.8,0-8.7
		c0-3.2,2.1-6,5.2-6.9c4.6-1.4,9.3,2,9.3,6.8c0,12,0.1,24,0,36c-0.1,11.6-9.2,22-20.6,23.6c-11.3,1.6-20.1-2.7-26.7-11.6
		C19.4,63,18.8,62,18.2,61C14.5,54.1,10,47.7,5.8,41.2c-1.8-2.8-3.4-5.7-4.9-8.6c-0.8-1.6-1.2-3.5-0.6-5.3c0.9-3,3.9-4.4,7.3-3.6
		c2.3,0.6,4.4,1.8,6.3,3.3C15.2,27.9,16.5,29,17.9,30.1z M20.8,37.2c-2.1-2-4.1-4-6.1-5.8c-2.1-1.9-4.3-3.6-6.9-4.6
		c-1.4-0.5-2.8-0.8-4,0.4c-1.2,1.2-0.9,2.6-0.3,3.9c1,2.1,2,4.2,3.2,6.1c4.7,7.6,9.6,15.2,14.4,22.7c0.9,1.4,1.8,2.7,2.9,4
		C29.6,70.9,37,74,46,72.7C57,71.1,64.6,62,64.6,50.9c0-11.5,0-23,0-34.5c0-0.4,0-0.8-0.1-1.2c-0.5-2.2-2.5-3.7-4.8-3.5
		c-2.2,0.2-3.9,2.1-3.9,4.4c0,6,0,11.9,0,17.9c0,0.3,0,0.6,0,1c-1,0-1.9,0-2.9,0c0-1.4,0-2.8,0-4.2c0-2.6-1.9-4.5-4.4-4.5
		c-2.5,0-4.4,1.9-4.4,4.5c0,0.4,0,0.8,0,1.3c-1,0-1.9,0-2.9,0c0-1.4,0-2.8,0-4.2c0-2.5-1.9-4.4-4.3-4.5c-2.5,0-4.4,1.9-4.4,4.5
		c0,2.1,0,4.2,0,6.3c0,0.3,0,0.6,0,0.9c-1,0-1.9,0-2.9,0c0-2.1,0-4.2,0-6.2c0-7.1,0-14.2,0-21.3c0-2.1-1.2-3.8-3.1-4.4
		c-2.9-0.9-5.7,1.2-5.7,4.4c0,9.6,0,19.1,0,28.7C20.8,36.5,20.8,36.8,20.8,37.2z"/>
</svg>
