<svg id="fae27425-fcf5-4e08-bd8e-1a20ad5b0ae6" data-name="Слой 1" xmlns="http://www.w3.org/2000/svg" viewBox="0 0 61.33 61.33">
  <title>soc</title>
  <g>
    <circle cx="30.67" cy="30.67" r="30.67" style="fill: #fff"/>
    <path d="M27.33,29.67H24.84V25.81H27c0.32,0,.33,0,0.33-0.34,0-1,0-2,0-3a4,4,0,0,1,1-2.8A4.51,4.51,0,0,1,31,18.36a9.09,9.09,0,0,1,1.42-.13c1.27,0,2.54,0,3.82,0,0.16,0,.26,0,0.25.22,0,1.22,0,2.44,0,3.66a1.09,1.09,0,0,1,0,.12H33.74a1.11,1.11,0,0,0-1,.45,1.17,1.17,0,0,0-.22.58c0,0.76,0,1.53,0,2.29,0,0.22.11,0.26,0.3,0.26H36.5l-0.28,2.32c-0.05.44-.12,0.89-0.16,1.33a0.19,0.19,0,0,1-.24.22h-3.3V41.09l-0.31,0H27.67c-0.31,0-.35,0-0.35-0.36q0-5.4,0-10.79C27.33,29.88,27.33,29.79,27.33,29.67Z" style="fill: #092444"/>
  </g>
</svg>
