<svg id="59b721ea-0233-4e87-9331-571969f0ee52" data-name="Слой 1" xmlns="http://www.w3.org/2000/svg" viewBox="0 0 61.33 61.33">
  <title>soc</title>
  <g>
    <circle cx="30.67" cy="30.67" r="30.67" style="fill: #fff"/>
    <path d="M45,28.49v4.31c0,0.11,0,.23,0,0.34-0.06,1-.1,2.09-0.17,3.13a3.87,3.87,0,0,1-3.56,3.55c-2.84.11-5.68,0.21-8.53,0.2-3.66,0-7.31-.09-11-0.19a3.83,3.83,0,0,1-3.69-3.22,17.62,17.62,0,0,1-.16-1.9c0-.62-0.07-1.23-0.11-1.85V28.49c0-.1,0-0.21,0-0.31q0.07-1.41.14-2.81a4,4,0,0,1,1.54-3,4.37,4.37,0,0,1,2.79-.84c3.09,0,6.18-.16,9.27-0.15s6.41,0.09,9.62.2a3.76,3.76,0,0,1,3.49,2.93,15.79,15.79,0,0,1,.22,2.21C45,27.27,45,27.88,45,28.49ZM28,24.73V36.61l8.49-5.94Z" style="fill: #092444"/>
  </g>
</svg>
