<svg id="c9c3eec5-8290-4bb8-9152-45f1a63971b6" data-name="Слой 1" xmlns="http://www.w3.org/2000/svg" viewBox="0 0 135.88 70.26">
  <title>Visa</title>
  <rect width="135.88" height="70.26" rx="5.84" ry="5.84" fill="#fff"/>
  <g>
    <path d="M40.29,58a91.59,91.59,0,0,1,57-5.72l.26-6.3c-26.21-2.86-45,5.49-57.24,11.4V58Z" fill="#f79510" fill-rule="evenodd"/>
    <polygon points="54.28 41.42 60.07 22.32 65.24 22.32 59.45 41.42 54.28 41.42 54.28 41.42" fill="#2b3894" fill-rule="evenodd"/>
    <path d="M52,22.32l-4.65,8.1A19.61,19.61,0,0,0,45.1,35H45c.08-1.7-.15-3.79-.18-5l-.51-7.67h-8.7l-.09.51a3.61,3.61,0,0,1,3.93,3.42l1.7,15.17h5.36l10.83-19.1Z" fill="#2b3894" fill-rule="evenodd"/>
    <path d="M92.17,41.42,92,38.58H85.57l-1.32,2.85H78.64L88.82,22.35h6.89l1.72,19.07Zm-.59-11.27a43.82,43.82,0,0,1,0-4.49h-.08c-.31.95-1.67,3.8-2.26,5.2l-1.92,4.19h4.53l-.26-4.9Z" fill="#2b3894" fill-rule="evenodd"/>
    <path d="M70.67,42a14.46,14.46,0,0,1-7.8-2.19L65.33,36c1.55.87,2.77,1.87,5.58,1.87a2.4,2.4,0,0,0,2.26-1.09c.72-1.24-.17-1.91-2.19-3.05l-1-.65c-3-2-4.29-4-2.88-7.38.9-2.17,3.28-3.81,7.2-3.81A11.58,11.58,0,0,1,81,24.21L78.2,27.53a6.29,6.29,0,0,0-4-1.76,2.41,2.41,0,0,0-2.21,1c-.54,1.07.17,1.79,1.75,2.77l1.19.75c3.64,2.29,4.5,4.7,3.59,6.94C76.95,41.1,73.88,42,70.67,42Z" fill="#2b3894" fill-rule="evenodd"/>
    <path d="M98.85,25.27h-.34V23.2h.79c.5,0,.76.18.76.6a.53.53,0,0,1-.54.57l.58.91H99.7l-.54-.89h-.32v.89Zm.38-1.18c.26,0,.48,0,.48-.33s-.25-.28-.45-.28h-.41v.61Zm0,2A1.87,1.87,0,1,1,101,24.2a1.8,1.8,0,0,1-1.83,1.87Zm0-3.42a1.55,1.55,0,1,0,1.43,1.55,1.45,1.45,0,0,0-1.43-1.55Z" fill="#2b3894" fill-rule="evenodd"/>
  </g>
</svg>
