<svg id="03b3bae5-87d2-41c4-a859-f4dcfb344f1f" data-name="Слой 1" xmlns="http://www.w3.org/2000/svg" viewBox="0 0 61.33 61.33">
  <title>soc</title>
  <g>
    <circle cx="30.67" cy="30.67" r="30.67" style="fill: #fff"/>
    <g>
      <path d="M31.37,19.52H36a6.52,6.52,0,0,1,4,1.23,6.07,6.07,0,0,1,2.47,4.63c0.06,0.83,0,1.67,0,2.51q0,3.65,0,7.29a7.24,7.24,0,0,1-.59,3.08,5.89,5.89,0,0,1-4.63,3.44,7.42,7.42,0,0,1-1.26.11H26.68a6.47,6.47,0,0,1-4.28-1.47,6.07,6.07,0,0,1-2.13-4,6.58,6.58,0,0,1-.06-0.84c0-3.24,0-6.49,0-9.73a6.09,6.09,0,0,1,1.91-4.55A5.85,5.85,0,0,1,26,19.57c1.78-.06,3.57,0,5.35,0v0Zm0,20.24h4.23a9.3,9.3,0,0,0,1,0,4.09,4.09,0,0,0,3.57-2.52,4.84,4.84,0,0,0,.36-1.94q0-4.47,0-8.93a6.84,6.84,0,0,0,0-.94A4,4,0,0,0,38,22a4.9,4.9,0,0,0-2-.37H26.77a6.31,6.31,0,0,0-.84.05,3.86,3.86,0,0,0-3.36,2.55,5.39,5.39,0,0,0-.31,1.93q0,4.54,0,9.08a6.43,6.43,0,0,0,.1,1.14,3.74,3.74,0,0,0,2.81,3.18,6.68,6.68,0,0,0,1.64.22C28.32,39.78,29.83,39.76,31.34,39.76Z" style="fill: #092444"/>
      <path d="M37.09,30.64a5.75,5.75,0,1,1-5.73-5.77A5.76,5.76,0,0,1,37.09,30.64Zm-5.74,3.66a3.69,3.69,0,1,0-3.69-3.68A3.7,3.7,0,0,0,31.36,34.31Z" style="fill: #092444"/>
      <path d="M37.31,26a1.3,1.3,0,1,1,0-2.6A1.3,1.3,0,1,1,37.31,26Z" style="fill: #092444"/>
    </g>
  </g>
</svg>
