<svg id="fb12150b-7c48-4c35-aff6-96403f5a1067" data-name="Слой 1" xmlns="http://www.w3.org/2000/svg" viewBox="0 0 135.88 70.26">
  <title>Безымянный-1</title>
  <rect width="135.88" height="70.26" rx="5.84" ry="5.84" fill="#fff"/>
  <g>
    <polygon points="80.09 53.46 81.04 53.44 81.97 53.37 82.89 53.25 83.8 53.09 84.68 52.89 85.55 52.64 86.41 52.35 87.24 52.02 88.06 51.65 88.85 51.25 89.61 50.8 90.36 50.33 91.08 49.81 91.77 49.27 92.44 48.7 93.08 48.08 93.69 47.45 94.26 46.78 94.81 46.09 95.32 45.37 95.8 44.62 96.24 43.85 96.64 43.06 97.02 42.25 97.34 41.41 97.63 40.56 97.88 39.69 98.08 38.8 98.25 37.9 98.36 36.98 98.43 36.05 98.46 35.1 98.43 34.16 98.36 33.23 98.25 32.32 98.08 31.42 97.88 30.54 97.63 29.67 97.34 28.82 97.02 27.99 96.64 27.18 96.24 26.39 95.8 25.63 95.32 24.88 94.81 24.16 94.26 23.48 93.69 22.81 93.08 22.17 92.44 21.57 91.77 20.99 91.08 20.45 90.36 19.93 89.61 19.46 88.85 19.02 88.06 18.62 87.24 18.25 86.41 17.92 85.55 17.63 84.68 17.38 83.8 17.18 82.89 17.02 81.97 16.9 81.04 16.83 80.09 16.81 79.15 16.83 78.22 16.9 77.31 17.02 76.4 17.18 75.52 17.38 74.65 17.63 73.8 17.92 72.97 18.25 72.16 18.62 71.37 19.02 70.6 19.46 69.86 19.93 69.14 20.45 68.45 20.99 67.79 21.57 67.15 22.17 66.55 22.81 65.97 23.48 65.43 24.16 64.92 24.88 64.44 25.63 64.01 26.39 63.6 27.18 63.23 27.99 62.91 28.82 62.62 29.67 62.37 30.54 62.17 31.42 62.01 32.32 61.89 33.23 61.82 34.16 61.8 35.1 61.82 36.05 61.89 36.98 62.01 37.9 62.17 38.8 62.37 39.69 62.62 40.56 62.91 41.41 63.23 42.25 63.6 43.06 64.01 43.85 64.44 44.62 64.92 45.37 65.43 46.09 65.97 46.78 66.55 47.45 67.15 48.08 67.79 48.7 68.45 49.27 69.14 49.81 69.86 50.33 70.6 50.8 71.37 51.25 72.16 51.65 72.97 52.02 73.8 52.35 74.65 52.64 75.52 52.89 76.4 53.09 77.31 53.25 78.22 53.37 79.15 53.44 80.09 53.46 80.09 53.46 80.09 53.46" fill="#ffa913" fill-rule="evenodd"/>
    <polygon points="55.57 53.46 56.51 53.44 57.45 53.37 58.36 53.25 59.26 53.09 60.15 52.89 61.02 52.64 61.87 52.35 62.7 52.02 63.51 51.65 64.3 51.25 65.06 50.8 65.81 50.33 66.52 49.81 67.22 49.27 67.88 48.7 68.51 48.08 69.12 47.45 69.69 46.78 70.24 46.09 70.75 45.37 71.22 44.62 71.66 43.85 72.07 43.06 72.43 42.25 72.76 41.41 73.05 40.56 73.29 39.69 73.5 38.8 73.66 37.9 73.78 36.98 73.84 36.05 73.87 35.1 73.84 34.16 73.78 33.23 73.66 32.32 73.5 31.42 73.29 30.54 73.05 29.67 72.76 28.82 72.43 27.99 72.07 27.18 71.66 26.39 71.22 25.63 70.75 24.88 70.24 24.16 69.69 23.48 69.12 22.81 68.51 22.17 67.88 21.57 67.22 20.99 66.52 20.45 65.81 19.93 65.06 19.46 64.3 19.02 63.51 18.62 62.7 18.25 61.87 17.92 61.02 17.63 60.15 17.38 59.26 17.18 58.36 17.02 57.45 16.9 56.51 16.83 55.57 16.81 54.63 16.83 53.69 16.9 52.78 17.02 51.87 17.18 50.99 17.38 50.11 17.63 49.26 17.92 48.43 18.25 47.61 18.62 46.82 19.02 46.05 19.46 45.3 19.93 44.59 20.45 43.9 20.99 43.23 21.57 42.59 22.17 41.98 22.81 41.4 23.48 40.86 24.16 40.35 24.88 39.87 25.63 39.42 26.39 39.02 27.18 38.65 27.99 38.32 28.82 38.03 29.67 37.79 30.54 37.58 31.42 37.42 32.32 37.3 33.23 37.24 34.16 37.21 35.1 37.24 36.05 37.3 36.98 37.42 37.9 37.58 38.8 37.79 39.69 38.03 40.56 38.32 41.41 38.65 42.25 39.02 43.06 39.42 43.85 39.87 44.62 40.35 45.37 40.86 46.09 41.4 46.78 41.98 47.45 42.59 48.08 43.23 48.7 43.9 49.27 44.59 49.81 45.3 50.33 46.05 50.8 46.82 51.25 47.61 51.65 48.43 52.02 49.26 52.35 50.11 52.64 50.99 52.89 51.87 53.09 52.78 53.25 53.69 53.37 54.63 53.44 55.57 53.46 55.57 53.46 55.57 53.46" fill="#fe000a" fill-rule="evenodd"/>
    <polygon points="65.69 23.84 75.43 23.84 75.43 22.84 66.53 22.84 65.69 23.84 65.69 23.84 65.69 23.84" fill="#e9ab4d" fill-rule="evenodd"/>
    <polygon points="64.23 26.05 75.43 26.05 75.43 25.05 64.82 25.05 64.23 26.05 64.23 26.05 64.23 26.05" fill="#e9ab4d" fill-rule="evenodd"/>
    <polygon points="63.14 28.26 75.43 28.26 75.43 27.26 63.57 27.26 63.14 28.26 63.14 28.26 63.14 28.26" fill="#e9ab4d" fill-rule="evenodd"/>
    <polygon points="62.39 30.47 75.43 30.47 75.43 29.47 62.7 29.47 62.39 30.47 62.39 30.47 62.39 30.47" fill="#e9ab4d" fill-rule="evenodd"/>
    <polygon points="62.83 41.17 75.46 41.17 75.46 40.17 62.52 40.17 62.83 41.17 62.83 41.17 62.83 41.17" fill="#e9ab4d" fill-rule="evenodd"/>
    <polygon points="63.76 43.38 75.46 43.38 75.46 42.38 63.3 42.38 63.76 43.38 63.76 43.38 63.76 43.38" fill="#e9ab4d" fill-rule="evenodd"/>
    <polygon points="65.07 45.59 75.46 45.59 75.46 44.59 64.44 44.59 65.07 45.59 65.07 45.59 65.07 45.59" fill="#e9ab4d" fill-rule="evenodd"/>
    <polygon points="66.88 47.8 75.46 47.8 75.46 46.8 66 46.8 66.88 47.8 66.88 47.8 66.88 47.8" fill="#e9ab4d" fill-rule="evenodd"/>
    <polygon points="61.95 32.68 75.43 32.68 75.43 31.68 62.15 31.68 61.95 32.68 61.95 32.68 61.95 32.68" fill="#e9ab4d" fill-rule="evenodd"/>
    <polygon points="70.16 38.96 75.3 38.96 75.3 37.96 70.35 37.96 70.16 38.96 70.16 38.96 70.16 38.96" fill="#e9ab4d" fill-rule="evenodd"/>
    <polygon points="70.57 36.75 75.3 36.75 75.3 35.75 70.76 35.75 70.57 36.75 70.57 36.75 70.57 36.75" fill="#e9ab4d" fill-rule="evenodd"/>
    <polygon points="61.61 35.75 62.95 35.75 62.95 36.75 61.68 36.75 61.61 35.75 61.61 35.75 61.61 35.75" fill="#e9ab4d" fill-rule="evenodd"/>
    <polygon points="59.12 34.54 59.04 34.54 58.95 34.52 58.87 34.51 58.79 34.5 58.71 34.49 58.63 34.48 58.55 34.46 58.47 34.45 58.38 34.44 58.28 34.43 58.17 34.43 58.05 34.42 57.92 34.42 57.78 34.43 57.62 34.44 57.44 34.45 57.32 34.47 57.2 34.49 57.09 34.52 57 34.56 56.91 34.61 56.84 34.66 56.77 34.72 56.72 34.77 56.68 34.84 56.65 34.91 56.64 34.98 56.64 35.06 56.66 35.14 56.68 35.22 56.73 35.3 56.79 35.38 56.91 35.5 57.06 35.59 57.24 35.67 57.42 35.74 57.62 35.8 57.82 35.87 58.03 35.94 58.23 36.02 58.41 36.13 58.58 36.26 58.74 36.41 58.87 36.6 58.97 36.84 59.03 37.12 59.05 37.45 59.03 37.84 58.99 38.13 58.91 38.38 58.81 38.62 58.69 38.82 58.55 39 58.39 39.16 58.21 39.29 58.02 39.41 57.82 39.5 57.62 39.58 57.41 39.65 57.19 39.69 56.98 39.73 56.78 39.75 56.58 39.76 56.38 39.77 56.12 39.77 55.87 39.76 55.65 39.76 55.45 39.76 55.26 39.75 55.1 39.74 54.95 39.73 54.81 39.71 54.68 39.69 54.56 39.67 54.44 39.65 54.34 39.62 54.23 39.59 54.13 39.56 54.03 39.52 53.93 39.48 54.21 38.12 54.26 38.13 54.33 38.15 54.42 38.17 54.52 38.2 54.63 38.22 54.76 38.25 54.89 38.28 55.04 38.3 55.2 38.33 55.36 38.35 55.52 38.37 55.7 38.39 55.88 38.4 56.06 38.4 56.23 38.4 56.41 38.4 56.59 38.36 56.74 38.31 56.85 38.24 56.93 38.16 56.99 38.07 57.05 37.97 57.08 37.87 57.1 37.78 57.11 37.6 57.06 37.44 56.95 37.32 56.8 37.22 56.61 37.12 56.4 37.03 56.16 36.94 55.91 36.84 55.67 36.73 55.43 36.6 55.22 36.44 55.02 36.25 54.86 36.02 54.75 35.74 54.7 35.4 54.7 35.01 54.73 34.77 54.78 34.54 54.84 34.33 54.91 34.13 55.01 33.94 55.12 33.78 55.25 33.63 55.41 33.49 55.59 33.38 55.78 33.28 56.01 33.18 56.25 33.12 56.53 33.06 56.84 33.02 57.17 32.99 57.53 32.99 57.76 32.99 57.97 32.99 58.16 33 58.34 33.01 58.49 33.02 58.63 33.03 58.76 33.04 58.87 33.05 58.97 33.07 59.06 33.09 59.14 33.1 59.22 33.11 59.28 33.12 59.33 33.13 59.39 33.14 59.44 33.15 59.12 34.54 59.12 34.54 59.12 34.54" fill="#fff" fill-rule="evenodd"/>
    <polyline points="59.12 34.54 59.12 34.54 59.04 34.54 58.95 34.52 58.87 34.51 58.79 34.5 58.71 34.49 58.63 34.48 58.55 34.46 58.47 34.45 58.38 34.44 58.28 34.43 58.17 34.43 58.05 34.42 57.92 34.42 57.78 34.43 57.62 34.44 57.44 34.45 57.44 34.45 57.32 34.47 57.2 34.49 57.09 34.52 57 34.56 56.91 34.61 56.84 34.66 56.77 34.72 56.72 34.77 56.68 34.84 56.65 34.91 56.64 34.98 56.64 35.06 56.66 35.14 56.68 35.22 56.73 35.3 56.79 35.38 56.79 35.38 56.91 35.5 57.06 35.59 57.24 35.67 57.42 35.74 57.62 35.8 57.82 35.87 58.03 35.94 58.23 36.02 58.41 36.13 58.58 36.26 58.74 36.41 58.87 36.6 58.97 36.84 59.03 37.12 59.05 37.45 59.03 37.84 59.03 37.84 58.99 38.13 58.91 38.38 58.81 38.62 58.69 38.82 58.55 39 58.39 39.16 58.21 39.29 58.02 39.41 57.82 39.5 57.62 39.58 57.41 39.65 57.19 39.69 56.98 39.73 56.78 39.75 56.58 39.76 56.38 39.77 56.38 39.77 56.12 39.77 55.87 39.76 55.65 39.76 55.45 39.76 55.26 39.75 55.1 39.74 54.95 39.73 54.81 39.71 54.68 39.69 54.56 39.67 54.44 39.65 54.34 39.62 54.23 39.59 54.13 39.56 54.03 39.52 53.93 39.48 54.21 38.12 54.21 38.12 54.26 38.13 54.33 38.15 54.42 38.17 54.52 38.2 54.63 38.22 54.76 38.25 54.89 38.28 55.04 38.3 55.2 38.33 55.36 38.35 55.52 38.37 55.7 38.39 55.88 38.4 56.06 38.4 56.23 38.4 56.41 38.4 56.41 38.4 56.59 38.36 56.74 38.31 56.85 38.24 56.93 38.16 56.99 38.07 57.05 37.97 57.08 37.87 57.1 37.78 57.1 37.78 57.11 37.6 57.06 37.44 56.95 37.32 56.8 37.22 56.61 37.12 56.4 37.03 56.16 36.94 55.91 36.84 55.67 36.73 55.43 36.6 55.22 36.44 55.02 36.25 54.86 36.02 54.75 35.74 54.7 35.4 54.7 35.01 54.7 35.01 54.73 34.77 54.78 34.54 54.84 34.33 54.91 34.13 55.01 33.94 55.12 33.78 55.25 33.63 55.41 33.49 55.59 33.38 55.78 33.28 56.01 33.18 56.25 33.12 56.53 33.06 56.84 33.02 57.17 32.99 57.53 32.99 57.53 32.99 57.76 32.99 57.97 32.99 58.16 33 58.34 33.01 58.49 33.02 58.63 33.03 58.76 33.04 58.87 33.05 58.97 33.07 59.06 33.09 59.14 33.1 59.22 33.11 59.28 33.12 59.33 33.13 59.39 33.14 59.44 33.15 59.12 34.54" fill="none" stroke="#fff" stroke-miterlimit="2.61" stroke-width="0.22"/>
    <polygon points="60.59 31.62 62.3 31.62 62.05 33.12 63.08 33.12 62.86 34.51 61.77 34.48 61.17 37.93 61.17 38.06 61.2 38.16 61.26 38.24 61.34 38.31 61.45 38.35 61.58 38.39 61.71 38.41 61.86 38.43 62 38.42 62.12 38.41 62.23 38.39 62.33 38.37 62.41 38.34 62.47 38.32 62.5 38.31 62.52 38.3 62.3 39.45 62.26 39.48 62.21 39.51 62.17 39.53 62.13 39.56 62.08 39.58 62.03 39.59 61.98 39.61 61.92 39.63 61.86 39.65 61.8 39.66 61.73 39.68 61.65 39.69 61.57 39.7 61.48 39.71 61.38 39.73 61.27 39.74 60.8 39.74 60.56 39.72 60.34 39.69 60.14 39.66 59.98 39.61 59.83 39.56 59.72 39.5 59.61 39.42 59.53 39.34 59.47 39.26 59.42 39.15 59.39 39.05 59.38 38.93 59.37 38.8 59.37 38.66 59.39 38.52 59.41 38.37 60.59 31.62 60.59 31.62 60.59 31.62" fill="#fff" fill-rule="evenodd"/>
    <polyline points="60.59 31.62 62.3 31.62 62.05 33.12 63.08 33.12 62.86 34.51 61.77 34.48 61.17 37.93 61.17 37.93 61.17 38.06 61.2 38.16 61.26 38.24 61.34 38.31 61.45 38.35 61.58 38.39 61.71 38.41 61.86 38.43 61.86 38.43 62 38.42 62.12 38.41 62.23 38.39 62.33 38.37 62.41 38.34 62.47 38.32 62.5 38.31 62.52 38.3 62.3 39.45 62.3 39.45 62.26 39.48 62.21 39.51 62.17 39.53 62.13 39.56 62.08 39.58 62.03 39.59 61.98 39.61 61.92 39.63 61.86 39.65 61.8 39.66 61.73 39.68 61.65 39.69 61.57 39.7 61.48 39.71 61.38 39.73 61.27 39.74 60.8 39.74 60.8 39.74 60.56 39.72 60.34 39.69 60.14 39.66 59.98 39.61 59.83 39.56 59.72 39.5 59.61 39.42 59.53 39.34 59.47 39.26 59.42 39.15 59.39 39.05 59.38 38.93 59.37 38.8 59.37 38.66 59.39 38.52 59.41 38.37 60.59 31.62" fill="none" stroke="#fff" stroke-miterlimit="2.61" stroke-width="0.22"/>
    <polygon points="64.44 36.84 64.43 36.95 64.42 37.06 64.43 37.18 64.46 37.3 64.5 37.41 64.55 37.52 64.62 37.64 64.69 37.75 64.78 37.85 64.87 37.94 64.97 38.04 65.08 38.11 65.19 38.18 65.32 38.23 65.44 38.28 65.56 38.3 65.72 38.33 65.88 38.35 66.04 38.37 66.2 38.38 66.36 38.38 66.53 38.38 66.69 38.38 66.86 38.37 67.02 38.34 67.19 38.31 67.36 38.27 67.53 38.22 67.7 38.15 67.88 38.07 68.06 37.98 68.23 37.87 67.99 39.39 67.89 39.44 67.79 39.49 67.69 39.53 67.6 39.56 67.51 39.59 67.41 39.63 67.31 39.65 67.2 39.67 67.09 39.69 66.97 39.7 66.84 39.71 66.7 39.73 66.53 39.73 66.37 39.73 66.18 39.74 65.97 39.74 65.67 39.73 65.36 39.7 65.05 39.66 64.74 39.58 64.44 39.49 64.15 39.37 63.87 39.22 63.61 39.04 63.37 38.83 63.16 38.58 62.98 38.29 62.83 37.96 62.73 37.6 62.66 37.18 62.64 36.73 62.67 36.22 62.7 36.02 62.73 35.79 62.78 35.55 62.85 35.29 62.94 35.03 63.05 34.76 63.2 34.49 63.37 34.23 63.57 33.98 63.81 33.75 64.08 33.54 64.39 33.35 64.75 33.2 65.15 33.09 65.59 33.01 66.1 32.99 66.34 32.99 66.59 33.02 66.84 33.06 67.1 33.12 67.34 33.22 67.59 33.33 67.81 33.47 68.01 33.65 68.2 33.86 68.35 34.1 68.48 34.39 68.56 34.72 68.61 35.09 68.62 35.51 68.58 35.98 68.48 36.5 68.45 36.88 63.95 36.88 64.23 35.66 66.94 35.66 66.95 35.5 66.94 35.35 66.93 35.22 66.91 35.09 66.86 34.98 66.82 34.87 66.76 34.78 66.7 34.69 66.62 34.62 66.54 34.56 66.45 34.5 66.36 34.45 66.26 34.41 66.16 34.39 66.05 34.37 65.94 34.36 65.82 34.37 65.71 34.38 65.61 34.41 65.5 34.45 65.4 34.49 65.31 34.55 65.21 34.62 65.13 34.69 65.05 34.78 64.98 34.87 64.91 34.97 64.85 35.08 64.8 35.19 64.75 35.31 64.72 35.43 64.69 35.56 64.44 36.84 64.44 36.84 64.44 36.84" fill="#fff" fill-rule="evenodd"/>
    <polyline points="64.44 36.84 64.44 36.84 64.43 36.95 64.42 37.06 64.43 37.18 64.46 37.3 64.5 37.41 64.55 37.52 64.62 37.64 64.69 37.75 64.78 37.85 64.87 37.94 64.97 38.04 65.08 38.11 65.19 38.18 65.32 38.23 65.44 38.28 65.56 38.3 65.56 38.3 65.72 38.33 65.88 38.35 66.04 38.37 66.2 38.38 66.36 38.38 66.53 38.38 66.69 38.38 66.86 38.37 67.02 38.34 67.19 38.31 67.36 38.27 67.53 38.22 67.7 38.15 67.88 38.07 68.06 37.98 68.23 37.87 67.99 39.39 67.99 39.39 67.89 39.44 67.79 39.49 67.69 39.53 67.6 39.56 67.51 39.59 67.41 39.63 67.31 39.65 67.2 39.67 67.09 39.69 66.97 39.7 66.84 39.71 66.7 39.73 66.53 39.73 66.37 39.73 66.18 39.74 65.97 39.74 65.97 39.74 65.67 39.73 65.36 39.7 65.05 39.66 64.74 39.58 64.44 39.49 64.15 39.37 63.87 39.22 63.61 39.04 63.37 38.83 63.16 38.58 62.98 38.29 62.83 37.96 62.73 37.6 62.66 37.18 62.64 36.73 62.67 36.22 62.67 36.22 62.7 36.02 62.73 35.79 62.78 35.55 62.85 35.29 62.94 35.03 63.05 34.76 63.2 34.49 63.37 34.23 63.57 33.98 63.81 33.75 64.08 33.54 64.39 33.35 64.75 33.2 65.15 33.09 65.59 33.01 66.1 32.99 66.1 32.99 66.34 32.99 66.59 33.02 66.84 33.06 67.1 33.12 67.34 33.22 67.59 33.33 67.81 33.47 68.01 33.65 68.2 33.86 68.35 34.1 68.48 34.39 68.56 34.72 68.61 35.09 68.62 35.51 68.58 35.98 68.48 36.5 68.45 36.88 63.95 36.88 64.23 35.66 66.94 35.66 66.94 35.66 66.95 35.5 66.94 35.35 66.93 35.22 66.91 35.09 66.86 34.98 66.82 34.87 66.76 34.78 66.7 34.69 66.62 34.62 66.54 34.56 66.45 34.5 66.36 34.45 66.26 34.41 66.16 34.39 66.05 34.37 65.94 34.36 65.94 34.36 65.82 34.37 65.71 34.38 65.61 34.41 65.5 34.45 65.4 34.49 65.31 34.55 65.21 34.62 65.13 34.69 65.05 34.78 64.98 34.87 64.91 34.97 64.85 35.08 64.8 35.19 64.75 35.31 64.72 35.43 64.69 35.56 64.44 36.84" fill="none" stroke="#fff" stroke-miterlimit="2.61" stroke-width="0.22"/>
    <polygon points="79.19 33.49 79.11 33.44 79.03 33.41 78.94 33.36 78.85 33.32 78.76 33.28 78.65 33.25 78.55 33.21 78.44 33.17 78.32 33.14 78.2 33.12 78.07 33.09 77.94 33.07 77.8 33.06 77.66 33.05 77.51 33.05 77.36 33.05 77.2 33.05 77.04 33.06 76.87 33.08 76.7 33.11 76.53 33.16 76.35 33.23 76.18 33.31 76.01 33.42 75.84 33.56 75.68 33.72 75.53 33.92 75.38 34.15 75.24 34.42 75.11 34.73 74.99 35.08 74.89 35.47 74.86 35.69 74.83 35.91 74.82 36.13 74.83 36.34 74.84 36.55 74.89 36.74 74.94 36.93 75.01 37.12 75.1 37.28 75.22 37.44 75.34 37.59 75.49 37.72 75.66 37.83 75.85 37.92 76.06 38 76.3 38.06 76.38 38.07 76.47 38.09 76.58 38.1 76.7 38.12 76.84 38.13 76.98 38.13 77.14 38.13 77.29 38.12 77.45 38.1 77.61 38.07 77.77 38.02 77.92 37.98 78.08 37.91 78.22 37.83 78.35 37.73 78.47 37.62 78.19 39.27 78.16 39.3 78.12 39.34 78.07 39.38 78.02 39.42 77.95 39.47 77.86 39.51 77.76 39.55 77.65 39.59 77.51 39.63 77.35 39.66 77.16 39.69 76.95 39.71 76.7 39.73 76.43 39.73 76.11 39.73 75.77 39.71 75.48 39.68 75.2 39.61 74.91 39.52 74.63 39.4 74.36 39.25 74.1 39.06 73.85 38.85 73.62 38.6 73.42 38.32 73.24 38.01 73.09 37.67 72.98 37.29 72.91 36.88 72.89 36.44 72.9 35.95 72.97 35.44 73.01 35.19 73.07 34.94 73.13 34.7 73.19 34.47 73.26 34.25 73.34 34.04 73.42 33.83 73.51 33.64 73.6 33.45 73.69 33.27 73.8 33.1 73.91 32.94 74.02 32.78 74.15 32.63 74.27 32.5 74.4 32.37 74.54 32.24 74.68 32.13 74.83 32.02 74.99 31.92 75.15 31.83 75.32 31.75 75.49 31.68 75.67 31.61 75.86 31.55 76.06 31.5 76.25 31.45 76.46 31.42 76.67 31.39 76.9 31.36 77.12 31.35 77.36 31.34 77.55 31.35 77.74 31.36 77.93 31.38 78.11 31.4 78.29 31.43 78.45 31.46 78.62 31.5 78.76 31.53 78.91 31.57 79.03 31.61 79.15 31.64 79.25 31.68 79.33 31.71 79.41 31.74 79.46 31.76 79.5 31.77 79.19 33.49 79.19 33.49 79.19 33.49" fill="#fff" fill-rule="evenodd"/>
    <polyline points="79.19 33.49 79.19 33.49 79.11 33.44 79.03 33.41 78.94 33.36 78.85 33.32 78.76 33.28 78.65 33.25 78.55 33.21 78.44 33.17 78.32 33.14 78.2 33.12 78.07 33.09 77.94 33.07 77.8 33.06 77.66 33.05 77.51 33.05 77.36 33.05 77.36 33.05 77.2 33.05 77.04 33.06 76.87 33.08 76.7 33.11 76.53 33.16 76.35 33.23 76.18 33.31 76.01 33.42 75.84 33.56 75.68 33.72 75.53 33.92 75.38 34.15 75.24 34.42 75.11 34.73 74.99 35.08 74.89 35.47 74.89 35.47 74.86 35.69 74.83 35.91 74.82 36.13 74.83 36.34 74.84 36.55 74.89 36.74 74.94 36.93 75.01 37.12 75.1 37.28 75.22 37.44 75.34 37.59 75.49 37.72 75.66 37.83 75.85 37.92 76.06 38 76.3 38.06 76.3 38.06 76.38 38.07 76.47 38.09 76.58 38.1 76.7 38.12 76.84 38.13 76.98 38.13 77.14 38.13 77.29 38.12 77.45 38.1 77.61 38.07 77.77 38.02 77.92 37.98 78.08 37.91 78.22 37.83 78.35 37.73 78.47 37.62 78.19 39.27 78.19 39.27 78.16 39.3 78.12 39.34 78.07 39.38 78.02 39.42 77.95 39.47 77.86 39.51 77.76 39.55 77.65 39.59 77.51 39.63 77.35 39.66 77.16 39.69 76.95 39.71 76.7 39.73 76.43 39.73 76.11 39.73 75.77 39.71 75.77 39.71 75.48 39.68 75.2 39.61 74.91 39.52 74.63 39.4 74.36 39.25 74.1 39.06 73.85 38.85 73.62 38.6 73.42 38.32 73.24 38.01 73.09 37.67 72.98 37.29 72.91 36.88 72.89 36.44 72.9 35.95 72.97 35.44 72.97 35.44 73.01 35.19 73.07 34.94 73.13 34.7 73.19 34.47 73.26 34.25 73.34 34.04 73.42 33.83 73.51 33.64 73.6 33.45 73.69 33.27 73.8 33.1 73.91 32.94 74.02 32.78 74.15 32.63 74.27 32.5 74.4 32.37 74.54 32.24 74.68 32.13 74.83 32.02 74.99 31.92 75.15 31.83 75.32 31.75 75.49 31.68 75.67 31.61 75.86 31.55 76.06 31.5 76.25 31.45 76.46 31.42 76.67 31.39 76.9 31.36 77.12 31.35 77.36 31.34 77.36 31.34 77.55 31.35 77.74 31.36 77.93 31.38 78.11 31.4 78.29 31.43 78.45 31.46 78.62 31.5 78.76 31.53 78.91 31.57 79.03 31.61 79.15 31.64 79.25 31.68 79.33 31.71 79.41 31.74 79.46 31.76 79.5 31.77 79.19 33.49" fill="none" stroke="#fff" stroke-miterlimit="2.61" stroke-width="0.22"/>
    <polygon points="94.41 39.74 92.7 39.74 92.82 39.05 92.82 38.99 92.72 39.11 92.62 39.22 92.51 39.32 92.4 39.41 92.29 39.49 92.18 39.56 92.07 39.61 91.95 39.67 91.83 39.71 91.72 39.74 91.6 39.77 91.47 39.79 91.35 39.81 91.23 39.82 91.11 39.83 90.99 39.83 90.67 39.8 90.37 39.74 90.1 39.63 89.85 39.49 89.63 39.31 89.43 39.1 89.26 38.87 89.11 38.61 88.98 38.33 88.89 38.04 88.82 37.74 88.77 37.42 88.75 37.11 88.75 36.79 88.79 36.47 88.84 36.16 88.93 35.79 89.05 35.45 89.18 35.13 89.33 34.84 89.49 34.56 89.68 34.31 89.87 34.09 90.07 33.88 90.29 33.7 90.52 33.55 90.75 33.41 90.99 33.31 91.23 33.22 91.48 33.16 91.73 33.13 91.98 33.12 92.16 33.12 92.33 33.14 92.5 33.17 92.64 33.22 92.79 33.26 92.91 33.32 93.03 33.39 93.14 33.46 93.24 33.53 93.34 33.61 93.42 33.69 93.49 33.77 93.55 33.85 93.61 33.93 93.66 34.01 93.69 34.08 93.69 34.08 94.13 31.65 95.81 31.65 94.41 39.74 94.41 39.74 94.41 39.74" fill="#fff" fill-rule="evenodd"/>
    <polyline points="94.41 39.74 92.7 39.74 92.82 39.05 92.82 38.99 92.82 38.99 92.72 39.11 92.62 39.22 92.51 39.32 92.4 39.41 92.29 39.49 92.18 39.56 92.07 39.61 91.95 39.67 91.83 39.71 91.72 39.74 91.6 39.77 91.47 39.79 91.35 39.81 91.23 39.82 91.11 39.83 90.99 39.83 90.99 39.83 90.67 39.8 90.37 39.74 90.1 39.63 89.85 39.49 89.63 39.31 89.43 39.1 89.26 38.87 89.11 38.61 88.98 38.33 88.89 38.04 88.82 37.74 88.77 37.42 88.75 37.11 88.75 36.79 88.79 36.47 88.84 36.16 88.84 36.16 88.93 35.79 89.05 35.45 89.18 35.13 89.33 34.84 89.49 34.56 89.68 34.31 89.87 34.09 90.07 33.88 90.29 33.7 90.52 33.55 90.75 33.41 90.99 33.31 91.23 33.22 91.48 33.16 91.73 33.13 91.98 33.12 91.98 33.12 92.16 33.12 92.33 33.14 92.5 33.17 92.64 33.22 92.79 33.26 92.91 33.32 93.03 33.39 93.14 33.46 93.24 33.53 93.34 33.61 93.42 33.69 93.49 33.77 93.55 33.85 93.61 33.93 93.66 34.01 93.69 34.08 93.69 34.08 94.13 31.65 95.81 31.65 94.41 39.74" fill="none" stroke="#fff" stroke-miterlimit="2.61" stroke-width="0.22"/>
    <polygon points="91.61 38.24 91.78 38.23 91.94 38.19 92.09 38.15 92.24 38.08 92.37 38.01 92.49 37.91 92.61 37.81 92.71 37.7 92.81 37.57 92.89 37.44 92.97 37.3 93.04 37.15 93.1 36.99 93.15 36.83 93.19 36.66 93.22 36.5 93.26 36.33 93.28 36.15 93.28 35.98 93.27 35.8 93.25 35.64 93.22 35.49 93.18 35.34 93.13 35.2 93.07 35.08 93 34.96 92.92 34.86 92.82 34.77 92.72 34.7 92.61 34.65 92.49 34.62 92.36 34.61 92.19 34.62 92.04 34.64 91.9 34.69 91.75 34.75 91.63 34.84 91.51 34.93 91.4 35.04 91.3 35.16 91.2 35.29 91.12 35.43 91.04 35.58 90.97 35.74 90.91 35.91 90.86 36.08 90.81 36.26 90.77 36.44 90.74 36.71 90.75 37.01 90.8 37.31 90.88 37.6 91 37.85 91.16 38.06 91.36 38.19 91.61 38.24 91.61 38.24 91.61 38.24" fill="#e9ab4d" fill-rule="evenodd"/>
    <polygon points="53.65 38.37 53.4 39.74 51.84 39.74 51.88 39.48 51.91 39.26 51.94 39.08 51.96 38.99 51.88 39.09 51.78 39.19 51.66 39.28 51.53 39.37 51.38 39.45 51.23 39.53 51.07 39.6 50.9 39.66 50.72 39.72 50.54 39.76 50.36 39.8 50.18 39.82 50 39.84 49.82 39.84 49.64 39.82 49.48 39.8 49.26 39.74 49.06 39.68 48.89 39.6 48.74 39.51 48.6 39.41 48.48 39.3 48.38 39.18 48.29 39.06 48.22 38.93 48.15 38.79 48.1 38.66 48.07 38.52 48.04 38.38 48.02 38.23 48.01 38.1 48.01 37.96 48.03 37.72 48.07 37.49 48.13 37.28 48.21 37.07 48.31 36.87 48.42 36.69 48.55 36.52 48.7 36.36 48.85 36.22 49.03 36.09 49.2 35.97 49.39 35.87 49.59 35.79 49.79 35.72 50 35.66 50.22 35.63 50.23 35.63 50.26 35.62 50.31 35.61 50.37 35.61 50.45 35.59 50.53 35.59 50.63 35.58 50.73 35.56 50.84 35.55 50.94 35.54 51.05 35.53 51.15 35.52 51.25 35.52 51.34 35.51 51.43 35.5 51.5 35.5 51.64 35.5 51.79 35.51 51.93 35.52 52.06 35.52 52.17 35.52 52.26 35.53 52.32 35.53 52.34 35.53 52.35 35.49 52.39 35.38 52.42 35.25 52.43 35.13 52.41 34.99 52.35 34.87 52.28 34.76 52.18 34.67 52.06 34.59 51.93 34.53 51.78 34.49 51.62 34.48 51.45 34.48 51.26 34.47 51.07 34.47 50.88 34.48 50.67 34.49 50.47 34.51 50.27 34.52 50.08 34.55 49.9 34.58 49.72 34.61 49.56 34.64 49.41 34.67 49.27 34.7 49.16 34.74 49.08 34.78 49.01 34.82 49.45 33.33 49.58 33.28 49.72 33.23 49.87 33.18 50.02 33.15 50.16 33.12 50.33 33.1 50.48 33.07 50.65 33.06 50.83 33.05 51.01 33.04 51.19 33.03 51.38 33.03 51.58 33.03 51.78 33.03 52 33.04 52.22 33.05 52.39 33.06 52.58 33.09 52.77 33.13 52.96 33.19 53.16 33.26 53.34 33.35 53.53 33.46 53.7 33.57 53.85 33.71 53.99 33.86 54.11 34.02 54.21 34.21 54.27 34.41 54.31 34.62 54.31 34.85 54.27 35.1 53.65 38.37 53.65 38.37 53.65 38.37" fill="#fff" fill-rule="evenodd"/>
    <polyline points="53.65 38.37 53.4 39.74 51.84 39.74 51.84 39.74 51.88 39.48 51.91 39.26 51.94 39.08 51.96 38.99 51.96 38.99 51.88 39.09 51.78 39.19 51.66 39.28 51.53 39.37 51.38 39.45 51.23 39.53 51.07 39.6 50.9 39.66 50.72 39.72 50.54 39.76 50.36 39.8 50.18 39.82 50 39.84 49.82 39.84 49.64 39.82 49.48 39.8 49.48 39.8 49.26 39.74 49.06 39.68 48.89 39.6 48.74 39.51 48.6 39.41 48.48 39.3 48.38 39.18 48.29 39.06 48.22 38.93 48.15 38.79 48.1 38.66 48.07 38.52 48.04 38.38 48.02 38.23 48.01 38.1 48.01 37.96 48.01 37.96 48.03 37.72 48.07 37.49 48.13 37.28 48.21 37.07 48.31 36.87 48.42 36.69 48.55 36.52 48.7 36.36 48.85 36.22 49.03 36.09 49.2 35.97 49.39 35.87 49.59 35.79 49.79 35.72 50 35.66 50.22 35.63 50.22 35.63 50.23 35.63 50.26 35.62 50.31 35.61 50.37 35.61 50.45 35.59 50.53 35.59 50.63 35.58 50.73 35.56 50.84 35.55 50.94 35.54 51.05 35.53 51.15 35.52 51.25 35.52 51.34 35.51 51.43 35.5 51.5 35.5 51.5 35.5 51.64 35.5 51.79 35.51 51.93 35.52 52.06 35.52 52.17 35.52 52.26 35.53 52.32 35.53 52.34 35.53 52.34 35.53 52.35 35.49 52.39 35.38 52.42 35.25 52.43 35.13 52.43 35.13 52.41 34.99 52.35 34.87 52.28 34.76 52.18 34.67 52.06 34.59 51.93 34.53 51.78 34.49 51.62 34.48 51.62 34.48 51.45 34.48 51.26 34.47 51.07 34.47 50.88 34.48 50.67 34.49 50.47 34.51 50.27 34.52 50.08 34.55 49.9 34.58 49.72 34.61 49.56 34.64 49.41 34.67 49.27 34.7 49.16 34.74 49.08 34.78 49.01 34.82 49.45 33.33 49.45 33.33 49.58 33.28 49.72 33.23 49.87 33.18 50.02 33.15 50.16 33.12 50.33 33.1 50.48 33.07 50.65 33.06 50.83 33.05 51.01 33.04 51.19 33.03 51.38 33.03 51.58 33.03 51.78 33.03 52 33.04 52.22 33.05 52.22 33.05 52.39 33.06 52.58 33.09 52.77 33.13 52.96 33.19 53.16 33.26 53.34 33.35 53.53 33.46 53.7 33.57 53.85 33.71 53.99 33.86 54.11 34.02 54.21 34.21 54.27 34.41 54.31 34.62 54.31 34.85 54.27 35.1 53.65 38.37" fill="none" stroke="#fff" stroke-miterlimit="2.61" stroke-width="0.22"/>
    <polygon points="52.16 36.75 52.15 36.72 52.12 36.69 52.09 36.67 52.02 36.66 51.96 36.65 51.88 36.64 51.78 36.64 51.69 36.64 51.59 36.65 51.49 36.66 51.39 36.67 51.29 36.68 51.2 36.7 51.11 36.71 51.04 36.73 50.97 36.75 50.92 36.76 50.88 36.78 50.81 36.81 50.74 36.84 50.66 36.88 50.58 36.92 50.49 36.96 50.41 37.01 50.33 37.07 50.24 37.13 50.17 37.21 50.1 37.28 50.04 37.36 50 37.45 49.96 37.55 49.94 37.65 49.94 37.86 49.97 38.02 50.03 38.15 50.11 38.24 50.2 38.3 50.31 38.34 50.41 38.36 50.5 38.37 50.69 38.36 50.86 38.34 51.02 38.31 51.16 38.28 51.28 38.23 51.4 38.18 51.51 38.12 51.6 38.06 51.68 37.99 51.75 37.92 51.81 37.85 51.86 37.78 51.91 37.7 51.94 37.63 51.98 37.56 51.99 37.49 52.04 37.31 52.09 37.11 52.12 36.91 52.16 36.75 52.16 36.75 52.16 36.75" fill="#d14a48" fill-rule="evenodd"/>
    <polygon points="40.64 39.74 38.95 39.74 40.36 31.62 43.28 31.62 43.56 36.44 45.58 31.62 48.64 31.62 47.2 39.74 45.52 39.74 46.58 33.67 46.52 33.67 44 39.74 42.1 39.74 42.09 39.48 42.05 38.81 41.99 37.85 41.93 36.75 41.87 35.64 41.81 34.67 41.77 33.97 41.76 33.67 41.74 33.67 41.7 33.67 41.66 33.67 41.66 33.67 40.64 39.74 40.64 39.74 40.64 39.74" fill="#fff" fill-rule="evenodd"/>
    <polyline points="40.64 39.74 38.95 39.74 40.36 31.62 43.28 31.62 43.56 36.44 45.58 31.62 48.64 31.62 47.2 39.74 45.52 39.74 46.58 33.67 46.52 33.67 44 39.74 42.1 39.74 42.1 39.74 42.09 39.48 42.05 38.81 41.99 37.85 41.93 36.75 41.87 35.64 41.81 34.67 41.77 33.97 41.76 33.67 41.76 33.67 41.74 33.67 41.7 33.67 41.66 33.67 41.66 33.67 40.64 39.74" fill="none" stroke="#fff" stroke-miterlimit="2.61" stroke-width="0.22"/>
    <polygon points="84.33 38.37 84.08 39.74 82.52 39.74 82.54 39.48 82.54 39.26 82.54 39.09 82.55 39.02 82.47 39.11 82.38 39.21 82.27 39.29 82.15 39.38 82.02 39.46 81.87 39.53 81.71 39.61 81.56 39.67 81.39 39.72 81.22 39.77 81.05 39.8 80.87 39.82 80.69 39.84 80.52 39.84 80.35 39.82 80.19 39.8 79.96 39.74 79.77 39.68 79.59 39.6 79.43 39.51 79.3 39.41 79.18 39.3 79.08 39.18 78.99 39.06 78.92 38.93 78.86 38.79 78.81 38.66 78.78 38.52 78.76 38.38 78.74 38.23 78.73 38.1 78.73 37.96 78.74 37.72 78.78 37.49 78.83 37.28 78.91 37.07 79 36.87 79.12 36.69 79.25 36.52 79.39 36.36 79.56 36.22 79.72 36.09 79.9 35.97 80.09 35.87 80.28 35.79 80.49 35.72 80.69 35.66 80.9 35.63 80.92 35.63 80.95 35.62 80.99 35.61 81.05 35.61 81.13 35.59 81.22 35.59 81.31 35.58 81.41 35.56 81.52 35.55 81.63 35.54 81.73 35.53 81.84 35.52 81.94 35.52 82.02 35.51 82.11 35.5 82.18 35.5 82.33 35.5 82.47 35.51 82.62 35.52 82.75 35.52 82.87 35.52 82.97 35.53 83.02 35.53 83.05 35.53 83.06 35.49 83.08 35.38 83.1 35.25 83.11 35.13 83.09 34.99 83.04 34.87 82.96 34.76 82.86 34.67 82.75 34.59 82.62 34.53 82.49 34.49 82.34 34.48 82.16 34.48 81.98 34.47 81.79 34.47 81.59 34.48 81.39 34.49 81.19 34.51 80.99 34.52 80.8 34.55 80.61 34.58 80.43 34.61 80.27 34.64 80.12 34.67 79.99 34.7 79.88 34.74 79.79 34.78 79.72 34.82 80.16 33.33 80.29 33.28 80.43 33.23 80.58 33.18 80.72 33.15 80.88 33.12 81.03 33.1 81.19 33.07 81.36 33.06 81.53 33.05 81.71 33.04 81.89 33.03 82.08 33.03 82.28 33.03 82.47 33.03 82.68 33.04 82.89 33.05 83.07 33.06 83.25 33.09 83.44 33.13 83.64 33.19 83.83 33.26 84.03 33.35 84.21 33.46 84.38 33.57 84.54 33.71 84.68 33.86 84.8 34.02 84.9 34.21 84.97 34.41 85.01 34.62 85.01 34.85 84.98 35.1 84.33 38.37 84.33 38.37 84.33 38.37" fill="#fff" fill-rule="evenodd"/>
    <polygon points="84.08 39.78 84.11 39.74 84.36 38.37 84.29 38.36 84.04 39.73 84.08 39.69 84.08 39.78 84.11 39.77 84.11 39.74 84.08 39.78 84.08 39.78 84.08 39.78" fill="#fff" fill-rule="evenodd"/>
    <polygon points="82.49 39.74 82.52 39.78 84.08 39.78 84.08 39.69 82.52 39.69 82.56 39.74 82.49 39.74 82.48 39.78 82.52 39.78 82.49 39.74 82.49 39.74 82.49 39.74" fill="#fff" fill-rule="evenodd"/>
    <polygon points="82.58 39.05 82.53 38.99 82.5 39.09 82.5 39.26 82.5 39.48 82.49 39.74 82.56 39.74 82.57 39.48 82.58 39.26 82.58 39.09 82.58 39.05 82.52 38.99 82.58 39.05 82.58 39.05 82.58 39.05" fill="#fff" fill-rule="evenodd"/>
    <polygon points="80.18 39.84 80.18 39.84 80.35 39.86 80.52 39.88 80.69 39.87 80.87 39.86 81.05 39.84 81.22 39.8 81.4 39.76 81.57 39.71 81.73 39.65 81.89 39.57 82.03 39.5 82.16 39.41 82.29 39.32 82.41 39.24 82.5 39.14 82.58 39.05 82.52 38.99 82.44 39.09 82.36 39.17 82.25 39.26 82.13 39.35 82 39.42 81.85 39.5 81.7 39.57 81.55 39.63 81.39 39.68 81.21 39.73 81.04 39.76 80.87 39.79 80.69 39.8 80.52 39.8 80.35 39.79 80.19 39.76 80.19 39.76 80.18 39.84 80.18 39.84 80.18 39.84" fill="#fff" fill-rule="evenodd"/>
    <polygon points="78.68 37.96 78.68 37.96 78.69 38.1 78.7 38.23 78.72 38.38 78.75 38.53 78.78 38.66 78.83 38.8 78.88 38.95 78.96 39.08 79.05 39.21 79.15 39.32 79.27 39.44 79.41 39.54 79.57 39.64 79.75 39.72 79.96 39.78 80.18 39.84 80.19 39.76 79.97 39.71 79.78 39.65 79.61 39.56 79.45 39.48 79.32 39.38 79.21 39.27 79.11 39.16 79.02 39.04 78.96 38.91 78.9 38.78 78.85 38.65 78.82 38.51 78.8 38.37 78.78 38.23 78.76 38.1 78.77 37.96 78.77 37.96 78.68 37.96 78.68 37.96 78.68 37.96" fill="#fff" fill-rule="evenodd"/>
    <polygon points="80.9 35.59 80.9 35.59 80.69 35.63 80.48 35.68 80.27 35.75 80.08 35.84 79.88 35.94 79.7 36.06 79.53 36.19 79.37 36.34 79.22 36.49 79.09 36.66 78.97 36.85 78.88 37.05 78.8 37.26 78.74 37.49 78.7 37.72 78.68 37.96 78.77 37.96 78.78 37.72 78.81 37.5 78.87 37.29 78.95 37.08 79.04 36.89 79.15 36.71 79.28 36.54 79.42 36.39 79.58 36.25 79.75 36.12 79.92 36.01 80.11 35.91 80.3 35.82 80.5 35.76 80.7 35.7 80.9 35.66 80.9 35.66 80.9 35.59 80.9 35.59 80.9 35.59" fill="#fff" fill-rule="evenodd"/>
    <polygon points="82.18 35.46 82.18 35.46 82.11 35.46 82.02 35.47 81.94 35.48 81.84 35.48 81.73 35.5 81.63 35.5 81.52 35.52 81.41 35.53 81.31 35.54 81.22 35.55 81.13 35.56 81.05 35.57 80.99 35.58 80.94 35.58 80.92 35.59 80.9 35.59 80.9 35.66 80.92 35.66 80.95 35.66 80.99 35.65 81.05 35.64 81.13 35.63 81.22 35.63 81.31 35.61 81.41 35.6 81.52 35.59 81.63 35.58 81.73 35.57 81.84 35.56 81.94 35.55 82.02 35.55 82.11 35.55 82.18 35.55 82.18 35.55 82.18 35.46 82.18 35.46 82.18 35.46" fill="#fff" fill-rule="evenodd"/>
    <polygon points="83.01 35.53 83.05 35.5 83.02 35.5 82.97 35.49 82.87 35.48 82.75 35.47 82.62 35.47 82.47 35.47 82.33 35.46 82.18 35.46 82.18 35.55 82.33 35.55 82.47 35.55 82.62 35.56 82.75 35.56 82.87 35.56 82.97 35.56 83.02 35.57 83.05 35.57 83.09 35.54 83.05 35.57 83.08 35.58 83.09 35.54 83.01 35.53 83.01 35.53 83.01 35.53" fill="#fff" fill-rule="evenodd"/>
    <polygon points="83.07 35.13 83.07 35.13 83.06 35.25 83.04 35.37 83.02 35.48 83.01 35.53 83.09 35.54 83.1 35.5 83.12 35.38 83.14 35.25 83.15 35.13 83.15 35.13 83.07 35.13 83.07 35.13 83.07 35.13" fill="#fff" fill-rule="evenodd"/>
    <polygon points="82.34 34.52 82.34 34.52 82.48 34.53 82.61 34.57 82.73 34.62 82.84 34.7 82.92 34.78 83 34.89 83.05 35 83.07 35.13 83.15 35.13 83.12 34.99 83.07 34.85 82.99 34.74 82.89 34.64 82.77 34.55 82.63 34.49 82.49 34.46 82.34 34.44 82.34 34.45 82.34 34.52 82.34 34.52 82.34 34.52" fill="#fff" fill-rule="evenodd"/>
    <polygon points="79.69 34.82 79.75 34.85 79.81 34.82 79.89 34.78 79.99 34.74 80.13 34.7 80.28 34.67 80.44 34.64 80.62 34.61 80.8 34.59 80.99 34.56 81.19 34.54 81.39 34.52 81.59 34.51 81.79 34.51 81.98 34.51 82.16 34.51 82.34 34.52 82.34 34.45 82.16 34.44 81.98 34.43 81.79 34.43 81.59 34.44 81.39 34.45 81.19 34.47 80.99 34.49 80.8 34.51 80.61 34.54 80.43 34.57 80.27 34.6 80.12 34.63 79.98 34.67 79.86 34.7 79.77 34.75 79.7 34.79 79.76 34.83 79.69 34.82 79.69 34.82 79.69 34.82" fill="#fff" fill-rule="evenodd"/>
    <polygon points="80.14 33.3 80.12 33.33 79.69 34.82 79.76 34.83 80.19 33.34 80.17 33.37 80.14 33.3 80.12 33.3 80.12 33.33 80.14 33.3 80.14 33.3 80.14 33.3" fill="#fff" fill-rule="evenodd"/>
    <polygon points="82.89 33.01 82.89 33.01 82.68 33 82.47 32.99 82.28 32.99 82.08 32.99 81.89 32.99 81.71 33.01 81.53 33.01 81.36 33.02 81.19 33.03 81.03 33.06 80.87 33.09 80.72 33.12 80.57 33.15 80.42 33.19 80.28 33.24 80.14 33.3 80.17 33.37 80.3 33.31 80.45 33.26 80.58 33.22 80.73 33.19 80.89 33.16 81.04 33.13 81.19 33.11 81.36 33.1 81.53 33.09 81.71 33.08 81.89 33.08 82.08 33.08 82.28 33.08 82.47 33.08 82.68 33.09 82.89 33.09 82.89 33.09 82.89 33.01 82.89 33.01 82.89 33.01" fill="#fff" fill-rule="evenodd"/>
    <polygon points="85.02 35.11 85.02 35.11 85.05 34.85 85.05 34.62 85 34.4 84.93 34.2 84.83 34.01 84.71 33.83 84.56 33.68 84.41 33.54 84.23 33.42 84.04 33.31 83.85 33.23 83.65 33.15 83.45 33.1 83.26 33.05 83.07 33.02 82.89 33.01 82.89 33.09 83.07 33.1 83.25 33.13 83.44 33.17 83.63 33.23 83.82 33.3 84.01 33.39 84.19 33.49 84.36 33.6 84.51 33.74 84.65 33.88 84.77 34.04 84.86 34.22 84.93 34.41 84.97 34.62 84.97 34.85 84.94 35.09 84.94 35.09 85.02 35.11 85.02 35.11 85.02 35.11" fill="#fff" fill-rule="evenodd"/>
    <polygon points="84.36 38.37 84.36 38.37 85.02 35.11 84.94 35.09 84.29 38.36 84.29 38.36 84.36 38.37 84.36 38.37 84.36 38.37" fill="#fff" fill-rule="evenodd"/>
    <polygon points="82.83 36.75 82.82 36.71 82.8 36.68 82.75 36.66 82.69 36.65 82.62 36.64 82.54 36.63 82.45 36.63 82.36 36.64 82.26 36.65 82.16 36.66 82.06 36.68 81.97 36.69 81.87 36.71 81.79 36.72 81.71 36.74 81.65 36.75 81.61 36.76 81.56 36.78 81.5 36.79 81.43 36.82 81.35 36.86 81.27 36.89 81.19 36.94 81.11 36.99 81.03 37.05 80.95 37.12 80.88 37.18 80.81 37.26 80.75 37.35 80.71 37.44 80.67 37.54 80.66 37.65 80.65 37.86 80.68 38.02 80.73 38.15 80.8 38.24 80.9 38.3 81 38.34 81.11 38.36 81.21 38.37 81.4 38.36 81.57 38.34 81.73 38.31 81.87 38.27 82.01 38.22 82.13 38.16 82.24 38.1 82.34 38.02 82.42 37.96 82.5 37.88 82.57 37.8 82.62 37.72 82.67 37.65 82.7 37.57 82.72 37.5 82.74 37.43 82.76 37.26 82.8 37.08 82.82 36.91 82.83 36.75 82.83 36.75 82.83 36.75" fill="#e9ab4d" fill-rule="evenodd"/>
    <polygon points="95.57 38.89 95.58 38.75 95.63 38.58 95.72 38.43 95.82 38.3 95.95 38.2 96.1 38.12 96.26 38.07 96.43 38.06 96.61 38.07 96.77 38.12 96.92 38.2 97.05 38.3 97.15 38.43 97.24 38.58 97.29 38.75 97.3 38.89 97.11 38.89 97.11 38.78 97.07 38.64 97.01 38.52 96.93 38.41 96.83 38.33 96.71 38.27 96.58 38.22 96.43 38.21 96.29 38.22 96.16 38.27 96.04 38.33 95.94 38.41 95.86 38.52 95.8 38.64 95.76 38.78 95.75 38.89 95.57 38.89 95.57 38.89 95.57 38.89" fill="#fff" fill-rule="evenodd"/>
    <polygon points="96.13 38.89 96.13 38.52 96.47 38.52 96.54 38.53 96.61 38.54 96.66 38.56 96.7 38.58 96.73 38.62 96.75 38.66 96.77 38.7 96.77 38.74 96.77 38.8 96.75 38.84 96.74 38.88 96.72 38.89 96.47 38.89 96.49 38.88 96.53 38.88 96.57 38.87 96.6 38.85 96.63 38.84 96.64 38.82 96.65 38.78 96.65 38.74 96.64 38.71 96.63 38.69 96.61 38.67 96.59 38.66 96.56 38.66 96.53 38.65 96.5 38.65 96.47 38.65 96.28 38.65 96.28 38.89 96.13 38.89 96.13 38.89 96.13 38.89" fill="#fff" fill-rule="evenodd"/>
    <polygon points="95.57 38.89 95.56 38.93 95.58 39.11 95.63 39.27 95.72 39.42 95.82 39.55 95.95 39.65 96.1 39.73 96.26 39.78 96.43 39.8 96.61 39.78 96.77 39.73 96.92 39.65 97.05 39.55 97.15 39.42 97.24 39.27 97.29 39.11 97.31 38.93 97.3 38.89 97.11 38.89 97.12 38.93 97.11 39.08 97.07 39.21 97.01 39.33 96.93 39.43 96.83 39.52 96.71 39.59 96.58 39.63 96.43 39.65 96.29 39.63 96.16 39.59 96.04 39.52 95.94 39.43 95.86 39.33 95.8 39.21 95.76 39.08 95.75 38.93 95.75 38.89 95.57 38.89 95.57 38.89 95.57 38.89" fill="#fff" fill-rule="evenodd"/>
    <polygon points="96.13 38.89 96.13 39.27 96.28 39.27 96.28 38.96 96.43 38.96 96.62 39.27 96.74 39.27 96.56 38.96 96.6 38.96 96.64 38.95 96.68 38.93 96.71 38.91 96.72 38.89 96.47 38.89 96.43 38.9 96.28 38.9 96.28 38.89 96.13 38.89 96.13 38.89 96.13 38.89" fill="#fff" fill-rule="evenodd"/>
    <path d="M95.56,38.93h0l0-.18,0-.17.09-.15.11-.13L96,38.2l.15-.07.16,0,.17,0h0l.17,0,.16,0,.15.07.13.11.11.13.09.15,0,.17,0,.18h0l0,.18,0,.17-.09.15-.11.12-.13.11-.15.08-.16,0-.17,0h0l-.17,0-.16,0L96,39.65l-.13-.11-.11-.12-.09-.15,0-.17,0-.18m.72.34h-.15v-.75h.48l0,0,0,0,0,0,0,0v.09h0v.1l0,0,0,0,0,0h-.12l.19.31h-.12L96.43,39h-.15v.31m.15-.37h.17l0,0v-.09h0v-.06h-.35v.25h.15m0,.75h.14l.14,0,.12-.07.1-.09.08-.1.06-.12,0-.14v-.15h0v-.15l0-.14L97,38.52l-.08-.11-.1-.09-.12-.06-.14,0h-.28l-.14,0-.12.06-.1.09-.08.11-.06.12,0,.14v.15h0v.15l0,.14.06.12.08.1.1.09.12.07.14,0h.14" fill="none" stroke="#fff" stroke-miterlimit="2.61" stroke-width="0.22"/>
    <polygon points="84.79 39.74 86.54 39.74 86.54 39.74 87.16 36.22 87.19 36.08 87.22 35.95 87.26 35.81 87.31 35.67 87.37 35.54 87.44 35.41 87.53 35.29 87.62 35.17 87.73 35.06 87.86 34.97 88 34.87 88.16 34.8 88.34 34.74 88.54 34.69 88.75 34.65 89 34.64 89.08 34.64 89.13 34.64 89.15 34.64 89.15 34.64 89.43 33.05 89.26 33.06 89.09 33.08 88.93 33.11 88.79 33.15 88.65 33.2 88.52 33.26 88.4 33.33 88.28 33.41 88.17 33.49 88.06 33.58 87.96 33.68 87.86 33.78 87.77 33.88 87.68 34 87.59 34.11 87.5 34.23 87.69 33.12 85.95 33.12 84.79 39.74 84.79 39.74 84.79 39.74 84.79 39.74" fill="#fff" fill-rule="evenodd"/>
    <polyline points="84.79 39.74 86.54 39.74 86.54 39.74 87.16 36.22 87.16 36.22 87.19 36.08 87.22 35.95 87.26 35.81 87.31 35.67 87.37 35.54 87.44 35.41 87.53 35.29 87.62 35.17 87.73 35.06 87.86 34.97 88 34.87 88.16 34.8 88.34 34.74 88.54 34.69 88.75 34.65 89 34.64 89 34.64 89.08 34.64 89.13 34.64 89.15 34.64 89.15 34.64 89.43 33.05 89.43 33.05 89.26 33.06 89.09 33.08 88.93 33.11 88.79 33.15 88.65 33.2 88.52 33.26 88.4 33.33 88.28 33.41 88.17 33.49 88.06 33.58 87.96 33.68 87.86 33.78 87.77 33.88 87.68 34 87.59 34.11 87.5 34.23 87.69 33.12 85.95 33.12 84.79 39.74 84.79 39.74" fill="none" stroke="#fff" stroke-miterlimit="2.61" stroke-width="0.22"/>
    <polygon points="68.42 39.74 70.16 39.74 70.19 39.74 70.79 36.22 70.81 36.08 70.84 35.95 70.88 35.82 70.92 35.7 70.97 35.58 71.03 35.46 71.1 35.35 71.19 35.24 71.29 35.15 71.4 35.06 71.54 34.98 71.69 34.91 71.86 34.86 72.05 34.81 72.26 34.78 72.5 34.76 72.52 34.76 72.55 34.77 72.58 34.77 72.61 34.77 72.64 34.78 72.66 34.78 72.68 34.79 72.69 34.79 72.69 34.77 72.71 34.69 72.74 34.58 72.77 34.45 72.81 34.28 72.85 34.11 72.91 33.94 72.97 33.77 73.01 33.65 73.08 33.53 73.14 33.41 73.2 33.31 73.26 33.22 73.3 33.14 73.33 33.1 73.34 33.08 73.34 33.08 73.31 33.07 73.28 33.07 73.24 33.06 73.19 33.06 73.14 33.05 73.1 33.05 73.06 33.05 72.87 33.06 72.69 33.08 72.53 33.11 72.38 33.15 72.24 33.2 72.11 33.26 71.99 33.32 71.88 33.39 71.78 33.47 71.68 33.57 71.59 33.66 71.49 33.77 71.4 33.87 71.31 33.99 71.22 34.11 71.13 34.23 71.35 33.12 69.58 33.12 68.42 39.74 68.42 39.74 68.42 39.74 68.42 39.74" fill="#fff" fill-rule="evenodd"/>
    <polyline points="68.42 39.74 70.16 39.74 70.19 39.74 70.79 36.22 70.79 36.22 70.81 36.08 70.84 35.95 70.88 35.82 70.92 35.7 70.97 35.58 71.03 35.46 71.1 35.35 71.19 35.24 71.29 35.15 71.4 35.06 71.54 34.98 71.69 34.91 71.86 34.86 72.05 34.81 72.26 34.78 72.5 34.76 72.5 34.76 72.52 34.76 72.55 34.77 72.58 34.77 72.61 34.77 72.64 34.78 72.66 34.78 72.68 34.79 72.69 34.79 72.69 34.79 72.69 34.77 72.71 34.69 72.74 34.58 72.77 34.45 72.81 34.28 72.85 34.11 72.91 33.94 72.97 33.77 72.97 33.77 73.01 33.65 73.08 33.53 73.14 33.41 73.2 33.31 73.26 33.22 73.3 33.14 73.33 33.1 73.34 33.08 73.34 33.08 73.34 33.08 73.31 33.07 73.28 33.07 73.24 33.06 73.19 33.06 73.14 33.05 73.1 33.05 73.06 33.05 73.06 33.05 72.87 33.06 72.69 33.08 72.53 33.11 72.38 33.15 72.24 33.2 72.11 33.26 71.99 33.32 71.88 33.39 71.78 33.47 71.68 33.57 71.59 33.66 71.49 33.77 71.4 33.87 71.31 33.99 71.22 34.11 71.13 34.23 71.35 33.12 69.58 33.12 68.42 39.74 68.42 39.74" fill="none" stroke="#fff" stroke-miterlimit="2.61" stroke-width="0.22"/>
    <polygon points="95.58 46.24 95.58 46.22 95.63 46.06 95.72 45.91 95.82 45.79 95.95 45.69 96.1 45.62 96.26 45.57 96.43 45.55 96.61 45.57 96.77 45.62 96.92 45.69 97.05 45.79 97.15 45.91 97.24 46.06 97.29 46.22 97.29 46.24 97.11 46.24 97.07 46.11 97.01 45.99 96.93 45.89 96.83 45.8 96.71 45.73 96.58 45.69 96.43 45.68 96.29 45.69 96.16 45.73 96.04 45.8 95.94 45.89 95.86 45.99 95.8 46.11 95.76 46.24 95.58 46.24 95.58 46.24 95.58 46.24" fill="#e9ab4d" fill-rule="evenodd"/>
    <polygon points="96.13 46.24 96.13 46.02 96.47 46.02 96.54 46.02 96.61 46.04 96.66 46.05 96.7 46.07 96.73 46.1 96.75 46.14 96.77 46.19 96.77 46.24 96.65 46.24 96.65 46.21 96.64 46.18 96.63 46.16 96.61 46.14 96.59 46.13 96.56 46.12 96.53 46.12 96.5 46.12 96.47 46.12 96.28 46.12 96.28 46.24 96.13 46.24 96.13 46.24 96.13 46.24" fill="#e9ab4d" fill-rule="evenodd"/>
    <polygon points="95.56 46.38 95.58 46.24 95.76 46.24 95.76 46.25 95.75 46.38 95.56 46.38 95.56 46.38 95.56 46.38" fill="#e9ab4d" fill-rule="evenodd"/>
    <polygon points="96.13 46.38 96.13 46.24 96.28 46.24 96.28 46.37 96.43 46.37 96.49 46.35 96.53 46.35 96.57 46.33 96.6 46.32 96.63 46.3 96.64 46.28 96.65 46.25 96.65 46.24 96.77 46.24 96.77 46.24 96.77 46.28 96.75 46.32 96.74 46.35 96.71 46.38 96.13 46.38 96.13 46.38 96.13 46.38" fill="#e9ab4d" fill-rule="evenodd"/>
    <polygon points="97.12 46.38 97.11 46.25 97.11 46.24 97.29 46.24 97.31 46.38 97.12 46.38 97.12 46.38 97.12 46.38" fill="#e9ab4d" fill-rule="evenodd"/>
    <polygon points="95.56 46.38 95.56 46.4 95.58 46.58 95.63 46.74 95.72 46.89 95.82 47.02 95.95 47.13 96.1 47.2 96.26 47.25 96.43 47.27 96.61 47.25 96.77 47.2 96.92 47.13 97.05 47.02 97.15 46.89 97.24 46.74 97.29 46.58 97.31 46.4 97.31 46.38 97.12 46.38 97.12 46.4 97.11 46.54 97.07 46.68 97.01 46.8 96.93 46.9 96.83 46.99 96.71 47.06 96.58 47.1 96.43 47.11 96.29 47.1 96.16 47.06 96.04 46.99 95.94 46.9 95.86 46.8 95.8 46.68 95.76 46.54 95.75 46.4 95.75 46.38 95.56 46.38 95.56 46.38 95.56 46.38" fill="#e9ab4d" fill-rule="evenodd"/>
    <polygon points="96.13 46.38 96.13 46.74 96.28 46.74 96.28 46.43 96.43 46.43 96.62 46.74 96.74 46.74 96.56 46.43 96.6 46.43 96.64 46.41 96.68 46.4 96.71 46.38 96.71 46.38 96.13 46.38 96.13 46.38 96.13 46.38" fill="#e9ab4d" fill-rule="evenodd"/>
  </g>
</svg>
