<svg id="bf724938-a6ed-4e8c-a5f6-bd67cf530544" data-name="Слой 1" xmlns="http://www.w3.org/2000/svg" viewBox="0 0 135.88 70.26">
  <title>PayPal</title>
  <rect width="135.88" height="70.26" rx="5.84" ry="5.84" fill="#fff"/>
  <g>
    <path d="M71.89,17.25c.88.22,1.76.4,2.63.66,2.91.86,5.13,2.51,5.7,5.66a11.44,11.44,0,0,1-.06,4.09,19.51,19.51,0,0,1-1.53,4.72A10.49,10.49,0,0,1,70,38.3a59.49,59.49,0,0,1-6.61.3c-2,0-2.76.63-3.08,2.62-.57,3.62-1.16,7.24-1.72,10.86-.08.54-.3.73-.86.72-1.9,0-3.8,0-5.7,0-1.2,0-1.58-.4-1.39-1.58Q51.76,44,52.91,36.8c.91-5.8,1.84-11.6,2.73-17.41a2.44,2.44,0,0,1,1.42-2.15Z" fill="#03428e"/>
    <path d="M60.18,57.23a1.4,1.4,0,0,1-.49-1.45Q60.87,48.55,62,41.31c.12-.8.54-1,1.27-1a57.29,57.29,0,0,0,6.31-.23c6.78-.88,10.8-4.72,12.16-11.42,0-.2.1-.39.17-.69a5.08,5.08,0,0,1,2.17,2.89,11,11,0,0,1,.09,5.48,15.83,15.83,0,0,1-.58,2.18c-1.6,4.6-5,7-9.7,7.47-1,.11-2,.12-3,.15s-1.58.4-1.77,1.47c-.43,2.51-.85,5-1.22,7.54a2.71,2.71,0,0,1-1.11,2.09Z" fill="#00aeef"/>
  </g>
</svg>
