<svg id="176821ba-df65-424f-a955-bcf64ea0a611" data-name="Слой 1" xmlns="http://www.w3.org/2000/svg" viewBox="0 0 135.88 70.26">
  <title>Безымянный-1</title>
  <rect width="135.88" height="70.26" rx="5.84" ry="5.84" fill="#fff"/>
  <g>
    <path d="M48,15h.77q19.34,0,38.67,0c.67,0,.83.18.83.84q0,19.34,0,38.67c0,.68-.18.84-.84.83-3.27,0-6.53,0-9.8,0H76.8V47.1c.8,0,1.63,0,2.44,0s.84-.18.84-.84q0-11.18,0-22.36c0-.56-.13-.76-.72-.75q-11.25,0-22.49,0h-.74V34H48Z" fill="#008600"/>
    <path d="M52.15,52.2h7.78v3.07H47.63a6,6,0,0,1,.62-3.18,10.31,10.31,0,0,1,1.89-2.56c1.12-1,2.43-1.87,3.63-2.82a17.44,17.44,0,0,0,1.86-1.65,3,3,0,0,0,.78-2.3A2.44,2.44,0,0,0,51.66,42a19.76,19.76,0,0,0-.49,2.21H48.09a5.92,5.92,0,0,1,5-6.94,8,8,0,0,1,2.29.05,5.52,5.52,0,0,1,3.11,9.11,19.91,19.91,0,0,1-2.6,2.2c-.91.72-1.86,1.38-2.76,2.12A11.93,11.93,0,0,0,52,52Z" fill="#181818"/>
    <path d="M70.89,48.19h2.25v3H70.94v4.06H67.82v-4H60.53c0-1.15,0-2.22,0-3.28a1,1,0,0,1,.22-.46c2.25-3.24,4.5-6.48,6.78-9.7a1.17,1.17,0,0,1,.79-.41c.83-.05,1.66,0,2.56,0Zm-3.16-6.39-.14-.06-4.29,6.39h4.42Z" fill="#181818"/>
  </g>
</svg>
