<svg id="62859ffd-9f0e-48ea-b3a4-0e8df2768b8b" data-name="Слой 1" xmlns="http://www.w3.org/2000/svg" viewBox="0 0 61.33 61.33">
  <title>soc</title>
  <g>
    <circle cx="30.67" cy="30.67" r="30.67" style="fill: #fff"/>
    <g>
      <path d="M29.2,36.62l-1.46-.23A10.36,10.36,0,0,1,22.53,34a1.83,1.83,0,0,1,2.14-3c0.74,0.4,1.46.87,2.23,1.2a9.71,9.71,0,0,0,5.47.61,10.33,10.33,0,0,0,4.16-1.73,1.91,1.91,0,0,1,1.65-.31,1.83,1.83,0,0,1,.77,3,9.47,9.47,0,0,1-4.6,2.43c-0.65.15-1.31,0.24-2,.35l-0.22,0c0.17,0.18.3,0.34,0.45,0.48L37.51,42a2.09,2.09,0,0,1,.65,1.05,2,2,0,0,1-1.54,2.21,1.6,1.6,0,0,1-1.51-.44c-1.19-1.17-2.37-2.37-3.56-3.55-0.19-.19-0.37-0.38-0.57-0.56a0.36,0.36,0,0,0-.61,0c-0.67.66-1.33,1.34-2,2l-2,2a1.66,1.66,0,0,1-1.86.52,2,2,0,0,1-1.36-1.67,1.53,1.53,0,0,1,.45-1.3c1-1,1.95-2,2.92-3L29,36.83Z" style="fill: #092444"/>
      <path d="M30.63,30.76a7.46,7.46,0,1,1,7.49-7.38A7.48,7.48,0,0,1,30.63,30.76Zm3.68-7.47a3.64,3.64,0,1,0-3.61,3.66A3.63,3.63,0,0,0,34.31,23.28Z" style="fill: #092444"/>
    </g>
  </g>
</svg>
