<svg id="3eb17744-f983-48b2-a13d-d27d6e06d1d4" data-name="Ğ¡Ğ»Ğ¾Ğ¹ 1" xmlns="http://www.w3.org/2000/svg" viewBox="0 0 171.15 182.34">
  <title>gadget</title>
  <g>
    <path d="M110.58,52a3,3,0,0,1-2.47-1.33c-0.89-1.36-3.55-2.34-2.19-3.24,0.17-.11,20.08-12.11,29.26-25.57,9.29-13.63,9.77-18.9,9.77-18.95A2.9,2.9,0,0,1,147.89,0a3,3,0,0,1,2.95,3c0,1.06-.52,7.09-10.79,22.16-9.85,14.45-26.22,29.57-27,30.05C112.6,55.54,111.13,52,110.58,52Z" style="fill: #200544"/>
    <path d="M131.49,34.07a2.93,2.93,0,0,1-1.66-.51C116.22,24.3,119.8,9.32,120,8.69a2.95,2.95,0,0,1,5.72,1.43c-0.12.49-2.67,11.67,7.47,18.57A2.95,2.95,0,0,1,131.49,34.07Z" style="fill: #200544"/>
    <path d="M145.77,21.45a12.65,12.65,0,0,1-5.8-1.21,2.95,2.95,0,0,1,2.81-5.19c0.34,0.17,6.2,2.8,15.8-5.33a2.95,2.95,0,1,1,3.81,4.5C155.5,20,149.73,21.45,145.77,21.45Z" style="fill: #200544"/>
    <path d="M61.3,54.85a34.62,34.62,0,0,1-5.8-.9A134.62,134.62,0,0,1,31.83,28C21.55,13,21,6.93,21,5.87a2.95,2.95,0,1,1,5.9,0h0s0.53,5.28,9.77,18.84S65.64,48.34,65.81,48.45c1.36,0.89-1.15,3.71-2,5.07A3,3,0,0,1,61.3,54.85Z" style="fill: #200544"/>
    <path d="M40.39,36.94a2.95,2.95,0,0,1-1.66-5.39C48.88,24.64,46.31,13.46,46.2,13a2.95,2.95,0,0,1,5.72-1.42c0.16,0.63,3.74,15.61-9.88,24.87A2.93,2.93,0,0,1,40.39,36.94Z" style="fill: #200544"/>
    <path d="M28.25,23.65c-3.58,0-10.2-.93-18.47-6.35A2.95,2.95,0,1,1,13,12.37c10,6.57,16.77,5.29,16.83,5.27a3,3,0,0,1,3.49,2.25,2.93,2.93,0,0,1-2.19,3.5A13.65,13.65,0,0,1,28.25,23.65Z" style="fill: #200544"/>
    <g>
      <path d="M163,80.42c-5.5,25.39-28.93,32.24-32.08,33.61l1.61-10.72a37.87,37.87,0,0,0,26.19-24.18c-1.85.08-7.9-2.18-6.69-5s7.09,1.69,7.09,1.69-3.47-6-.73-7.25,3.71,6.85,3.71,6.85,2.1-6.61,4.59-5.88-1.85,7.09-1.85,7.09,6.29-1.37,6.29,1.13S163,80.42,163,80.42Z" style="fill: #200544"/>
      <path d="M8.14,80.42S0,80.26,0,77.76s6.29-1.13,6.29-1.13-4.35-6.37-1.85-7.09S9,75.43,9,75.43s1-8.14,3.71-6.85S12,75.83,12,75.83s5.88-4.51,7.09-1.69-4.84,5.08-6.69,5A37.87,37.87,0,0,0,38.6,103.31L40.22,114C37.07,112.66,13.64,105.81,8.14,80.42Z" style="fill: #200544"/>
    </g>
    <path d="M131.68,75.42s-2.59-.76-1.22,1.76a20.26,20.26,0,0,1,1.87,5l-1.87-2.6s2.16,4.89,2.16,6.87l-2-4s-0.93,10.46,3.88,12.83A5.55,5.55,0,0,1,130.72,94s0,3,.72,4.12A1.62,1.62,0,0,1,130,96.93s1,3.77,3,4.33c0,0-1.77.46-3.45-1.63,0,0,2.2,3.92,2,5.29,0,0-2.11-2.54-3.78-2.29a3.73,3.73,0,0,1,.81,3,2.21,2.21,0,0,0-2-1.63s-8.77,13.74-13.56,15.83a18.31,18.31,0,0,0,3.11-5.45s-7.19,6.92-8.67,7.13c0,0-5.13-8.17-9.05-7.91s-11,.1-11.74,0c0,0-.48,1.17,2.11,1.48a23.4,23.4,0,0,1-6.8-.61,1.11,1.11,0,0,0,.38,1.32,12.79,12.79,0,0,0-4.89-1.68c-2.49-.2-5.65,8-7.28,7.3s-6.95-1.88-7.09-2.49a4.22,4.22,0,0,0,.81,1.63,14.73,14.73,0,0,1-4-3.21,22.72,22.72,0,0,0-2.54-3s0.1,3.51,1.44,4.89c0,0-2.54-2.39-3.11-4l-4.79-4s2.16,3.56,3.26,4.07c0,0-1.92-.46-6-5.24l-1.77-2.34s0.48,3,1.72,4.12c0,0-2.4-1.48-4.07-6.82a10.07,10.07,0,0,0,.34,4.17s-1.53-2.14-2.3-8.19a16.8,16.8,0,0,0-.77,4.17,35.82,35.82,0,0,1-1-5.9,10.15,10.15,0,0,0-2.11,3.1s0.77-5.9,2.25-7.94c0,0-3.5,3-3.88,4.17a65.27,65.27,0,0,1,3.31-8.3,13.63,13.63,0,0,0,1.72-4.53s-1.82,2-3.64,2c0,0,4-3.36,4.7-6.36,0,0-3.45,3.77-5.13,4,0,0,5.51-6.16,5.8-10.08,0,0-3.56,2.06-4.18,2.62,0,0,4.44-4.12,2.86-4.73s4-8.52,6.25-10.92c0,0-3.7,3-5.39,2.6,0,0,5.28-3.4,6-5,0,0-2.08,1.79-3.74,1.64,0,0,4.49-3.59,5.28-5.46S51.23,54,51.23,54s-2.23.76-3.41,0.34c0,0,4.24-1.11,4.74-2.44A13.65,13.65,0,0,1,55,48.55s-5.43,2.33-8.12,1.72A14.86,14.86,0,0,0,52,47.94c1.69-1.49,3.88-3.13,3.88-3.13s-3.27.53-4.89,0.69-4.64.38-6.22-1c0,0,5.78.65,8.08-.61a34.52,34.52,0,0,1,6.32-2.29s-6.11-1.53-8.84-1.07c0,0,4.85-1.45,8.52-.69,0,0-6.29-2.06-8.7-2.14,0,0,4.31-1.07,7.62,0A14.28,14.28,0,0,1,65,36.37S60.05,33,56.63,32.52c0,0,5.41.08,9.19,2,0,0-3.77-4.31-7.55-4.47,0,0,6.32.11,10,4.31l1.44,1.37s2.34-4.47,5.1-5.57c0,0-2.66,3.59-2.87,5.5,0,0,5.5-7.25,11.71-7.94,0,0-5.28,2.9-7.29,5.92,0,0,5.1-4.54,11.68-3.7,0,0-6.93,1.34-8.77,5.27-0.13.29,12-3.56,15.62-6.31,0,0-3.45,3.46-6.13,4.38,0,0,9.36-.51,13.69-3.56,0,0-4.2,4-7.56,4.68,0,0,7.09-.1,9.29-0.92a19,19,0,0,1-4.43,2.11s17.82-.46,23.79,4.5c0,0-7.85-1.45-12.64-1.1l-0.37,0s7.9,2.29,11,2.6a23.13,23.13,0,0,1-4.67,1l8.62,6.11-9.77-4.89s7.55,8.93,11.43,9.77a14.34,14.34,0,0,1-5.39-1s7.47,6.8,9.34,7.71a19.77,19.77,0,0,1-6-2.44s5.75,5.5,8,6.41a26.32,26.32,0,0,1-5.46-2.52s-0.14,2.21,2.66,3.51l-1.65.46a16.63,16.63,0,0,1,3.09,2.37l-3.38-.46,5.1,3.21-3.59.92L131.25,73l-1.94.38Z" style="fill: #200544"/>
    <ellipse cx="85.36" cy="179.81" rx="49.59" ry="2.52" style="fill: #011627;opacity: 0.15"/>
    <path d="M97.39,169.28a23.83,23.83,0,0,1-1.22,4.14s15.53-2.53,18.93.55c2.62,2.37.12,5.44-3.19,5.44H88.24s5.84-3.86,6.47-10.06" style="fill: #200544"/>
    <path d="M73.67,169.28a23.83,23.83,0,0,0,1.22,4.14S59.36,170.9,56,174c-2.62,2.37-.12,5.44,3.19,5.44H82.81s-5.84-3.86-6.47-10.06" style="fill: #200544"/>
    <path d="M133.87,114.34c0,23.46,0,15.6,0,39.05,0,9.44-6.51,15.89-16,15.88h-65c-9.49,0-16-6.39-16-15.87,0-46.85,0-44.56,0-91.41,0-9,6.45-15.51,15.49-15.53q33-.05,66,0c9,0,15.35,6.31,15.44,15.34s0,10.48,0,19.63c0,14.3,0,18.61,0,32.91h0Z" style="fill: #200544"/>
    <circle cx="84.57" cy="95.03" r="13.23" style="fill: #e2e1e6"/>
    <path d="M85.1,103.53C96.33,104.09,98,93.6,98.41,92.29L95.1,85.44l-6-3.64H79.59s0-3.67-3.14,1.74S72.21,102.89,85.1,103.53Z" style="fill: #fbfbfb"/>
    <path d="M84.57,91.23a4,4,0,0,0-.41,0A2.66,2.66,0,0,1,80.56,95c0,0.1,0,.2,0,0.3A4,4,0,1,0,84.57,91.23Z" style="fill: #4a4a48"/>
    <path d="M84.57,81.8A13.23,13.23,0,1,1,71.34,95,13.23,13.23,0,0,1,84.57,81.8m0-3.92A17.15,17.15,0,1,0,101.72,95,17.17,17.17,0,0,0,84.57,77.88h0Z" style="fill: #f73d6e"/>
    <path d="M95.7,87.88a13.21,13.21,0,0,0-22.25,0H95.7Z" style="fill: #bc0d4d"/>
    <g>
      <path d="M105.58,141s-24.7.9-32.18,1.71-13.52.54-11.63-6.31S72.44,122.87,86.71,123s22.69,4.38,24.55,13C112.43,141.43,105.58,141,105.58,141Z" style="fill: #000a33"/>
      <path d="M68.46,144.19c-3.69,0-6-.76-7.24-2.4-1-1.38-1.24-3.3-.57-5.71,2-7.07,10.59-14.2,25.49-14.2h0.58c15.08,0.19,23.72,4.87,25.68,13.9a4.85,4.85,0,0,1-.79,4.26c-1.54,1.91-4.47,2.12-5.65,2.12h-0.45c-0.13,0-24.62.91-32,1.71A47.66,47.66,0,0,1,68.46,144.19Zm17.68-20c-13.59,0-21.57,6.47-23.23,12.48-0.46,1.67-.4,2.91.18,3.67,0.74,1,2.55,1.48,5.37,1.48a45.11,45.11,0,0,0,4.82-.32c7.44-.8,31.25-1.68,32.26-1.72H106c1.37,0,3.09-.33,3.83-1.25a2.62,2.62,0,0,0,.33-2.3c-1.7-7.82-9.57-11.88-23.42-12.06H86.14Z" style="fill: #42a2a0"/>
    </g>
    <path d="M76.38,141.7S75,132,80.71,131.52s6,10.18,6,10.18H76.38Z" style="fill: #fff"/>
    <path d="M99.11,141.24s1.25-9-4.88-8.91-6.57,6.1-7,8.91H99.11Z" style="fill: #fff"/>
    <path d="M68.46,144.58c-2.4,0-5.8-.27-7.55-2.55-1.12-1.48-1.34-3.51-.64-6.05,2-7.21,10.76-14.48,25.87-14.48h0.59c15.29,0.19,24.05,5,26.05,14.21a5.23,5.23,0,0,1-.87,4.59c-1.88,2.33-5.68,2.28-6.34,2.26-1.45.05-24.85,0.93-32,1.7A47.7,47.7,0,0,1,68.46,144.58Zm17.68-20c-13.39,0-21.23,6.32-22.86,12.2-0.43,1.55-.39,2.67.11,3.33,0.67,0.88,2.37,1.32,5.06,1.32a44.67,44.67,0,0,0,4.78-.31c7.45-.81,31.28-1.68,32.29-1.72H106c1.27,0,2.87-.29,3.53-1.1a2.11,2.11,0,0,0,.25-2c-1.65-7.62-9.4-11.58-23-11.75H86.14Z" style="fill: #f73d6e"/>
    <rect x="47.14" y="61.27" width="76.68" height="97.25" rx="9.22" ry="9.22" style="fill: none;stroke: #f2f2f2;stroke-miterlimit: 10;stroke-width: 3px"/>
    <circle cx="84.57" cy="49.63" r="4.05" style="fill: #f73d6e;stroke: #f2f2f2;stroke-miterlimit: 10;stroke-width: 3px"/>
    <g>
      <path d="M52.76,107.19a9.17,9.17,0,0,0,.53-2.73l1.26,1.11-0.4-5.37L56,101S55.53,89,47.8,87.84c0,0-.7-1.26.27-1.32a4.7,4.7,0,0,0-3.13-1.15s-0.06-1.56,1-1.73c0,0-4-.61-5.08.25l0.29-1.42-2.67.44-0.2-1.24s-3.59.79-4.62,2.23a4.87,4.87,0,0,1-.35-2.1A4.73,4.73,0,0,0,32,84.68s-2-.65-2.16-2.29a4.09,4.09,0,0,0-1.42,3.27s-1.75.09-2.32-1a5.4,5.4,0,0,0-.7,4A6.68,6.68,0,0,1,22,88a8.48,8.48,0,0,0,.46,2.76s-2.15,1.82-2,3.36c0,0-.62,3.92-0.07,4.91L21,98.14s-0.36,5.83.38,7.47l1-.46s-0.28,4.25.6,5.38l0.43-1s2.35-.58,2.87,1.39,3.55,6.07,8.14,6,5.35,0.39,5.35.39l-1.25-2.24s5.56-.33,7.52.13l-0.89-2,2.51-.22,0.07-1.38,2.78-.36,0.07-2,2.29-.38Z" style="fill: #89e5e5"/>
      <path d="M42.48,90.94s0.08,2.93-1.53,4.53l1.62,1.05-2.47,3.81,2.64,0.9A71.64,71.64,0,0,1,37,106l2.51,0.24s-5.37,5.26-12,3a11.89,11.89,0,0,0,10,1.51A4.69,4.69,0,0,1,35,113.58s5.49-.47,8.41-4.1a1.71,1.71,0,0,1,.59,2.11s3.23-3.2,3.68-5.67c0,0,1.24.57,1.2,1.35,0,0,2.07-3.37,1.41-5.19l2.21,0.86s0.08-4.55-1.38-5.5S48.95,97,48.95,97l0.69-2.66-2.1.13L47.28,92.1,46.07,94l-1.13-2.69Z" style="fill: #fdf9f6;opacity: 0.5"/>
      <path d="M45.06,69.22s-3.32-8.14,2-12.1c0,0,6.45-.83,2.24,5.64Z" style="fill: #89e5e5"/>
      <path d="M38.77,119.8s5.5,6.86,1.56,12.16c0,0-5.94,2.63-3.75-4.77Z" style="fill: #89e5e5"/>
      <path d="M20.81,114.53s-5.64.53-6.32,4.72c0,0,1.44,3.93,3.88-.4Z" style="fill: #89e5e5"/>
      <path d="M35.83,76.33s1.15-8.72-5-11.21c0,0-6.45.83-.74,6Z" style="fill: #89e5e5"/>
      <circle cx="49.42" cy="77.81" r="3.28" transform="translate(-9.53 6.95) rotate(-7.33)" style="fill: #89e5e5"/>
      <circle cx="27.76" cy="121.98" r="2.17" style="fill: #89e5e5"/>
      <circle cx="57.64" cy="113.61" r="2.74" style="fill: #89e5e5"/>
    </g>
  </g>
</svg>
