<svg version="1.1"
	 xmlns="http://www.w3.org/2000/svg" xmlns:xlink="http://www.w3.org/1999/xlink"
	 x="0px" y="0px" width="14.9px" height="17.4px" viewBox="0 0 14.9 17.4" style="enable-background:new 0 0 14.9 17.4;"
	 xml:space="preserve">
	<path d="M0,5c4.2,0,8.3,0,12.4,0c0,0.1,0,0.2,0,0.2c0,3.4,0,6.7,0,10.1c0,0,0,0.1,0,0.1c0,0.4,0.3,0.7,0.6,0.7
		c0.4,0,0.6-0.3,0.6-0.7c0-1.1,0-2.2,0-3.2c0-2.4,0-4.7,0-7.1c0-0.1,0-0.1,0-0.2c0.4,0,0.8,0,1.2,0c0,0.4,0,0.8,0,1.2
		c0,3.3,0,6.6,0,9.9c0,0.8-0.5,1.3-1.3,1.3c-4.1,0-8.1,0-12.2,0C0.5,17.4,0,16.9,0,16c0-3.6,0-7.2,0-10.8C0,5.1,0,5.1,0,5z"/>
	<path d="M5,4.3c-0.4,0-0.8,0-1.2,0C3.6,2.9,4.1,1.6,5.3,0.7c1.2-0.9,2.8-1,4.1-0.2c1.3,0.8,2,2.2,1.8,3.8
		c-0.4,0-0.8,0-1.2,0c0-0.2,0-0.4,0-0.6c0-1.2-0.8-2.2-1.9-2.4C6.5,1,5,2.1,5,3.6C5,3.9,5,4.1,5,4.3z"/>
</svg>
