<svg id="5cce25a4-5173-4e4e-b496-5f559c66dd38" data-name="Слой 1" xmlns="http://www.w3.org/2000/svg" xmlns:xlink="http://www.w3.org/1999/xlink" viewBox="0 0 319.1 100.81" width="320px" height="100px">
  <defs>
    <clipPath id="87bb7b65-2772-4399-8e41-25733809f4a9">
      <path id="ac693fa2-b606-48f6-bbb3-8a3a2740d8ef" data-name="SVGID" d="M257.56,34.24s-3.86-18-12.3-22-12,1.32-14.11,4.34-6.72,9.07-7.93,17.36l1.49,4.23,16.79-.61,12.23-.44,3.89-1Z" style="fill: none"/>
    </clipPath>
    <linearGradient id="eebcd79f-2838-4c72-b61c-a9db024dcccc" data-name="Безымянный градиент 18" x1="243.51" y1="32.24" x2="243.51" y2="43.92" gradientTransform="translate(-4.62 9.3) rotate(-2.07)" gradientUnits="userSpaceOnUse">
      <stop offset="0" stop-color="#f73d6e"/>
      <stop offset="1" stop-color="#a22751"/>
    </linearGradient>
    <linearGradient id="38c32e4b-9ed4-4a6d-a8aa-de04bc4fc2c0" x1="214.83" y1="58.6" x2="265.68" y2="58.6" gradientTransform="matrix(1, 0, 0, 1, 0, 0)" xlink:href="#eebcd79f-2838-4c72-b61c-a9db024dcccc"/>
    <linearGradient id="503c1d06-8f40-45e4-99e9-e27037856836" x1="236.81" y1="7.83" x2="253.02" y2="7.83" xlink:href="#eebcd79f-2838-4c72-b61c-a9db024dcccc"/>
  </defs>
  <title>logo</title>
  <g>
    <g>
      <path d="M40.08,83.93c0,9.56-7.79,15.8-17.42,15.8H0v-54H21.12c9.4,0,17,6.09,17,15.42a13.5,13.5,0,0,1-4.7,10.56A13.93,13.93,0,0,1,40.08,83.93ZM12.33,57.34V66.9h8.79a4.78,4.78,0,0,0,0-9.56H12.33ZM27.75,83a4.87,4.87,0,0,0-5.09-5.16H12.33V88.17H22.66A4.87,4.87,0,0,0,27.75,83Z" style="fill: #501b7d"/>
      <path d="M43.93,72.76A28.06,28.06,0,1,1,72,100.81,27.82,27.82,0,0,1,43.93,72.76Zm43.78,0c0-9.63-6.94-16-15.72-16s-15.72,6.4-15.72,16,6.94,16,15.72,16S87.71,82.39,87.71,72.76Z" style="fill: #501b7d"/>
      <path d="M104.66,72.76a28.06,28.06,0,1,1,28.06,28.06A27.82,27.82,0,0,1,104.66,72.76Zm43.78,0c0-9.63-6.94-16-15.72-16S117,63.12,117,72.76s6.94,16,15.72,16S148.44,82.39,148.44,72.76Z" style="fill: #501b7d"/>
      <path d="M207.79,83.93c0,9.56-7.78,15.8-17.42,15.8H167.71v-54h21.12c9.4,0,17,6.09,17,15.42a13.51,13.51,0,0,1-4.7,10.56A13.93,13.93,0,0,1,207.79,83.93ZM180,57.34V66.9h8.79a4.78,4.78,0,0,0,0-9.56H180ZM195.45,83a4.87,4.87,0,0,0-5.09-5.16H180V88.17h10.33A4.87,4.87,0,0,0,195.45,83Z" style="fill: #501b7d"/>
      <path d="M319.1,45.78v54h-9.25L289,70.44V99.73H276.71v-54H286l20.81,29.29V45.78H319.1Z" style="fill: #501b7d"/>
    </g>
    <g>
      <path d="M257.63,34.24s-3.86-18-12.3-22-12,1.32-14.11,4.34-6.72,9.07-7.93,17.36l1.49,4.23,16.79-.61,12.23-.44,3.89-1Z" style="fill: #df265f"/>
      <g style="clip-path: url(#87bb7b65-2772-4399-8e41-25733809f4a9)">
        <g>
          <g style="opacity: 0.7000000000000001">
            <path d="M257.08,23l-3.55-2.93L247,25.44l-6.49-5.36h0v2.1h0L247,27.54l6.49-5.36,4.34,3.58A17.26,17.26,0,0,0,257.08,23Z" style="fill: #fff"/>
          </g>
          <path d="M234.07,25.44l-6.49-5.36L224,23a17.53,17.53,0,0,0-.77,2.74l4.35-3.6,6.49,5.36,6.48-5.36v-2.1Z" style="fill: #fff"/>
          <g>
            <g style="opacity: 0.7000000000000001">
              <path d="M257.08,18.08l-3.55-2.93L247,20.52l-6.49-5.36h0v2.1h0L247,22.62l6.49-5.36,4.34,3.58A17.26,17.26,0,0,0,257.08,18.08Z" style="fill: #fff"/>
            </g>
            <path d="M234.07,20.52l-6.49-5.36-3.58,3a17.53,17.53,0,0,0-.77,2.74l4.35-3.6,6.49,5.36,6.48-5.36v-2.1Z" style="fill: #fff"/>
          </g>
          <g>
            <g style="opacity: 0.7000000000000001">
              <path d="M257.08,13.24l-3.55-2.93L247,15.67l-6.49-5.36h0v2.1h0L247,17.77l6.49-5.36L257.88,16A17.26,17.26,0,0,0,257.08,13.24Z" style="fill: #fff"/>
            </g>
            <path d="M234.07,15.67l-6.49-5.36-3.58,3a17.53,17.53,0,0,0-.77,2.74l4.35-3.6,6.49,5.36,6.48-5.36v-2.1Z" style="fill: #fff"/>
          </g>
          <path d="M234.07,30.19l-6.49-5.36-4.67,3.86c0,0.16,0,.33,0,0.49V30.8l4.68-3.87,6.49,5.36,6.48-5.36v-2.1Z" style="fill: #fff"/>
          <g style="opacity: 0.7000000000000001">
            <path d="M258.2,28.69l-4.67-3.86L247,30.19l-6.49-5.36h0v2.1h0L247,32.29l6.49-5.36,4.68,3.87V29.18C258.22,29,258.21,28.85,258.2,28.69Z" style="fill: #fff"/>
          </g>
          <path d="M234.07,35.05l-6.49-5.36-4.67,3.86c0,0.16,0,.33,0,0.49v1.62l4.68-3.87,6.49,5.36,6.48-5.36V29.7Z" style="fill: #fff"/>
          <g style="opacity: 0.7000000000000001">
            <path d="M258.2,33.55l-4.67-3.86L247,35.05l-6.49-5.36h0v2.1h0L247,37.16l6.49-5.36,4.68,3.87V34C258.22,33.88,258.21,33.71,258.2,33.55Z" style="fill: #fff"/>
          </g>
        </g>
      </g>
      <ellipse cx="241.26" cy="99.29" rx="22.28" ry="1.38" style="fill: #011627;opacity: 0.15"/>
      <path d="M255.53,34a102.74,102.74,0,0,0-31.09-.14s-5,.37-4.92,2,2.29,0.87,1.78,3.09-0.7,5.54,2.32,5.31,11.14-2.57,18-2.78c12.31-.37,15.18,2.62,16.58,2.2,0.71-.22.35-1.91-0.08-2.31s0.3-1.44,1-1.64,2-1.75,1.32-2.91a3.81,3.81,0,0,0-2.1-2.11C257.54,34.6,255.53,34,255.53,34Z" style="fill: url(#eebcd79f-2838-4c72-b61c-a9db024dcccc)"/>
      <path d="M225.2,37.3s-1,3.55.14,4,5.28-1.12,7.21-1.19,1-3.27.62-3.76S225.2,37.3,225.2,37.3Z" style="fill: #fff"/>
      <g>
        <path d="M227.65,39.45a0.63,0.63,0,0,1-.56.72l-0.87.16-0.37-2.06,0.81-.15a0.61,0.61,0,0,1,.76.47,0.52,0.52,0,0,1-.11.44A0.54,0.54,0,0,1,227.65,39.45Zm-1.24-.82L226.47,39l0.34-.06a0.19,0.19,0,0,0-.07-0.37Zm0.77,0.87a0.19,0.19,0,0,0-.23-0.16l-0.39.07,0.07,0.39,0.39-.07A0.19,0.19,0,0,0,227.17,39.5Z" style="fill: #000a33"/>
        <path d="M228,38.9a1.09,1.09,0,1,1,1.27.88A1.08,1.08,0,0,1,228,38.9Zm1.67-.3a0.61,0.61,0,1,0-.49.72A0.6,0.6,0,0,0,229.69,38.59Z" style="fill: #000a33"/>
        <path d="M230.63,38.46a1.09,1.09,0,1,1,1.21,1A1.08,1.08,0,0,1,230.63,38.46Zm1.69-.2a0.61,0.61,0,1,0-.53.69A0.6,0.6,0,0,0,232.32,38.26Z" style="fill: #000a33"/>
      </g>
      <g>
        <path d="M227.43,89.47l0.12,0.08Z" style="fill: #69cad1"/>
        <path d="M266.25,75.92a4.54,4.54,0,0,0,2.16.74,7.83,7.83,0,0,1-2-7.13,34.64,34.64,0,0,1,2.08,4.18,41.67,41.67,0,0,0-2.35-7.91,15.7,15.7,0,0,1,2.09,2.74,13.59,13.59,0,0,0-2-4.85,7.93,7.93,0,0,1,2.12-.41c-2.32-.79-4.09-4.93-4.09-4.93,0.87,0.72,4,1.32,4,1.32-2.85-1.28-6.69-6.3-6.69-6.3a26.7,26.7,0,0,0,4.82,1.74c-2.26-.89-7.48-6-7.48-6,1.77,0,5.28,1.83,5.28,1.83-2.86-3.12-7.66-5.33-8.38-5.65,5.15,0.16,5.91-1.94,5.91-1.94-4.72.6-6.5-.69-9.46-1.28a9.53,9.53,0,0,0,1.94-3.29A5.42,5.42,0,0,0,253,33.39c-1.2-1.17-4.71-2.07-6.34.23a2.15,2.15,0,0,0,1.22,3.3,1.13,1.13,0,0,0,1.38-1.33,1.39,1.39,0,0,0-.38-0.56,0.86,0.86,0,0,1,.09.46,0.44,0.44,0,0,1,0,.16,0.41,0.41,0,0,1-.12.14,0.69,0.69,0,0,1-.67.09,0.62,0.62,0,0,1-.4-0.53,1.37,1.37,0,0,1,.14-0.59,1,1,0,0,1,1-.4,1.25,1.25,0,0,1,.93,1.48C249.45,38,247.12,38.51,246,39l-0.3.12a11.46,11.46,0,0,0,.4-1.89c-1.35,3.11-3.72,3.22-3.44,2.94a4,4,0,0,0,.94-3.24,5.5,5.5,0,0,1-5.25,3.15c2.39-2.49,2.09-3.9,2.09-3.9-3.63,4.36-7.19,5.14-7.19,5.14-2.16.48-5,1.39-5,1.39-5.55,3.62-10.41-.94-10.41-0.94,1.29,4.37,4.42,5.12,4.42,5.12s-2.17.62-4.54,4.28c-1.89,2.92-3.14,5.16-3.14,5.16a4.64,4.64,0,0,0,1.59-.8c-0.9,3.63-3.43,4.51-3.43,4.51,0.37,0.58,3.22-.38,3.71-0.56-0.42.16-2.51,1.15-3.24,5.36-0.77,4.4-.5,3.41-0.5,3.41a7.64,7.64,0,0,1,.91-2.08l-0.09,3.57a14.42,14.42,0,0,1-1,5.38A10,10,0,0,0,214.27,72c-1.3,7.88,1.26,10.07,1.26,10.07a4.23,4.23,0,0,1-.1-2.3,9.14,9.14,0,0,0,2.73,4.47,7.24,7.24,0,0,1-1.43-2.94A24.67,24.67,0,0,0,224,88.15,14.15,14.15,0,0,1,222.52,85c0.83,1.58,4.25,4,4.91,4.43a8.77,8.77,0,0,1-1.18-1.61c2.12,1.91,7.92,4,7.92,4-0.54-.52-1.25-1.39-1.25-1.39,0.74,0.87,6.23,1.86,5.63,1.74A15.48,15.48,0,0,1,236,90.88a21.53,21.53,0,0,0,5,1s7.19,0,11.46-1.67a14.79,14.79,0,0,0,6.68-5.85,14.58,14.58,0,0,1-3.12,5.9C259.48,88,263,82,263,82a25,25,0,0,1-.86,3.93c1.83-2.1,2.19-6,2.19-6a3.19,3.19,0,0,1,1.1,1.14,10.76,10.76,0,0,0-.89-3.15,10.9,10.9,0,0,0,2.81,2.06C265.93,78.71,265.57,75.31,266.25,75.92Z" style="fill: #69cad1"/>
      </g>
      <path d="M247.34,53.11a7.8,7.8,0,0,0-13.14,0h13.14Z" style="fill: #69cad1"/>
      <path d="M252.42,73.24a0.94,0.94,0,0,0-.51-0.2c-1.68-.29-6.6.66-10.9,0.66-3.88,0-8-.73-10-0.66a1.69,1.69,0,0,0-1,.25c-1,1-.32,6.66,4.16,9.69a11.72,11.72,0,0,0,6.72,1.88,14.05,14.05,0,0,0,7.34-1.81C253.07,80.12,253.71,74.54,252.42,73.24Z" style="fill: #111"/>
      <g>
        <path d="M241.58,81.15a12.29,12.29,0,0,1,6.6,1.9,14.05,14.05,0,0,1-7.34,1.81A11.72,11.72,0,0,1,234.12,83,18.42,18.42,0,0,1,241.58,81.15Z" style="fill: #e86d7f"/>
        <path d="M251.91,73s-0.69,3.4-1.76,4.47c-0.64.64-4.09,1-8.69,1a33.5,33.5,0,0,1-9-.95C231.23,77.14,231,73,231,73c2-.07,6.11.66,10,0.66C245.3,73.7,250.22,72.75,251.91,73Z" style="fill: #fff"/>
      </g>
      <g style="opacity: 0.75">
        <path d="M241.21,82.61a5.45,5.45,0,0,0-1.64.09,3,3,0,0,0-1.53.73,0.44,0.44,0,0,0,.19.72,4.2,4.2,0,0,0,1.56-.24,11.67,11.67,0,0,0,1.59,0A0.64,0.64,0,0,0,241.21,82.61Z" style="fill: #fff"/>
      </g>
      <g>
        <path d="M240.84,85.17a12.06,12.06,0,0,1-6.89-1.94,10.86,10.86,0,0,1-4.64-7.75,3.21,3.21,0,0,1,.44-2.41,1.86,1.86,0,0,1,1.26-.34,33.76,33.76,0,0,1,3.83.26c1.91,0.19,4.07.4,6.18,0.4s4.35-.23,6.33-0.43a22.57,22.57,0,0,1,4.63-.23,1.19,1.19,0,0,1,.68.29,3.82,3.82,0,0,1,.62,3.06,10,10,0,0,1-4.92,7.23A14.4,14.4,0,0,1,240.84,85.17ZM231.3,73.34H231a1.4,1.4,0,0,0-.84.16,2.84,2.84,0,0,0-.26,1.92,10.38,10.38,0,0,0,4.37,7.3,11.46,11.46,0,0,0,6.55,1.83A13.8,13.8,0,0,0,248,82.79,9.54,9.54,0,0,0,252.64,76a3.37,3.37,0,0,0-.44-2.55,0.67,0.67,0,0,0-.34-0.12,23.26,23.26,0,0,0-4.47.23c-2,.2-4.25.43-6.39,0.43s-4.31-.21-6.24-0.4C233.38,73.46,232.16,73.34,231.3,73.34Z" style="fill: #1299ac"/>
        <path d="M240.84,85.91a12.78,12.78,0,0,1-7.3-2.06,11.61,11.61,0,0,1-5-8.28,3.89,3.89,0,0,1,.65-3A2.44,2.44,0,0,1,231,72h0.32c0.93,0,2.16.12,3.59,0.26,1.91,0.19,4,.4,6.11.4s4.29-.22,6.25-0.42a23.25,23.25,0,0,1,4.83-.22,1.87,1.87,0,0,1,1.07.49,4.45,4.45,0,0,1,.83,3.67,10.75,10.75,0,0,1-5.27,7.77A15.11,15.11,0,0,1,240.84,85.91Zm-10.15-11.8a3.8,3.8,0,0,0,0,1.25,9.61,9.61,0,0,0,4.05,6.76,10.75,10.75,0,0,0,6.14,1.71,13.08,13.08,0,0,0,6.8-1.66,8.79,8.79,0,0,0,4.27-6.24,3.35,3.35,0,0,0-.17-1.85h0a25.09,25.09,0,0,0-4.28.24c-2,.2-4.29.43-6.46,0.43s-4.37-.22-6.31-0.41a34.78,34.78,0,0,0-3.62-.25h0Z" style="fill: #1299ac"/>
      </g>
      <g>
        <path d="M217.4,59.25s-1.58-1.11-8.76,3.13a15.21,15.21,0,0,0-6.58,8.12,13.35,13.35,0,0,0,3.18,1,8.92,8.92,0,0,1,2.38-3.75c4.21-4,10.9-1.79,10.9-1.79Z" style="fill: #69cad1"/>
        <path d="M207.58,75c-0.6-.32-1.94-0.63-2.53-1l-0.31-.18a14,14,0,0,1,.35-1.9,13.67,13.67,0,0,1-3.2-1,13.88,13.88,0,0,0-.47,2,4.88,4.88,0,0,1-1.5.6l-1.81.38a1.35,1.35,0,1,0,.95,2.46l1.2-.7A1.91,1.91,0,0,0,200,76l-1.48,1.72a1.64,1.64,0,0,0,.35,2.54h0a1.64,1.64,0,0,0,2.42-.85l0.85-2.1h0a1.88,1.88,0,0,0,0,.21l0.16,2.26a1.66,1.66,0,1,0,3.16-.75L204.67,77l-0.06-.14a2.72,2.72,0,0,0,3.59.63C208.75,77,209,75.78,207.58,75Zm-6.41.19,0.15-.1v0.08Z" style="fill: #ff2e6b"/>
      </g>
      <rect x="201.4" y="70.2" width="4.29" height="2.22" rx="0.94" ry="0.94" transform="translate(25.6 -50.55) rotate(15.1)" style="fill: #fff"/>
      <g>
        <path d="M264,59.25s1.58-1.11,8.76,3.13a15.21,15.21,0,0,1,6.58,8.12,13.35,13.35,0,0,1-3.18,1,8.92,8.92,0,0,0-2.38-3.75c-4.21-4-10.9-1.79-10.9-1.79Z" style="fill: #69cad1"/>
        <path d="M273.24,77.45a2.72,2.72,0,0,0,3.59-.63l-0.06.14-0.87,2.09a1.66,1.66,0,1,0,3.16.75l0.16-2.26a1.88,1.88,0,0,0,0-.21h0l0.85,2.1a1.64,1.64,0,0,0,2.42.85h0a1.64,1.64,0,0,0,.35-2.54L281.4,76a1.91,1.91,0,0,0-.22-0.29l1.2,0.7a1.35,1.35,0,1,0,.95-2.46l-1.81-.38A4.88,4.88,0,0,1,280,73a13.88,13.88,0,0,0-.47-2,13.67,13.67,0,0,1-3.2,1,14,14,0,0,1,.35,1.9l-0.31.18c-0.59.33-1.93,0.63-2.53,1C272.44,75.78,272.7,77,273.24,77.45Zm6.89-2.27V75.1l0.15,0.1Z" style="fill: #ff2e6b"/>
      </g>
      <rect x="275.75" y="70.2" width="4.29" height="2.22" rx="0.94" ry="0.94" transform="translate(564.78 67.78) rotate(164.9)" style="fill: #fff"/>
      <g>
        <path d="M219.6,61.68h-3.44c-1.07,0-1.33-.26-1.33-1.33q0-3,0-5.93A1,1,0,0,1,216,53.23h3.55a1.62,1.62,0,0,0,.06-0.46c-0.24-1.1.35-1.54,1.29-1.9a41.84,41.84,0,0,1,9.57-2.28,76.33,76.33,0,0,1,15.64-.41,43.44,43.44,0,0,1,14,2.91,1,1,0,0,1,.8,1.23,6.5,6.5,0,0,0,0,.91h3.59a1,1,0,0,1,1.18,1.17q0,3.07,0,6.14a1,1,0,0,1-1.1,1.13c-1.19,0-2.39,0-3.57,0a0.78,0.78,0,0,0-.09.26c0.26,1.24-.44,2-1.27,2.77a15.94,15.94,0,0,1-8.37,4.38,7.92,7.92,0,0,1-8.75-4.48,14.22,14.22,0,0,0-1.39-2.2c-0.62-.8-1.14-0.79-1.78,0a9.3,9.3,0,0,0-1.24,1.87c-2.13,4.44-6.17,5.86-10.74,4.41a16.66,16.66,0,0,1-7.47-5,1.6,1.6,0,0,1-.3-0.81A9.42,9.42,0,0,1,219.6,61.68Zm19.1-12c-1.81.15-5.24,0.35-8.65,0.73a32.76,32.76,0,0,0-8.13,1.95,0.75,0.75,0,0,0-.59.8c0,3,0,6,0,9a1.18,1.18,0,0,0,.26.75,14.56,14.56,0,0,0,6.68,4.17c3.81,1.06,6.48-.16,8.29-3.68a11.3,11.3,0,0,1,1.53-2.27,3.57,3.57,0,0,1,1.51-1,2.58,2.58,0,0,1,3,1.21,31.8,31.8,0,0,1,1.75,2.81,6,6,0,0,0,6.25,3.19,13.75,13.75,0,0,0,8.32-4.51,1.08,1.08,0,0,0,.23-0.69c0-3,0-6,0-9a0.73,0.73,0,0,0-.57-0.82c-0.72-.23-1.41-0.51-2.14-0.72C251.18,50.17,245.77,49.82,238.71,49.72Zm-22.18,7.73c0-.91,0-1.83,0-2.74a1.64,1.64,0,0,0-.38-0.62,1.43,1.43,0,0,0-.39.56q0,2.78,0,5.56a1.48,1.48,0,0,0,.37.58,1.56,1.56,0,0,0,.4-0.6C216.55,59.28,216.53,58.37,216.53,57.45ZM264,57.37h0c0,0.94,0,1.88,0,2.81a1.61,1.61,0,0,0,.39.61,1.46,1.46,0,0,0,.36-0.57q0-2.78,0-5.56a1.48,1.48,0,0,0-.36-0.58,1.61,1.61,0,0,0-.39.61C264,55.59,264,56.48,264,57.37Z" style="fill: url(#38c32e4b-9ed4-4a6d-a8aa-de04bc4fc2c0)"/>
        <path d="M238.71,49.72c7.06,0.1,12.48.45,17.75,2,0.72,0.21,1.42.49,2.14,0.72a0.73,0.73,0,0,1,.57.82c0,3,0,6,0,9a1.08,1.08,0,0,1-.23.69,13.75,13.75,0,0,1-8.32,4.51,6,6,0,0,1-6.25-3.19,31.8,31.8,0,0,0-1.75-2.81,2.58,2.58,0,0,0-3-1.21,3.57,3.57,0,0,0-1.51,1,11.3,11.3,0,0,0-1.53,2.27c-1.81,3.52-4.48,4.74-8.29,3.68a14.56,14.56,0,0,1-6.68-4.17,1.18,1.18,0,0,1-.26-0.75c0-3,0-6,0-9a0.75,0.75,0,0,1,.59-0.8,32.76,32.76,0,0,1,8.13-1.95C233.46,50.07,236.89,49.87,238.71,49.72Zm0,1.36c-1.63.13-4.86,0.24-8,.66-2.5.33-4.95,1.06-7.42,1.6a0.62,0.62,0,0,0-.54.74c0,2.54,0,5.09,0,7.63a1.12,1.12,0,0,0,.3.73,13.19,13.19,0,0,0,6,3.44,4.89,4.89,0,0,0,5.78-2.11c0.25-.39.44-0.83,0.67-1.24a9.83,9.83,0,0,1,2.35-3,3.75,3.75,0,0,1,5.31.42,16.83,16.83,0,0,1,2.18,3.17A5,5,0,0,0,251,66a12.39,12.39,0,0,0,6.3-3.39,1.67,1.67,0,0,0,.47-1.08c0-2.09,0-4.19,0-6.28,0-1.77,0-1.77-1.73-2.26C250.9,51.52,245.63,51.16,238.73,51.08Z" style="fill: #fff"/>
        <path d="M216.53,57.45c0,0.91,0,1.83,0,2.74a1.56,1.56,0,0,1-.4.6,1.48,1.48,0,0,1-.37-0.58q0-2.78,0-5.56a1.43,1.43,0,0,1,.39-0.56,1.64,1.64,0,0,1,.38.62C216.55,55.62,216.53,56.54,216.53,57.45Z" style="fill: #fff"/>
        <path d="M264,57.37c0-.89,0-1.78,0-2.67a1.61,1.61,0,0,1,.39-0.61,1.48,1.48,0,0,1,.36.58q0,2.78,0,5.56a1.46,1.46,0,0,1-.36.57,1.61,1.61,0,0,1-.39-0.61c0-.94,0-1.87,0-2.81h0Z" style="fill: #fff"/>
        <path d="M238.73,51.08c6.9,0.08,12.17.44,17.31,1.88,1.74,0.49,1.73.49,1.73,2.26,0,2.09,0,4.19,0,6.28a1.67,1.67,0,0,1-.47,1.08A12.39,12.39,0,0,1,251,66a5,5,0,0,1-5.67-2.8A16.83,16.83,0,0,0,243.14,60a3.75,3.75,0,0,0-5.31-.42,9.83,9.83,0,0,0-2.35,3c-0.23.41-.42,0.84-0.67,1.24A4.89,4.89,0,0,1,229,65.89a13.19,13.19,0,0,1-6-3.44,1.12,1.12,0,0,1-.3-0.73c0-2.54,0-5.09,0-7.63a0.62,0.62,0,0,1,.54-0.74c2.47-.54,4.92-1.27,7.42-1.6C233.87,51.32,237.1,51.21,238.73,51.08Zm-1.79.77c-0.83,0-1.53.11-2.23,0.11a0.7,0.7,0,0,0-.81.65c-0.53,2.31-1.09,4.61-1.65,6.91-0.47,1.93-1,3.86-1.45,5.8a3.17,3.17,0,0,0,3.38-2.18c0.56-2.23,1.12-4.45,1.67-6.68C236.23,55,236.57,53.45,236.95,51.85Zm9.37,11.59,2.74-11.13-1.12-.14a4.12,4.12,0,0,0-.18.47c-0.68,2.75-1.31,5.52-2.06,8.25A2.67,2.67,0,0,0,246.32,63.43ZM240.92,58L242,58.31l1.66-6.64a3,3,0,0,0-1.28.46C241.87,54.06,241.42,56,240.92,58Z" style="fill: #092444"/>
        <path d="M236.95,51.85c-0.38,1.61-.72,3.11-1.09,4.61-0.55,2.23-1.12,4.45-1.67,6.68a3.17,3.17,0,0,1-3.38,2.18c0.49-1.94,1-3.86,1.45-5.8,0.56-2.3,1.12-4.6,1.65-6.91a0.7,0.7,0,0,1,.81-0.65C235.42,52,236.12,51.89,236.95,51.85Z" style="fill: #fff"/>
        <path d="M246.32,63.43a2.67,2.67,0,0,1-.62-2.55c0.75-2.73,1.38-5.5,2.06-8.25a4.12,4.12,0,0,1,.18-0.47l1.12,0.14Z" style="fill: #fff"/>
        <path d="M240.92,58c0.5-2,.95-4,1.5-5.92a3,3,0,0,1,1.28-.46L242,58.31Z" style="fill: #fff"/>
      </g>
      <path d="M246.68,12.75a4.23,4.23,0,0,0,.4-1.22l0.51,0.58,0.13-2.48,0.82,0.46s0.47-5.5-3-6.49c0,0-.25-0.62.2-0.59a2.17,2.17,0,0,0-1.36-.71,0.77,0.77,0,0,1,.55-0.73s-1.79-.51-2.34-0.18l0.22-.63-1.25,0,0-.58A4.6,4.6,0,0,0,239.3,1a2.25,2.25,0,0,1,0-1,2.18,2.18,0,0,0-.75,1.23,1.48,1.48,0,0,1-.85-1.17,1.89,1.89,0,0,0-.84,1.41,1.24,1.24,0,0,1-1-.59,2.49,2.49,0,0,0-.56,1.8,3.08,3.08,0,0,1-1.53-.52,3.91,3.91,0,0,0,0,1.29,2.5,2.5,0,0,0-1.11,1.42,6.42,6.42,0,0,0-.32,2.24l0.34-.37a12.86,12.86,0,0,0-.27,3.44l0.47-.15a6,6,0,0,0,0,2.5l0.25-.41a1.07,1.07,0,0,1,1.23.8,4.15,4.15,0,0,0,3.37,3.22,6.54,6.54,0,0,1,2.42.49l-0.44-1.1a19.76,19.76,0,0,1,3.44.5l-0.29-1,1.16,0,0.11-.63h1.29l0.15-.9,1.07,0Z" style="fill: url(#503c1d06-8f40-45e4-99e9-e27037856836)"/>
      <g style="opacity: 0.5">
        <path d="M240.21,2.64a3.22,3.22,0,0,0-.47,2.16l-0.89,0,0.08,2.09-1.26-.27a33,33,0,0,0,1.15,3.26l-1.05-.5s0.88,3.36,4,4a5.48,5.48,0,0,1-4.3-1.76,2.16,2.16,0,0,0,.33,1.68,6.24,6.24,0,0,1-2.36-3.61,0.79,0.79,0,0,0-.73.7,6.89,6.89,0,0,1-.11-3.12,0.92,0.92,0,0,0-.79.25s0-1.83.67-2.39L233.43,5s1-1.82,1.85-1.85a0.9,0.9,0,0,1,.95.32l0.36-1.22,0.8,0.55L238,2l0,1,1.09-.8Z" style="fill: #fdf9f6"/>
      </g>
    </g>
  </g>
</svg>
