<svg version="1.1"
	 xmlns="http://www.w3.org/2000/svg" xmlns:xlink="http://www.w3.org/1999/xlink"
	 x="0px" y="0px" width="18.2px" height="18.2px" viewBox="0 0 18.2 18.2" style="enable-background:new 0 0 18.2 18.2;"
	 xml:space="preserve">
<g>
	<g>
		<path d="M9.1,0c1.3,0,2.5,0,3.8,0c1.2,0,2.3,0.3,3.3,1c1.3,0.9,1.9,2.2,2,3.8c0,0.7,0,1.4,0,2.1c0,2,0,4,0,6
			c0,0.9-0.1,1.7-0.5,2.5c-0.7,1.6-2.1,2.5-3.8,2.8c-0.3,0.1-0.7,0.1-1,0.1c-2.5,0-5.1,0-7.6,0c-1.3,0-2.5-0.4-3.5-1.2
			c-1-0.9-1.6-2-1.7-3.3c0-0.2,0-0.5,0-0.7c0-2.6,0-5.3,0-7.9c0-1.4,0.5-2.7,1.6-3.7c0.9-0.8,2-1.3,3.2-1.3C6.2,0,7.7,0,9.1,0
			C9.1,0,9.1,0,9.1,0z M9.1,16.5c1.2,0,2.3,0,3.5,0c0.3,0,0.6,0,0.8,0c1.3-0.2,2.4-0.8,2.9-2.1c0.2-0.5,0.3-1,0.3-1.6
			c0-2.4,0-4.9,0-7.3c0-0.3,0-0.5,0-0.8c-0.2-1.3-0.8-2.3-2-2.8c-0.5-0.2-1.1-0.3-1.6-0.3c-2.5,0-5.1,0-7.6,0c-0.2,0-0.5,0-0.7,0
			C3.4,1.9,2.4,2.6,1.9,3.8c-0.2,0.5-0.3,1-0.3,1.6c0,2.5,0,4.9,0,7.4c0,0.3,0,0.6,0.1,0.9c0.2,1.3,1,2.2,2.3,2.6
			c0.4,0.1,0.9,0.2,1.3,0.2C6.6,16.5,7.9,16.5,9.1,16.5z"/>
		<path d="M13.8,9.1c0,2.6-2.1,4.7-4.7,4.7c-2.6,0-4.7-2.1-4.7-4.7c0-2.6,2.1-4.7,4.7-4.7C11.7,4.4,13.8,6.5,13.8,9.1z
			 M9.1,12.1c1.7,0,3-1.4,3-3c0-1.6-1.4-3-3-3c-1.7,0-3,1.4-3,3C6.1,10.7,7.5,12.1,9.1,12.1z"/>
		<path d="M14,5.3c-0.6,0-1-0.5-1-1.1c0-0.6,0.5-1.1,1.1-1.1c0.6,0,1.1,0.5,1.1,1.1C15,4.9,14.6,5.3,14,5.3z"/>
	</g>
</g>
</svg>
