<svg version="1.1"
	 xmlns="http://www.w3.org/2000/svg" xmlns:xlink="http://www.w3.org/1999/xlink"
	 x="0px" y="0px" width="27.2px" height="18.7px" viewBox="0 0 27.2 18.7" style="enable-background:new 0 0 27.2 18.7;"
	 xml:space="preserve">
<g>
	<g>
		<path d="M27.2,7.2c0,1.4,0,2.9,0,4.3c0,0.1,0,0.2,0,0.3c-0.1,1-0.1,2.1-0.2,3.1c-0.1,1.8-1.7,3.5-3.6,3.5
			c-2.8,0.1-5.7,0.2-8.5,0.2c-3.7,0-7.3-0.1-11-0.2c-1.9,0-3.4-1.4-3.7-3.2c-0.1-0.6-0.1-1.3-0.2-1.9c0-0.6-0.1-1.2-0.1-1.9
			c0-1.5,0-2.9,0-4.4C0,7.1,0,7,0,6.9C0.1,5.9,0.1,5,0.2,4c0.1-1.2,0.6-2.3,1.5-3c0.8-0.7,1.8-0.8,2.8-0.8c3.1,0,6.2-0.2,9.3-0.1
			c3.2,0,6.4,0.1,9.6,0.2c1.7,0.1,3.1,1.3,3.5,2.9c0.2,0.7,0.2,1.5,0.2,2.2C27.2,5.9,27.2,6.6,27.2,7.2z M10.2,3.4c0,4,0,7.9,0,11.9
			c2.8-2,5.6-4,8.5-5.9C15.9,7.4,13.1,5.4,10.2,3.4z"/>
	</g>
</g>
</svg>
