<svg xmlns="http://www.w3.org/2000/svg" viewBox="0 0 63.33 63.33" width="64px" height="64px">
  <title>share</title>
  <g>
    <circle cx="31.67" cy="31.67" r="30.67" style="fill: none;stroke: #092444;stroke-miterlimit: 10;stroke-width: 2px;opacity: 0.30000000000000004"/>
    <path d="M28.33,30.67H25.84V26.81H28c0.32,0,.33,0,0.33-0.34,0-1,0-2,0-3a4,4,0,0,1,1-2.8A4.51,4.51,0,0,1,32,19.36a9.09,9.09,0,0,1,1.42-.13c1.27,0,2.54,0,3.82,0,0.16,0,.26,0,0.25.22,0,1.22,0,2.44,0,3.66a1.09,1.09,0,0,1,0,.12H34.74a1.11,1.11,0,0,0-1,.45,1.17,1.17,0,0,0-.22.58c0,0.76,0,1.53,0,2.29,0,0.22.11,0.26,0.3,0.26H37.5l-0.28,2.32c-0.05.44-.12,0.89-0.16,1.33a0.19,0.19,0,0,1-.24.22h-3.3V42.09l-0.31,0H28.67c-0.31,0-.35,0-0.35-0.36q0-5.4,0-10.79C28.33,30.88,28.33,30.79,28.33,30.67Z" style="fill: #3b5997"/>
  </g>
</svg>
