<svg version="1.1" xmlns="http://www.w3.org/2000/svg" xmlns:xlink="http://www.w3.org/1999/xlink"
	 x="0px" y="0px" width="31.5px" height="22.9px" viewBox="0 0 31.5 22.9" style="enable-background:new 0 0 31.5 22.9;"
	 xml:space="preserve">
    <path fill="#FFFFFF" d="M11.5,15.7c0.1-0.2,0.2-0.3,0.3-0.4c4.8-4.8,9.5-9.5,14.3-14.3c1.2-1.2,3.1-1.3,4.3-0.3
                c1.3,1.1,1.5,3.2,0.4,4.5c-0.1,0.1-0.2,0.2-0.3,0.3c-5.4,5.4-10.8,10.8-16.2,16.2c-1.2,1.2-2.8,1.5-4.2,0.8
                c-0.4-0.2-0.7-0.4-1-0.7c-2.7-2.7-5.5-5.4-8.2-8.2c-1.6-1.6-1.2-4,0.8-5c1.2-0.6,2.5-0.3,3.4,0.6c1.4,1.4,2.9,2.9,4.3,4.3
                C10.1,14.3,10.8,15,11.5,15.7z"/>
</svg>
