<svg xmlns="http://www.w3.org/2000/svg" viewBox="0 0 63.33 63.33" width="64px" height="64px">
  <title>share</title>
  <g>
    <circle cx="31.67" cy="31.67" r="30.67" style="fill: none;stroke: #092444;stroke-miterlimit: 10;stroke-width: 2px;opacity: 0.30000000000000004"/>
    <path d="M33.22,28.71c0,1,0,2,0,3a1.62,1.62,0,0,0,.24.74,0.61,0.61,0,0,0,1,.14A7.37,7.37,0,0,0,35.88,31a25.13,25.13,0,0,0,2.59-4.89c0-.11.09-0.21,0.14-0.32a0.9,0.9,0,0,1,.94-0.53c0.84,0,1.68,0,2.51,0s1.66,0,2.49,0a2.25,2.25,0,0,1,.67.12,0.59,0.59,0,0,1,.45.78,6.81,6.81,0,0,1-.5,1.33,27.28,27.28,0,0,1-2.6,3.8c-0.5.66-1,1.32-1.46,2a1.28,1.28,0,0,0,.18,1.9c0.79,0.81,1.64,1.57,2.41,2.4,0.59,0.64,1.1,1.34,1.62,2a2,2,0,0,1,.29.67,0.88,0.88,0,0,1-.84,1.21,3.23,3.23,0,0,1-.56,0c-1.38,0-2.76.08-4.14,0.08a2.78,2.78,0,0,1-1.89-.75c-0.71-.65-1.34-1.37-2-2.06-0.29-.29-0.58-0.58-0.88-0.86a1.65,1.65,0,0,0-.41-0.27,0.73,0.73,0,0,0-.88.13,2.29,2.29,0,0,0-.69,1.41c-0.07.44-.08,0.88-0.12,1.32a0.9,0.9,0,0,1-.91,1,10.94,10.94,0,0,1-5.76-.79,13.31,13.31,0,0,1-4.39-3.44,46.89,46.89,0,0,1-6.22-10.51,5.68,5.68,0,0,1-.26-0.64,0.59,0.59,0,0,1,.49-0.83,2.93,2.93,0,0,1,.59-0.06c1.33,0,2.66,0,4,0A1.3,1.3,0,0,1,22,26c0.65,1.35,1.3,2.71,2,4a8.17,8.17,0,0,0,1.51,2.24,3,3,0,0,0,.64.49,0.6,0.6,0,0,0,.91-0.3,5.64,5.64,0,0,0,.32-1.18A12.1,12.1,0,0,0,27.42,28a10.45,10.45,0,0,0-.2-1.11A1.5,1.5,0,0,0,26,25.7a3.1,3.1,0,0,1-.37-0.14,2.27,2.27,0,0,1,.23-0.37A1.87,1.87,0,0,1,27,24.61a18.07,18.07,0,0,1,4.74-.07,3.2,3.2,0,0,1,.48.09,1.16,1.16,0,0,1,1,1.26,16.51,16.51,0,0,1,0,1.94q0,0.44,0,.89h0Z" style="fill: #3a6da3"/>
  </g>
</svg>
