<svg version="1.1"
	 xmlns="http://www.w3.org/2000/svg" xmlns:xlink="http://www.w3.org/1999/xlink" xmlns:a="http://ns.adobe.com/AdobeSVGViewerExtensions/3.0/"
	 x="0px" y="0px" width="85.6px" height="85.1px" viewBox="0 0 85.6 85.1" style="enable-background:new 0 0 85.6 85.1;"
	 xml:space="preserve">
    <path fill="#69CAD1" d="M77.8,60.8c0.6-0.6,1.2-5.3,1.3-6.5l3,2.7l-0.9-12.8l4.5,1.8c0,0-1.2-28.5-19.7-31.3c0,0-1.7-3,0.6-3.1
        c0,0-3.6-3.1-7.5-2.7c0,0-0.1-3.7,2.4-4.1c0,0-9.5-1.5-12.1,0.6l0.7-3.4L43.7,3l-0.5-3c0,0-8.6,1.9-11,5.3c0,0-1.2-3.1-0.8-5
        c0,0-3.3,3.6-3,6.8c0,0-4.7-1.6-5.1-5.5c0,0-3.7,2.9-3.4,7.8c0,0-4.2,0.2-5.5-2.4c0,0-2.7,3.5-1.7,9.6c0,0-4.1,0.4-8.2-1.7
        c0,0,0,4.4,1.1,6.6c0,0-5.1,4.3-4.7,8c0,0-1.5,9.4-0.2,11.7l1.5-2.1c0,0-0.9,13.9,0.9,17.8L5.3,56c0,0-0.7,10.1,1.4,12.8l1-2.3
        c0,0,5.6-1.4,6.9,3.3S23.1,84.4,34,84.2s12.8,0.9,12.8,0.9l-3-5.3c0,0,13.3-0.8,17.9,0.3l-2.1-4.8l6-0.5l0.2-3.3l6.6-0.9l0.2-4.7
        L78,65L77.8,60.8z"/>
    <g>
        <g>
            <path fill="#FFFFFF" d="M42.6,17.8c0.4,0.1,0.9,0.2,1.3,0.3c3.4,1,5.7,4.2,5.5,7.9c-0.2,3.5-2.9,6.4-6.3,7c-4.2,0.7-8.3-2.1-8.9-6.3
                c-0.7-4.3,2.2-8.3,6.5-8.8c0.1,0,0.2,0,0.2-0.1C41.5,17.8,42.1,17.8,42.6,17.8z M42,30.2c0.4-1.1,0.8-2,1.3-3
                c0.1-0.3,0-0.5-0.2-0.6c-0.5-0.4-1.6-0.4-2.1,0c-0.1,0.1-0.3,0.4-0.2,0.5C41.1,28.1,41.5,29.1,42,30.2z M44.7,25.5
                c0.5,0,0.9-0.4,1-0.9c0-0.5-0.4-1-1-1c-0.5,0-0.9,0.4-1,0.9C43.7,25,44.1,25.5,44.7,25.5z M38.9,23.6c-0.5,0-1,0.4-1,1
                c0,0.5,0.4,0.9,0.9,0.9c0.5,0,1-0.4,1-1C39.9,24,39.5,23.6,38.9,23.6z"/>
            <path fill="#FFFFFF" d="M34.4,34.6c-0.4,0.6-0.8,1.2-1.2,1.9c-1.3,2.1-2.1,4.4-2.5,6.9c-0.2,1.1,0.5,2.1,1.5,2.3
                c1.1,0.2,2.1-0.5,2.3-1.7c0.5-3,1.8-5.6,3.7-7.9c0.2-0.2,0.3-0.3,0.6-0.3c4,0.6,7.9,0.1,11.5-1.8c0.5-0.3,1.1-0.6,1.6-0.9
                c1.2,1,2.2,2.2,3,3.5c5.6,9.1,0.3,21-10.2,23c-8.4,1.6-16.5-3.9-18-12.4c-0.9-5.5,0.7-10.1,4.7-14c0.2-0.2,0.4-0.2,0.7-0.1
                C32.8,33.8,33.6,34.2,34.4,34.6z M39.9,48.5c0,1.1,0.8,1.9,1.9,1.9c1,0,1.9-0.8,1.9-1.9c0-1.1-0.9-1.9-1.9-1.9
                C40.7,46.6,39.9,47.4,39.9,48.5z M39.9,40.8c0,1.1,0.8,1.9,1.9,1.9c1.1,0,1.9-0.8,1.9-1.9c0-1.1-0.9-1.9-1.9-1.9
                C40.7,38.9,39.9,39.8,39.9,40.8z"/>
        </g>
    </g>
</svg>
