<svg version="1.1"
	 xmlns="http://www.w3.org/2000/svg" xmlns:xlink="http://www.w3.org/1999/xlink" xmlns:a="http://ns.adobe.com/AdobeSVGViewerExtensions/3.0/"
	 x="0px" y="0px" width="85.6px" height="85.1px" viewBox="0 0 85.6 85.1" style="enable-background:new 0 0 85.6 85.1;"
	 xml:space="preserve">
<path fill="#69CAD1" d="M77.8,60.8c0.6-0.6,1.2-5.3,1.3-6.5l3,2.7l-0.9-12.8l4.5,1.8c0,0-1.2-28.5-19.7-31.3c0,0-1.7-3,0.6-3.1
	c0,0-3.6-3.1-7.5-2.7c0,0-0.1-3.7,2.4-4.1c0,0-9.5-1.5-12.1,0.6l0.7-3.4L43.7,3l-0.5-3c0,0-8.6,1.9-11,5.3c0,0-1.2-3.1-0.8-5
	c0,0-3.3,3.6-3,6.8c0,0-4.7-1.6-5.1-5.5c0,0-3.7,2.9-3.4,7.8c0,0-4.2,0.2-5.5-2.4c0,0-2.7,3.5-1.7,9.6c0,0-4.1,0.4-8.2-1.7
	c0,0,0,4.4,1.1,6.6c0,0-5.1,4.3-4.7,8c0,0-1.5,9.4-0.2,11.7l1.5-2.1c0,0-0.9,13.9,0.9,17.8L5.3,56c0,0-0.7,10.1,1.4,12.8l1-2.3
	c0,0,5.6-1.4,6.9,3.3S23.1,84.4,34,84.2s12.8,0.9,12.8,0.9l-3-5.3c0,0,13.3-0.8,17.9,0.3l-2.1-4.8l6-0.5l0.2-3.3l6.6-0.9l0.2-4.7
	L78,65L77.8,60.8z"/>
<g>
	<g>
		<path fill="#FFFFFF" d="M60.8,31.9c4,7.6,2.9,18.6-5.4,25.2C47.2,63.7,35.4,63,28,55.6c-7.4-7.4-8-19.2-1.5-27.4
			c6.7-8.3,17.6-9.4,25.2-5.4c-0.7,0.7-1.4,1.4-2.1,2.1c-0.5,0.5-0.8,0.6-1.5,0.4c-9.1-3.2-18.9,1.7-21.7,10.9
			c-2.9,9.4,3,19.3,12.6,21.3c9.2,1.9,18.2-4.1,19.9-13.4c0.6-3.1,0.3-6.2-0.9-9.1c-0.1-0.3-0.1-0.5,0.2-0.7
			c0.7-0.7,1.5-1.5,2.2-2.2C60.6,32.1,60.7,32,60.8,31.9z"/>
		<path fill="#FFFFFF" d="M49,29.9c-0.9,0.9-1.7,1.7-2.6,2.6c-0.1,0.1-0.3,0.1-0.4,0c-2.3-0.9-4.7-0.9-7,0C35.2,34,32.8,38,33.3,42
			c0.5,4.4,3.6,7.6,7.9,8.3c5,0.8,9.8-2.8,10.6-7.8c0.2-1.7,0.1-3.4-0.6-5c0-0.1,0-0.3,0-0.4c0.8-0.9,1.7-1.7,2.6-2.6
			c2.5,3.7,2.9,10.8-2,15.7c-5,4.9-13,5.1-18.1,0.3c-5.2-4.9-5.6-12.9-0.9-18.2C37.5,27.2,44.8,27.2,49,29.9z"/>
		<path fill="#FFFFFF" d="M57.3,20.1c0.2,1.9,0.4,3.8,0.5,5.7c1.9,0.2,3.8,0.3,5.8,0.5c-0.1,0.1-0.2,0.2-0.3,0.3c-2,2-4,4-6,6
			c-0.1,0.1-0.4,0.2-0.6,0.2c-1-0.1-2.1-0.2-3.1-0.3c-0.3,0-0.5,0-0.7,0.2c-2.7,2.7-5.4,5.4-8.1,8.1c-0.5,0.5-1,0.7-1.6,0.5
			c-1-0.3-1.4-1.5-0.7-2.3c0.1-0.1,0.2-0.2,0.3-0.4c2.7-2.7,5.4-5.4,8-8c0.2-0.2,0.3-0.4,0.2-0.6c-0.1-1.1-0.2-2.1-0.3-3.2
			c0-0.2,0.1-0.4,0.2-0.5c2.1-2.1,4.1-4.1,6.2-6.2C57.1,20.2,57.2,20.2,57.3,20.1z"/>
		<path fill="#FFFFFF" d="M48,40.4c0.6,1.6-0.7,4.3-2.5,5.4c-2.2,1.4-5.1,1.1-7-0.8c-1.8-1.9-2.1-4.8-0.7-6.9c1.2-1.8,3.8-3,5.4-2.5
			c-0.7,0.7-1.3,1.3-2,2c-1,1-1.3,2.2-0.8,3.5c0.8,2.3,3.7,3,5.5,1.3c0.6-0.6,1.2-1.2,1.8-1.8C47.8,40.6,47.9,40.5,48,40.4z"/>
	</g>
</g>
</svg>
