<svg version="1.1"
	 xmlns="http://www.w3.org/2000/svg" xmlns:xlink="http://www.w3.org/1999/xlink" xmlns:a="http://ns.adobe.com/AdobeSVGViewerExtensions/3.0/"
	 x="0px" y="0px" width="85.6px" height="85.1px" viewBox="0 0 85.6 85.1" style="enable-background:new 0 0 85.6 85.1;"
	 xml:space="preserve">
    <path fill="#69CAD1" d="M77.8,60.8c0.6-0.6,1.2-5.3,1.3-6.5l3,2.7l-0.9-12.8l4.5,1.8c0,0-1.2-28.5-19.7-31.3c0,0-1.7-3,0.6-3.1
        c0,0-3.6-3.1-7.5-2.7c0,0-0.1-3.7,2.4-4.1c0,0-9.5-1.5-12.1,0.6l0.7-3.4L43.7,3l-0.5-3c0,0-8.6,1.9-11,5.3c0,0-1.2-3.1-0.8-5
        c0,0-3.3,3.6-3,6.8c0,0-4.7-1.6-5.1-5.5c0,0-3.7,2.9-3.4,7.8c0,0-4.2,0.2-5.5-2.4c0,0-2.7,3.5-1.7,9.6c0,0-4.1,0.4-8.2-1.7
        c0,0,0,4.4,1.1,6.6c0,0-5.1,4.3-4.7,8c0,0-1.5,9.4-0.2,11.7l1.5-2.1c0,0-0.9,13.9,0.9,17.8L5.3,56c0,0-0.7,10.1,1.4,12.8l1-2.3
        c0,0,5.6-1.4,6.9,3.3S23.1,84.4,34,84.2s12.8,0.9,12.8,0.9l-3-5.3c0,0,13.3-0.8,17.9,0.3l-2.1-4.8l6-0.5l0.2-3.3l6.6-0.9l0.2-4.7
        L78,65L77.8,60.8z"/>
    <g>
        <g>
            <path fill="#FFFFFF" d="M43.9,38.8c-2,1.2-2.7,3.2-1.8,5.4c-0.2-0.1-0.5-0.2-0.7-0.3c-0.8-0.6-1.3-1.4-1.4-2.4
                c-0.2-1.1,0.2-2,1.1-2.7c1.2-1,2.2-2.2,2.7-3.7c0.1-0.3,0.2-0.6,0.2-1c0,0,0,0,0.1,0c1.4,1.3,2.6,2.7,3.5,4.4
                c0.6,1.3,0.7,2.6,0.2,3.9c-0.4,1.1-1.2,1.7-2.4,1.7c-0.1,0-0.1,0-0.2,0c0,0-0.1,0-0.2-0.1c0.5-1.2,0.7-2.5,0.1-3.7
                C44.7,39.8,44.3,39.3,43.9,38.8z"/>
        </g>
    </g>
    <g>
        <circle fill="#FFFFFF" cx="66" cy="50.6" r="6.1"/>
        <circle fill="#FFFFFF" cx="65.3" cy="38.4" r="6.1"/>
        <circle fill="#FFFFFF" cx="60" cy="27.1" r="6.1"/>
        <circle fill="#FFFFFF" cx="49.8" cy="21.1" r="6.1"/>
        <circle fill="#FFFFFF" cx="21.6" cy="50.6" r="6.1"/>
        <circle fill="#FFFFFF" cx="22.3" cy="38.4" r="6.1"/>
        <circle fill="#FFFFFF" cx="27.6" cy="27.1" r="6.1"/>
        <circle fill="#FFFFFF" cx="37.8" cy="21.1" r="6.1"/>
    </g>
    <path fill="#FFFFFF" d="M47.6,57.3h-7.3c-0.4,0-0.6-0.3-0.6-0.6V46.5c0-0.4,0.3-0.6,0.6-0.6h7.3c0.4,0,0.6,0.3,0.6,0.6v10.1
        C48.2,57,47.9,57.3,47.6,57.3z"/>
</svg>
