<svg width="66px" height="66px" xmlns="http://www.w3.org/2000/svg" viewBox="0 0 66.72 66.33">
  <g>
    <path d="M60.62,47.41c0.47-.44.95-4.16,1-5.08l2.34,2.07-0.74-10,3.51,1.42S65.77,13.62,51.4,11.45c0,0-1.3-2.33.5-2.45,0,0-2.77-2.45-5.81-2.13,0,0-.11-2.89,1.83-3.21,0,0-7.41-1.14-9.45.47L39,1.48l-5,.82L33.67,0S27,1.47,25.08,4.15a9.05,9.05,0,0,1-.64-3.9S21.86,3,22.07,5.56c0,0-3.69-1.21-4-4.25a7.61,7.61,0,0,0-2.63,6.08s-3.25.17-4.31-1.84c0,0-2.1,2.71-1.31,7.5a12.42,12.42,0,0,1-6.4-1.31s0,3.45.85,5.14c0,0-4,3.39-3.7,6.25,0,0-1.16,7.29-.13,9.12L1.61,30.6s-0.67,10.85.7,13.9l1.82-.85s-0.51,7.91,1.11,10L6,51.88s4.37-1.09,5.34,2.57S18,65.74,26.51,65.61s9.95,0.72,9.95.72l-2.33-4.16s10.33-.62,14,0.23l-1.65-3.73,4.66-.41,0.12-2.57L56.42,55l0.12-3.66,4.25-.7Z" style="fill: #69cad1"/>
    <path d="M29.09,36.5a5.13,5.13,0,0,1,.34-0.43L43.7,21.8A3.14,3.14,0,0,1,48.38,26l-0.27.29L31.87,42.52a3.55,3.55,0,0,1-4.18.84,3.71,3.71,0,0,1-1-.69q-4.1-4.07-8.16-8.16a3,3,0,0,1,.77-5,3,3,0,0,1,3.44.62c1.45,1.42,2.88,2.87,4.31,4.3Z" style="fill: #fff"/>
  </g>
</svg>
