<svg version="1.1"
	 xmlns="http://www.w3.org/2000/svg" xmlns:xlink="http://www.w3.org/1999/xlink" xmlns:a="http://ns.adobe.com/AdobeSVGViewerExtensions/3.0/"
	 x="0px" y="0px" width="279.2px" height="130.6px" viewBox="0 0 279.2 130.6" style="enable-background:new 0 0 279.2 130.6;"
	 xml:space="preserve">
    <path fill="#69CAD1" d="M16.8,130.6H266c-0.7-0.9-1.4-1.8-2.3-2.7c0,0,9.2-8.1,15.5-2.5c0,0-16-27.5-26.8-29.9l10.1-5.3l-16-14.2
        l6.6-7.4c0,0-22.7-18.1-36.7-17.3c0,0,5.4-9.5,11.1-12.5c0,0-16.1-1-23.9,6.4c0,0-5.9-15.4,3.3-24.6c0,0-15.3-3.4-27.1,7.5
        c0,0-9.3-10.3-5.5-19.1c0,0-14.6,0.3-28.2,15.7c0,0-9.8-9.7-12.8-24.6c0,0-11.3,9.3-14.7,16.5c0,0-21.9-4.1-30.5,4.5
        c0,0-27.2,15.7-30.5,24l8.6-0.5c0,0-37.6,26.8-44,39.5l7.7,3.7c0,0-27.5,19.5-30.1,30.4l8-2.1C8,116,16.1,122.2,16.8,130.6z"/>
</svg>
