<svg id="55343462-9c79-4d45-aba1-4eac0058101b" data-name="Слой 1" xmlns="http://www.w3.org/2000/svg" xmlns:xlink="http://www.w3.org/1999/xlink" viewBox="0 0 132.6 210.1">
    <defs>
        <clipPath id="9d73f0e7-0833-4304-b168-059917c97069">
            <path d="M91.4,121S85.8,94.9,73.6,89.1,56.2,91,53.1,95.4s-9.7,13.1-11.5,25.1l2.2,6.1,24.3-.9,17.7-.6,5.6-1.4V121Z" style="fill: none"/>
        </clipPath>
        <linearGradient id="42cd3cb9-cc32-4e80-8b02-2d9b84d7ed8c" data-name="Безымянный градиент" x1="49.16" y1="318.1" x2="72.64" y2="318.1" gradientTransform="matrix(1, -0.04, -0.04, -1, 17.07, 403.59)" gradientUnits="userSpaceOnUse">
            <stop offset="0" stop-color="#f73d6e"/>
            <stop offset="1" stop-color="#a22751"/>
        </linearGradient>
    </defs>
    <title>boobon-kids</title>
    <g>
        <path d="M91.4,121S85.8,94.9,73.6,89.1,56.2,91,53.1,95.4s-9.7,13.1-11.5,25.1l2.2,6.1,24.3-.9,17.7-.6,5.6-1.4V121Z" style="fill: #df265f"/>
        <g>
            <g style="clip-path: url(#9d73f0e7-0833-4304-b168-059917c97069)">
                <rect x="45.6" y="71.7" width="65" height="65" style="fill: none"/>
            </g>
            <g style="clip-path: url(#9d73f0e7-0833-4304-b168-059917c97069)">
                <path d="M53.6,98.6a2,2,0,0,0,.2.6c0.1,0.5.6,0.4,0.8,0.1a0.2,0.2,0,0,0,.2-0.1c1.1-.7,2.7-1.3,3.1-2.6a1.23,1.23,0,0,0-.7-1.5,1.88,1.88,0,0,0-1.6.4A1.82,1.82,0,0,0,54.5,94a1.35,1.35,0,0,0-1.7.9,5.39,5.39,0,0,0,.3,2.5A3.34,3.34,0,0,1,53.6,98.6Z" style="fill: #f5f5f5"/>
            </g>
            <g style="clip-path: url(#9d73f0e7-0833-4304-b168-059917c97069)">
                <path d="M52.4,104.4a2,2,0,0,0-1.4,1,2,2,0,0,0-1.6-1.1,1.34,1.34,0,0,0-1.3,1.4,4.47,4.47,0,0,0,1.1,2.3,8.74,8.74,0,0,0,.8,1,1.4,1.4,0,0,0,.4.4,0.43,0.43,0,0,0,.8-0.2,0.38,0.38,0,0,0,.2-0.2c0.8-1,2.1-2.1,2.1-3.5A1,1,0,0,0,52.4,104.4Z" style="fill: #f5f5f5"/>
            </g>
            <g style="clip-path: url(#9d73f0e7-0833-4304-b168-059917c97069)">
                <path d="M64.5,97.6c-0.4-.9-2.4-1-2.3.5a5.15,5.15,0,0,0,.9,2,2.34,2.34,0,0,0,1.2,1.2,0.31,0.31,0,0,0,.2.1c1.5-.2,3.1-2.2,2.5-3.7a1.23,1.23,0,0,0-1.4-.8A2.27,2.27,0,0,0,64.5,97.6Z" style="fill: #f5f5f5"/>
            </g>
            <g style="clip-path: url(#9d73f0e7-0833-4304-b168-059917c97069)">
                <path d="M73.9,111.7a0.44,0.44,0,0,0,.5-0.1h0.3a2.65,2.65,0,0,0,.9-1.9,5.24,5.24,0,0,0-.1-2.5,1.08,1.08,0,0,0-1.7-.7,2.42,2.42,0,0,0-.8,1.3,1.52,1.52,0,0,0-1.2-.7,1.32,1.32,0,0,0-1.3,1.5C70.7,110,72.6,111.2,73.9,111.7Z" style="fill: #f5f5f5"/>
            </g>
            <g style="clip-path: url(#9d73f0e7-0833-4304-b168-059917c97069)">
                <path d="M60.5,107.9c-0.9-1.2-3.6-1.3-3.8.6-0.1,1.5,1.1,2.5,2.2,3.3,0.8,0.5,2.6,2,3.7,1.5a0.82,0.82,0,0,0,.4-0.6,4.69,4.69,0,0,0,.9-2.2,6,6,0,0,0,0-3.5C63,104.4,60.4,106.3,60.5,107.9Z" style="fill: #f5f5f5"/>
            </g>
            <g style="clip-path: url(#9d73f0e7-0833-4304-b168-059917c97069)">
                <path d="M69.3,115.9a2,2,0,0,0-1.8.5c-0.2-.8-0.5-1.6-1.3-1.7a1.5,1.5,0,0,0-1.9,1,5.3,5.3,0,0,0,.3,2.8,7.84,7.84,0,0,0,.5,1.4c0.1,0.1.3,0.7,0.3,0.6a0.47,0.47,0,0,0,.9.1,0.37,0.37,0,0,0,.3-0.1c1.2-.8,3.1-1.5,3.6-3A1.54,1.54,0,0,0,69.3,115.9Z" style="fill: #f5f5f5"/>
            </g>
            <g style="clip-path: url(#9d73f0e7-0833-4304-b168-059917c97069)">
                <path d="M78.4,117.6a2.19,2.19,0,0,0-.9,1c-0.7-.8-2.6-0.2-2,1.2a4.86,4.86,0,0,0,1.5,1.7,2.75,2.75,0,0,0,1.5.8h0.3c1.3-.6,2.3-3.1,1.3-4.3A1.32,1.32,0,0,0,78.4,117.6Z" style="fill: #f5f5f5"/>
            </g>
            <g style="clip-path: url(#9d73f0e7-0833-4304-b168-059917c97069)">
                <path d="M75.6,94.4a1.45,1.45,0,0,0-.8.9,1.18,1.18,0,0,0-2.3.2c-0.1,1.3,1.3,2.6,2.3,3.2a0.3,0.3,0,0,0,.4,0h0.3a1.87,1.87,0,0,0,1-1.4,3.73,3.73,0,0,0,.3-2.1A0.8,0.8,0,0,0,75.6,94.4Z" style="fill: #f5f5f5"/>
            </g>
            <g style="clip-path: url(#9d73f0e7-0833-4304-b168-059917c97069)">
                <path d="M83.5,101.1a1.77,1.77,0,0,0-1.5.8,1.85,1.85,0,0,0-1.5-1.2,1.22,1.22,0,0,0-1.4,1.2,4.31,4.31,0,0,0,.8,2.4c0.2,0.4.5,0.7,0.7,1.1a1.46,1.46,0,0,1,.3.5,0.42,0.42,0,0,0,.8-0.1c0.1,0,.1-0.1.2-0.1,0.9-.9,2.3-1.9,2.5-3.3A1,1,0,0,0,83.5,101.1Z" style="fill: #f5f5f5"/>
            </g>
            <g style="clip-path: url(#9d73f0e7-0833-4304-b168-059917c97069)">
                <path d="M85.7,112.3a1.19,1.19,0,0,0-1.3-.9,2.35,2.35,0,0,0-1.3.5c-0.3-1-2.3-1.3-2.3.2a4,4,0,0,0,.7,2.1,2.56,2.56,0,0,0,1,1.3,0.2,0.2,0,0,0,.2.1C84.2,115.6,86.1,113.8,85.7,112.3Z" style="fill: #f5f5f5"/>
            </g>
            <g style="clip-path: url(#9d73f0e7-0833-4304-b168-059917c97069)">
                <path d="M54.9,118.1a1.71,1.71,0,0,0-.9.8,1.22,1.22,0,0,0-.8-0.9,1.16,1.16,0,0,0-1.5.8c-0.2,1.3,1,2.7,1.9,3.5a0.3,0.3,0,0,0,.4,0,0.32,0.32,0,0,0,.3,0,2,2,0,0,0,1.2-1.2,4.66,4.66,0,0,0,.6-2A1,1,0,0,0,54.9,118.1Z" style="fill: #f5f5f5"/>
            </g>
        </g>
        <path d="M75.5,89.9a6.3,6.3,0,0,0,.6-1.8l0.7,0.8L77,85.3,78.2,86s0.7-8-4.3-9.4c0,0-.4-0.9.3-0.8a3.13,3.13,0,0,0-2-1,1.23,1.23,0,0,1,.8-1.1s-2.6-.7-3.4-0.3l0.3-.9-1.8.1V71.8s-2.4.2-3.3,1.1a4.55,4.55,0,0,1-.1-1.4,3.62,3.62,0,0,0-1.1,1.8,2,2,0,0,1-1.2-1.7,2.82,2.82,0,0,0-1.2,2,1.88,1.88,0,0,1-1.5-.9,3.5,3.5,0,0,0-.8,2.6,3.88,3.88,0,0,1-2.2-.8,6.86,6.86,0,0,0,.1,1.9s-1.6,1-1.6,2.1a11.23,11.23,0,0,0-.5,3.2l0.5-.5s-0.7,3.8-.4,5l0.7-.2s-0.5,2.8-.1,3.6l0.4-.6a1.56,1.56,0,0,1,1.8,1.2,6.15,6.15,0,0,0,4.9,4.7c3,0.3,3.5.7,3.5,0.7L65.4,94a37.83,37.83,0,0,1,5,.7L70,93.2l1.7,0.1,0.2-.9h1.9L74,91.1l1.5-.1V89.9Z" style="fill: url(#42cd3cb9-cc32-4e80-8b02-2d9b84d7ed8c)"/>
        <path d="M66.2,75.2a4.54,4.54,0,0,0-.7,3.1H64.2l0.1,3L62.5,81a41.27,41.27,0,0,0,1.7,4.7L62.6,85s1.3,4.9,5.8,5.9a8,8,0,0,1-6.2-2.6,3.28,3.28,0,0,0,.5,2.4s-3-2.2-3.4-5.2a1.22,1.22,0,0,0-1.1,1S57.4,83.6,58,82a1.16,1.16,0,0,0-1.1.4s0-2.6,1-3.5l-1.6-.3S57.8,76,59,75.9s1.4,0.5,1.4.5l0.5-1.8,1.2,0.8,1-1.3,0.1,1.5,1.6-1.2Z" style="fill: #fdf9f6;opacity: 0.5;isolation: isolate"/>
        <ellipse cx="66.3" cy="208.1" rx="32.3" ry="2" style="fill: #011627;opacity: 0.15000000596046448;isolation: isolate"/>
        <path d="M85.2,138.4s12.3-15.6,24.5-41c33.7-70.3,3-95,0-95.8S85.2-12.1,97,51.1s-30.2,77-30.2,77" style="fill: #69cad1"/>
        <path d="M47.8,138.4s-11.9-15.8-24.5-41c-35.3-70.3-3-95,0-95.8S47.8-12.1,36,51.1s30.2,77,30.2,77" style="fill: #69cad1"/>
        <path d="M48.1,128.9s5.8-4,7.6-8.6a6.44,6.44,0,0,1-1.8,7.5" style="fill: #69cad1"/>
        <g>
            <path d="M32.2,152.4s-6.6,9.1-14.1,5.8c-5.4-2.4-6.5-6.7-7.7-8.5s-3.2-3.2-4.4.3,5.2,14.2,14.7,15.2c11.6,1.2,13.4-3.5,13.4-3.5Z" style="fill: #69cad1"/>
            <path d="M9.5,152.8c1,0.1,1.5-.9,2.2-1.6s2.2-1.8,2.9-2.5c1.5-1.7.6-3.1-.3-3.5-1.2-.5-3.5.2-4.5,2.7l-0.8,2C8.2,151.3,8.5,152.6,9.5,152.8Z" style="fill: #69cad1"/>
            <path d="M8.2,150h0c1.2-.1,1.5-1.7,1.5-2.5l0.1-3.2a2.32,2.32,0,0,0-2.6-2.5h0a2.27,2.27,0,0,0-1.9,3l0.9,3.1C6.4,149.2,7.3,150.1,8.2,150Z" style="fill: #69cad1"/>
            <path d="M6.9,151h0c0.8-1-.1-2.2-0.7-2.8l-2.1-2.4a2.36,2.36,0,0,0-3.6,0h0a2.26,2.26,0,0,0,.8,3.5l2.8,1.6A1.93,1.93,0,0,0,6.9,151Z" style="fill: #69cad1"/>
            <path d="M8.1,153.3l-0.2-.4c0-1-2.1-1.5-2.8-1.6l-2.5-.5a1.86,1.86,0,0,0-2.3,1.8h0a1.88,1.88,0,0,0,2.2,1.9l2.6-.4C7.3,153.9,8.1,155.1,8.1,153.3Z" style="fill: #69cad1"/>
        </g>
        <g>
            <path d="M100.4,152.4s6.6,9.1,14.1,5.8c5.4-2.4,6.5-6.7,7.7-8.5s3.2-3.2,4.4.3-5.2,14.2-14.7,15.2c-11.6,1.2-13.4-3.5-13.4-3.5Z" style="fill: #69cad1"/>
            <path d="M123.1,152.8c-1,.1-1.5-0.9-2.2-1.6s-2.2-1.8-2.9-2.5c-1.5-1.7-.6-3.1.3-3.5,1.2-.5,3.5.2,4.5,2.7l0.8,2C124.4,151.3,124,152.6,123.1,152.8Z" style="fill: #69cad1"/>
            <path d="M124.3,150h0c-1.2-.1-1.5-1.7-1.5-2.5l-0.1-3.2a2.32,2.32,0,0,1,2.6-2.5h0a2.27,2.27,0,0,1,1.9,3l-0.9,3.1A2.09,2.09,0,0,1,124.3,150Z" style="fill: #69cad1"/>
            <path d="M125.6,151h0c-0.8-1,.1-2.2.7-2.8l2.1-2.4a2.36,2.36,0,0,1,3.6,0h0a2.26,2.26,0,0,1-.8,3.5l-2.8,1.6A1.93,1.93,0,0,1,125.6,151Z" style="fill: #69cad1"/>
            <path d="M124.5,153.3l0.2-.4c0-1,2.1-1.5,2.8-1.6l2.5-.5a1.86,1.86,0,0,1,2.3,1.8h0a1.88,1.88,0,0,1-2.2,1.9l-2.6-.4C125.2,153.9,124.5,155.1,124.5,153.3Z" style="fill: #69cad1"/>
        </g>
        <g>
            <path d="M47.8,193.3c0.1,0,.1.1,0.2,0.1A0.2,0.2,0,0,1,47.8,193.3Z" style="fill: #69cad1"/>
            <path d="M102.2,174.3a5.79,5.79,0,0,0,3,1,10.83,10.83,0,0,1-2.7-10,37.73,37.73,0,0,1,2.9,5.9c-0.5-4.3-3.3-11.1-3.3-11.1a20.55,20.55,0,0,1,2.9,3.8,19.62,19.62,0,0,0-2.9-6.8,11.81,11.81,0,0,1,3-.6c-3.3-1.1-5.7-6.9-5.7-6.9,1.2,1,5.7,1.9,5.7,1.9-4-1.8-9.4-8.8-9.4-8.8,2.7,1.4,1.4-.3-0.8-2.2a12.86,12.86,0,0,1-3-3.8c2.5-.1,7.4,2.6,7.4,2.6-4-4.4-10.8-7.5-11.8-7.9,7.2,0.2,8.3-2.7,8.3-2.7-6.6.8-9.1-1-13.3-1.8a13.31,13.31,0,0,0,2.7-4.6c0.8-2,8.2-2.8,6.1-4.9-1.7-1.6,2.9-8.5.6-5.3-1.2,1.7-3.4,5.5-3.3,5.3,0.3-.5-3.5,1.7-2.9,1.8,0.9,0.1-4,3-4.1,3.9-0.4,3-6.3-1.2-7.9-.5-0.1.1-.3,0.1-0.4,0.2a17.34,17.34,0,0,0,.6-2.6c-1.9,4.4-5.2,4.5-4.8,4.1a5.48,5.48,0,0,0,1.3-4.5,7.71,7.71,0,0,1-7.4,4.4c3.4-3.5,2.9-5.5,2.9-5.5-5.1,6.1-10.1,7.2-10.1,7.2-3,.7-7,1.9-7,1.9-7.8,5.1-14.6-1.3-14.6-1.3,1.8,6.1,6.2,7.2,6.2,7.2s-2.3.3-5.6,5.5c-2.7,4.1.5,5.3,0.5,5.3,0.8-.1-3.4,1.4-3.4,1.4-1.3,5.1-4.8,6.3-4.8,6.3,0.5,0.8,4.5-.5,5.2-0.8-0.6.2-3.5,1.6-4.5,7.5-1.1,6.2-.7,4.8-0.7,4.8a11.86,11.86,0,0,1,1.3-2.9l-0.1,5a19.73,19.73,0,0,1-1.3,7.5,13.89,13.89,0,0,0,2.3-4.3c-1.8,11.1,1.8,14.1,1.8,14.1a5.93,5.93,0,0,1-.1-3.2c0.6,3.4,3.8,6.3,3.8,6.3-1.3-1.2-2-4.1-2-4.1A34.92,34.92,0,0,0,43,191.7a20,20,0,0,1-2.1-4.4c1.2,2.2,6,5.6,6.9,6.2a14.17,14.17,0,0,1-1.7-2.3c3,2.7,11.1,5.6,11.1,5.6a13.41,13.41,0,0,1-1.7-2c1,1.2,8.7,2.6,7.9,2.4a26.86,26.86,0,0,1-3.5-1.8c2,1,7,1.4,7,1.4s10.1,0,16.1-2.3,9.4-8.2,9.4-8.2c-0.9,4.4-4.4,8.3-4.4,8.3,4.8-3.2,9.8-11.6,9.8-11.6a39.53,39.53,0,0,1-1.2,5.5c2.6-2.9,3.1-8.5,3.1-8.5a4.3,4.3,0,0,1,1.5,1.6,15,15,0,0,0-1.3-4.4c0.7,1.2,3.9,2.9,3.9,2.9C101.8,178.2,101.3,173.4,102.2,174.3Z" style="fill: #69cad1"/>
        </g>
        <path d="M95.3,139.8s-9.5-9.1-20.8-4.3a32.38,32.38,0,0,1-9,1.9V150a9.88,9.88,0,0,1,6.3,2.2c3.8,3.1,13.8,3.4,22.5-.6a15.57,15.57,0,0,0,5.6-4" style="fill: #d31245"/>
        <path d="M34.2,139.6s11.2-8.9,22.6-4.1a31.22,31.22,0,0,0,8.7,1.9V150a9.3,9.3,0,0,0-6,2.2c-3.8,3.1-13.8,3.4-22.5-.6a15.57,15.57,0,0,1-5.6-4" style="fill: #d31245"/>
        <g>
            <g>
                <path d="M80.4,144.9c0-3.2-1.5-5.9-3.3-5.9a2.62,2.62,0,0,0-2.2,1.5,1.49,1.49,0,0,1,1.1,1.8,1.69,1.69,0,0,1-1.9,1.4c-0.1,0-.2-0.1-0.3-0.1a4.87,4.87,0,0,0-.1,1.2c0,3.2,1.5,5.9,3.3,5.9S80.3,148.2,80.4,144.9Z" style="fill: #231f20"/>
                <circle cx="77.09" cy="147.31" r="1.1" transform="matrix(0.14, -0.99, 0.99, 0.14, -79.51, 203.17)" style="fill: #fff"/>
            </g>
            <g>
                <path d="M57.2,146.4c0-3.2-1.4-5.9-3.3-5.9a2.9,2.9,0,0,0-2.3,1.5,1.54,1.54,0,0,1,1.1,1.8,1.69,1.69,0,0,1-1.9,1.4c-0.1,0-.2-0.1-0.3-0.1a4.87,4.87,0,0,0-.1,1.2c0,3.2,1.4,5.9,3.2,5.9C55.6,152.2,57.1,149.6,57.2,146.4Z" style="fill: #231f20"/>
                <ellipse cx="53.87" cy="148.71" rx="1.2" ry="1.1" transform="translate(-101.12 180.23) rotate(-81.58)" style="fill: #fff"/>
            </g>
        </g>
        <g>
            <path d="M38,165.5s7-12.2,28.6-4.4c0,0,14.6-8.3,24.9-.8s-0.7,30.5-22.9,30.1C50.9,190,31.4,183.8,38,165.5Z" style="fill: #fff"/>
            <g>
                <path d="M59.7,157.3s1.2-1.8,6.2-1.7,7.3,1.3,6.2,3.5-4.5,7.6-7.3,5.3S58,158.3,59.7,157.3Z" style="fill: #f1607c"/>
                <ellipse cx="68.37" cy="157.42" rx="0.5" ry="1.6" transform="translate(-92.08 218.36) rotate(-87.32)" style="fill: #f28ca5"/>
            </g>
        </g>
        <g>
            <path d="M55,168.6s9.7,4.1,23.6-.2c0,0,1,16.3-12.2,14.9C54.3,182,55,168.6,55,168.6Z" style="fill: #d31245"/>
            <path d="M63.4,170.2s-0.2,4.2,1.3,4.8,3.8,1.3,5.6-.4,0.9-4.6.9-4.6A53.41,53.41,0,0,1,63.4,170.2Z" style="fill: #fff"/>
            <path d="M75.7,179.8c-9.5-6.8-16.7-.2-16.5.3a11.78,11.78,0,0,0,7.2,3.2C71,183.8,73.9,182.1,75.7,179.8Z" style="fill: #f1607c"/>
        </g>
        <path d="M63.2,184.5s6.6,2.8,10,.4C73.2,184.9,70,189.3,63.2,184.5Z" style="fill: #f9efe5"/>
    </g>
</svg>
