<svg id="da186560-bb22-4c0d-bd6e-05fcd302d594" data-name="Слой 1" xmlns="http://www.w3.org/2000/svg" viewBox="0 0 51.52 548.02">
  <title>boobon-club-vertical</title>
  <g>
    <path d="M22.93,515.61l5.66,1v-7.5l7.78,1.2v7.57L47,519.64v8.07l-10.62-1.77v6.51L47,534.22v8.07l-10.62-1.77V548l-7.78-1.27v-7.5l-5.66-1v7.57l-7.78-1.27V537L4.53,535.21v-8.07l10.62,1.77V522.4L4.53,520.63v-8.07l10.62,1.77v-7.43l7.78,1.27v7.43Zm0,8.07v6.51l5.66,1v-6.51Z" style="fill: #69cad1"/>
    <path d="M36,460.91c8.78,0,14.51,7.15,14.51,16v20.81H1V478.32c0-8.63,5.59-15.64,14.15-15.64a12.4,12.4,0,0,1,9.7,4.32A12.79,12.79,0,0,1,36,460.91ZM11.61,486.38h8.78v-8.07A4.18,4.18,0,0,0,16,474a4.14,4.14,0,0,0-4.39,4.32v8.07Zm23.57-14.15a4.48,4.48,0,0,0-4.74,4.67v9.48h9.48V476.9A4.48,4.48,0,0,0,35.17,472.23Z" style="fill: #69cad1"/>
    <path d="M25.76,453.83a25.76,25.76,0,1,1,0-51.52A25.76,25.76,0,1,1,25.76,453.83Zm0-40.2C16.91,413.63,11,420,11,428.07s5.87,14.44,14.72,14.44,14.72-6.37,14.72-14.44S34.61,413.63,25.76,413.63Z" style="fill: #69cad1"/>
    <path d="M25.76,394.53a25.76,25.76,0,1,1,0-51.52A25.76,25.76,0,1,1,25.76,394.53Zm0-40.2c-8.85,0-14.72,6.37-14.72,14.44s5.87,14.44,14.72,14.44,14.72-6.37,14.72-14.44S34.61,354.33,25.76,354.33Z" style="fill: #69cad1"/>
    <path d="M36,296.3c8.78,0,14.51,7.15,14.51,16V333.1H1V313.71c0-8.63,5.59-15.64,14.15-15.64a12.4,12.4,0,0,1,9.7,4.32A12.79,12.79,0,0,1,36,296.3ZM11.61,321.78h8.78v-8.07A4.18,4.18,0,0,0,16,309.4a4.14,4.14,0,0,0-4.39,4.32v8.07Zm23.57-14.15a4.48,4.48,0,0,0-4.74,4.67v9.48h9.48V312.3A4.48,4.48,0,0,0,35.17,307.63Z" style="fill: #69cad1"/>
    <path d="M25.76,289.23a25.76,25.76,0,1,1,0-51.52A25.76,25.76,0,1,1,25.76,289.23Zm0-40.2C16.91,249,11,255.4,11,263.47s5.87,14.44,14.72,14.44,14.72-6.37,14.72-14.44S34.61,249,25.76,249Z" style="fill: #69cad1"/>
    <path d="M1,188.88H50.53v8.49L23.64,216.48H50.53V227.8H1v-8.49L27.88,200.2H1V188.88Z" style="fill: #69cad1"/>
    <path d="M25.76,179C11.18,179,0,168.14,0,153.21A24.71,24.71,0,0,1,11.46,132l5.66,9.77C13.3,143.94,11,148.19,11,153.21c0,8.78,5.87,14.44,14.72,14.44S40.48,162,40.48,153.21c0-5-2.26-9.34-6.09-11.46L40.06,132a24.53,24.53,0,0,1,11.46,21.23C51.52,168.14,40.34,179,25.76,179Z" style="fill: #69cad1"/>
    <path d="M39.63,94.12h10.9v29H1V111.81H39.63V94.12Z" style="fill: #69cad1"/>
    <path d="M34.54,86.69H1V75.37H33.55c3.75,0,6.93-1.77,6.93-7.78S37.3,59.8,33.55,59.8H1V48.47H34.54c10.62,0,17,8.21,17,19.11S45.15,86.69,34.54,86.69Z" style="fill: #69cad1"/>
    <path d="M36,0C44.8,0,50.53,7.15,50.53,16V36.8H1V17.41C1,8.78,6.58,1.77,15.15,1.77a12.4,12.4,0,0,1,9.7,4.32A12.79,12.79,0,0,1,36,0ZM11.61,25.48h8.78V17.41A4.18,4.18,0,0,0,16,13.09a4.14,4.14,0,0,0-4.39,4.32v8.07ZM35.17,11.32A4.48,4.48,0,0,0,30.43,16v9.48h9.48V16A4.48,4.48,0,0,0,35.17,11.32Z" style="fill: #69cad1"/>
  </g>
</svg>
