<svg  xmlns="http://www.w3.org/2000/svg" xmlns:xlink="http://www.w3.org/1999/xlink" viewBox="0 0 284.7 230.3" width="285px" height="230px">
    <defs>
        <linearGradient id="2257a76b-c72f-463d-8f6b-5aa4409545cf" data-name="Безымянный градиент" x1="684.71" y1="411.06" x2="686.88" y2="410.18" gradientTransform="matrix(0.93, -0.37, -0.37, -0.93, -442.66, 863.37)" gradientUnits="userSpaceOnUse">
            <stop offset="0.01" stop-color="#00ff7f"/>
            <stop offset="0.43" stop-color="#00aeef"/>
            <stop offset="0.49" stop-color="#07a8ef"/>
            <stop offset="0.59" stop-color="#1999ef"/>
            <stop offset="0.69" stop-color="#3780ef"/>
            <stop offset="0.81" stop-color="#605def"/>
            <stop offset="0.88" stop-color="#7a47ef"/>
        </linearGradient>
        <linearGradient id="5aa3bb81-dc9f-4260-88e8-1ce7d38369fc" data-name="Безымянный градиент 2" x1="52.1" y1="145.81" x2="216.6" y2="145.81" gradientTransform="matrix(1, 0, 0, -1, 0, 232)" gradientUnits="userSpaceOnUse">
            <stop offset="0" stop-color="#f73d6e"/>
            <stop offset="1" stop-color="#a22751"/>
        </linearGradient>
    </defs>
    <title>boobon-blog2</title>
    <path d="M43.9,230l2.5,0.3Z" style="fill: url(#2257a76b-c72f-463d-8f6b-5aa4409545cf)"/>
    <g>
        <path d="M91.6,185.2c0.1,0.1.3,0.2,0.4,0.3A1.73,1.73,0,0,1,91.6,185.2Z" style="fill: #69cad1"/>
        <path d="M217.1,141.4c2.2,2,7,2.4,7,2.4-9.9-9.9-6.3-23.1-6.3-23.1a113,113,0,0,1,6.7,13.5c-1.2-9.9-7.6-25.6-7.6-25.6a49.7,49.7,0,0,1,6.8,8.9,43.1,43.1,0,0,0-6.6-15.7,23,23,0,0,1,6.8-1.3c-7.5-2.5-13.2-15.9-13.2-15.9,2.8,2.3,13,4.3,13,4.3-9.2-4.1-21.6-20.4-21.6-20.4,6.1,3.2,15.6,5.6,15.6,5.6-7.3-2.9-24.2-19.4-24.2-19.4,5.7-.2,17.1,5.9,17.1,5.9-9.3-10.1-24.8-17.2-27.1-18.3,16.6,0.5,19.1-6.3,19.1-6.3-15.3,1.9-21-2.2-30.6-4.1,2.8-2.7,4.8-6.9,6.3-10.7,1.9-4.7.7-12.7-4.2-17.4-3.9-3.8-15.2-6.7-20.5.7-2.7,3.8-.7,9.9,3.9,10.7,2.5,0.4,5.4-1.6,4.5-4.3a4.39,4.39,0,0,0-1.2-1.8,4,4,0,0,1,.3,1.5,0.9,0.9,0,0,1-.1.5,1.76,1.76,0,0,1-.4.5,2.16,2.16,0,0,1-2.2.3,2.06,2.06,0,0,1-1.3-1.7,4.14,4.14,0,0,1,.5-1.9c0.6-1.2,2-1.4,3.2-1.3,2.1,0.2,3.3,2.7,3,4.8-1,7-8.6,8.7-12.1,10.2a10.38,10.38,0,0,1-1,.4c0.9-2.9-.6-7.3-0.6-7.3-4.4,10.1-10.2,11.6-9.3,10.7,4.1-4.1,3-10.5,3-10.5-7.4,8.6-12.4,9.8-12.4,9.8,4-6.9,2.2-12.2,2.2-12.2C121.9,27,110.4,29.5,110.4,29.5c-7,1.6-15.3,6.9-15.3,6.9-18.4,3.5-34.6-5.5-34.6-5.5C64.7,45,74.8,47.5,74.8,47.5s-7,2-14.7,13.8c-6,9.5-10,16.7-10,16.7,1.8-.1,5.1-2.6,5.1-2.6C52.3,87.2,44.1,90,44.1,90c1.2,1.9,10.4-1.2,12-1.8-1.4.5-8.1,3.7-10.5,17.3-2.5,14.2-1.6,11-1.6,11a22.68,22.68,0,0,1,3-6.7l-0.3,11.5c-0.3,11.5-3.1,17.4-3.1,17.4,3-2.9,5.4-10,5.4-10-4.2,25.5,4.1,32.6,4.1,32.6-1.2-5.1-.3-7.4-0.3-7.4,1.3,7.9,8.8,14.5,8.8,14.5-3-2.7-4.6-9.5-4.6-9.5A80.08,80.08,0,0,0,80.5,181c-2-2.2-4.8-10.1-4.8-10.1,2.7,5.1,13.8,12.9,15.9,14.3-1.5-1.2-3.8-5.2-3.8-5.2,6.8,6.2,25.6,12.8,25.6,12.8-1.7-1.7-4-4.5-4-4.5,2.4,2.8,20.1,6,18.2,5.6s-8.1-4.2-8.1-4.2c4.6,2.2,16.2,3.3,16.2,3.3s23.2-.1,37.1-5.4,21.6-18.9,21.6-18.9c-2,10.2-10.1,19.1-10.1,19.1,11-7.4,22.5-26.7,22.5-26.7a80.89,80.89,0,0,1-2.8,12.7c5.9-6.8,7.1-19.5,7.1-19.5,3,2.2,3.6,3.7,3.6,3.7,0.1-2.7-2-8.1-2.9-10.2,1.7,2.7,9.1,6.7,9.1,6.7C216,150.4,214.9,139.4,217.1,141.4Z" style="fill: #69cad1"/>
    </g>
    <ellipse cx="135.4" cy="212.3" rx="90.6" ry="4.6" style="fill: #011627;opacity: 0.15000000596046448;isolation: isolate"/>
    <path d="M172.4,132.7a3.92,3.92,0,0,0-1.7-.7c-5.4-.9-21.4,2.1-35.3,2.1-12.5,0-26-2.3-32.3-2.1-1.7,0-2.9.3-3.4,0.8-3.1,3.1-1,21.5,13.4,31.3,5.4,3.6,12.5,6.1,21.7,6.1,10.1,0,17.8-2.3,23.7-5.9C174.5,155,176.5,136.9,172.4,132.7Z" style="fill: #111"/>
    <g>
        <path d="M137.3,158.3a39.29,39.29,0,0,1,21.3,6.2c-5.9,3.5-13.7,5.9-23.7,5.9-9.2,0-16.3-2.4-21.7-6.1C113.2,164.2,124.7,158.3,137.3,158.3Z" style="fill: #e86d7f"/>
        <path d="M170.7,132.1s-2.2,11-5.7,14.5c-2.1,2.1-13.2,3.2-28.1,3.2s-25.2-1.7-29.1-3.1-4.7-14.6-4.7-14.6c6.3-.2,19.8,2.1,32.3,2.1C149.4,134.2,165.3,131.2,170.7,132.1Z" style="fill: #fff"/>
    </g>
    <g style="opacity: 0.75">
        <path d="M136.1,163a15.79,15.79,0,0,0-5.3.3c-1.5.3-4,1.1-4.9,2.4a1.36,1.36,0,0,0,.6,2.3c1.4,0.5,3.6-.6,5.1-0.8,1.7-.2,3.5.3,5.1-0.2C139.1,166.4,138.3,163.3,136.1,163Z" style="fill: #fff"/>
    </g>
    <path d="M134.9,171.3c-8.6,0-16.1-2.1-22.3-6.3a35,35,0,0,1-15-25c-0.4-3.7.2-6.5,1.4-7.8,0.7-.7,2-1,4.1-1.1a110.63,110.63,0,0,1,12.4.8c6.2,0.6,13.2,1.3,20,1.3a194.06,194.06,0,0,0,20.5-1.4c6.8-.7,12.1-1.2,15-0.7a5,5,0,0,1,2.2.9c1.8,1.8,2.5,5.5,2,9.9a32.42,32.42,0,0,1-15.9,23.4C152.5,169.3,144.4,171.3,134.9,171.3Zm-30.8-38.2h-0.9c-2.2.1-2.6,0.4-2.7,0.5-0.7.7-1.2,2.8-.8,6.2a34.05,34.05,0,0,0,14.1,23.6c5.8,3.9,12.9,5.9,21.2,5.9,9.1,0,16.9-1.9,23.2-5.7,9.7-5.8,14.1-15.2,14.9-21.9,0.5-3.7-.1-6.9-1.4-8.2a2.57,2.57,0,0,0-1.1-.4c-2.6-.4-8.1.1-14.4,0.7a194.25,194.25,0,0,1-20.7,1.4c-6.9,0-13.9-.7-20.2-1.3C110.8,133.5,106.9,133.1,104.1,133.1Z" style="fill: #1299ac;stroke: #1299ac;stroke-miterlimit: 10;stroke-width: 3px"/>
    <g>
        <path d="M52,120.4S34.7,126,23.2,163.8c-1.5,4.9-11.9,7.8-10.1-.8,9.1-45.3,35.4-63.7,35.4-63.7Z" style="fill: #69cad1"/>
        <path d="M21,156.8c2.2-.7,3.8,1.5,5.4,3s5.7,3.3,7.3,4.8c4,3.4,2.3,6.9.3,8.1-2.5,1.5-8,.7-11.1-4.7l-2.4-4.3C18.6,160.4,18.9,157.4,21,156.8Z" style="fill: #69cad1"/>
        <path d="M19.1,163.5h0c2.9-.1,3.9,3.3,4.2,5.2l1.3,7.2c0.5,4.4-2.2,6.5-5.1,6.5h0c-2.9.1-5.7-2-5.4-6.3l1-7.3C15,165.9,17,163.5,19.1,163.5Z" style="fill: #69cad1"/>
        <path d="M15.8,161.6h0c2.1,2,.5,5.1-0.7,6.6L11,174.3c-2.7,3.4-6.1,3-8.2,1h0c-2.1-2-2.6-5.5.6-8.3l5.8-4.4C11.2,160.5,14.3,160.1,15.8,161.6Z" style="fill: #69cad1"/>
        <path d="M17.6,155.9l-0.2,1c0.4,2.3-4.4,4-5.8,4.4l-5.7,1.9c-3.5.8-5.5-1.1-5.8-3.4h0c-0.4-2.3,1-4.8,4.5-5h6C15.8,154.9,17,151.9,17.6,155.9Z" style="fill: #69cad1"/>
    </g>
    <g>
        <path d="M212.2,89.5s15.3,21,32.6,13.4c12.5-5.5,15-15.3,17.9-19.6s7.4-7.5,10.1.8-11.9,32.8-33.8,35.1c-26.8,2.8-30.9-8.1-30.9-8.1Z" style="fill: #69cad1"/>
        <path d="M269.4,96.6c-2.3.3-3.5-2-5-3.7s-5.2-4.1-6.6-5.7c-3.5-3.9-1.4-7.2.8-8.1,2.7-1.1,8,.4,10.3,6.2l1.8,4.6C272.2,93.4,271.5,96.3,269.4,96.6Z" style="fill: #69cad1"/>
        <path d="M265.2,82h0c-2.9,0-3.9-4-4.1-6.2l-1.2-8.6c-0.4-5.2,2.3-7.7,5.2-7.7h0c2.9,0,5.7,2.5,5.3,7.6l-1.2,8.6C269.2,79.2,267.3,82,265.2,82Z" style="fill: #69cad1"/>
        <path d="M268.1,89.5h0c-2.6-.5-2.9-3.8-2.7-5.5l0.3-6.7c0.5-4,3.3-5.3,5.9-4.8h0c2.6,0.5,4.7,3,3.5,6.8l-2.4,6.3C272.2,88.2,270,89.9,268.1,89.5Z" style="fill: #69cad1"/>
        <path d="M273.3,91l-0.7-.6c-2-.8-1.2-5.3-0.9-6.7l1.1-5.4c0.9-3.1,3.4-3.9,5.4-3.1h0c2,0.8,3.4,3,1.9,5.9l-2.8,4.7C275,90,276.8,92.4,273.3,91Z" style="fill: #69cad1"/>
        <path d="M269.8,95.7h0.9c2,0.8,9.9-4.3,10.5-5.5l2.8-4.7c1.5-2.9.1-5.1-1.9-5.9h0c-2-.8-4.5-0.1-5.4,3l-5.9,4.7C269.9,92,266.2,94.4,269.8,95.7Z" style="fill: #69cad1"/>
    </g>
    <path d="M101.8,17.5s1.8,9,14.5,10.9l-9.4,7S98.6,29.4,101.8,17.5Z" style="fill: #69cad1"/>
    <path d="M103.1,34.2s-9.9.4-15.8-7.8c0,0-1.5,7.8,7.9,11.9" style="fill: #69cad1"/>
    <g>
        <path d="M67.5,96H56.4c-3.5,0-4.3-.8-4.3-4.3V72.5c0-2.9.9-3.8,3.8-3.8H67.4a4.42,4.42,0,0,0,.2-1.5c-0.8-3.6,1.1-5,4.2-6.1a137.79,137.79,0,0,1,30.9-7.4,251.71,251.71,0,0,1,50.6-1.3c15.5,1.1,30.8,3.3,45.3,9.4,2,0.8,2.9,1.8,2.6,4a28,28,0,0,0,0,2.9h11.6c2.9,0,3.8.9,3.8,3.8V92.4c0,2.6-1,3.6-3.6,3.6-3.9.1-7.7,0-11.5,0a2.3,2.3,0,0,0-.3.9c0.8,4-1.4,6.5-4.1,9-7.8,7.1-16.4,12.5-27.1,14.2-12.5,1.9-22.5-3.2-28.3-14.5a47.35,47.35,0,0,0-4.5-7.1c-2-2.6-3.7-2.6-5.8,0a30.55,30.55,0,0,0-4,6.1c-6.9,14.4-19.9,19-34.7,14.3-9.6-3-17.5-8.7-24.2-16.1a5.89,5.89,0,0,1-1-2.6A29.44,29.44,0,0,1,67.5,96Zm61.7-38.6c-5.9.5-17,1.1-28,2.4a104,104,0,0,0-26.3,6.3A2.51,2.51,0,0,0,73,68.7c0.1,9.7,0,19.3.1,29a3.58,3.58,0,0,0,.9,2.4,47.56,47.56,0,0,0,21.6,13.5c12.3,3.4,20.9-.5,26.8-11.9a35.87,35.87,0,0,1,4.9-7.3,11.43,11.43,0,0,1,4.9-3.1c4.2-1.4,7.3.8,9.6,3.9a92.28,92.28,0,0,1,5.6,9.1c4.6,7.7,11.2,11.4,20.2,10.3,10.9-1.3,19.5-6.9,26.9-14.6a3.41,3.41,0,0,0,.7-2.2c0-9.7,0-19.3.1-29a2.28,2.28,0,0,0-1.9-2.6c-2.3-.7-4.6-1.7-6.9-2.3C169.6,58.8,152.1,57.7,129.2,57.4Zm-71.7,25c0-3,.1-5.9-0.1-8.9,0-.7-0.8-1.3-1.2-2a6.78,6.78,0,0,0-1.3,1.8q-0.15,9,0,18c0,0.6.8,1.3,1.2,1.9,0.5-.6,1.3-1.3,1.3-1.9C57.6,88.3,57.5,85.3,57.5,82.4ZM211,82.1h0c0,3-.1,6.1.1,9.1,0,0.7.8,1.3,1.3,2,0.4-.6,1.2-1.2,1.2-1.8q0.15-9,0-18c0-.6-0.8-1.2-1.2-1.9-0.4.7-1.2,1.3-1.2,2A81.66,81.66,0,0,0,211,82.1Z" style="fill: url(#5aa3bb81-dc9f-4260-88e8-1ce7d38369fc)"/>
        <path d="M129.2,57.4c22.8,0.3,40.3,1.5,57.4,6.3,2.3,0.7,4.6,1.6,6.9,2.3a2.42,2.42,0,0,1,1.9,2.6c-0.1,9.7,0,19.3-.1,29a3.23,3.23,0,0,1-.7,2.2c-7.4,7.6-16,13.3-26.9,14.6-9,1.1-15.6-2.6-20.2-10.3a105.69,105.69,0,0,0-5.6-9.1c-2.3-3.1-5.5-5.3-9.6-3.9a11.43,11.43,0,0,0-4.9,3.1,35.87,35.87,0,0,0-4.9,7.3c-5.9,11.4-14.5,15.3-26.8,11.9C87,111.2,80,106.4,74,100a4.17,4.17,0,0,1-.9-2.4c-0.1-9.7,0-19.3-.1-29A2.51,2.51,0,0,1,74.9,66a104,104,0,0,1,26.3-6.3C112.3,58.5,123.4,57.8,129.2,57.4Zm0.1,4.4c-5.3.4-15.7,0.8-26,2.1-8.1,1.1-16,3.4-24,5.2-1.4.3-1.7,1-1.7,2.4,0.1,8.2,0,16.4.1,24.7a3.69,3.69,0,0,0,1,2.4c5.5,5.3,11.8,9.3,19.3,11.1,8.2,2,14.5-.3,18.7-6.8,0.8-1.3,1.4-2.7,2.2-4a32,32,0,0,1,7.6-9.6c5.6-4.6,12.7-3.6,17.2,1.4a54.82,54.82,0,0,1,7.1,10.2c4.1,7.4,10.1,10.5,18.3,9,8-1.5,14.6-5.5,20.4-11a5.09,5.09,0,0,0,1.5-3.5c0.1-6.8,0-13.5,0-20.3,0-5.7,0-5.7-5.6-7.3C168.6,63.2,151.6,62,129.3,61.8Z" style="fill: #fff"/>
        <path d="M57.5,82.4c0,3,.1,5.9-0.1,8.9,0,0.7-.8,1.3-1.3,1.9-0.4-.6-1.2-1.2-1.2-1.9q-0.15-9,0-18c0-.6.8-1.2,1.3-1.8,0.4,0.7,1.2,1.3,1.2,2C57.6,76.4,57.5,79.4,57.5,82.4Z" style="fill: #fff"/>
        <path d="M211,82.1c0-2.9-.1-5.8.1-8.6,0-.7.8-1.3,1.2-2,0.4,0.6,1.2,1.2,1.2,1.9q0.15,9,0,18c0,0.6-.8,1.2-1.2,1.8-0.4-.7-1.2-1.3-1.3-2-0.1-3-.1-6.1,0-9.1h0Z" style="fill: #fff"/>
        <path d="M129.3,61.8c22.3,0.3,39.3,1.4,56,6.1,5.6,1.6,5.6,1.6,5.6,7.3,0,6.8.1,13.5,0,20.3a5.09,5.09,0,0,1-1.5,3.5c-5.8,5.5-12.4,9.5-20.4,11-8.2,1.5-14.3-1.7-18.3-9a51.7,51.7,0,0,0-7.1-10.2,12.26,12.26,0,0,0-17.2-1.4,32,32,0,0,0-7.6,9.6c-0.7,1.3-1.4,2.7-2.2,4-4.2,6.5-10.5,8.8-18.7,6.8A42.63,42.63,0,0,1,78.6,98.7a4,4,0,0,1-1-2.4c-0.1-8.2,0-16.4-.1-24.7,0-1.4.4-2.1,1.7-2.4,8-1.8,15.9-4.1,24-5.2C113.6,62.5,124,62.2,129.3,61.8Zm-5.8,2.4c-2.7.1-4.9,0.4-7.2,0.4a2.25,2.25,0,0,0-2.6,2.1c-1.7,7.5-3.5,14.9-5.3,22.4-1.5,6.3-3.1,12.5-4.7,18.7,4.7,0.7,9.8-2.7,10.9-7L120,79.2C121.2,74.3,122.3,69.4,123.5,64.2Zm30.3,37.5c3-12.2,5.9-24,8.9-36-1.3-.2-2.4-0.3-3.6-0.5a15.57,15.57,0,0,0-.6,1.5c-2.2,8.9-4.2,17.8-6.7,26.7C151,96.6,151.8,99,153.8,101.7ZM136.4,84.3c1.3,0.3,2.3.5,3.7,0.9,1.7-6.9,3.4-13.8,5.4-21.5-1.8.6-3.9,0.8-4.2,1.5C139.4,71.4,138,77.7,136.4,84.3Z" style="fill: #092444"/>
        <path d="M123.5,64.2c-1.2,5.2-2.3,10.1-3.5,14.9l-5.4,21.6c-1.1,4.3-6.3,7.7-10.9,7,1.6-6.3,3.2-12.5,4.7-18.7,1.8-7.4,3.6-14.9,5.3-22.4,0.4-1.5,1-2.1,2.6-2.1A60.25,60.25,0,0,0,123.5,64.2Z" style="fill: #fff"/>
        <path d="M153.8,101.7c-2.1-2.7-2.9-5.1-2-8.3,2.4-8.8,4.5-17.8,6.7-26.7a9.38,9.38,0,0,1,.6-1.5c1.2,0.2,2.3.3,3.6,0.5C159.8,77.7,156.8,89.5,153.8,101.7Z" style="fill: #fff"/>
        <path d="M136.4,84.3c1.6-6.5,3.1-12.9,4.9-19.1,0.2-.7,2.4-0.9,4.2-1.5-1.9,7.7-3.6,14.5-5.4,21.5C138.7,84.8,137.7,84.6,136.4,84.3Z" style="fill: #fff"/>
    </g>
</svg>
