<svg id="ae46203b-7be4-438f-8365-df5972a7faf3" data-name="Слой 1" xmlns="http://www.w3.org/2000/svg" xmlns:xlink="http://www.w3.org/1999/xlink" viewBox="0 0 40.4 33.4"><defs><style>.\32 8f542e3-f0bd-429e-a02c-7c72be23220f{fill:url(#dbdfff90-ba9f-4628-90b1-132f846a8574);}.\30 f2db8bf-8d96-416f-b8f5-aa31427498bc{fill:url(#a8ca35f8-928e-4933-b127-fae872afa570);}</style><radialGradient id="dbdfff90-ba9f-4628-90b1-132f846a8574" cx="16.15" cy="19.32" r="16.41" gradientTransform="matrix(1, 0, 0, -1, 0, 36)" gradientUnits="userSpaceOnUse"><stop offset="0.6" stop-color="#47207c"/><stop offset="0.88" stop-color="#47207c"/></radialGradient><radialGradient id="a8ca35f8-928e-4933-b127-fae872afa570" cx="27.06" cy="19.48" r="13.61" xlink:href="#dbdfff90-ba9f-4628-90b1-132f846a8574"/></defs><title>cartNumBg</title><path class="28f542e3-f0bd-429e-a02c-7c72be23220f" d="M10.1,1.4a8.7,8.7,0,0,0-2,1.5L7.9,1.3l-3,3.9L4.1,3.5S-3,11.9,1.5,17.4c0,0-.3,1.3-1,.7a4.36,4.36,0,0,0,1.4,2.7S1,21.9.2,21.4c0,0,2.3,2.9,3.6,3l-1.1.8,2.1,1.4-.6,1S7.1,29.3,8.7,29a4.44,4.44,0,0,1-1.1,1.6,4.56,4.56,0,0,0,2.6-1.1s.9,1.7,0,2.9a4,4,0,0,0,3-1.3s1.2,1,.9,2.1a5,5,0,0,0,3-2.3A5.72,5.72,0,0,1,19,33.5a10.31,10.31,0,0,0,1.4-2.1s2.6.1,3.4-1c0,0,2.9-2.3,3.1-3.3l-1,.2s3.9-3.7,4.4-5.3l-.9-.3s2.8-2.7,2.9-4l-.9.4s-1.9-1.1-1.1-2.7,1.4-6.3-1.8-9.1-3.4-3.6-3.4-3.6L24.6,5a39.16,39.16,0,0,1-5-4.8L19,2,17.2.6l-.9.9L14.2,0,12.9,1.3,11.1.1Z"/><path class="0f2db8bf-8d96-416f-b8f5-aa31427498bc" d="M22.1,3.8c-.3,0-1.4,1-1.7,1.3l-.1-1.3L17.7,7,17,5.6s-5.9,6.9-2.1,11.6c0,0-.3,1.1-.8.6A3.57,3.57,0,0,0,15.3,20s-.8.9-1.4.5c0,0,1.9,2.4,3,2.5l-.9.6,1.7,1.1-.5.8s2.4,1.4,3.7,1.1a3.3,3.3,0,0,1-.9,1.3,3.71,3.71,0,0,0,2.2-.9,2.35,2.35,0,0,1,0,2.4,3.22,3.22,0,0,0,2.5-1.1s1,.8.8,1.7A4,4,0,0,0,28,28.1a5.08,5.08,0,0,1,1.6,2.2,7.41,7.41,0,0,0,1.2-1.8s2.1.1,2.8-.9c0,0,2.4-1.9,2.6-2.7l-.8.2S38.6,22,39,20.7l-1-.1s2.3-2.2,2.4-3.3l-.7.3s-1.6-.9-.9-2.2,1.1-5.2-1.5-7.5-2.8-3-2.8-3L34,6.8a32.45,32.45,0,0,1-4.1-3.9l-.5,1.6L27.9,3.3l-.7.7L25.5,2.8l-1,1.1L23,2.9Z"/></svg>