<svg xmlns="http://www.w3.org/2000/svg" xmlns:xlink="http://www.w3.org/1999/xlink" viewBox="0 0 40 65" width="40" height="65">
    <defs>
        <radialGradient id="368b3f65-a121-490a-ba77-d9c2016468f2" data-name="Безымянный градиент" cx="20" cy="33.5" r="26.98" gradientTransform="matrix(1, 0, 0, -1, 0, 66)" gradientUnits="userSpaceOnUse">
            <stop offset="0.6" stop-color="#47207c"/>
            <stop offset="0.88" stop-color="#47207c"/>
        </radialGradient>
    </defs>
    <title>marker</title>
    <g>
        <path d="M40,20c0,11-20,45-20,45S0,31,0,20A20,20,0,0,1,40,20Z" style="fill: url(#368b3f65-a121-490a-ba77-d9c2016468f2)"/>
        <g>
            <path d="M15.4,7.2a5.86,5.86,0,0,0-1.8,1.4L13.5,7.2l-2.7,3.5L10,9.1S3.7,16.6,7.7,21.6c0,0-.3,1.1-0.9.6a3.89,3.89,0,0,0,1.3,2.4s-0.8,1-1.6.5c0,0,2.1,2.6,3.2,2.7l-1,.7,1.9,1.2-0.6.9s2.6,1.5,4,1.2a3.67,3.67,0,0,1-1,1.5,3.81,3.81,0,0,0,2.4-1,2.71,2.71,0,0,1,0,2.6,3.52,3.52,0,0,0,2.7-1.2,2.35,2.35,0,0,1,.9,1.9,4.83,4.83,0,0,0,2.7-2,4.83,4.83,0,0,1,1.7,2.3A8.07,8.07,0,0,0,24.7,34s2.3,0.1,3.1-.9c0,0,2.6-2,2.8-2.9l-0.9.2s3.5-3.3,3.9-4.7l-0.8-.3s2.5-2.4,2.6-3.6l-0.8.3s-1.7-1-1-2.4,1.2-5.6-1.6-8.1-3-3.2-3-3.2l-0.5,2A38.59,38.59,0,0,1,24,6.1L23.4,7.8,21.8,6.5,21,7.3,19,6,17.9,7.2l-1.6-1Z" style="fill: #89e5e5"/>
            <path d="M12.6,22.7A6,6,0,0,1,16,20.8l-0.4-1.5,3.6-.9-1.1-2s5,0.1,6.1.3l-1.4-1.5S29,15,31.7,20a9.59,9.59,0,0,0-5.2-6.4,3.68,3.68,0,0,1,3-.3s-3.6-2.8-7.4-2.2a1.49,1.49,0,0,1,.8-1.6s-3.7.1-5.4,1.4a1.84,1.84,0,0,1,0-1.5s-3.1.9-3.7,2.3L12.9,10s-2.6,2.7-2.2,4.1,1,1.5,1,1.5L9.8,16.8l1.3,1.1L9.9,19.5l1.8-.5-0.8,2.3Z" style="fill: #fdf9f6;opacity: 0.5;isolation: isolate"/>
        </g>
    </g>
</svg>
