<svg id="bad355af-f500-4141-99dc-dca27945180d" data-name="Layer 1" xmlns="http://www.w3.org/2000/svg" viewBox="0 0 58.33 35" width="58px" height="35px">
  <title>if__Mastercard_1156750</title>
  <g>
    <path d="M58.33,17.5a17.5,17.5,0,1,1-35,0h0a17.5,17.5,0,1,1,35,0h0Z" style="fill: #ffb600"/>
    <path d="M40.83,0a17.55,17.55,0,0,1,17.5,17.5h0a17.5,17.5,0,1,1-35,0" style="fill: #f7981d"/>
    <path d="M40.83,0a17.55,17.55,0,0,1,17.5,17.5h0A17.49,17.49,0,0,1,40.83,35" style="fill: #ff8500"/>
    <path d="M17.31,0a17.5,17.5,0,0,0,.19,35,17.7,17.7,0,0,0,11.76-4.54h0A16.64,16.64,0,0,0,31,28.61H27.41a21.36,21.36,0,0,1-1.3-1.76h6.2a11.86,11.86,0,0,0,1-1.85H25.09a11,11,0,0,1-.74-1.85H34a18.39,18.39,0,0,0,.93-5.56,23.9,23.9,0,0,0-.37-3.7H23.8A13.54,13.54,0,0,1,24.26,12h9.63a11,11,0,0,0-.74-1.85H25a18.36,18.36,0,0,1,1-1.85h6.2a8.81,8.81,0,0,0-1.39-1.85H27.41a15.78,15.78,0,0,1,1.76-1.76A17.09,17.09,0,0,0,17.41.19C17.41,0,17.41,0,17.31,0Z" style="fill: #ff5050"/>
    <path d="M0,17.5A17.49,17.49,0,0,0,17.5,35a17.7,17.7,0,0,0,11.76-4.54h0A16.64,16.64,0,0,0,31,28.61H27.41a21.36,21.36,0,0,1-1.3-1.76h6.2a11.86,11.86,0,0,0,1-1.85H25.09a11,11,0,0,1-.74-1.85H34a18.39,18.39,0,0,0,.93-5.56,23.9,23.9,0,0,0-.37-3.7H23.8A13.54,13.54,0,0,1,24.26,12h9.63a11,11,0,0,0-.74-1.85H25a18.36,18.36,0,0,1,1-1.85h6.2a8.81,8.81,0,0,0-1.39-1.85H27.41a15.78,15.78,0,0,1,1.76-1.76A17.09,17.09,0,0,0,17.41.19H17.31" style="fill: #e52836"/>
    <path d="M17.5,35a17.7,17.7,0,0,0,11.76-4.54h0A16.64,16.64,0,0,0,31,28.61H27.41a21.36,21.36,0,0,1-1.3-1.76h6.2a11.86,11.86,0,0,0,1-1.85H25.09a11,11,0,0,1-.74-1.85H34a18.39,18.39,0,0,0,.93-5.56,23.9,23.9,0,0,0-.37-3.7H23.8A13.54,13.54,0,0,1,24.26,12h9.63a11,11,0,0,0-.74-1.85H25a18.36,18.36,0,0,1,1-1.85h6.2a8.81,8.81,0,0,0-1.39-1.85H27.41a15.78,15.78,0,0,1,1.76-1.76A17.09,17.09,0,0,0,17.41.19H17.31" style="fill: #cb2026"/>
    <g>
      <path d="M23.7,21.94L24,20.37a4,4,0,0,1-.46.09c-0.65,0-.74-0.37-0.65-0.56l0.56-3.24h1l0.28-1.76H23.8L24,13.8H22.13S21,19.91,21,20.65a1.39,1.39,0,0,0,1.48,1.57A2.84,2.84,0,0,0,23.7,21.94Z" style="fill: #fff"/>
      <path d="M24.35,19a3,3,0,0,0,3.24,3.24,4.81,4.81,0,0,0,1.94-.28l0.37-1.76a5.55,5.55,0,0,1-1.94.46c-2,0-1.67-1.48-1.67-1.48h3.8a12,12,0,0,0,.28-1.67,2.51,2.51,0,0,0-2.69-2.69C25.74,14.63,24.35,16.67,24.35,19Zm3.24-2.69c1,0,.83,1.2.83,1.3h-2A1.37,1.37,0,0,1,27.59,16.3Z" style="fill: #fff"/>
      <path d="M39.35,21.94l0.37-2a4.55,4.55,0,0,1-1.57.46,1.88,1.88,0,0,1-1.85-2.13c0-2.22,1.11-3.43,2.41-3.43a3.09,3.09,0,0,1,1.67.56l0.28-1.94A6.51,6.51,0,0,0,38.52,13c-2.13,0-4.26,1.85-4.26,5.37,0,2.31,1.11,3.89,3.33,3.89A8.31,8.31,0,0,0,39.35,21.94Z" style="fill: #fff"/>
      <path d="M13.52,14.63A6.56,6.56,0,0,0,11.3,15L11,16.57a5.47,5.47,0,0,1,2-.37c0.65,0,1.2.09,1.2,0.65a0.71,0.71,0,0,1-.09.46H13.33c-1.57,0-3.33.65-3.33,2.78a1.77,1.77,0,0,0,1.76,2,2.78,2.78,0,0,0,1.94-.83L13.61,22h1.67L16,16.94A2.19,2.19,0,0,0,13.52,14.63Zm0.37,4.17c0,0.28-.19,1.76-1.3,1.76a0.72,0.72,0,0,1-.74-0.74c0-.46.28-1.11,1.67-1.11A1.46,1.46,0,0,0,13.89,18.8Z" style="fill: #fff"/>
      <path d="M17.78,22.13a2.37,2.37,0,0,0,2.78-2.41c0-2.31-2.22-1.85-2.22-2.78,0-.46.37-0.65,1-0.65,0.28,0,1.3.09,1.3,0.09l0.28-1.67a7,7,0,0,0-1.76-.19c-1.39,0-2.78.56-2.78,2.41,0,2.13,2.31,1.94,2.31,2.78,0,0.56-.65.65-1.11,0.65a6.06,6.06,0,0,1-1.67-.28l-0.28,1.67C15.74,21.94,16.2,22.13,17.78,22.13Z" style="fill: #fff"/>
      <path d="M54.72,13.15l-0.37,2.5a2.57,2.57,0,0,0-1.76-.93c-1.67,0-3.15,2-3.15,4.44,0,1.48.74,3.06,2.31,3.06a2.47,2.47,0,0,0,1.76-.74l-0.09.65h1.85l1.39-8.89Zm-0.83,4.91c0,1-.46,2.31-1.48,2.31-0.65,0-1-.56-1-1.48,0-1.48.65-2.41,1.48-2.41C53.52,16.48,53.89,16.94,53.89,18.06Z" style="fill: #fff"/>
      <path d="M3.43,22l1.11-6.67L4.72,22H6l2.41-6.67L7.41,22H9.35l1.48-8.89H7.78L5.93,18.61,5.83,13.15H3.15L1.67,22H3.43Z" style="fill: #fff"/>
      <path d="M32.13,22c0.56-3.06.65-5.56,1.94-5.09a7.27,7.27,0,0,1,.65-2.13H34.35a2.23,2.23,0,0,0-1.48,1.11l0.19-1H31.3l-1.2,7.22h2V22Z" style="fill: #fff"/>
      <path d="M43.61,14.63a6.56,6.56,0,0,0-2.22.37l-0.28,1.57a5.47,5.47,0,0,1,2-.37c0.65,0,1.2.09,1.2,0.65a0.71,0.71,0,0,1-.09.46H43.43c-1.57,0-3.33.65-3.33,2.78a1.77,1.77,0,0,0,1.76,2,2.78,2.78,0,0,0,1.94-.83L43.7,22h1.67l0.74-5.09A2.16,2.16,0,0,0,43.61,14.63Zm0.46,4.17c0,0.28-.19,1.76-1.3,1.76A0.72,0.72,0,0,1,42,19.81c0-.46.28-1.11,1.67-1.11A0.92,0.92,0,0,0,44.07,18.8Z" style="fill: #fff"/>
      <path d="M47.69,22c0.56-3.06.65-5.56,1.94-5.09a7.27,7.27,0,0,1,.65-2.13H49.91a2.23,2.23,0,0,0-1.48,1.11l0.19-1H46.85l-1.2,7.22h2V22Z" style="fill: #fff"/>
    </g>
    <g>
      <path d="M20.83,20.65a1.39,1.39,0,0,0,1.48,1.57,3.52,3.52,0,0,0,1.39-.28L24,20.37a4,4,0,0,1-.46.09c-0.65,0-.74-0.37-0.65-0.56l0.56-3.24h1l0.28-1.76H23.8L24,13.8" style="fill: #dce5e5"/>
      <path d="M25.28,19c0,2.59.83,3.24,2.31,3.24a4.81,4.81,0,0,0,1.94-.28l0.37-1.76a5.55,5.55,0,0,1-1.94.46c-2,0-1.67-1.48-1.67-1.48h3.8a12,12,0,0,0,.28-1.67,2.51,2.51,0,0,0-2.69-2.69C25.74,14.63,25.28,16.67,25.28,19Zm2.31-2.69a1.37,1.37,0,0,1,1.2,1.3H26.39A1.37,1.37,0,0,1,27.59,16.3Z" style="fill: #dce5e5"/>
      <path d="M39.35,21.94l0.37-2a4.55,4.55,0,0,1-1.57.46,1.88,1.88,0,0,1-1.85-2.13c0-2.22,1.11-3.43,2.41-3.43a3.09,3.09,0,0,1,1.67.56l0.28-1.94A6.51,6.51,0,0,0,38.52,13c-2.13,0-3.33,1.85-3.33,5.37,0,2.31.19,3.89,2.41,3.89A8.31,8.31,0,0,0,39.35,21.94Z" style="fill: #dce5e5"/>
      <path d="M11,16.67a5.47,5.47,0,0,1,2-.37c0.65,0,1.2.09,1.2,0.65a0.71,0.71,0,0,1-.09.46H13.33c-1.57,0-3.33.65-3.33,2.78a1.77,1.77,0,0,0,1.76,2,2.78,2.78,0,0,0,1.94-.83l-0.09.74h1.67L16,17c0-2.13-1.85-2.22-2.59-2.22m1.39,4a3,3,0,0,1-2.22,1.76,0.72,0.72,0,0,1-.74-0.74c0-.46.28-1.11,1.67-1.11A7.56,7.56,0,0,0,14.81,18.8Z" style="fill: #dce5e5"/>
      <path d="M15.74,21.94a7.84,7.84,0,0,0,2.13.19,2.37,2.37,0,0,0,2.78-2.41c0-2.31-2.22-1.85-2.22-2.78,0-.46.37-0.65,1-0.65,0.28,0,1.3.09,1.3,0.09L21,14.72a7,7,0,0,0-1.76-.19c-1.39,0-1.85.56-1.85,2.41,0,2.13,1.39,1.94,1.39,2.78,0,0.56-.65.65-1.11,0.65" style="fill: #dce5e5"/>
      <path d="M54.35,15.65a2.57,2.57,0,0,0-1.76-.93c-1.67,0-2.22,2-2.22,4.44,0,1.48-.19,3.06,1.39,3.06a2.47,2.47,0,0,0,1.76-.74l-0.09.65h1.85l1.39-8.89m-2.41,4.81c0,1-.83,2.31-1.85,2.31-0.65,0-1-.56-1-1.48,0-1.48.65-2.41,1.48-2.41A1.41,1.41,0,0,1,54.26,18.06Z" style="fill: #dce5e5"/>
      <path d="M3.43,22l1.11-6.67L4.72,22H6l2.41-6.67L7.41,22H9.35l1.48-8.89H8.52L5.93,18.61,5.83,13.15h-1L1.67,22H3.43Z" style="fill: #dce5e5"/>
      <path d="M30.19,22h1.94c0.56-3.06.65-5.56,1.94-5.09a7.27,7.27,0,0,1,.65-2.13H34.35a2.23,2.23,0,0,0-1.48,1.11l0.19-1" style="fill: #dce5e5"/>
      <path d="M41.11,16.67a5.47,5.47,0,0,1,2-.37c0.65,0,1.2.09,1.2,0.65a0.71,0.71,0,0,1-.09.46H43.43c-1.57,0-3.33.65-3.33,2.78a1.77,1.77,0,0,0,1.76,2,2.78,2.78,0,0,0,1.94-.83l-0.09.74h1.67L46.11,17c0-2.13-1.85-2.22-2.59-2.22m1.39,4a3,3,0,0,1-2.22,1.76,0.72,0.72,0,0,1-.74-0.74c0-.46.28-1.11,1.67-1.11A8.15,8.15,0,0,0,44.91,18.8Z" style="fill: #dce5e5"/>
      <path d="M45.74,22h1.94c0.56-3.06.65-5.56,1.94-5.09a7.27,7.27,0,0,1,.65-2.13H49.91a2.23,2.23,0,0,0-1.48,1.11l0.19-1" style="fill: #dce5e5"/>
    </g>
  </g>
</svg>
