<svg version="1.1"
	 xmlns="http://www.w3.org/2000/svg" xmlns:xlink="http://www.w3.org/1999/xlink" xmlns:a="http://ns.adobe.com/AdobeSVGViewerExtensions/3.0/"
	 x="0px" y="0px" width="48.6px" height="48.3px" viewBox="0 0 48.6 48.3" style="enable-background:new 0 0 48.6 48.3;"
	 xml:space="preserve">
<path class="st0" d="M44.1,34.5c0.3-0.3,0.7-3,0.7-3.7l1.7,1.5L46,25.1l2.6,1c0,0-0.7-16.2-11.2-17.8c0,0-0.9-1.7,0.4-1.8
	c0,0-2-1.8-4.2-1.6c0,0-0.1-2.1,1.3-2.3c0,0-5.4-0.8-6.9,0.3l0.4-1.9l-3.6,0.6L24.5,0c0,0-4.9,1.1-6.3,3c0,0-0.7-1.7-0.5-2.8
	c0,0-1.9,2-1.7,3.9c0,0-2.7-0.9-2.9-3.1c0,0-2.1,1.7-1.9,4.4c0,0-2.4,0.1-3.1-1.3c0,0-1.5,2-1,5.5c0,0-2.3,0.3-4.7-1
	c0,0,0,2.5,0.6,3.7c0,0-2.9,2.5-2.7,4.6c0,0-0.8,5.3-0.1,6.6l0.9-1.2c0,0-0.5,7.9,0.5,10.1L3,31.8c0,0-0.4,5.8,0.8,7.3l0.6-1.3
	c0,0,3.2-0.8,3.9,1.9s4.8,8.2,11,8.1s7.2,0.5,7.2,0.5l-1.7-3c0,0,7.5-0.4,10.2,0.2l-1.2-2.7l3.4-0.3l0.1-1.9l3.8-0.5l0.1-2.7
	l3.1-0.5L44.1,34.5z"/>
</svg>
