<svg version="1.1"
   xmlns="http://www.w3.org/2000/svg" xmlns:xlink="http://www.w3.org/1999/xlink" xmlns:a="http://ns.adobe.com/AdobeSVGViewerExtensions/3.0/"
   x="0px" y="0px" width="82.2px" height="21px" viewBox="0 0 82.2 21" style="enable-background:new 0 0 82.2 21;"
   xml:space="preserve">
<g>
  <path fill="#139AD6" d="M63.5,5.5h-4.4c-0.3,0-0.5,0.2-0.7,0.5l-1.8,11.5c0,0.2,0.1,0.4,0.3,0.4c0,0,0.1,0,0.1,0h2.3
    c0.2,0,0.4-0.1,0.4-0.3c0,0,0-0.1,0-0.1l0.5-3.3c0-0.3,0.3-0.6,0.7-0.5h1.4c3,0,4.7-1.4,5.1-4.3c0.3-1,0.1-2-0.5-2.9
    C65.9,5.8,64.7,5.4,63.5,5.5 M64,9.8c-0.3,1.6-1.4,1.6-2.6,1.6h-0.8l0.5-3c0-0.2,0.2-0.3,0.4-0.3c0,0,0,0,0,0h0.2
    c0.8,0,1.6,0,2,0.5C64,8.7,64,9.1,64,9.8"/>
  <path fill="#263B80" d="M31.5,5.5h-4.4c-0.3,0-0.5,0.2-0.7,0.5l-1.8,11.5c0,0.2,0.1,0.4,0.3,0.4c0,0,0.1,0,0.1,0h2.1
    c0.3,0,0.5-0.2,0.7-0.5l0.5-3.1c0-0.3,0.3-0.6,0.7-0.5h1.4c3,0,4.7-1.4,5.1-4.3c0.3-1,0.1-2-0.5-2.9C34,5.8,32.8,5.4,31.5,5.5
     M32.1,9.8c-0.3,1.6-1.4,1.6-2.6,1.6h-0.7l0.5-3c0-0.2,0.2-0.3,0.4-0.3c0,0,0,0,0,0H30c0.8,0,1.6,0,2,0.5C32.2,9,32.2,9.4,32.1,9.8
    "/>
  <path fill="#263B80" d="M45,9.6h-2.1c-0.2,0-0.3,0.1-0.4,0.3l-0.1,0.7l-0.1-0.3c-0.6-0.7-1.6-1-2.5-0.9c-2.4,0.1-4.5,1.9-4.8,4.3
    c-0.2,1.1,0,2.3,0.8,3.3c0.7,0.8,1.6,1,2.7,1c1.1,0,2.2-0.4,3-1.2l-0.1,0.7c0,0.2,0.1,0.4,0.3,0.4c0,0,0.1,0,0.1,0h2
    c0.3,0,0.5-0.2,0.7-0.5l1.2-7.3C45.4,9.8,45.2,9.7,45,9.6 M42,13.8c-0.2,1.2-1.3,2.1-2.5,2.1c-0.5,0-1-0.2-1.4-0.5
    c-0.3-0.5-0.4-1.1-0.4-1.6c0.1-1.3,1.3-2.2,2.6-2.1c0.4,0,0.9,0.2,1.2,0.5C41.8,12.7,42,13.2,42,13.8"/>
  <path fill="#139AD6" d="M76.8,9.6h-2.1c-0.2,0-0.3,0.1-0.4,0.3l-0.1,0.7L74,10.3c-0.6-0.7-1.6-1-2.5-0.9c-2.4,0.1-4.5,1.9-4.8,4.3
    c-0.2,1.1,0,2.3,0.8,3.3c0.7,0.8,1.6,1,2.7,1c1.1,0,2.2-0.4,3-1.2l-0.1,0.7c0,0.2,0.1,0.4,0.3,0.4c0,0,0.1,0,0.1,0h2
    c0.3,0,0.5-0.2,0.7-0.5l1.2-7.3C77.2,9.8,77.1,9.7,76.8,9.6 M73.8,13.8c-0.2,1.2-1.3,2.1-2.5,2.1c-0.5,0-1-0.2-1.4-0.5
    c-0.3-0.5-0.4-1-0.4-1.6c0.1-1.3,1.3-2.2,2.6-2.1c0.4,0,0.9,0.2,1.2,0.5C73.7,12.7,73.9,13.2,73.8,13.8"/>
  <g>
    <path fill="#263B80" d="M56.3,9.6h-2.2c-0.2,0-0.4,0.1-0.5,0.3l-2.9,4.4l-1.3-4.2c-0.1-0.3-0.4-0.4-0.7-0.4h-2.1
      c-0.2,0-0.4,0.3-0.4,0.5c0,0,0,0,0,0l2.3,6.9l-2.2,3.1c-0.1,0.2,0,0.5,0.2,0.6c0,0,0.1,0,0.1,0h2.1c0.2,0,0.4-0.1,0.5-0.3
      l7.2-10.3C56.9,10,56.6,9.7,56.3,9.6"/>
    <path fill="#139AD6" d="M79.3,5.9l-1.8,11.7c0,0.2,0.1,0.4,0.3,0.4c0,0,0.1,0,0.1,0h1.8c0.3,0,0.5-0.2,0.7-0.5L82.1,6
      c0-0.2-0.1-0.4-0.3-0.4c0,0-0.1,0-0.1,0h-2.1C79.5,5.5,79.4,5.6,79.3,5.9"/>
    <path fill="#263B80" d="M15,1.6c-0.9-1-2.6-1.6-5-1.6H3.5C3.1,0.1,2.7,0.4,2.6,0.8L0,17.9c0,0.3,0.2,0.6,0.5,0.7h4l1-6.4v0.3
      c0.1-0.4,0.5-0.7,0.9-0.8h2c3.8,0,6.6-1.6,7.6-5.9V5.3l0,0C16.2,3.7,15.9,2.6,15,1.6"/>
  </g>
  <path fill="#139AD6" d="M15.9,5.3L15.9,5.3v0.4c-0.9,4.5-3.8,5.9-7.6,5.9h-2C6,11.7,5.6,12,5.5,12.4l-1.3,8c0,0.3,0.2,0.5,0.4,0.5
    c0,0,0.1,0,0.1,0h3.4c0.4,0,0.7-0.3,0.8-0.7v-0.1l0.7-4v-0.3c0-0.4,0.4-0.7,0.8-0.7h0.5c3.3,0,5.9-1.3,6.5-5.2
    c0.3-1.6,0.1-3-0.7-3.9C16.5,5.7,16.2,5.4,15.9,5.3"/>
  <path fill="#232C65" d="M15,5c-0.1,0-0.3-0.2-0.4-0.2c-0.1,0-0.3,0-0.4-0.1c-0.6-0.1-1.1-0.2-1.7-0.1H7.4c-0.1,0-0.3,0-0.4,0.1
    C6.8,4.8,6.6,5,6.7,5.3l-1,6.8v0.3c0.1-0.4,0.5-0.7,0.9-0.8h2c3.8,0,6.6-1.6,7.6-5.9c0-0.1,0-0.3,0.2-0.4c-0.2-0.1-0.4-0.2-0.7-0.3
    C15.4,5,15.2,5,15,5"/>
</g>
</svg>
