<svg version="1.1"
	 xmlns="http://www.w3.org/2000/svg" xmlns:xlink="http://www.w3.org/1999/xlink" xmlns:a="http://ns.adobe.com/AdobeSVGViewerExtensions/3.0/"
	 x="0px" y="0px" width="74.8px" height="55.8px" viewBox="0 0 74.8 55.8" style="enable-background:new 0 0 74.8 55.8;"
	 xml:space="preserve">
    <g>
        <path fill="#501B7D" d="M0,0c4,0,8,0,12,0c6.4,0,12.8,0,19.1,0c0.2,0,0.5,0,0.8,0C32,0.3,32,0.5,32,0.7c0,11,0,22,0,32.9
            c0,3.9-0.7,7.6-2.7,11c-2,3.4-4.9,5.7-8.4,7.4c-3.7,1.8-7.7,2.7-11.8,3.2c-3,0.3-6.1,0.4-9.2,0.6c0-2.3,0-4.6,0-6.9
            c2.4,0,4.7-0.2,7-0.9c4.2-1.2,7.2-3.8,8.5-8.1c0.7-2.3,0.7-4.7,0.6-7.1c0-0.7-0.3-0.8-0.9-0.8c-4.8,0-9.6,0-14.4,0
            c-0.2,0-0.5,0-0.7,0.1C0,21.4,0,10.7,0,0z"/>
        <path fill="#501B7D" d="M42.8,55.8c0-2.3,0-4.5,0-6.7c1-0.1,2.1-0.1,3.1-0.2c2-0.2,4-0.6,5.9-1.5c4.1-1.9,6.3-5.2,6.9-9.6
            c0.3-1.8,0.2-3.7,0-5.6c-5.3,0-10.6,0-15.9,0c0-10.7,0-21.3,0-32c10.6,0,21.3,0,31.9,0c0,0.3,0,0.5,0,0.7c0,10.6,0,21.2,0,31.8
            c0,3.3-0.3,6.5-1.5,9.6c-1.8,4.6-5.2,7.7-9.6,9.8c-4.1,2-8.5,2.9-13,3.3c-2.3,0.2-4.7,0.3-7,0.4C43.4,55.8,43.1,55.8,42.8,55.8z"/>
    </g>
</svg>
