<svg id="eede4801-fc19-4e98-96e1-419ca1ce34f3" data-name="15b09f3e-8bd6-48c5-b73b-86d8879a46fb" xmlns="http://www.w3.org/2000/svg" xmlns:xlink="http://www.w3.org/1999/xlink" viewBox="0 0 120.78 221"><defs><style>.\38 dfc7980-e702-4994-9ac2-60ebecc8b7c4,.\39 27632a8-8dc0-44ae-ab6d-40788859ae72{fill:none;}.\34 673ebae-bdf3-47f7-aaff-caa445e5d801{clip-path:url(#5041d41d-0bd2-4a58-95d0-4f1daa97e23f);}.\35 5a11e3a-045f-4752-9945-3e56c310376f{fill:#ffc313;}.f7ca370f-a340-4c3a-b3a0-b1c6a2da8e3d{fill:url(#3502e37b-e712-426e-aaa0-a465b23733ed);}.c83e7b20-2a3e-4f88-987a-9fb29c371ac1{clip-path:url(#f85341bd-1222-4deb-b487-eadb33ae5aa1);}.\38 dfc7980-e702-4994-9ac2-60ebecc8b7c4{stroke:#fff;stroke-width:7px;}.\38 dfc7980-e702-4994-9ac2-60ebecc8b7c4,.a2c2a28f-5cfe-4ed4-84d4-be56a1eca690{stroke-miterlimit:10;}.e3d05d6b-dcad-43c5-a96d-468ed726df66{fill:#fff;}.\32 e49ac7a-c96f-4eee-835b-c18caedd36ca{fill:#000a33;}.\38 f321203-977c-4f0d-86c0-118bf40906d8{fill:url(#96b36f9a-6330-4421-acc7-1310f888d228);}.d81e189b-4449-4103-b0ca-5f84bc1fbf49{fill:#fdf9f6;opacity:0.5;}.f118460d-586a-4acd-add2-a9c578650ebf{fill:#69cad1;}.bd68bc66-25f8-4b70-82ba-35f20516a977{fill:#e2e1e6;}.bf8538f9-84b5-477a-8605-4c0ee3785e91{fill:#fbfbfb;}.c5c5ec29-ca36-4add-857a-443987769804{fill:#4a4a48;}.a2c2a28f-5cfe-4ed4-84d4-be56a1eca690,.d308ba6f-3de9-49d8-bf8e-897e069b22b9{fill:#1299ac;}.\37 931acac-5a43-4d3c-bafd-eb1f916c2052{fill:#111;}.\39 6b032fa-2a8b-467d-8f86-ba63a5f1be0d{fill:#e86d7f;}.df61e149-7554-4214-8bfc-a4384f82afde{opacity:0.75;}.a2c2a28f-5cfe-4ed4-84d4-be56a1eca690{stroke:#1299ac;stroke-width:3px;}.\30 5eb1d66-c298-406f-bdff-3bcd020cb0cd{fill:#89e5e5;}</style><clipPath id="5041d41d-0bd2-4a58-95d0-4f1daa97e23f"><polygon class="927632a8-8dc0-44ae-ab6d-40788859ae72" points="120.28 279.52 -73.89 277.71 -70.71 -58.28 121.28 -56.46 120.28 279.52"/></clipPath><linearGradient id="3502e37b-e712-426e-aaa0-a465b23733ed" x1="220.93" y1="406.1" x2="220.93" y2="433.74" gradientTransform="translate(-180.37 -293.28) rotate(-7.91)" gradientUnits="userSpaceOnUse"><stop offset="0" stop-color="#ffc313"/><stop offset="1" stop-color="#d19e04"/></linearGradient><clipPath id="f85341bd-1222-4deb-b487-eadb33ae5aa1"><path class="927632a8-8dc0-44ae-ab6d-40788859ae72" d="M136.26,77.83S122.81,36.27,102,28.95,74.09,35,69.83,42.57s-13.62,23-14.49,42.79L59.87,95l39.39-5.48,28.7-4,8.91-3.28Z"/></clipPath><linearGradient id="96b36f9a-6330-4421-acc7-1310f888d228" x1="205.07" y1="348.34" x2="243.44" y2="348.34" xlink:href="#3502e37b-e712-426e-aaa0-a465b23733ed"/></defs><title>reviews-boobon</title><g class="4673ebae-bdf3-47f7-aaff-caa445e5d801"><path class="55a11e3a-045f-4752-9945-3e56c310376f" d="M136.26,77.83S122.81,36.27,102,28.95,74.09,35,69.83,42.57s-13.62,23-14.49,42.79L59.87,95l39.39-5.48,28.7-4,8.91-3.28Z"/><path class="f7ca370f-a340-4c3a-b3a0-b1c6a2da8e3d" d="M131.5,77.79s-31.93-3-73.23,7.17c0,0-11.77,2.09-11.09,6s5.6,1.49,4.92,6.84-.32,13.22,6.75,12,25.6-8.74,41.71-10.88c28.89-3.84,36.37,2.5,39.56,1.17,1.63-.68.36-4.59-.75-5.43s.37-3.46,1.84-4.09,4.19-4.6,2.41-7.17S140,79,138.17,78.84,131.5,77.79,131.5,77.79Z"/><g class="c83e7b20-2a3e-4f88-987a-9fb29c371ac1"><path class="8dfc7980-e702-4994-9ac2-60ebecc8b7c4" d="M46.6,85.37s46.56-18.32,98-8.39"/><path class="8dfc7980-e702-4994-9ac2-60ebecc8b7c4" d="M45.27,72.41s45-15.07,96.82-8"/><path class="8dfc7980-e702-4994-9ac2-60ebecc8b7c4" d="M43.52,59.79s45.75-14.11,97.52-7"/><path class="8dfc7980-e702-4994-9ac2-60ebecc8b7c4" d="M41.85,48s45.75-14.11,97.52-7"/></g><path class="e3d05d6b-dcad-43c5-a96d-468ed726df66" d="M60.32,91.69s-1.38,8.6,1.31,9.43,12.16-3.92,16.68-4.55,1.59-7.94.55-9S60.32,91.69,60.32,91.69Z"/><path class="2e49ac7a-c96f-4eee-835b-c18caedd36ca" d="M66.6,96.17A1.48,1.48,0,0,1,65.46,98l-2,.58-1.38-4.76,1.86-.54a1.45,1.45,0,0,1,1.9.93,1.24,1.24,0,0,1-.15,1.05A1.28,1.28,0,0,1,66.6,96.17Zm-3.13-1.64.24.84.78-.22a.44.44,0,0,0-.24-.84Zm2,1.87a.45.45,0,0,0-.58-.33l-.91.26.26.91.91-.26A.45.45,0,0,0,65.48,96.4Z"/><path class="2e49ac7a-c96f-4eee-835b-c18caedd36ca" d="M67.33,94.77a2.58,2.58,0,1,1,3.19,1.76A2.56,2.56,0,0,1,67.33,94.77Zm3.87-1.12a1.45,1.45,0,1,0-1,1.82A1.41,1.41,0,0,0,71.2,93.66Z"/><path class="2e49ac7a-c96f-4eee-835b-c18caedd36ca" d="M73.37,93.12a2.58,2.58,0,1,1,3.08,2A2.56,2.56,0,0,1,73.37,93.12Zm3.93-.88A1.45,1.45,0,1,0,76.21,94,1.41,1.41,0,0,0,77.3,92.24Z"/><path class="8f321203-977c-4f0d-86c0-118bf40906d8" d="M105.53,29.84a10,10,0,0,0,.65-3l1.34,1.25-.28-5.87,2,.89s-.22-13.06-8.62-14.56c0,0-.73-1.39.33-1.43a5.13,5.13,0,0,0-3.38-1.34s0-1.7,1.13-1.86c0,0-4.33-.78-5.55.13l.35-1.54L90.61,3,90.43,1.6s-3.94.76-5.11,2.31A5.32,5.32,0,0,1,85,1.61s-1.55,1.6-1.47,3.08c0,0-2.15-.77-2.29-2.56A4.47,4.47,0,0,0,79.6,5.66s-1.91.05-2.5-1.14a5.9,5.9,0,0,0-.88,4.38A7.29,7.29,0,0,1,72.48,8a9.26,9.26,0,0,0,.42,3S70.51,13,70.63,14.68c0,0-.79,4.26-.21,5.35l.72-1s-.56,6.36.2,8.17l1.08-.47s-.42,4.64.5,5.89l.5-1s2.58-.57,3.1,1.59S80.22,40,85.23,40s5.83.57,5.83.57l-1.3-2.48s6.07-.21,8.21.35L97,36.24l2.74-.17.11-1.51,3-.32.13-2.15,2.51-.35Z"/><path class="d81e189b-4449-4103-b0ca-5f84bc1fbf49" d="M87.87,7.6s-1.43,2.86-.58,5.19l-2.09.29L85.89,18l-3-.32a78.21,78.21,0,0,0,3.49,7.39l-2.59-.92s2.88,7.69,10.45,8.55a13,13,0,0,1-10.54-3.11,5.12,5.12,0,0,0,1.18,3.88s-5.21-3-6.43-7.94c0,0-1.66.34-1.56,1.81,0,0-1.71-4.66-1-7.31,0,0-1.49,0-1.81.78,0,0-.49-4.3,1-5.78l-2.58-.17s2-4.54,3.91-4.8,2.31.53,2.31.53l.55-3,2,1.1,1.34-2.21.33,2.4,2.36-2.14Z"/><path class="f118460d-586a-4acd-add2-a9c578650ebf" d="M78.56,215.37a1.53,1.53,0,0,0,.3.16Z"/><path class="f118460d-586a-4acd-add2-a9c578650ebf" d="M166.68,174.11c1.75,1.28,5.27,1.21,5.27,1.21-7.93-6.5-6.33-16.32-6.33-16.32a82,82,0,0,1,5.92,9.34c-1.63-7.1-7.44-18.06-7.44-18.06a37.16,37.16,0,0,1,5.58,5.95,32.18,32.18,0,0,0-6-10.92,18.77,18.77,0,0,1,4.88-1.48C163,142.53,157.8,133.2,157.8,133.2c2.22,1.49,9.81,2.14,9.81,2.14-7-2.32-17.28-13.22-17.28-13.22A63.2,63.2,0,0,0,162.11,125c-5.54-1.54-19.06-12.32-19.06-12.32,4.17-.54,12.88,3,12.88,3-7.5-6.66-19.33-10.71-21.1-11.29,12.16-.87,13.45-6,13.45-6-11,2.55-15.48-.06-22.58-.73,1.84-2.17,3-5.37,3.77-8.22,1-3.54-.45-9.29-4.34-12.36-3.11-2.45-11.59-3.74-14.86,2.07-1.69,3,.26,7.23,3.67,7.49,1.82.14,3.81-1.56,2.94-3.47a3.29,3.29,0,0,0-1-1.23,2,2,0,0,1,.32,1.05,1,1,0,0,1-.05.38,1,1,0,0,1-.26.37,1.64,1.64,0,0,1-1.54.37A1.47,1.47,0,0,1,113.23,83a3.24,3.24,0,0,1,.2-1.43,2.26,2.26,0,0,1,2.23-1.18c1.56,0,2.61,1.72,2.55,3.25-.22,5.14-5.58,7-8,8.33l-.68.36a27.12,27.12,0,0,0,.49-4.54c-2.42,7.65-9.89,8.57-9.28,7.83A18,18,0,0,0,104,87.71c-3.6,8.81-11.59,8.68-11.59,8.68,5-6.45,4-9.68,4-9.68-7.49,11.14-15.68,13.83-15.68,13.83-5,1.65-11.46,4.48-11.46,4.48-12.2,9.85-24.75.3-24.75.3,4.1,10,11.64,11,11.64,11s-5,2-9.65,11.17c-3.75,7.33-6.16,12.91-6.16,12.91,1.31-.22,3.55-2.27,3.55-2.27-1.25,8.76-7,11.46-7,11.46,1,1.28,7.48-1.68,8.61-2.21-1,.48-5.62,3.32-6.34,13.4-.75,10.55-.35,8.15-.35,8.15a18.08,18.08,0,0,1,1.65-5.12l.65,8.42c.65,8.42-.94,12.9-.94,12.9,2-2.34,3.19-7.68,3.19-7.68-1.16,18.86,5.4,23.4,5.4,23.4-1.27-3.6-.78-5.39-.78-5.39,1.57,5.64,7.52,9.88,7.52,9.88-2.39-1.77-4.08-6.57-4.08-6.57a58.39,58.39,0,0,0,18.74,14.32c-1.63-1.45-4.24-7-4.24-7,2.34,3.52,11,8.34,12.63,9.24a20.75,20.75,0,0,1-3.18-3.5c5.44,4,19.6,7.42,19.6,7.42-1.39-1.1-3.27-3-3.27-3,2,1.87,15.12,2.87,13.68,2.73s-6.22-2.44-6.22-2.44c3.53,1.26,12.06,1.16,12.06,1.16s16.91-1.8,26.59-6.7,14.31-15.39,14.31-15.39c-.73,7.55-5.91,14.63-5.91,14.63,7.44-6.18,14.39-21.14,14.39-21.14a59.24,59.24,0,0,1-1.09,9.45c3.81-5.38,3.7-14.72,3.7-14.72,2.37,1.41,2.87,2.41,2.87,2.41-.13-2-2.08-5.74-2.86-7.19,1.44,1.83,7.11,4.17,7.11,4.17C166.6,180.75,164.93,172.83,166.68,174.11Z"/><circle class="bd68bc66-25f8-4b70-82ba-35f20516a977" cx="102.22" cy="136.48" r="18.49" transform="translate(-13.37 11.13) rotate(-5.85)"/><path class="bf8538f9-84b5-477a-8605-4c0ee3785e91" d="M104.17,148.22c15.69-.82,16.56-15.64,16.9-17.52l-5.58-9.05-8.89-4.21L93.41,118.8s-1.39,1-4.12,2.87C85.73,129.64,86.15,149.17,104.17,148.22Z"/><path class="c5c5ec29-ca36-4add-857a-443987769804" d="M101.68,131.2a5.54,5.54,0,0,0-.56.11A3.72,3.72,0,0,1,96.63,137c0,.14,0,.28,0,.42a5.66,5.66,0,1,0,5.05-6.2Z"/><path class="d308ba6f-3de9-49d8-bf8e-897e069b22b9" d="M102.24,118a18.49,18.49,0,0,1,1.86,36.89,18.72,18.72,0,0,1-1.91.1,18.49,18.49,0,0,1-1.86-36.89,18.73,18.73,0,0,1,1.91-.1m0-6h0a24.83,24.83,0,0,0-2.52.13A24.49,24.49,0,0,0,102.2,161a24.82,24.82,0,0,0,2.52-.13A24.49,24.49,0,0,0,102.24,112Z"/><path class="f118460d-586a-4acd-add2-a9c578650ebf" d="M116.67,125a18.46,18.46,0,0,0-30.93,3.17Z"/><path class="7931acac-5a43-4d3c-bafd-eb1f916c2052" d="M133.47,171.14a2.23,2.23,0,0,0-1.25-.35c-4-.27-15.39,3.14-25.52,4.17-9.14.94-19.1.23-23.68.87a4,4,0,0,0-2.41.84c-2,2.47.86,15.76,12.13,21.81A27.75,27.75,0,0,0,109,201.29c7.33-.75,12.82-3,16.84-6C136.67,187.17,136.83,173.87,133.47,171.14Z"/><path class="96b032fa-2a8b-467d-8f86-ba63a5f1be0d" d="M109.87,192.37a29.09,29.09,0,0,1,16,2.89c-4,3-9.51,5.28-16.84,6a27.75,27.75,0,0,1-16.28-2.82A43.6,43.6,0,0,1,109.87,192.37Z"/><path class="e3d05d6b-dcad-43c5-a96d-468ed726df66" d="M132.22,170.78s-.8,8.17-3.07,11c-1.35,1.65-9.4,3.29-20.22,4.39s-18.45.6-21.43-.06S83,175.82,83,175.82c4.59-.64,14.55.07,23.68-.87C116.83,173.92,128.19,170.51,132.22,170.78Z"/><g class="df61e149-7554-4214-8bfc-a4384f82afde"><path class="e3d05d6b-dcad-43c5-a96d-468ed726df66" d="M109.35,195.88a12.9,12.9,0,0,0-3.84.6,7,7,0,0,0-3.42,2.09,1,1,0,0,0,.62,1.65c1.07.24,2.58-.69,3.62-.93,1.22-.28,2.55,0,3.72-.5C111.76,198.13,111,195.92,109.35,195.88Z"/></g><path class="a2c2a28f-5cfe-4ed4-84d4-be56a1eca690" d="M109.09,202a28.55,28.55,0,0,1-16.7-2.9A25.7,25.7,0,0,1,79.6,182c-.53-2.67-.37-4.78.45-5.78a4.39,4.39,0,0,1,2.87-1.11,79.9,79.9,0,0,1,9.07-.32c4.54,0,9.68,0,14.64-.55s10.18-1.58,14.79-2.53c4.87-1,8.71-1.79,10.85-1.65a2.83,2.83,0,0,1,1.66.51c1.44,1.17,2.26,3.81,2.19,7.06a23.7,23.7,0,0,1-9.83,18.21C121.75,199.23,116,201.31,109.09,202ZM83.76,176.47l-.64.08h0c-1.56.21-1.89.52-1.94.58-.43.52-.64,2.14-.15,4.58a24.56,24.56,0,0,0,12.06,16.13,27.13,27.13,0,0,0,15.86,2.73c6.6-.68,12.15-2.66,16.48-5.89a22.58,22.58,0,0,0,9.25-17.08c.06-2.72-.59-5-1.66-5.9a1.58,1.58,0,0,0-.84-.19c-1.95-.13-5.89.68-10.46,1.62s-9.9,2-14.93,2.55-10.21.54-14.78.55C88.69,176.25,85.79,176.26,83.76,176.47Z"/><path class="f118460d-586a-4acd-add2-a9c578650ebf" d="M49.67,153.71s-7.18,12.32-17,9.15c-7.1-2.29-9.05-7.53-10.83-9.69s-4.46-3.67-5.48,1,8.31,17.22,20.38,17.24c14.78,0,16.39-6.14,16.39-6.14Z"/><path class="f118460d-586a-4acd-add2-a9c578650ebf" d="M21.14,157.1c1.28.06,1.81-1.28,2.51-2.29s2.59-2.51,3.29-3.49c1.67-2.33.34-4-.89-4.37-1.54-.46-4.34.69-5.28,3.94L20,153.48C19.39,155.48,20,157.05,21.14,157.1Z"/><path class="f118460d-586a-4acd-add2-a9c578650ebf" d="M19.25,153.78h0c1.54-.35,1.66-2.27,1.54-3.29l-.24-4c-.33-2.37-2-3.15-3.58-2.8h0a2.9,2.9,0,0,0-2,4.07l1.5,3.73C16.8,153,18.15,154,19.25,153.78Z"/><path class="f118460d-586a-4acd-add2-a9c578650ebf" d="M17.77,155.23h0c.85-1.33-.42-2.79-1.22-3.43l-3-2.69c-1.9-1.46-3.66-.81-4.52.52H9A2.9,2.9,0,0,0,10.46,154l3.69,1.59C15.48,156.41,17.16,156.19,17.77,155.23Z"/><path class="f118460d-586a-4acd-add2-a9c578650ebf" d="M19.46,158l-.24-.48c-.11-1.28-2.84-1.58-3.68-1.59l-3.26-.25a2.36,2.36,0,0,0-2.65,2.58h0a2.36,2.36,0,0,0,3.06,2.08l3.17-.81C18.64,158.78,19.69,160.24,19.46,158Z"/><path class="05eb1d66-c298-406f-bdff-3bcd020cb0cd" d="M33.47,150.55A8.51,8.51,0,0,0,34,148l1.14,1.06-.24-5,1.73.75s-.19-11.09-7.32-12.36c0,0-.62-1.18.28-1.21a4.36,4.36,0,0,0-2.87-1.14s0-1.44,1-1.58c0,0-3.68-.66-4.72.11l.3-1.31-2.48.35-.16-1.15s-3.35.65-4.34,2a4.52,4.52,0,0,1-.27-2,4.38,4.38,0,0,0-1.25,2.61S13,128.54,12.84,127a3.79,3.79,0,0,0-1.39,3s-1.62,0-2.12-1a5,5,0,0,0-.75,3.72A6.19,6.19,0,0,1,5.4,132a7.87,7.87,0,0,0,.36,2.57s-2,1.64-1.92,3.07c0,0-.67,3.62-.18,4.55l.61-.81s-.47,5.4.17,6.94l.92-.4s-.36,3.94.42,5l.42-.87s2.19-.49,2.63,1.35,3.14,5.71,7.4,5.75,4.95.49,4.95.49l-1.11-2.11s5.16-.17,7,.3L26.27,156l2.33-.14.09-1.28,2.58-.27.11-1.82,2.13-.3Z"/><path class="d81e189b-4449-4103-b0ca-5f84bc1fbf49" d="M24.33,135.25s0,2.72-1.53,4.16l1.48,1L21.9,143.9l2.42.9a66.43,66.43,0,0,1-5.46,4.29l2.32.29s-5.11,4.75-11.19,2.53a11,11,0,0,0,9.19,1.64,4.35,4.35,0,0,1-2.37,2.5s5.1-.3,7.9-3.6a1.59,1.59,0,0,1,.5,2s3.07-2.89,3.55-5.17c0,0,1.14.56,1.08,1.28,0,0,2-3.08,1.43-4.77l2,.85s.18-4.22-1.15-5.13-2-.47-2-.47l.7-2.45-2,.07-.18-2.19-1.17,1.7-1-2.52Z"/></g></svg>