<!-- Generator: Adobe Illustrator 19.2.1, SVG Export Plug-In  -->
<svg version="1.1"
	 xmlns="http://www.w3.org/2000/svg" xmlns:xlink="http://www.w3.org/1999/xlink" xmlns:a="http://ns.adobe.com/AdobeSVGViewerExtensions/3.0/"
	 x="0px" y="0px" width="65.3px" height="21.1px" viewBox="0 0 65.3 21.1" style="enable-background:new 0 0 65.3 21.1;"
	 xml:space="preserve">
<path fill="#005BAC" d="M26.4,0.4l-3.3,20.4h5.3l3.3-20.4L26.4,0.4L26.4,0.4z M18.6,0.4l-5.1,14l-0.6-3l0,0l-0.1-0.7
				c-1.1-2.3-2.7-4.4-4.7-6C7.3,4.1,6.5,3.6,5.7,3.1l4.6,17.7h5.5l8.5-20.4C24.3,0.4,18.6,0.4,18.6,0.4z M39.3,6
				c0-2.3,5.2-2,7.5-0.8l0.8-4.4C46,0.3,44.4,0,42.8,0c-2.6,0-8.9,1.2-8.9,6.8c0,5.3,7.4,5.3,7.4,8.1s-6.6,2.3-8.8,0.5L31.7,20
				c1.9,0.8,3.9,1.2,6,1.2c3.6,0,9.1-1.9,9.1-7C46.8,8.8,39.3,8.3,39.3,6z M61,0.4h-4.3c-1.1-0.1-2.1,0.5-2.5,1.5l-7.9,18.9h5.6
				l1.1-3h6.7l0.6,3h4.9L61,0.4z M54.5,13.6l2.8-7.6l1.6,7.6L54.5,13.6L54.5,13.6z"/>
<path fill="#F6AC1D" d="M11.2,2.3c0,0-0.2-1.8-2.6-1.8H0.1L0,0.8c2.9,0.7,5.7,2.1,8,4c2.2,1.8,4,4.1,5,6.7L11.2,2.3z"/>
</svg>
