<!-- Generator: Adobe Illustrator 19.2.1, SVG Export Plug-In  -->
<svg version="1.1"
	 xmlns="http://www.w3.org/2000/svg" xmlns:xlink="http://www.w3.org/1999/xlink" xmlns:a="http://ns.adobe.com/AdobeSVGViewerExtensions/3.0/"
	 x="0px" y="0px" width="344.1px" height="513.7px" viewBox="0 0 344.1 513.7" style="enable-background:new 0 0 344.1 513.7;"
	 xml:space="preserve">
<style type="text/css">
	.st0{fill:#4F1B7D;}
	.st1{fill:#FFFFFF;}
</style>
<defs>
</defs>
<rect class="st0" width="344.1" height="513.7"/>
<g>
	<g>
		<path class="st1" d="M55.3,233.2V201h13.4c3.1,0,5.6,1,7.6,3.1c1.9,2.1,2.9,4.7,2.9,8c0,3.3-1,5.9-2.9,8c-1.9,2.1-4.5,3.1-7.6,3.1
			h-5.5v9.9H55.3z M63.1,216.5H67c1.3,0,2.3-0.4,3-1.2c0.7-0.8,1.1-1.9,1.1-3.2c0-1.3-0.3-2.4-1-3.1s-1.7-1.2-2.9-1.2h-4V216.5z"/>
		<path class="st1" d="M87.9,233.2V201h20.2v6.8H95.8v5.8h9.8v6.8h-9.8v6.1h12.9v6.8H87.9z"/>
		<path class="st1" d="M118.3,233.2V201h7.9v12.4h3.2l6.7-12.4h8.5l-8.7,15.4v0.1l9.2,16.7h-8.8l-6.8-13h-3.2v13H118.3z"/>
		<path class="st1" d="M150.5,226.4c1.4-0.2,2.5-0.7,3.4-1.5c0.9-0.8,1.6-2.3,2.2-4.5c0.6-2.2,0.9-5.1,0.9-8.8V201h21.6v32.2h-7.9
			v-25.4h-6.3v3.9c0,7.7-1.2,13.3-3.5,16.7c-2.3,3.4-5.8,5.2-10.4,5.2V226.4z"/>
		<path class="st1" d="M186.3,233.2l10.9-32.2h8.3l10.9,32.2h-8.1l-2-6.8h-10l-1.9,6.8H186.3z M198.2,220.1h6.3l-1.8-6.3l-1.3-5.5
			h-0.1c-0.5,2.3-0.9,4.2-1.3,5.5L198.2,220.1z"/>
		<path class="st1" d="M222.9,233.2l2.7-32.2h8.5l4.7,13.6l1.6,5.3h0.1c0.6-2.2,1.1-3.9,1.6-5.3l4.7-13.6h8.5l2.6,32.2h-7.9l-1-14.5
			c-0.1-0.7-0.1-1.5-0.1-2.4s0-1.6,0-2.2l0-0.8H249c-0.7,2.3-1.3,4-1.8,5.4l-3.4,9.3h-6.8l-3.4-9.3l-1.8-5.4h-0.1
			c0.1,2,0.1,3.8,0,5.4l-1,14.5H222.9z"/>
		<path class="st1" d="M264.5,233.2l10.9-32.2h8.3l10.9,32.2h-8.1l-2-6.8h-10l-1.9,6.8H264.5z M276.4,220.1h6.3l-1.8-6.3l-1.3-5.5
			h-0.1c-0.5,2.3-0.9,4.2-1.3,5.5L276.4,220.1z"/>
		<path class="st1" d="M74.9,287.2V255h20.9v6.8H82.8v5h5.5c3.1,0,5.6,1,7.6,2.9c1.9,1.9,2.9,4.4,2.9,7.4s-1,5.4-2.9,7.3
			c-1.9,1.9-4.5,2.8-7.6,2.8H74.9z M82.8,280.4h4c1.3,0,2.2-0.3,2.9-0.9c0.7-0.6,1-1.4,1-2.5c0-1-0.4-1.9-1.1-2.5
			c-0.7-0.6-1.7-1-3-1h-3.9V280.4z"/>
		<path class="st1" d="M104.4,287.2l10.9-32.2h8.3l10.9,32.2h-8.1l-2-6.8h-10l-1.9,6.8H104.4z M116.3,274.1h6.3l-1.8-6.3l-1.3-5.5
			h-0.1c-0.5,2.3-0.9,4.2-1.3,5.5L116.3,274.1z"/>
		<path class="st1" d="M142.3,287.2V255h7.9v12.9h11.7V255h7.9v32.2h-7.9v-12.6h-11.7v12.6H142.3z"/>
		<path class="st1" d="M181,287.2V255h7.9v12.9h11.7V255h7.9v32.2h-7.9v-12.6h-11.7v12.6H181z"/>
		<path class="st1" d="M219.7,287.2V255h20.2v6.8h-12.3v5.8h9.8v6.8h-9.8v6.1h12.9v6.8H219.7z"/>
		<path class="st1" d="M250.1,287.2V255h13.4c3.1,0,5.6,1,7.6,3.1c1.9,2.1,2.9,4.7,2.9,8c0,3.3-1,5.9-2.9,8
			c-1.9,2.1-4.5,3.1-7.6,3.1H258v9.9H250.1z M258,270.5h3.9c1.3,0,2.3-0.4,3-1.2c0.7-0.8,1.1-1.9,1.1-3.2c0-1.3-0.3-2.4-1-3.1
			s-1.7-1.2-2.9-1.2h-4V270.5z"/>
	</g>
</g>
</svg>
