<svg id="bae7f67c-2a96-4bb5-9f6e-439bc2705f0b" data-name="Ğ¡Ğ»Ğ¾Ğ¹ 1" xmlns="http://www.w3.org/2000/svg" viewBox="0 0 1371.19 664.59">
  <title>404-bg</title>
  <g>
    <g opacity="0.7">
      <path d="M49.47,486.44c.33-.31.66-2.89.68-3.53l1.63,1.44-.51-6.94,2.44,1s-.66-15.46-10.65-17c0,0-.9-1.62.35-1.7a6.08,6.08,0,0,0-4-1.48s-.08-2,1.28-2.24c0,0-5.15-.79-6.57.33l.37-1.83-3.45.57-.26-1.6s-4.64,1-6,2.89a6.3,6.3,0,0,1-.45-2.71s-1.79,1.94-1.65,3.69c0,0-2.56-.84-2.79-3A5.29,5.29,0,0,0,18,458.61s-2.26.12-3-1.28a7,7,0,0,0-.91,5.21,8.64,8.64,0,0,1-4.45-.91,11,11,0,0,0,.59,3.57s-2.77,2.36-2.57,4.35c0,0-.81,5.07-.09,6.34l.82-1.15s-.46,7.54.49,9.66l1.26-.59s-.36,5.5.77,7l.56-1.23s3-.76,3.71,1.79,4.59,7.85,10.52,7.75,6.92.5,6.92.5L31,496.7s7.18-.43,9.73.16l-1.15-2.59,3.24-.28L43,492.2l3.59-.47.09-2.54,3-.49Z" fill="#89e5e5"/>
      <path d="M36.19,465.44s.1,3.79-2,5.86l2.09,1.36-3.19,4.92,3.41,1.17s-5.85,5.28-7.45,6.18l3.24.32s-6.95,6.8-15.5,3.93c0,0,5.87,4.26,12.87,2a6.06,6.06,0,0,1-3.21,3.57s7.09-.61,10.88-5.3c0,0,1.61,1.19.76,2.73,0,0,4.17-4.14,4.76-7.33,0,0,1.6.74,1.55,1.75,0,0,2.68-4.36,1.82-6.71L49.08,481s.1-5.89-1.79-7.11-2.74-.59-2.74-.59l.89-3.44-2.72.17-.33-3-1.56,2.41-1.46-3.48Z" fill="#fdf9f6" opacity="0.5"/>
      <path d="M39.51,437.35s-4.29-10.53,2.55-15.64c0,0,8.33-1.07,2.89,7.29Z" fill="#89e5e5"/>
      <path d="M31.39,502.75s7.11,8.87,2,15.72c0,0-7.68,3.4-4.85-6.16Z" fill="#89e5e5"/>
      <path d="M8.17,495.93S.89,496.61,0,502c0,0,1.86,5.08,5-.51Z" fill="#89e5e5"/>
      <path d="M27.58,446.55s1.48-11.27-6.43-14.49c0,0-8.33,1.07-1,7.78Z" fill="#89e5e5"/>
      <circle cx="45.15" cy="448.47" r="4.24" transform="translate(-56.88 9.43) rotate(-7.33)" fill="#89e5e5"/>
      <circle cx="17.15" cy="505.56" r="2.81" fill="#89e5e5"/>
      <circle cx="55.78" cy="494.74" r="3.54" fill="#89e5e5"/>
    </g>
    <g opacity="0.7">
      <path d="M508.33,635.16a10.7,10.7,0,0,0,.62-3.18l1.47,1.3L510,627l2.2.89s-.59-13.95-9.61-15.31c0,0-.81-1.46.32-1.54a5.48,5.48,0,0,0-3.65-1.34s-.07-1.82,1.15-2c0,0-4.65-.72-5.93.29l.34-1.65-3.11.51-.24-1.44s-4.19.92-5.39,2.6a5.68,5.68,0,0,1-.4-2.45s-1.62,1.75-1.49,3.33c0,0-2.31-.76-2.51-2.67A4.77,4.77,0,0,0,480,610s-2,.11-2.7-1.15a6.3,6.3,0,0,0-.82,4.7,7.79,7.79,0,0,1-4-.82A9.89,9.89,0,0,0,473,616s-2.5,2.13-2.32,3.92c0,0-.73,4.57-.08,5.72l.74-1s-.42,6.81.44,8.72l1.14-.53s-.32,5,.7,6.28l.5-1.11s2.74-.68,3.35,1.62,4.14,7.08,9.49,7,6.24.45,6.24.45l-1.46-2.61s6.48-.39,8.78.15l-1-2.34,2.93-.26.08-1.61,3.24-.42.08-2.3,2.67-.44Z" fill="#89e5e5"/>
      <path d="M496.34,616.21s.09,3.42-1.79,5.28l1.89,1.23-2.88,4.44,3.08,1.06a83.57,83.57,0,0,1-6.73,5.57l2.92.29s-6.27,6.14-14,3.55c0,0,5.3,3.84,11.61,1.76a5.47,5.47,0,0,1-2.9,3.22s6.4-.55,9.81-4.78a2,2,0,0,1,.69,2.46s3.77-3.73,4.29-6.62c0,0,1.45.67,1.39,1.58,0,0,2.42-3.94,1.64-6.05l2.57,1s.09-5.31-1.61-6.42-2.48-.53-2.48-.53l.81-3.1-2.45.16-.3-2.75-1.41,2.17-1.32-3.14Z" fill="#fdf9f6" opacity="0.5"/>
      <path d="M499.34,590.86s-3.87-9.5,2.3-14.11c0,0,7.52-1,2.61,6.57Z" fill="#89e5e5"/>
      <path d="M492,649.87s6.41,8,1.81,14.19c0,0-6.93,3.07-4.37-5.56Z" fill="#89e5e5"/>
      <path d="M471.06,643.72s-6.57.61-7.38,5.51c0,0,1.68,4.58,4.53-.46Z" fill="#89e5e5"/>
      <path d="M488.58,599.16s1.34-10.17-5.8-13.07c0,0-7.52,1-.86,7Z" fill="#89e5e5"/>
      <circle cx="504.43" cy="600.89" r="3.83" transform="translate(-72.58 69.31) rotate(-7.33)" fill="#89e5e5"/>
      <circle cx="479.16" cy="652.41" r="2.53" fill="#89e5e5"/>
      <circle cx="514.02" cy="642.64" r="3.2" fill="#89e5e5"/>
    </g>
    <g opacity="0.7">
      <path d="M81.93,183.9a7.63,7.63,0,0,0,.44-2.27l1,.93-.33-4.46,1.57.64s-.42-9.95-6.85-10.92c0,0-.58-1,.23-1.1a3.91,3.91,0,0,0-2.6-1s-.05-1.29.82-1.44c0,0-3.32-.51-4.23.21l.24-1.18-2.22.37-.17-1s-3,.66-3.85,1.86a4.05,4.05,0,0,1-.29-1.74,3.93,3.93,0,0,0-1.06,2.37s-1.65-.54-1.79-1.9A3.4,3.4,0,0,0,61.7,166s-1.45.08-1.93-.82a4.5,4.5,0,0,0-.59,3.35,5.56,5.56,0,0,1-2.87-.58,7.06,7.06,0,0,0,.38,2.3S54.92,171.75,55,173c0,0-.52,3.26-.06,4.08l.53-.74s-.3,4.85.31,6.22l.81-.38s-.23,3.54.5,4.48l.36-.79s2-.49,2.39,1.15,3,5,6.77,5,4.45.32,4.45.32l-1-1.86a35.64,35.64,0,0,1,6.26.11l-.74-1.67,2.09-.18.05-1.15,2.31-.3.05-1.64,1.9-.31Z" fill="#89e5e5"/>
      <path d="M73.38,170.39a5.81,5.81,0,0,1-1.28,3.77l1.35.87-2.06,3.17,2.19.75a59.6,59.6,0,0,1-4.8,4l2.09.2s-4.47,4.38-10,2.53a9.89,9.89,0,0,0,8.28,1.26,3.9,3.9,0,0,1-2.07,2.3s4.56-.39,7-3.41a1.43,1.43,0,0,1,.49,1.75s2.69-2.66,3.06-4.72c0,0,1,.48,1,1.12,0,0,1.73-2.81,1.17-4.32l1.84.71s.06-3.79-1.15-4.58-1.77-.38-1.77-.38l.57-2.21-1.75.11-.21-2-1,1.55-.94-2.24Z" fill="#fdf9f6" opacity="0.5"/>
      <path d="M75.52,152.31s-2.76-6.77,1.64-10.07c0,0,5.36-.69,1.86,4.69Z" fill="#89e5e5"/>
      <path d="M70.29,194.39s4.57,5.71,1.29,10.12c0,0-4.94,2.19-3.12-4Z" fill="#89e5e5"/>
      <path d="M55.35,190s-4.69.44-5.26,3.93c0,0,1.2,3.27,3.23-.33Z" fill="#89e5e5"/>
      <path d="M67.84,158.22s1-7.25-4.14-9.32c0,0-5.36.69-.61,5Z" fill="#89e5e5"/>
      <circle cx="79.15" cy="159.46" r="2.73" transform="translate(-19.71 11.41) rotate(-7.33)" fill="#89e5e5"/>
      <circle cx="61.13" cy="196.2" r="1.81" fill="#89e5e5"/>
      <circle cx="85.99" cy="189.24" r="2.28" fill="#89e5e5"/>
    </g>
    <g opacity="0.7">
      <path d="M1362.31,560.86a10.7,10.7,0,0,0,.62-3.18l1.47,1.3-.46-6.26,2.2.89s-.59-13.95-9.61-15.31c0,0-.81-1.46.32-1.54a5.48,5.48,0,0,0-3.65-1.34s-.07-1.82,1.15-2c0,0-4.65-.72-5.93.29l.34-1.65-3.11.51-.24-1.44s-4.19.92-5.39,2.6a5.68,5.68,0,0,1-.4-2.45s-1.62,1.75-1.49,3.33c0,0-2.31-.76-2.51-2.67a4.77,4.77,0,0,0-1.65,3.81s-2,.11-2.7-1.15a6.3,6.3,0,0,0-.82,4.7,7.79,7.79,0,0,1-4-.82,9.89,9.89,0,0,0,.53,3.22s-2.5,2.13-2.32,3.92c0,0-.73,4.57-.08,5.72l.74-1s-.42,6.81.44,8.72l1.14-.53s-.32,5,.7,6.28l.5-1.11s2.74-.68,3.35,1.62,4.14,7.08,9.49,7,6.24.45,6.24.45l-1.46-2.61s6.48-.39,8.78.15l-1-2.34,2.93-.26.08-1.61,3.24-.42.08-2.3,2.67-.44Z" fill="#89e5e5"/>
      <path d="M1350.32,541.91s.09,3.42-1.79,5.28l1.89,1.23-2.88,4.44,3.08,1.06a83.57,83.57,0,0,1-6.73,5.57l2.92.29s-6.27,6.14-14,3.55c0,0,5.3,3.84,11.61,1.76a5.47,5.47,0,0,1-2.9,3.22s6.4-.55,9.81-4.78A2,2,0,0,1,1352,566s3.77-3.73,4.29-6.62c0,0,1.45.67,1.39,1.58,0,0,2.42-3.94,1.64-6.05l2.57,1s.09-5.31-1.61-6.42-2.48-.53-2.48-.53l.81-3.1-2.45.16-.3-2.75-1.41,2.17-1.32-3.14Z" fill="#fdf9f6" opacity="0.5"/>
      <path d="M1353.32,516.57s-3.87-9.5,2.3-14.11c0,0,7.52-1,2.61,6.57Z" fill="#89e5e5"/>
      <path d="M1346,575.58s6.41,8,1.81,14.19c0,0-6.93,3.07-4.37-5.56Z" fill="#89e5e5"/>
      <path d="M1325,569.42s-6.57.61-7.38,5.51c0,0,1.68,4.58,4.53-.46Z" fill="#89e5e5"/>
      <path d="M1342.55,524.86s1.34-10.17-5.8-13.07c0,0-7.52,1-.86,7Z" fill="#89e5e5"/>
      <circle cx="1358.41" cy="526.6" r="3.83" transform="translate(-56.11 177.72) rotate(-7.33)" fill="#89e5e5"/>
      <circle cx="1333.14" cy="578.11" r="2.53" fill="#89e5e5"/>
      <circle cx="1368" cy="568.35" r="3.2" fill="#89e5e5"/>
    </g>
    <g opacity="0.7">
      <path d="M1223.49,257a10.7,10.7,0,0,0,.62-3.18l1.47,1.3-.46-6.26,2.2.89s-.59-13.95-9.61-15.31c0,0-.81-1.46.32-1.54a5.48,5.48,0,0,0-3.65-1.34s-.07-1.82,1.15-2c0,0-4.65-.72-5.93.29l.34-1.65-3.11.51-.24-1.44s-4.19.92-5.39,2.6a5.68,5.68,0,0,1-.4-2.45s-1.62,1.75-1.49,3.33c0,0-2.31-.76-2.51-2.67a4.77,4.77,0,0,0-1.65,3.81s-2,.11-2.7-1.15a6.3,6.3,0,0,0-.82,4.7,7.79,7.79,0,0,1-4-.82,9.89,9.89,0,0,0,.53,3.22s-2.5,2.13-2.32,3.92c0,0-.73,4.57-.08,5.72l.74-1s-.42,6.81.44,8.72l1.14-.53s-.32,5,.7,6.28l.5-1.11s2.74-.68,3.35,1.62,4.14,7.08,9.49,7,6.24.45,6.24.45l-1.46-2.61s6.48-.39,8.78.15l-1-2.34,2.93-.26.08-1.61,3.24-.42.08-2.3,2.67-.44Z" fill="#89e5e5"/>
      <path d="M1211.5,238.05s.09,3.42-1.79,5.28l1.89,1.23-2.88,4.44,3.08,1.06a83.57,83.57,0,0,1-6.73,5.57l2.92.29s-6.27,6.14-14,3.55c0,0,5.3,3.84,11.61,1.76a5.47,5.47,0,0,1-2.9,3.22s6.4-.55,9.81-4.78a2,2,0,0,1,.69,2.46s3.77-3.73,4.29-6.62c0,0,1.45.67,1.39,1.58,0,0,2.42-3.94,1.64-6.05l2.57,1s.09-5.31-1.61-6.42-2.48-.53-2.48-.53l.81-3.1-2.45.16-.3-2.75-1.41,2.17-1.32-3.14Z" fill="#fdf9f6" opacity="0.5"/>
      <path d="M1214.5,212.71s-3.87-9.5,2.3-14.11c0,0,7.52-1,2.61,6.57Z" fill="#89e5e5"/>
      <path d="M1207.17,271.72s6.41,8,1.81,14.19c0,0-6.93,3.07-4.37-5.56Z" fill="#89e5e5"/>
      <path d="M1186.22,265.56s-6.57.61-7.38,5.51c0,0,1.68,4.58,4.53-.46Z" fill="#89e5e5"/>
      <path d="M1203.73,221s1.34-10.17-5.8-13.07c0,0-7.52,1-.86,7Z" fill="#89e5e5"/>
      <circle cx="1219.59" cy="222.74" r="3.83" transform="translate(-18.46 157.51) rotate(-7.33)" fill="#89e5e5"/>
      <circle cx="1194.32" cy="274.25" r="2.53" fill="#89e5e5"/>
      <circle cx="1229.18" cy="264.49" r="3.2" fill="#89e5e5"/>
    </g>
    <g opacity="0.7">
      <path d="M1048.93,480.37a7.76,7.76,0,0,0,.45-2.31l1.07.94-.34-4.54,1.6.65s-.43-10.11-7-11.1c0,0-.59-1.06.23-1.11a4,4,0,0,0-2.64-1s-.05-1.32.83-1.46c0,0-3.37-.52-4.3.21l.24-1.2-2.26.37-.17-1s-3,.67-3.91,1.89a4.12,4.12,0,0,1-.29-1.77,4,4,0,0,0-1.08,2.41s-1.68-.55-1.82-1.93a3.46,3.46,0,0,0-1.2,2.76s-1.48.08-2-.83a4.57,4.57,0,0,0-.6,3.41,5.65,5.65,0,0,1-2.91-.59,7.17,7.17,0,0,0,.39,2.34s-1.81,1.54-1.68,2.84c0,0-.53,3.31-.06,4.15l.54-.75s-.3,4.93.32,6.32l.83-.39s-.23,3.6.5,4.55l.36-.8s2-.49,2.43,1.17,3,5.13,6.88,5.07,4.52.33,4.52.33l-1.06-1.89a36.22,36.22,0,0,1,6.36.11l-.75-1.7,2.12-.19.06-1.17,2.35-.31.06-1.66,1.93-.32Z" fill="#89e5e5"/>
      <path d="M1040.24,466.64a5.9,5.9,0,0,1-1.3,3.83l1.37.89-2.09,3.22,2.23.76a60.57,60.57,0,0,1-4.87,4l2.12.21s-4.54,4.45-10.14,2.57a10,10,0,0,0,8.42,1.28,4,4,0,0,1-2.1,2.34s4.64-.4,7.11-3.46a1.45,1.45,0,0,1,.5,1.78s2.73-2.71,3.11-4.79c0,0,1,.49,1,1.14,0,0,1.75-2.85,1.19-4.39l1.87.72s.07-3.85-1.17-4.65-1.79-.39-1.79-.39l.58-2.25-1.78.11-.22-2-1,1.58-1-2.28Z" fill="#fdf9f6" opacity="0.5"/>
      <path d="M1042.42,448.27s-2.8-6.88,1.67-10.23c0,0,5.45-.7,1.89,4.76Z" fill="#89e5e5"/>
      <path d="M1037.1,491s4.65,5.8,1.32,10.28c0,0-5,2.22-3.17-4Z" fill="#89e5e5"/>
      <path d="M1021.92,486.57s-4.76.45-5.35,4c0,0,1.22,3.32,3.28-.34Z" fill="#89e5e5"/>
      <path d="M1034.61,454.28s1-7.37-4.2-9.48c0,0-5.45.7-.62,5.09Z" fill="#89e5e5"/>
      <circle cx="1046.1" cy="455.53" r="2.77" transform="matrix(0.99, -0.13, 0.13, 0.99, -49.59, 137.27)" fill="#89e5e5"/>
      <circle cx="1027.79" cy="492.87" r="1.84" fill="#89e5e5"/>
      <circle cx="1053.05" cy="485.8" r="2.32" fill="#89e5e5"/>
    </g>
    <g opacity="0.7">
      <path d="M485.38,63.44A11.61,11.61,0,0,0,486,60l1.6,1.41-.5-6.79,2.39,1s-.64-15.14-10.43-16.62c0,0-.88-1.59.34-1.67a6,6,0,0,0-4-1.45s-.08-2,1.25-2.19c0,0-5-.78-6.43.32l.36-1.8-3.38.56L467,31.15s-4.54,1-5.85,2.83a6.17,6.17,0,0,1-.44-2.65s-1.75,1.9-1.61,3.61c0,0-2.51-.82-2.73-2.9a5.18,5.18,0,0,0-1.79,4.14s-2.21.12-2.93-1.25a6.84,6.84,0,0,0-.89,5.1,8.46,8.46,0,0,1-4.36-.89,10.74,10.74,0,0,0,.58,3.5s-2.72,2.31-2.52,4.26c0,0-.79,5-.09,6.21l.81-1.12s-.46,7.39.48,9.46l1.24-.58s-.35,5.39.76,6.82l.54-1.21s3-.74,3.64,1.75,4.49,7.68,10.3,7.59,6.77.49,6.77.49l-1.58-2.84s7-.42,9.53.16l-1.12-2.54,3.18-.28.08-1.75,3.52-.46.08-2.49,2.9-.48Z" fill="#89e5e5"/>
      <path d="M472.37,42.88s.1,3.71-1.94,5.74l2.05,1.33-3.13,4.82,3.34,1.15s-5.73,5.17-7.3,6l3.17.31s-6.8,6.66-15.18,3.85c0,0,5.75,4.17,12.61,1.91a5.94,5.94,0,0,1-3.14,3.5s6.95-.6,10.65-5.19c0,0,1.57,1.17.75,2.67,0,0,4.09-4.05,4.66-7.18,0,0,1.57.73,1.51,1.71,0,0,2.63-4.27,1.78-6.57L485,58.06s.1-5.77-1.75-7-2.69-.58-2.69-.58l.87-3.37-2.66.17-.33-3-1.53,2.36-1.43-3.41Z" fill="#fdf9f6" opacity="0.5"/>
      <path d="M475.63,15.36S471.43,5.05,478.12,0c0,0,8.16-1.05,2.83,7.13Z" fill="#89e5e5"/>
      <path d="M467.67,79.41s7,8.69,2,15.4c0,0-7.53,3.33-4.75-6Z" fill="#89e5e5"/>
      <path d="M444.93,72.73s-7.13.67-8,6c0,0,1.83,5,4.92-.5Z" fill="#89e5e5"/>
      <path d="M463.94,24.37s1.45-11-6.29-14.19c0,0-8.16,1.05-.93,7.62Z" fill="#89e5e5"/>
      <circle cx="481.15" cy="26.25" r="4.15" transform="translate(0.59 61.64) rotate(-7.33)" fill="#89e5e5"/>
      <circle cx="453.72" cy="82.16" r="2.75" fill="#89e5e5"/>
      <circle cx="491.55" cy="71.57" r="3.47" fill="#89e5e5"/>
    </g>
    <g opacity="0.7">
      <path d="M339.25,286.74a9.23,9.23,0,0,0,.53-2.75l1.27,1.12-.4-5.4,1.9.77s-.51-12-8.29-13.2c0,0-.7-1.26.27-1.32a4.73,4.73,0,0,0-3.14-1.15s-.06-1.56,1-1.74c0,0-4-.62-5.11.25l.29-1.43-2.68.44-.21-1.25s-3.61.79-4.65,2.25a4.9,4.9,0,0,1-.35-2.11,4.76,4.76,0,0,0-1.28,2.87s-2-.65-2.17-2.3a4.12,4.12,0,0,0-1.43,3.29s-1.76.09-2.33-1a5.44,5.44,0,0,0-.71,4.05,6.72,6.72,0,0,1-3.46-.71,8.53,8.53,0,0,0,.46,2.78s-2.16,1.83-2,3.38c0,0-.63,3.94-.07,4.93l.64-.89s-.36,5.87.38,7.52l1-.46s-.28,4.28.6,5.41l.43-1s2.36-.59,2.89,1.39,3.57,6.1,8.18,6,5.38.39,5.38.39l-1.26-2.25s5.59-.33,7.57.13l-.89-2,2.52-.22.07-1.39,2.79-.36.07-2,2.3-.38Z" fill="#89e5e5"/>
      <path d="M328.91,270.41s.08,2.95-1.54,4.56L329,276l-2.48,3.83,2.65.91a72.05,72.05,0,0,1-5.8,4.81l2.52.25s-5.4,5.29-12.06,3.06a12,12,0,0,0,10,1.52,4.72,4.72,0,0,1-2.5,2.78s5.52-.47,8.46-4.12a1.72,1.72,0,0,1,.59,2.12s3.25-3.22,3.7-5.7c0,0,1.25.58,1.2,1.36,0,0,2.09-3.39,1.42-5.22l2.22.86s.08-4.58-1.39-5.53-2.13-.46-2.13-.46l.69-2.68-2.11.13-.26-2.37-1.22,1.87-1.14-2.71Z" fill="#fdf9f6" opacity="0.5"/>
      <path d="M331.5,248.56s-3.34-8.19,2-12.17c0,0,6.48-.83,2.25,5.67Z" fill="#89e5e5"/>
      <path d="M325.18,299.43s5.53,6.9,1.56,12.23c0,0-6,2.65-3.77-4.79Z" fill="#89e5e5"/>
      <path d="M307.12,294.13s-5.67.53-6.36,4.75c0,0,1.45,3.95,3.9-.4Z" fill="#89e5e5"/>
      <path d="M322.22,255.71s1.15-8.77-5-11.27c0,0-6.48.83-.74,6.05Z" fill="#89e5e5"/>
      <circle cx="335.89" cy="257.2" r="3.3" transform="translate(-30.09 44.98) rotate(-7.33)" fill="#89e5e5"/>
      <circle cx="314.11" cy="301.62" r="2.18" fill="#89e5e5"/>
      <circle cx="344.16" cy="293.2" r="2.76" fill="#89e5e5"/>
    </g>
    <g opacity="0.7">
      <path d="M946.15,88.27a9.42,9.42,0,0,0,.54-2.8L948,86.6l-.41-5.51,1.94.79S949,69.6,941.06,68.4c0,0-.72-1.29.28-1.35a4.83,4.83,0,0,0-3.21-1.18s-.06-1.6,1-1.78c0,0-4.09-.63-5.22.26l.3-1.46-2.74.45-.21-1.27s-3.69.81-4.75,2.29a5,5,0,0,1-.36-2.15s-1.42,1.54-1.31,2.93c0,0-2-.67-2.21-2.35a4.2,4.2,0,0,0-1.46,3.36s-1.79.1-2.38-1a5.55,5.55,0,0,0-.72,4.14,6.86,6.86,0,0,1-3.54-.72A8.71,8.71,0,0,0,915,71.4s-2.2,1.87-2,3.45c0,0-.64,4-.07,5l.65-.91s-.37,6,.39,7.68l1-.47s-.28,4.37.61,5.53l.44-1s2.41-.6,2.95,1.42,3.64,6.23,8.36,6.16,5.5.4,5.5.4l-1.29-2.3s5.71-.34,7.73.13l-.91-2.06,2.58-.22.07-1.42,2.85-.37.07-2,2.35-.39Z" fill="#89e5e5"/>
      <path d="M935.6,71.58s.08,3-1.58,4.65l1.66,1.08-2.54,3.91,2.71.93a73.59,73.59,0,0,1-5.92,4.91l2.57.25s-5.52,5.41-12.32,3.12A12.21,12.21,0,0,0,930.42,92a4.82,4.82,0,0,1-2.55,2.84s5.63-.48,8.64-4.21a1.76,1.76,0,0,1,.6,2.17s3.32-3.29,3.78-5.83c0,0,1.27.59,1.23,1.39,0,0,2.13-3.47,1.45-5.33l2.27.88s.08-4.68-1.42-5.65-2.18-.47-2.18-.47l.71-2.73-2.16.14-.26-2.42-1.24,1.91-1.16-2.76Z" fill="#fdf9f6" opacity="0.5"/>
      <path d="M938.24,49.26s-3.41-8.36,2-12.43c0,0,6.62-.85,2.3,5.79Z" fill="#89e5e5"/>
      <path d="M931.78,101.23s5.65,7,1.6,12.49c0,0-6.11,2.7-3.85-4.89Z" fill="#89e5e5"/>
      <path d="M913.34,95.81s-5.79.54-6.49,4.85c0,0,1.48,4,4-.41Z" fill="#89e5e5"/>
      <path d="M928.76,56.57s1.18-9-5.11-11.51c0,0-6.62.85-.76,6.18Z" fill="#89e5e5"/>
      <circle cx="942.72" cy="58.09" r="3.37" transform="translate(0.3 120.82) rotate(-7.33)" fill="#89e5e5"/>
      <circle cx="920.47" cy="103.46" r="2.23" fill="#89e5e5"/>
      <circle cx="951.16" cy="94.86" r="2.81" fill="#89e5e5"/>
    </g>
  </g>
</svg>
