<?xml version="1.0" standalone="no"?>
<!DOCTYPE svg PUBLIC "-//W3C//DTD SVG 20010904//EN"
 "http://www.w3.org/TR/2001/REC-SVG-20010904/DTD/svg10.dtd">
<svg version="1.0" xmlns="http://www.w3.org/2000/svg"
 width="200.000000pt" height="200.000000pt" viewBox="0 0 200.000000 200.000000"
 preserveAspectRatio="xMidYMid meet">
<metadata>
Created by potrace 1.11, written by Peter Selinger 2001-2013
</metadata>
<g transform="translate(0.000000,200.000000) scale(0.100000,-0.100000)"
fill="#000000" stroke="none">
<path d="M837 1604 c-190 -46 -357 -197 -435 -392 -24 -62 -27 -78 -27 -212 0
-134 3 -150 27 -212 60 -150 163 -267 297 -337 96 -50 180 -71 288 -71 110 0
172 14 271 61 145 70 259 197 320 357 23 60 26 81 26 202 0 121 -3 142 -26
202 -39 102 -86 173 -165 248 -79 76 -196 140 -291 159 -72 15 -214 12 -285
-5z m585 -356 c52 -80 75 -210 59 -319 -35 -220 -206 -389 -428 -421 -229 -33
-453 105 -534 328 -43 117 -25 317 36 411 l15 23 419 0 419 0 14 -22z"/>
<path d="M985 1106 c13 -67 -45 -124 -115 -114 -27 4 -30 2 -30 -21 0 -67 74
-131 151 -131 150 0 205 202 77 280 -18 11 -46 20 -61 20 -26 0 -28 -2 -22
-34z"/>
</g>
</svg>
