<!-- Generator: Adobe Illustrator 19.2.1, SVG Export Plug-In  -->
<svg version="1.1"
	 xmlns="http://www.w3.org/2000/svg" xmlns:xlink="http://www.w3.org/1999/xlink" xmlns:a="http://ns.adobe.com/AdobeSVGViewerExtensions/3.0/"
	 x="0px" y="0px" width="571.3px" height="554.1px" viewBox="0 0 571.3 554.1" style="enable-background:new 0 0 571.3 554.1;"
	 xml:space="preserve">
<style type="text/css">
	.st0{fill:#3C1368;}
	.st1{fill:#FFC313;}
	.st2{fill:url(#SVGID_1_);}
	.st3{clip-path:url(#SVGID_3_);fill:none;stroke:#FFFFFF;stroke-width:7;stroke-miterlimit:10;}
	.st4{fill:#FFFFFF;}
	.st5{fill:#000A33;}
	.st6{fill:url(#SVGID_4_);}
	.st7{opacity:0.5;fill:#FDF9F6;}
	.st8{fill:#69CAD1;}
	.st9{fill:#111111;}
	.st10{fill:#E86D7F;}
	.st11{opacity:0.75;}
	.st12{fill:#1299AC;stroke:#1299AC;stroke-width:3;stroke-miterlimit:10;}
	.st13{fill:#072C65;}
	.st14{fill:#A3E5EA;}
	.st15{fill:url(#SVGID_5_);}
	.st16{fill:url(#SVGID_6_);}
	.st17{fill:url(#SVGID_7_);}
	.st18{fill:#092444;}
	.st19{fill:url(#SVGID_8_);}
	.st20{clip-path:url(#SVGID_10_);fill:none;stroke:#FFFFFF;stroke-width:7;stroke-miterlimit:10;}
	.st21{fill:url(#SVGID_11_);}
	.st22{fill:url(#SVGID_12_);}
	.st23{fill:url(#SVGID_13_);}
	.st24{fill:url(#SVGID_14_);}
</style>
<defs>
</defs>
<g>
	<ellipse class="st0" cx="289.3" cy="546.2" rx="156.3" ry="8"/>
	<g>
		<path class="st1" d="M381.8,191.1c0,0-21.5-100.7-68.6-122.9s-66.9,7.4-78.7,24.2c-11.8,16.8-37.5,50.7-44.3,96.9l8.3,23.6
			l93.7-3.4l68.3-2.5l21.7-5.5L381.8,191.1z"/>

			<linearGradient id="SVGID_1_" gradientUnits="userSpaceOnUse" x1="321.119" y1="225.7823" x2="321.119" y2="290.9781" gradientTransform="matrix(0.9993 -3.605764e-002 3.605764e-002 0.9993 -45.7281 -31.3401)">
			<stop  offset="0" style="stop-color:#FFC313"/>
			<stop  offset="1" style="stop-color:#D19E04"/>
		</linearGradient>
		<path class="st2" d="M370.6,189.9c0,0-74.2-14.7-173.5-0.8c0,0-28.1,2.1-27.5,11.3s12.8,4.8,9.9,17.2s-3.9,30.9,13,29.7
			s62.2-14.4,100.5-15.5c68.7-2.1,84.7,14.6,92.5,12.3c4-1.2,1.9-10.7-0.5-12.9c-2.4-2.2,1.7-8,5.3-9.1c3.6-1.1,10.9-9.8,7.4-16.2
			c-3.6-6.5-7.5-11-11.7-11.8C381.8,193.1,370.6,189.9,370.6,189.9z"/>
		<g>
			<defs>
				<path id="SVGID_2_" d="M381.8,191.1c0,0-21.5-100.7-68.6-122.9s-66.9,7.4-78.7,24.2c-11.8,16.8-37.5,50.7-44.3,96.9l8.3,23.6
					l93.7-3.4l68.3-2.5l21.7-5.5L381.8,191.1z"/>
			</defs>
			<clipPath id="SVGID_3_">
				<use xlink:href="#SVGID_2_"  style="overflow:visible;"/>
			</clipPath>
			<path class="st3" d="M169.6,187.3c0,0,113.6-31.8,231.9,3.9"/>
			<path class="st3" d="M169.6,156.6c0,0,109.3-24.5,229.1,4.5"/>
			<path class="st3" d="M168.5,126.5c0,0,110.7-22.1,230.5,6.9"/>
			<path class="st3" d="M167.4,98.6c0,0,110.7-22.1,230.5,6.9"/>
		</g>
		<path class="st4" d="M201.3,208.2c0,0-5.3,19.8,0.8,22.4c6.1,2.6,29.5-6.3,40.2-6.7c10.8-0.4,5.6-18.3,3.5-21
			C243.7,200.2,201.3,208.2,201.3,208.2z"/>
		<g>
			<path class="st5" d="M215,220.2c0.4,2-1.1,3.7-3.1,4l-4.8,0.9l-2.1-11.5l4.5-0.8c2-0.4,3.9,0.6,4.2,2.6c0.2,1-0.1,1.8-0.6,2.4
				C214,218.3,214.8,219,215,220.2z M208,215.6l0.4,2l1.9-0.3c0.6-0.1,0.9-0.6,0.8-1.2c-0.1-0.6-0.6-0.9-1.2-0.8L208,215.6z
				 M212.3,220.5c-0.1-0.6-0.6-1-1.3-0.9l-2.2,0.4l0.4,2.2l2.2-0.4C212.1,221.7,212.4,221.1,212.3,220.5z"/>
			<path class="st5" d="M217,217.1c-0.6-3.4,1.6-6.5,4.9-7.1c3.3-0.6,6.5,1.5,7.1,4.9c0.6,3.4-1.6,6.5-4.9,7.1
				C220.8,222.6,217.6,220.5,217,217.1z M226.4,215.4c-0.4-2.1-2.1-3.2-4-2.8c-1.9,0.3-3.1,2-2.7,4c0.4,2.1,2.1,3.2,4,2.8
				C225.5,219.1,226.7,217.5,226.4,215.4z"/>
			<path class="st5" d="M231.6,214.7c-0.4-3.4,2-6.4,5.3-6.8c3.3-0.4,6.3,1.9,6.8,5.3c0.4,3.4-2,6.4-5.3,6.8S232,218.1,231.6,214.7z
				 M241,213.6c-0.2-2.1-1.9-3.3-3.8-3c-1.9,0.2-3.2,1.8-3,3.9s1.9,3.3,3.8,3C239.9,217.2,241.3,215.6,241,213.6z"/>
		</g>

			<linearGradient id="SVGID_4_" gradientUnits="userSpaceOnUse" x1="283.7169" y1="89.5569" x2="374.2188" y2="89.5569" gradientTransform="matrix(0.9993 -3.605764e-002 3.605764e-002 0.9993 -45.7281 -31.3401)">
			<stop  offset="0" style="stop-color:#FFC313"/>
			<stop  offset="1" style="stop-color:#D19E04"/>
		</linearGradient>
		<path class="st6" d="M321.2,71.2c0.7-0.5,2-5.5,2.2-6.8l2.9,3.3l0.7-13.8l4.6,2.6c0,0,2.6-30.7-16.7-36.2c0,0-1.4-3.4,1.1-3.3
			c0,0-3.4-3.9-7.6-4c0,0,0.4-4,3.1-4.1c0,0-10-2.9-13.1-1l1.2-3.5l-7,0.3l-0.1-3.2c0,0-9.4,0.8-12.5,4.2c0,0-0.9-3.5-0.2-5.5
			c0,0-4,3.4-4.2,6.9c0,0-4.8-2.3-4.8-6.5c0,0-4.4,2.6-4.7,7.9c0,0-4.5-0.3-5.6-3.3c0,0-3.4,3.4-3.1,10.1c0,0-4.5-0.1-8.6-2.9
			c0,0-0.6,4.7,0.3,7.2c0,0-6.1,4-6.2,7.9c0,0-2.9,9.8-1.8,12.5l1.9-2.1c0,0-2.8,14.8-1.5,19.2l2.6-0.8c0,0-2.1,10.8-0.2,13.9
			l1.4-2.3c0,0,6.2-0.7,6.9,4.5c0.7,5.2,7.1,16.7,18.8,18s13.5,2.7,13.5,2.7l-2.5-6.1c0,0,14.3,1,19.2,2.8l-1.6-5.4l6.5,0.3l0.6-3.5
			l7.2,0l0.8-5l6-0.2L321.2,71.2z"/>
		<path class="st7" d="M285.1,14.7c0,0-4,6.4-2.6,12l-5,0.2l0.4,11.7l-7-1.5c0,0,4.6,15,6.4,18.2l-5.9-2.8c0,0,4.9,18.7,22.5,22.6
			c0,0-14.4,1.3-24-9.8c0,0-1.3,4,1.8,9.4c0,0-11.5-8.3-13.2-20.2c0,0-4,0.4-4.1,3.9c0,0-2.9-11.3-0.6-17.4c0,0-3.5-0.4-4.4,1.4
			c0,0-0.1-10.2,3.7-13.3l-6-1c0,0,5.9-10.2,10.3-10.3c4.5-0.2,5.3,1.8,5.3,1.8l2-6.8l4.5,3.1l3.7-4.9l0.2,5.7l6.1-4.4L285.1,14.7z"
			/>
	</g>
	<g>
		<g>
			<path class="st8" d="M208.7,503.5c0.2,0.2,0.5,0.4,0.7,0.4C209.3,503.9,209.1,503.7,208.7,503.5z"/>
			<path class="st8" d="M425.4,427.9c3.8,3.4,12.1,4.1,12.1,4.1c-17-17.2-10.9-39.8-10.9-39.8c8.2,14.4,11.6,23.3,11.6,23.3
				c-2.1-17-13.1-44.2-13.1-44.2c6.7,6.7,11.7,15.3,11.7,15.3c-2.7-14.8-11.4-27.1-11.4-27.1c5.3-2,11.8-2.3,11.8-2.3
				c-12.9-4.4-22.8-27.5-22.8-27.5c4.9,4,22.5,7.4,22.5,7.4c-15.9-7.1-37.4-35.2-37.4-35.2c10.6,5.6,26.9,9.7,26.9,9.7
				c-12.6-5-41.8-33.5-41.8-33.5c9.9-0.3,29.5,10.2,29.5,10.2c-16-17.4-42.8-29.8-46.8-31.6c28.7,0.9,33-10.8,33-10.8
				c-26.3,3.4-36.3-3.9-52.8-7.1c4.8-4.6,8.2-11.9,10.8-18.4c3.2-8.1,1.2-21.9-7.2-30c-6.7-6.5-26.3-11.6-35.4,1.3
				c-4.7,6.6-1.1,17,6.8,18.4c4.2,0.8,9.3-2.7,7.7-7.4c-0.4-1.2-1.2-2.3-2.1-3.1c0.4,0.8,0.6,1.7,0.5,2.5c0,0.3-0.1,0.6-0.2,0.9
				c-0.2,0.3-0.4,0.6-0.7,0.8c-1,0.8-2.5,1-3.7,0.5c-1.1-0.5-2.3-1.7-2.2-2.9c0-1.1,0.3-2.3,0.8-3.3c1.1-2,3.4-2.5,5.5-2.2
				c3.7,0.4,5.7,4.7,5.2,8.2c-1.8,12-14.8,15-20.9,17.6c-0.6,0.2-1.1,0.5-1.7,0.7c1.6-4.9,2.2-10.5,2.2-10.5
				c-7.5,17.4-20.8,18-19.2,16.4c7.2-7.2,5.2-18.1,5.2-18.1c-10.6,19.8-29.3,17.6-29.3,17.6c13.3-13.9,11.7-21.7,11.7-21.7
				c-20.3,24.3-40.1,28.7-40.1,28.7c-12,2.7-28,7.8-28,7.8c-31,20.2-58.1-5.2-58.1-5.2c7.2,24.4,24.7,28.6,24.7,28.6
				s-12.1,3.5-25.3,23.9C144,305.9,137,318.4,137,318.4c3.1-0.2,8.9-4.5,8.9-4.5c-5,20.3-19.1,25.2-19.1,25.2
				c2.1,3.3,18-2.1,20.7-3.1c-2.4,0.9-14,6.4-18.1,29.9c-4.3,24.6-2.8,19-2.8,19c1.1-5.3,5.1-11.6,5.1-11.6s0,0-0.5,19.9
				c-0.5,19.9-5.3,30-5.3,30c5.2-5,9.3-17.3,9.3-17.3c-7.2,44,7,56.2,7,56.2c-2.1-8.7-0.5-12.8-0.5-12.8c2.3,13.6,15.3,25,15.3,25
				c-5.2-4.7-8-16.4-8-16.4c17.7,25.3,40.5,38.1,40.5,38.1c-3.5-3.8-8.3-17.4-8.3-17.4c4.6,8.8,23.8,22.2,27.4,24.7
				c-2.5-2.1-6.6-9-6.6-9c11.8,10.7,44.2,22.1,44.2,22.1c-3-2.9-7-7.8-7-7.8c4.1,4.9,34.8,10.4,31.4,9.7c-3.3-0.7-14-7.2-14-7.2
				c8,3.8,28,5.6,28,5.6s40.1-0.2,64-9.3C372.6,498.5,386,475,386,475c-3.5,17.5-17.4,32.9-17.4,32.9c18.9-12.7,38.8-46.1,38.8-46.1
				c-1.9,13.2-4.8,21.9-4.8,21.9c10.2-11.7,12.2-33.7,12.2-33.7c5.2,3.9,6.1,6.3,6.1,6.3c0.2-4.6-3.5-14-5-17.6
				c2.9,4.6,15.7,11.5,15.7,11.5C423.5,443.4,421.6,424.4,425.4,427.9z"/>
		</g>
	</g>
	<ellipse class="st0" cx="522" cy="546.2" rx="33.7" ry="5.2"/>
	<g>
		<path class="st8" d="M324.9,296.5c-7.8-12.1-21.3-20.1-36.7-20.1c-15.4,0-28.9,8-36.7,20.1H324.9z"/>
	</g>
	<path class="st9" d="M353.2,408.9c-0.5-0.5-1.5-0.9-2.9-1.1c-9.4-1.6-36.9,3.7-60.9,3.7c-21.7,0-44.9-4.1-55.8-3.7
		c-2.9,0.1-5,0.5-5.9,1.4c-5.3,5.3-1.8,37.2,23.2,54.1c9.3,6.3,21.6,10.5,37.5,10.5c17.4,0,30.8-4,41-10.1
		C356.9,447.2,360.5,416.1,353.2,408.9z"/>
	<g>
		<g>
			<path class="st10" d="M292.8,453c21.9,0,36.8,10.6,36.8,10.6c-10.1,6.1-23.6,10.1-41,10.1c-15.9,0-28.2-4.2-37.5-10.5
				C251.1,463.2,270.9,453,292.8,453z"/>
		</g>
		<g>
			<path class="st4" d="M350.4,407.7c0,0-3.8,19-9.8,25c-3.6,3.6-22.8,5.5-48.5,5.5s-43.4-3-50.3-5.3c-6.8-2.3-8-25.1-8-25.1
				c10.9-0.4,34.1,3.7,55.8,3.7C313.5,411.4,341,406.1,350.4,407.7z"/>
		</g>
	</g>
	<g class="st11">
		<path class="st4" d="M290.7,461.1c-2.8-0.4-6.4-0.1-9.2,0.5c-2.5,0.5-6.8,1.9-8.5,4.1c-1.1,1.4-0.8,3.4,1.1,4
			c2.5,0.8,6.2-1,8.7-1.3c2.9-0.4,6,0.5,8.9-0.3C295.8,467,294.5,461.6,290.7,461.1z"/>
	</g>
	<g>
		<g>
			<path class="st12" d="M288.6,475.4c-14.9,0-27.9-3.6-38.5-10.8c-17.2-11.6-24.6-29.9-25.9-43.2c-0.6-6.4,0.3-11.3,2.4-13.5
				c1.2-1.2,3.4-1.8,7-1.9c5.1-0.2,12.6,0.6,21.4,1.4c10.6,1,22.7,2.2,34.5,2.2c11.8,0,24.3-1.3,35.3-2.4
				c11.7-1.2,20.9-2.1,25.8-1.3c1.8,0.3,3,0.8,3.8,1.6c3.1,3.1,4.4,9.5,3.4,17.1c-0.7,6.1-4.9,26.9-27.4,40.4
				C319,472,304.9,475.4,288.6,475.4z M235.3,409.4c-0.5,0-1,0-1.5,0l0,0c-3.7,0.1-4.6,0.8-4.7,0.9c-1.1,1.1-2,4.9-1.5,10.7
				c1.1,11.9,8.2,29.8,24.4,40.7c10,6.8,22.3,10.2,36.6,10.2c15.7,0,29.1-3.3,40.1-9.9c16.8-10.1,24.4-26.2,25.8-37.8
				c0.8-6.4-0.2-12-2.5-14.2c-0.1-0.1-0.5-0.4-1.9-0.7c-4.5-0.8-14,0.2-24.9,1.3c-11.1,1.1-23.7,2.4-35.7,2.4
				c-11.9,0-24.1-1.2-34.8-2.3C247,410.1,240.1,409.4,235.3,409.4z"/>
		</g>
	</g>
	<ellipse class="st0" cx="50.8" cy="546.2" rx="33.7" ry="5.2"/>
	<g>
		<g>
			<path class="st13" d="M549.5,245.8H518v-43.6h31.5c12,0,21.8,9.8,21.8,21.8C571.3,236,561.6,245.8,549.5,245.8z M525.9,237.9
				h23.6c7.7,0,13.9-6.2,13.9-13.9c0-7.7-6.2-13.9-13.9-13.9h-23.6V237.9z"/>
		</g>
		<path class="st14" d="M522,194.2c-2.9,0-5.3,2.4-5.3,5.3v328.8l5.3,17.7l5.3-17.7V199.5C527.3,196.6,524.9,194.2,522,194.2z"/>
		<g>
			<path class="st13" d="M544.5,502.3h-44.9c-2.2,0-4-1.8-4-4c0-2.2,1.8-4,4-4h44.9c2.2,0,4,1.8,4,4
				C548.4,500.6,546.6,502.3,544.5,502.3z"/>
		</g>
		<circle class="st13" cx="522" cy="497.7" r="8.9"/>
		<linearGradient id="SVGID_5_" gradientUnits="userSpaceOnUse" x1="508.767" y1="237.8599" x2="534.5392" y2="237.8599">
			<stop  offset="0.2979" style="stop-color:#FFC313"/>
			<stop  offset="1" style="stop-color:#D19E04"/>
		</linearGradient>
		<path class="st15" d="M527.4,194.2H522h-6.1c-4,0-7.2,3.2-7.2,7.2v73.7c0,3.5,2.8,6.3,6.3,6.3h6.9h6.2c3.5,0,6.3-2.8,6.3-6.3
			v-73.7C534.5,197.5,531.3,194.2,527.4,194.2z"/>
	</g>
	<g>
		<g>
			<path class="st13" d="M0,224c0-12,9.8-21.8,21.8-21.8h31.5v43.6H21.8C9.8,245.8,0,236,0,224z M45.4,210.1H21.8
				c-7.7,0-13.9,6.2-13.9,13.9c0,7.7,6.2,13.9,13.9,13.9h23.6V210.1z"/>
		</g>
		<path class="st14" d="M49.4,194.2c2.9,0,5.3,2.4,5.3,5.3v328.8l-5.3,17.7l-5.3-17.7V199.5C44.1,196.6,46.4,194.2,49.4,194.2z"/>
		<g>
			<path class="st13" d="M26.9,502.3h44.9c2.2,0,4-1.8,4-4c0-2.2-1.8-4-4-4H26.9c-2.2,0-4,1.8-4,4C22.9,500.6,24.7,502.3,26.9,502.3
				z"/>
		</g>
		<circle class="st13" cx="49.4" cy="497.7" r="8.9"/>

			<linearGradient id="SVGID_6_" gradientUnits="userSpaceOnUse" x1="-12165.5703" y1="237.8599" x2="-12139.7988" y2="237.8599" gradientTransform="matrix(-1 0 0 1 -12102.9932 0)">
			<stop  offset="0.2979" style="stop-color:#FFC313"/>
			<stop  offset="1" style="stop-color:#D19E04"/>
		</linearGradient>
		<path class="st16" d="M44,194.2h5.4h6.1c4,0,7.2,3.2,7.2,7.2v73.7c0,3.5-2.8,6.3-6.3,6.3h-6.9h-6.2c-3.5,0-6.3-2.8-6.3-6.3v-73.7
			C36.8,197.5,40,194.2,44,194.2z"/>
	</g>
	<g>
		<g>
			<path class="st8" d="M421.9,334.2c0,0,26.4,36.3,56.3,23.2c21.5-9.5,25.9-26.5,30.8-33.8c4.9-7.3,12.8-12.9,17.5,1.3
				s-20.5,56.6-58.3,60.6c-46.3,4.8-53.3-14-53.3-14L421.9,334.2z"/>
			<path class="st8" d="M509.4,339.6c-4-0.2-5.3-4.5-7.2-7.9c-1.9-3.3-7.4-8.6-9.4-11.9c-4.6-7.8,0-12.6,4-13.5
				c4.9-1,13.4,3.4,15.5,13.8l1.6,8.3C515.4,335,513.1,339.8,509.4,339.6z"/>
			<path class="st8" d="M540.7,319.9L540.7,319.9c0,5-5.8,6.7-9,7.1l-12.5,2.1c-7.5,0.7-11.1-4-11.1-9l0,0c0-5,3.6-9.8,11-9.1
				l12.5,2C536.6,312.9,540.7,316.3,540.7,319.9z"/>
			<path class="st8" d="M540.6,333.5L540.6,333.5c0.6,4.9-5,7.3-8.2,8l-12.2,3.5c-7.4,1.5-11.5-2.7-12.1-7.7l0,0
				c-0.6-4.9,2.5-10.2,9.9-10.3l12.7,0.5C535.7,327,540.2,329.9,540.6,333.5z"/>
			<path class="st8" d="M540.6,346.6L540.6,346.6c0.6,4.9-5,7.3-8.2,8l-12.2,3.5c-7.4,1.5-11.5-2.7-12.1-7.7l0,0
				c-0.6-4.9,2.5-10.2,9.9-10.3l12.7,0.5C535.7,340.2,540.2,343.1,540.6,346.6z"/>
		</g>
	</g>
	<g>
		<g>
			<path class="st8" d="M150.9,334.2c0,0-26.4,36.3-56.3,23.2c-21.5-9.5-25.9-26.5-30.8-33.8c-4.9-7.3-12.8-12.9-17.5,1.3
				s20.5,56.6,58.3,60.6c46.3,4.8,53.3-14,53.3-14L150.9,334.2z"/>
			<path class="st8" d="M63.4,339.6c4-0.2,5.3-4.5,7.2-7.9c1.9-3.3,7.4-8.6,9.4-11.9c4.6-7.8,0-12.6-4-13.5
				c-4.9-1-13.4,3.4-15.5,13.8l-1.6,8.3C57.5,335,59.7,339.8,63.4,339.6z"/>
			<path class="st8" d="M32.1,319.9L32.1,319.9c0,5,5.8,6.7,9,7.1l12.5,2.1c7.5,0.7,11.1-4,11.1-9l0,0c0-5-3.6-9.8-11-9.1l-12.5,2
				C36.2,312.9,32.1,316.3,32.1,319.9z"/>
			<path class="st8" d="M32.2,333.5L32.2,333.5c-0.6,4.9,5,7.3,8.2,8l12.2,3.5c7.4,1.5,11.5-2.7,12.1-7.7l0,0
				c0.6-4.9-2.5-10.2-9.9-10.3L42,327.6C37.1,327,32.6,329.9,32.2,333.5z"/>
			<path class="st8" d="M32.2,346.6L32.2,346.6c-0.6,4.9,5,7.3,8.2,8l12.2,3.5c7.4,1.5,11.5-2.7,12.1-7.7l0,0
				c0.6-4.9-2.5-10.2-9.9-10.3L42,340.8C37.1,340.2,32.6,343.1,32.2,346.6z"/>
		</g>
	</g>
	<g>
		<linearGradient id="SVGID_7_" gradientUnits="userSpaceOnUse" x1="143.4297" y1="327.0795" x2="427.2908" y2="327.0795">
			<stop  offset="0" style="stop-color:#FFC313"/>
			<stop  offset="1" style="stop-color:#D19E04"/>
		</linearGradient>
		<path class="st17" d="M170.1,344.3c-6.7,0-13,0-19.2,0c-6,0-7.4-1.4-7.4-7.4c0-11,0-22.1,0-33.1c0-5.1,1.5-6.6,6.5-6.6
			c6.5,0,13.1,0,19.8,0c0.1-1.1,0.5-1.9,0.3-2.6c-1.3-6.1,1.9-8.6,7.2-10.6c17.3-6.6,35.2-10.3,53.4-12.7c29-3.8,58.2-4.4,87.3-2.3
			c26.7,2,53.2,5.6,78.2,16.3c3.4,1.5,5,3.2,4.5,6.9c-0.2,1.5,0,3.1,0,5.1c7,0,13.5,0,20,0c5,0,6.6,1.6,6.6,6.5
			c0,11.4,0,22.9,0,34.3c0,4.4-1.7,6.2-6.1,6.3c-6.7,0.1-13.3,0-19.9,0c-0.3,0.8-0.6,1.2-0.5,1.5c1.4,6.9-2.5,11.2-7.1,15.5
			c-13.4,12.3-28.4,21.6-46.7,24.4c-21.5,3.3-38.8-5.6-48.8-25c-2.2-4.3-4.8-8.5-7.7-12.3c-3.5-4.5-6.3-4.4-9.9-0.1
			c-2.7,3.2-5.1,6.7-6.9,10.5c-11.9,24.8-34.4,32.7-60,24.6c-16.5-5.3-30.3-14.9-41.7-27.9c-1-1.1-1.4-3-1.7-4.5
			C169.9,348.9,170.1,346.8,170.1,344.3z M276.7,277.5c-10.1,0.8-29.3,2-48.3,4.1c-15.5,1.7-30.7,5.2-45.4,10.9
			c-2.2,0.8-3.3,1.8-3.3,4.5c0.1,16.7,0,33.4,0.1,50.1c0,1.4,0.5,3.2,1.5,4.2c10.4,10.9,22.6,19.2,37.3,23.3
			c21.3,5.9,36.2-0.9,46.3-20.5c2.3-4.5,5.2-8.9,8.5-12.7c2.1-2.4,5.4-4.3,8.5-5.3c7.2-2.4,12.6,1.4,16.6,6.7
			c3.7,4.9,6.6,10.4,9.7,15.7c7.9,13.3,19.4,19.6,34.9,17.8c18.8-2.2,33.6-12,46.4-25.2c0.9-0.9,1.3-2.6,1.3-3.9
			c0.1-16.7,0-33.4,0.1-50.1c0-2.6-0.9-3.8-3.2-4.6c-4-1.3-7.9-2.9-11.9-4C346.4,280.1,316.1,278.1,276.7,277.5z M152.9,320.7
			c0-5.1,0.1-10.2-0.1-15.3c-0.1-1.2-1.4-2.3-2.1-3.4c-0.8,1.1-2.2,2.1-2.2,3.2c-0.2,10.3-0.2,20.7,0,31c0,1.1,1.3,2.2,2.1,3.2
			c0.8-1.1,2.2-2.2,2.2-3.3C153,330.9,152.9,325.8,152.9,320.7z M417.8,320.3C417.8,320.3,417.8,320.3,417.8,320.3
			c0,5.2-0.1,10.5,0.1,15.7c0.1,1.2,1.4,2.3,2.2,3.4c0.7-1.1,2-2.1,2-3.2c0.2-10.3,0.2-20.7,0-31c0-1.1-1.3-2.2-2-3.2
			c-0.8,1.1-2.1,2.2-2.2,3.4C417.7,310.3,417.8,315.3,417.8,320.3z"/>
		<path class="st4" d="M276.7,277.5c39.4,0.6,69.7,2.5,99.1,10.9c4,1.2,7.9,2.7,11.9,4c2.3,0.7,3.2,2,3.2,4.6
			c-0.1,16.7,0,33.4-0.1,50.1c0,1.3-0.4,3-1.3,3.9c-12.8,13.2-27.6,23-46.4,25.2c-15.5,1.8-27-4.6-34.9-17.8
			c-3.2-5.3-6.1-10.8-9.7-15.7c-4-5.4-9.5-9.1-16.6-6.7c-3.1,1-6.3,2.9-8.5,5.3c-3.3,3.8-6.2,8.2-8.5,12.7
			c-10.1,19.6-25,26.4-46.3,20.5c-14.7-4.1-26.8-12.4-37.3-23.3c-0.9-1-1.5-2.8-1.5-4.2c-0.1-16.7,0-33.4-0.1-50.1
			c0-2.7,1.1-3.7,3.3-4.5c14.7-5.6,29.9-9.1,45.4-10.9C247.4,279.5,266.6,278.4,276.7,277.5z M276.9,285.1
			c-9.1,0.7-27.1,1.3-44.9,3.7c-14,1.9-27.6,5.9-41.4,8.9c-2.4,0.5-3,1.8-3,4.1c0.1,14.2,0,28.4,0.1,42.6c0,1.4,0.7,3.1,1.6,4.1
			c9.5,9.1,20.4,16,33.4,19.2c14.1,3.5,25.1-0.5,32.3-11.8c1.4-2.2,2.5-4.6,3.8-6.9c3.5-6.2,7.5-11.9,13.1-16.5
			c9.7-7.9,22-6.1,29.6,2.4c4.8,5.3,8.7,11.4,12.2,17.7c7,12.8,17.4,18.2,31.6,15.6c13.8-2.5,25.2-9.5,35.2-18.9
			c1.5-1.4,2.6-4,2.6-6c0.2-11.7,0.1-23.4,0.1-35.1c0-9.9,0-9.9-9.7-12.6C344.8,287.6,315.4,285.6,276.9,285.1z"/>
		<path class="st4" d="M152.9,320.7c0,5.1,0.1,10.2-0.1,15.3c-0.1,1.1-1.5,2.2-2.2,3.3c-0.7-1.1-2.1-2.1-2.1-3.2
			c-0.2-10.3-0.2-20.7,0-31c0-1.1,1.4-2.1,2.2-3.2c0.7,1.1,2.1,2.3,2.1,3.4C153,310.5,152.9,315.6,152.9,320.7z"/>
		<path class="st4" d="M417.8,320.3c0-5-0.1-10,0.1-14.9c0.1-1.2,1.4-2.3,2.2-3.4c0.7,1.1,2,2.1,2,3.2c0.2,10.3,0.2,20.7,0,31
			c0,1.1-1.3,2.1-2,3.2c-0.8-1.1-2.1-2.2-2.2-3.4C417.6,330.7,417.8,325.5,417.8,320.3C417.8,320.3,417.8,320.3,417.8,320.3z"/>
		<path class="st18" d="M276.9,285.1c38.5,0.5,67.9,2.5,96.6,10.5c9.7,2.7,9.7,2.7,9.7,12.6c0,11.7,0.2,23.4-0.1,35.1
			c0,2.1-1.1,4.6-2.6,6c-10,9.4-21.4,16.4-35.2,18.9c-14.2,2.6-24.6-2.9-31.6-15.6c-3.4-6.3-7.4-12.4-12.2-17.7
			c-7.7-8.5-19.9-10.2-29.6-2.4c-5.7,4.6-9.7,10.3-13.1,16.5c-1.3,2.3-2.3,4.7-3.8,6.9c-7.2,11.2-18.2,15.2-32.3,11.8
			c-13-3.2-23.9-10.1-33.4-19.2c-1-0.9-1.6-2.7-1.6-4.1c-0.1-14.2,0-28.4-0.1-42.6c0-2.4,0.6-3.6,3-4.1c13.8-3,27.5-7.1,41.4-8.9
			C249.7,286.5,267.7,285.8,276.9,285.1z M266.9,289.4c-4.6,0.2-8.5,0.6-12.4,0.6c-2.7,0-3.9,1-4.5,3.6c-3,12.9-6.1,25.7-9.2,38.6
			c-2.6,10.8-5.4,21.6-8.1,32.4c8.1,1.2,17-4.7,18.9-12.2c3.1-12.4,6.3-24.9,9.3-37.3C262.9,306.8,264.8,298.4,266.9,289.4z
			 M319.2,354.1c5.2-21,10.2-41.4,15.3-62.1c-2.3-0.3-4.2-0.5-6.2-0.8c-0.4,1-0.8,1.8-1,2.6c-3.8,15.4-7.3,30.8-11.5,46.1
			C314.2,345.3,315.6,349.4,319.2,354.1z M289.1,324c2.3,0.5,4,0.9,6.3,1.5c3-12,5.9-23.8,9.3-37.1c-3.1,1-6.8,1.3-7.2,2.6
			C294.3,301.8,291.8,312.7,289.1,324z"/>
		<path class="st4" d="M266.9,289.4c-2.1,9-4,17.4-6.1,25.7c-3.1,12.4-6.2,24.9-9.3,37.3c-1.9,7.5-10.8,13.4-18.9,12.2
			c2.7-10.8,5.5-21.6,8.1-32.4c3.1-12.8,6.3-25.7,9.2-38.6c0.6-2.7,1.8-3.7,4.5-3.6C258.4,290,262.3,289.7,266.9,289.4z"/>
		<path class="st4" d="M319.2,354.1c-3.6-4.7-5-8.7-3.5-14.2c4.2-15.3,7.7-30.7,11.5-46.1c0.2-0.9,0.6-1.7,1-2.6
			c2.1,0.3,4,0.5,6.2,0.8C329.4,312.7,324.4,333.1,319.2,354.1z"/>
		<path class="st4" d="M289.1,324c2.8-11.3,5.3-22.3,8.4-33c0.4-1.3,4.1-1.5,7.2-2.6c-3.3,13.3-6.3,25.1-9.3,37.1
			C293.1,325,291.3,324.6,289.1,324z"/>
	</g>
</g>
</svg>
